<svg width="60" height="60" viewBox="0 0 60 60" fill="none" xmlns="http://www.w3.org/2000/svg">
<g clip-path="url(#clip0_108_232)">
<rect width="60" height="60" rx="30" fill="url(#paint0_linear_108_232)"/>
<rect width="60" height="60" rx="13" fill="url(#paint1_linear_108_232)"/>
<path fill-rule="evenodd" clip-rule="evenodd" d="M43.8633 21.5107C44.539 22.018 45.0791 22.7205 45.4261 23.5436C45.7814 24.3805 45.9718 25.367 45.9974 26.5033C46.0543 28.8841 45.1846 30.8651 43.3838 32.4475C41.6097 34.0065 38.7474 34.9288 36.5168 34.9288C36.3745 34.9288 36.2436 34.9292 36.118 34.9297C35.8811 34.9305 35.663 34.9312 35.4227 34.9288C33.1614 34.9061 31.1705 33.8119 29.7205 33.0151C29.3374 32.8045 28.992 32.6147 28.6894 32.4708C28.6885 32.469 28.6876 32.467 28.6867 32.465C27.5575 31.7592 26.1059 30.8885 25.2069 30.8885C24.6356 30.8723 24.07 31.0184 23.5629 31.313C23.0984 31.596 22.8662 31.9491 22.8662 32.397C22.8662 33.0344 23.2877 33.529 24.1318 33.8587L29.2149 35.4359C30.078 35.6898 30.9235 36.013 31.7449 36.403C32.4592 36.754 33.138 37.1891 33.7698 37.7011C34.4349 38.227 34.9597 38.9449 35.2885 39.7782C35.6259 40.6263 35.792 41.6163 35.7866 42.7483C35.7866 45.1304 34.8751 47.0879 33.0441 48.6197C30.5955 50.6683 28.7021 51.0485 25.6818 50.9953C22.8917 50.9462 20.846 50.1866 18.9012 48.7379C16.8774 47.232 15.5689 45.4367 15 43.3376L21.1595 41.3139C21.5368 42.378 22.2 43.2851 23.0578 43.9101C23.9414 44.5709 25.0188 44.9006 26.2635 44.9006C27.0855 44.9006 27.7601 44.7124 28.2663 44.358C28.7726 44.0049 29.0257 43.5808 29.0257 43.0858C29.0257 42.2836 28.3302 41.6475 26.959 41.1983L21.6854 39.4471C17.9739 38.1983 16.1181 35.9115 16.1181 32.5865C16.1181 30.4407 17.0249 28.6246 18.8176 27.1629C20.6072 25.7021 22.7582 24.9717 25.2708 24.9717C27.6324 24.9717 29.6991 25.5351 31.4929 26.667C31.8992 26.9236 32.6615 27.5048 33.1579 27.8832C33.2538 27.9564 33.3398 28.0219 33.4114 28.0761C33.4664 28.1042 33.5719 28.1672 33.7679 28.2961C34.6261 28.743 35.568 28.9519 36.5138 28.9049C37.3358 28.8828 38.0069 28.6764 38.505 28.309C39.0027 27.9386 39.2466 27.5059 39.2365 27.0109C39.2191 26.21 38.5097 25.592 37.1292 25.1818L31.8196 23.5812C28.0817 22.4328 26.1768 20.197 26.1048 16.8738C26.0572 14.728 26.9246 12.8885 28.6836 11.3736C30.4437 9.86344 32.5782 9.07374 35.0868 9.00451C37.4496 8.94609 39.5279 9.45496 41.3403 10.5402C41.8811 10.8625 42.396 11.2097 42.9696 11.5966C43.1237 11.7006 43.2822 11.8075 43.4465 11.9175C43.518 11.9654 43.5417 12.0014 43.5417 12.0136C43.5417 12.0257 38.6653 16.4143 38.6653 16.4143C37.5228 15.7392 36.0505 14.9058 35.1507 14.9305C34.579 14.9304 34.0166 15.092 33.5159 15.4004C33.0585 15.6951 32.8332 16.056 32.8437 16.5038C32.8634 17.1412 33.2895 17.6241 34.1406 17.9318L39.2562 19.3727C40.126 19.602 40.9797 19.9017 41.8106 20.2697C42.5319 20.6017 43.22 21.0176 43.8633 21.5107Z" fill="#121212"/>
<path fill-rule="evenodd" clip-rule="evenodd" d="M36.2475 12.2239C35.4922 12.0845 34.7972 12.0835 34.1723 12.1708C33.9943 12.1957 33.8299 12.0714 33.8051 11.8932C33.7802 11.7149 33.9044 11.5503 34.0824 11.5254C34.7743 11.4287 35.5396 11.4306 36.3655 11.583C36.5422 11.6156 36.6591 11.7855 36.6265 11.9625C36.594 12.1395 36.4243 12.2565 36.2475 12.2239ZM32.3414 12.3614C32.4248 12.5208 32.3635 12.7177 32.2043 12.8013C31.8654 12.9793 31.5757 13.174 31.3401 13.3627C30.9873 13.6452 30.6425 14.0141 30.3536 14.4449C30.2534 14.5943 30.0512 14.6341 29.902 14.5338C29.7528 14.4335 29.713 14.2311 29.8132 14.0817C30.1387 13.5962 30.5286 13.1782 30.9335 12.8538C31.2012 12.6394 31.5258 12.4218 31.902 12.2242C32.0612 12.1406 32.2579 12.202 32.3414 12.3614ZM38.0845 12.4475C38.1614 12.2849 38.3555 12.2154 38.5179 12.2925C38.8433 12.4467 39.1745 12.625 39.5111 12.8297C39.6647 12.9231 39.7137 13.1235 39.6204 13.2773C39.5271 13.4311 39.327 13.4801 39.1733 13.3867C38.8552 13.1933 38.5437 13.0257 38.2394 12.8814C38.0769 12.8044 38.0076 12.6101 38.0845 12.4475ZM29.2569 16.9118C29.4355 16.8915 29.5967 17.02 29.617 17.1988C29.6677 17.6447 29.8052 18.1043 30.0554 18.5667C30.2892 18.999 30.5849 19.3485 30.9327 19.6384C31.0708 19.7535 31.0896 19.959 30.9746 20.0973C30.8596 20.2356 30.6544 20.2544 30.5162 20.1392C30.1078 19.7987 29.758 19.3854 29.4831 18.8771C29.1935 18.3418 29.0305 17.8019 28.9703 17.2724C28.95 17.0936 29.0783 16.9322 29.2569 16.9118ZM33.1444 21.057C33.1898 20.8829 33.3675 20.7786 33.5414 20.824C34.1589 20.9854 34.8101 21.116 35.4919 21.2528C35.8181 21.3182 36.1512 21.385 36.4911 21.4573C36.6669 21.4947 36.7791 21.6677 36.7418 21.8437C36.7044 22.0198 36.5316 22.1322 36.3558 22.0948C36.0334 22.0262 35.7094 21.9612 35.3876 21.8966C34.6951 21.7577 34.0127 21.6207 33.377 21.4546C33.2031 21.4091 33.0989 21.2311 33.1444 21.057ZM39.0349 22.4799C39.0998 22.3121 39.2883 22.2287 39.4559 22.2937C39.9346 22.4792 40.4082 22.6966 40.8698 22.9566C41.2197 23.1536 41.5254 23.3898 41.7868 23.6573C41.9125 23.7859 41.9103 23.9922 41.7818 24.1181C41.6533 24.2439 41.4473 24.2417 41.3216 24.113C41.104 23.8904 40.8477 23.6918 40.5507 23.5246C40.1198 23.2818 39.6748 23.0773 39.2209 22.9014C39.0533 22.8364 38.97 22.6477 39.0349 22.4799ZM42.4609 25.4303C42.637 25.3946 42.8087 25.5087 42.8443 25.6851C42.992 26.4167 42.9548 27.1949 42.7453 27.9478C42.697 28.1212 42.5176 28.2225 42.3444 28.1743C42.1713 28.126 42.07 27.9463 42.1183 27.7729C42.3023 27.1114 42.3321 26.4376 42.2063 25.8142C42.1707 25.6378 42.2847 25.4659 42.4609 25.4303ZM24.5035 27.4732C24.5219 27.6522 24.392 27.8123 24.2132 27.8308C23.3139 27.9238 22.4745 28.2253 21.7847 28.6845C21.635 28.7841 21.433 28.7434 21.3335 28.5936C21.234 28.4437 21.2746 28.2415 21.4243 28.1418C22.206 27.6214 23.147 27.2859 24.1463 27.1826C24.3251 27.1641 24.485 27.2942 24.5035 27.4732ZM26.5859 27.729C26.6467 27.5596 26.8331 27.4717 27.0022 27.5325C27.4443 27.6917 27.8803 27.9023 28.3021 28.1682C28.6272 28.3732 28.9478 28.5695 29.2638 28.7568C29.4185 28.8485 29.4696 29.0484 29.378 29.2032C29.2865 29.3581 29.0868 29.4093 28.9322 29.3176C28.6108 29.127 28.2851 28.9276 27.9553 28.7197C27.5736 28.479 27.1801 28.2891 26.7821 28.1458C26.6129 28.0849 26.5251 27.8983 26.5859 27.729ZM41.6622 29.4865C41.8019 29.5998 41.8234 29.805 41.7103 29.9448C41.4783 30.2317 41.2142 30.5014 40.9186 30.748C40.604 31.0105 40.2735 31.2352 39.9273 31.4228C39.7693 31.5085 39.5718 31.4496 39.4862 31.2913C39.4007 31.1331 39.4595 30.9353 39.6175 30.8497C39.9245 30.6833 40.2194 30.4831 40.502 30.2473C40.7647 30.0282 40.999 29.7888 41.2045 29.5347C41.3176 29.3949 41.5225 29.3733 41.6622 29.4865ZM30.7985 29.9837C30.8788 29.8227 31.0742 29.7573 31.235 29.8377C31.9454 30.1927 32.6281 30.4932 33.2831 30.7367C33.4516 30.7993 33.5375 30.9868 33.4749 31.1555C33.4124 31.3242 33.2251 31.4102 33.0566 31.3476C32.3765 31.0948 31.6722 30.7845 30.9443 30.4208C30.7835 30.3404 30.7182 30.1447 30.7985 29.9837ZM20.0026 30.2095C20.1711 30.272 20.2572 30.4594 20.1949 30.6282C20.0528 31.0126 19.9753 31.4273 19.9752 31.867C19.9752 32.298 20.0259 32.6915 20.1202 33.0524C20.1657 33.2265 20.0616 33.4046 19.8877 33.4501C19.7139 33.4957 19.536 33.3915 19.4905 33.2174C19.3811 32.7989 19.3243 32.3496 19.3244 31.8669C19.3244 31.3493 19.4159 30.8581 19.5844 30.4021C19.6468 30.2333 19.834 30.1471 20.0026 30.2095ZM35.0311 31.603C35.064 31.426 35.2339 31.3093 35.4106 31.3423C36.1853 31.4866 36.908 31.5272 37.5796 31.461C37.7585 31.4434 37.9178 31.5743 37.9354 31.7534C37.953 31.9325 37.8222 32.0919 37.6434 32.1096C36.9006 32.1828 36.1157 32.1365 35.2915 31.9829C35.1148 31.95 34.9982 31.7799 35.0311 31.603ZM20.8831 35.0686C21.0058 34.9371 21.2117 34.93 21.343 35.0529C21.8931 35.5673 22.5911 35.9979 23.4013 36.3708C23.5646 36.446 23.6361 36.6395 23.561 36.803C23.4859 36.9665 23.2927 37.0381 23.1294 36.9629C22.2787 36.5713 21.5153 36.1056 20.8988 35.5291C20.7674 35.4063 20.7604 35.2001 20.8831 35.0686ZM25.3537 37.4539C25.4053 37.2815 25.5867 37.1836 25.7588 37.2352C26.1565 37.3545 26.5647 37.4675 26.9803 37.5765C27.4125 37.6898 27.8163 37.8113 28.1933 37.9402C28.3634 37.9984 28.4542 38.1836 28.3961 38.3539C28.3379 38.5242 28.153 38.6151 27.9829 38.5569C27.6221 38.4335 27.2335 38.3165 26.8154 38.2069C26.3943 38.0964 25.9786 37.9814 25.5721 37.8595C25.3999 37.8079 25.3022 37.6263 25.3537 37.4539ZM30.0568 39.1141C30.1528 38.9619 30.3538 38.9165 30.5057 39.0127C31.3744 39.5623 31.9784 40.1803 32.3704 40.8378C32.4625 40.9923 32.4121 41.1924 32.2578 41.2846C32.1034 41.3768 31.9037 41.3263 31.8115 41.1718C31.4801 40.6159 30.9548 40.0676 30.1581 39.5636C30.0061 39.4674 29.9608 39.2662 30.0568 39.1141ZM32.646 43.0634C32.8251 43.0786 32.958 43.2363 32.9428 43.4156C32.9051 43.8604 32.809 44.2925 32.678 44.7008C32.5328 45.1529 32.3052 45.5754 32.0121 45.9608C31.9032 46.1039 31.6991 46.1316 31.5561 46.0226C31.4131 45.9136 31.3854 45.7091 31.4943 45.566C31.7469 45.2339 31.9378 44.8767 32.0583 44.5014C32.177 44.1316 32.2614 43.7482 32.2943 43.3605C32.3094 43.1812 32.4669 43.0482 32.646 43.0634ZM19.0552 43.9715C19.2033 43.8696 19.4059 43.9071 19.5077 44.0554C19.7581 44.4202 20.0223 44.7544 20.2977 45.0598C20.4181 45.1934 20.4076 45.3994 20.2742 45.52C20.1408 45.6406 19.935 45.6301 19.8146 45.4965C19.5196 45.1694 19.2377 44.8125 18.9714 44.4246C18.8695 44.2763 18.9071 44.0735 19.0552 43.9715ZM21.8075 46.7885C21.8994 46.6339 22.0991 46.583 22.2536 46.6749C23.012 47.1263 23.8064 47.4298 24.6022 47.6052C24.7777 47.6439 24.8887 47.8178 24.8501 47.9935C24.8114 48.1692 24.6378 48.2804 24.4623 48.2417C23.601 48.0519 22.7412 47.7233 21.921 47.2351C21.7665 47.1432 21.7157 46.9432 21.8075 46.7885ZM29.9861 47.2381C30.0634 47.4005 29.9946 47.595 29.8324 47.6724C29.0406 48.0504 28.1405 48.3029 27.1909 48.3996C27.0121 48.4178 26.8524 48.2874 26.8342 48.1084C26.816 47.9293 26.9462 47.7694 27.1251 47.7512C28.0035 47.6618 28.8307 47.4286 29.5523 47.0842C29.7145 47.0068 29.9088 47.0757 29.9861 47.2381Z" fill="#FFF9F5"/>
</g>
<defs>
<linearGradient id="paint0_linear_108_232" x1="50.5" y1="2.69711e-06" x2="8" y2="60" gradientUnits="userSpaceOnUse">
<stop stop-color="#F7A2B6"/>
<stop offset="1" stop-color="#C77E7B"/>
</linearGradient>
<linearGradient id="paint1_linear_108_232" x1="54" y1="2.5" x2="2" y2="58" gradientUnits="userSpaceOnUse">
<stop offset="0.0717019" stop-color="#FF6700"/>
<stop offset="0.350452" stop-color="#FF3186"/>
<stop offset="0.695477" stop-color="#49CEAE"/>
</linearGradient>
<clipPath id="clip0_108_232">
<rect width="60" height="60" rx="30" fill="white"/>
</clipPath>
</defs>
</svg>
