<svg width="27" height="27" viewBox="0 0 27 27" fill="none" xmlns="http://www.w3.org/2000/svg">
<path id="Vector" d="M26.391 23.6722C26.7521 24.0332 26.9549 24.5229 26.9549 25.0335C26.9549 25.5441 26.7521 26.0338 26.391 26.3949C26.03 26.7559 25.5403 26.9587 25.0297 26.9587C24.5191 26.9587 24.0294 26.7559 23.6684 26.3949L13.5001 16.2233L3.32853 26.3917C2.96748 26.7527 2.4778 26.9555 1.9672 26.9555C1.4566 26.9555 0.96692 26.7527 0.605873 26.3917C0.244826 26.0306 0.0419922 25.5409 0.0419922 25.0303C0.0419922 24.5197 0.244826 24.03 0.605873 23.669L10.7774 13.5007L0.609076 3.32915C0.248029 2.96811 0.0451954 2.47842 0.0451954 1.96783C0.0451954 1.45723 0.248029 0.967544 0.609076 0.606498C0.970122 0.245451 1.45981 0.0426169 1.9704 0.0426169C2.481 0.0426169 2.97069 0.245451 3.33173 0.606498L13.5001 10.778L23.6716 0.604896C24.0326 0.243849 24.5223 0.0410156 25.0329 0.0410156C25.5435 0.0410156 26.0332 0.243849 26.3942 0.604896C26.7553 0.965943 26.9581 1.45563 26.9581 1.96622C26.9581 2.47682 26.7553 2.96651 26.3942 3.32755L16.2227 13.5007L26.391 23.6722Z" fill="#FFF9F5"/>
</svg>
