<svg width="180" height="500" viewBox="0 0 180 500" fill="none" xmlns="http://www.w3.org/2000/svg">
<path d="M25.6494 440.219C25.556 440.639 25.2666 442.343 24.9538 444.019C23.9127 449.976 22.5494 453.875 20.3644 457.124C19.8602 457.866 19.4494 458.604 19.4494 458.8C19.4494 459.575 21.7883 467.787 22.2972 468.847C23.2776 470.78 25.3365 473.194 26.5037 473.74C29.4449 475.187 33.5254 473.838 36.6254 470.458C38.7123 468.137 39.3472 466.499 41.5928 457.544C42.4798 453.907 43.493 450.299 43.8384 449.528C44.1559 448.753 44.4407 447.852 44.4407 447.53C44.4407 446.853 41.8449 445.275 39.3145 444.374C38.3948 444.052 35.4209 442.829 32.6711 441.638C27.3255 439.318 25.8688 439.028 25.6494 440.219Z" fill="#EB9071"/>
<path d="M92.5327 443.566C92.2806 443.631 89.7502 443.888 86.9023 444.145C82.2523 444.532 81.65 444.658 80.9217 445.335L80.1328 446.105L80.3195 450.938C80.4782 455.541 80.8891 461.209 81.2999 464.817C81.3933 465.751 81.6781 466.75 81.9349 467.072C82.2851 467.586 82.4437 467.619 83.1066 467.264C83.7089 466.909 84.8481 466.909 88.5784 467.198C94.9371 467.647 97.2807 468.132 97.2807 468.968C97.2807 469.192 97.5001 469.547 97.7569 469.771C98.1351 470.093 98.2332 469.995 98.3919 469.225C98.518 468.744 98.6439 468.16 98.6766 468.001C98.742 467.805 98.6439 466.003 98.5179 463.977C97.6635 452.642 97.346 445.494 97.6962 444.948C98.3311 443.888 97.4768 443.37 95.1005 443.402C93.9613 443.435 92.7895 443.496 92.5374 443.561L92.5327 443.566Z" fill="#EB9071"/>
<path d="M80.4827 0.454651C76.3697 1.29034 72.4153 3.73671 68.8391 7.60236C63.713 13.1721 59.8239 24.3488 56.6586 42.6359C55.8696 47.2392 54.9826 51.8472 54.7258 52.907C54.4737 53.9387 54.2823 55.1619 54.3476 55.6428C54.441 56.4785 54.5063 56.4785 57.1301 56.5765C60.0387 56.7026 68.1388 55.9976 75.478 55.0312C78.0084 54.6764 81.93 54.1955 84.1803 53.9061C90.539 53.103 103.354 50.1058 110.502 47.7248C114.993 46.2448 119.139 44.1812 119.741 43.0888C120.152 42.3185 120.092 42.1551 118.509 39.7414C117.561 38.3548 114.018 31.6272 110.6 24.8017C107.215 17.9714 103.672 11.1785 102.752 9.73126C100.726 6.57525 96.8978 2.77496 94.6521 1.71051C91.076 0.0671401 85.0954 -0.479079 80.4781 0.454651H80.4827Z" fill="#C77343"/>
<path d="M82.3128 10.2633C80.352 10.7768 78.8347 11.7106 77.2847 13.3866C75.7347 15.0953 74.815 16.6406 74.815 17.5417C74.815 17.8312 74.4648 19.087 74.026 20.3429C72.5693 24.3673 72.476 29.937 73.7085 34.3488C74.7543 38.0184 76.8411 41.2398 79.7217 43.7515L80.6694 44.5872L80.45 50.6705C80.324 54.0506 80.1326 57.398 80.0392 58.1403C79.8478 59.3635 79.7544 59.5269 78.8347 59.653C78.2651 59.751 75.4826 60.2319 72.602 60.6847C67.4758 61.5204 65.8325 62.006 65.5477 62.809C65.487 63.0331 66.2434 64.9005 67.2238 66.9314C68.2369 68.9622 70.1323 73.0847 71.4956 76.1099C76.3043 86.8338 80.324 94.3037 85.5109 102.03C88.6109 106.699 89.6567 108.02 93.7977 112.656C95.4738 114.524 97.4346 116.811 98.1956 117.712C98.9239 118.646 99.7456 119.421 100.002 119.421C101.174 119.421 104.685 113.305 106.109 108.828C108.387 101.68 109.274 95.0133 109.526 83.3557C109.779 70.4749 108.99 60.7501 107.566 59.653C107.281 59.4289 104.783 59.2374 101.24 59.1394C98.0135 59.0414 95.2917 58.8826 95.1983 58.7846C94.9462 58.5278 93.9985 54.6295 92.7006 48.6723L91.5614 43.4574L92.92 41.7487C99.8809 33.023 97.2852 15.5062 88.3634 11.0943C86.4305 10.1606 84.0589 9.83843 82.3222 10.2586L82.3128 10.2633Z" fill="#F6AA87"/>
<path d="M84.1476 7.57866C79.4043 8.64311 72.4106 15.4033 70.954 20.3287C70.6365 21.4539 70.6365 21.65 71.1407 22.0048C71.8036 22.5183 75.9821 22.9059 79.2408 22.7471L81.6124 22.6491L82.5602 19.0449C83.0971 17.0794 83.6059 15.3706 83.6993 15.2773C83.7927 15.1792 84.1102 15.9215 84.4277 16.9206C85.156 19.2736 86.7714 22.6864 87.4016 23.2C87.7191 23.4894 89.932 23.7135 94.2038 23.9423C102.491 24.3625 102.239 24.5866 99.5495 18.9515C98.2843 16.2764 97.682 15.4733 94.9321 12.6395C90.4362 8.10154 87.6538 6.78032 84.1429 7.58333L84.1476 7.57866Z" fill="#C77343"/>
<path d="M106.45 482.358C105.847 478.012 103.985 470.733 102.972 468.735C102.883 468.562 102.804 468.403 102.733 468.254C102.131 467.031 101.959 466.461 102.159 465.551C102.253 465.135 102.416 464.664 102.649 464.034C103.378 462.073 103.471 459.267 102.836 457.722C102.299 456.433 101.034 455.373 99.5168 454.953C97.7427 454.5 92.9014 454.309 90.5624 454.664C87.4297 455.079 85.0907 456.274 82.7144 458.627C82.0934 459.239 81.3792 459.939 80.7629 460.546C80.3007 460.994 79.8898 461.396 79.605 461.676C79.5629 461.713 79.5256 461.746 79.4929 461.783C78.097 463.137 78.0037 463.912 78.76 468.642C79.4276 472.666 79.3623 474.244 78.4146 478.142C78.3585 478.376 78.3025 478.604 78.2558 478.829C77.9103 480.341 77.7003 481.695 77.6116 482.918C77.4668 484.973 77.6909 486.649 78.2932 488.026C80.4734 493.18 88.4475 495.916 96.9584 494.436C104.582 493.082 107.43 489.51 106.45 482.358Z" fill="white"/>
<path d="M57.541 489.86C57.2562 489.281 55.2299 486.77 53.017 484.323C51.7471 482.899 50.678 481.676 49.777 480.602C49.4362 480.196 49.1234 479.809 48.8339 479.44C48.0636 478.469 47.4567 477.633 46.9758 476.863C46.7657 476.527 46.5837 476.209 46.4249 475.901C45.9114 474.925 45.6172 474.043 45.4491 473.105C45.3884 472.768 45.3464 472.418 45.3184 472.054C45.281 471.634 45.2671 471.195 45.2624 470.733C45.2624 469.921 45.2811 469.337 45.3651 468.777C45.4352 468.319 45.5519 467.88 45.7433 467.348C45.9347 466.807 46.2101 466.172 46.5883 465.327C48.0449 462.04 48.2037 461.171 47.382 460.144C46.2429 458.725 41.7796 458.982 37.984 460.723C37.2556 461.041 35.136 462.493 33.2686 463.94C32.4142 464.584 31.6813 465.117 31.0371 465.527C30.6636 465.765 30.3227 465.962 30.0099 466.116C27.7596 467.231 26.8072 466.302 25.3926 463.137C25.0191 462.297 24.5616 461.092 24.2628 460.13C24.1835 459.878 24.118 459.64 24.0667 459.435C23.5531 457.558 22.7502 456.367 21.653 455.868C21.2609 455.69 20.8313 455.602 20.3645 455.602C19.2253 455.602 18.8752 455.798 17.8294 456.89C17.1665 457.6 16.0272 459.178 15.2989 460.434C13.8423 462.946 11.5361 469.542 11.5361 471.251C11.5361 472.96 12.6098 475.406 14.4772 477.918C15.425 479.174 16.7836 481.331 17.4512 482.652C20.9621 489.45 21.7511 490.701 23.4318 492.283C26.4991 495.145 31.4992 496.149 39.534 495.533C42.8861 495.271 45.0383 495.271 46.8404 495.5C48.2643 495.663 49.9077 495.762 50.4773 495.696C51.0795 495.598 52.8536 495.374 54.4036 495.183C55.9862 494.991 57.4382 494.669 57.6623 494.506C58.1992 494.025 58.1386 491.158 57.5363 489.87L57.541 489.86Z" fill="white"/>
<path d="M144.765 195.432C144.607 194.787 144.322 193.63 144.135 192.92C143.407 190.058 139.737 187.542 134.835 186.51C129.994 185.516 121.483 185.254 110.096 185.74C106.805 185.866 100.544 186.22 96.1788 186.482C91.8416 186.739 86.496 187.061 84.3158 187.159C73.2091 187.705 66.2527 188.508 58.372 190.217C51.4438 191.697 35.8505 195.689 35.0895 196.174C34.52 196.557 34.4545 196.851 34.5526 198.49C35.1548 207.281 37.2091 220.745 39.7395 232.725C39.8889 233.425 40.057 234.219 40.2344 235.069C40.4585 236.124 40.7013 237.272 40.9394 238.425C41.4156 240.708 41.8918 243.029 42.2373 244.798C43.5025 250.951 52.9938 289.818 56.3459 302.442C57.3263 306.144 58.3674 310.299 58.6522 311.621L59.1611 314.034L56.2805 319.828C53.5307 325.304 49.4176 335.286 46.3456 343.979C45.5846 346.108 44.1934 349.936 43.2457 352.513C36.7002 370.385 31.7328 387.229 27.0174 407.58C26.1631 411.38 24.9305 416.595 24.3283 419.172C23.3992 423.206 21.4197 433.44 20.2198 440.237C20.1405 440.699 20.0658 441.143 19.9911 441.568C19.9677 441.68 19.9491 441.792 19.9304 441.904C19.6737 443.543 19.5195 445.093 19.6456 445.382C19.8277 445.835 22.1386 446.867 25.8269 448.132L26.7326 448.435C27.2741 448.617 27.8485 448.804 28.4414 448.991C32.8673 450.406 45.1131 453.851 47.3588 454.271C48.2785 454.463 49.3522 454.687 49.7304 454.785C50.552 454.948 51.5652 453.982 52.2655 452.334C52.3496 452.133 52.5597 451.545 52.8585 450.686L53.2133 449.654C53.7969 447.969 54.5718 445.686 55.3655 443.319C56.7894 438.972 59.2872 431.885 60.9025 427.538C62.4852 423.192 64.8568 416.46 66.1221 412.566C67.4199 408.668 69.731 402.132 71.309 398.075C74.1195 390.787 76.1783 385.446 77.6583 381.622C80.0766 375.38 80.9543 373.186 81.0244 373.186C81.0524 373.214 80.973 373.788 80.7956 374.881C80.3567 377.649 79.283 383.751 77.6723 392.603C75.8375 402.622 74.4136 412.085 73.5266 420.134C73.1811 423.229 72.42 428.668 71.7851 432.212C70.8887 437.403 70.1137 442.427 69.7169 445.433C69.6609 445.858 69.6142 446.246 69.5721 446.582C69.4928 447.31 69.4415 447.828 69.4415 448.085C69.4415 449.822 69.8197 449.985 75.6135 450.886C77.3549 451.148 80.072 451.531 81.6266 451.727C85.0114 452.114 101.24 452.66 102.444 452.432C103.215 452.287 103.607 451.643 104.237 448.641C104.284 448.398 104.34 448.151 104.391 447.88C104.578 446.941 104.788 445.807 105.035 444.448C105.479 441.969 106.207 438.622 106.618 437.044C107.061 435.433 108.042 430.961 108.798 427.062C111.137 415.405 112.626 408.29 115.442 395.278C118.635 380.628 119.779 374.927 121.011 367.168C121.516 363.979 122.627 357.313 123.509 352.355C126.642 334.357 130.153 308.525 131.609 293.105C132.907 279.481 135.755 259.612 138.888 242.226C139.383 239.518 140.662 230.755 141.619 223.798C141.764 222.725 141.904 221.688 142.03 220.727C142.235 219.186 142.408 217.837 142.529 216.786C142.875 213.952 143.351 210.18 143.636 208.411C144.649 201.613 145.092 196.622 144.775 195.432H144.765Z" fill="#FDC945"/>
<path d="M102.094 305.537C101.744 301.546 101.076 293.497 100.637 287.666C100.194 281.807 99.7829 276.526 99.6895 275.915C99.5915 275.308 99.2461 269.794 98.9006 263.683C98.2376 252.282 97.7614 245.162 96.683 231.642C96.3375 227.389 95.9266 221.016 95.7352 217.473C95.5765 213.934 95.357 210.232 95.2637 209.265C94.8482 204.466 94.0919 198.345 93.8071 197.187C93.5223 196.095 93.4289 195.997 93.1441 196.51C92.7939 197.155 93.2048 210.325 93.8724 219.247C94.0592 221.819 94.1572 224.396 94.0918 224.98L93.9938 226.072L92.6353 225.04C90.2589 223.299 88.4942 219.69 87.6352 215.059C87.3504 213.481 87.2242 209.97 87.1916 204.914C87.1916 197.411 87.0656 195.735 86.5614 195.735C86.4353 195.735 86.2438 196.221 86.1458 196.767C85.1 202.79 84.8806 212.454 85.735 216.347C86.8088 221.502 89.722 225.979 92.9808 227.585L94.372 228.262L94.7175 232.384C95.161 237.277 95.8566 247.259 96.6783 261.106C97.0284 266.676 97.5 273.987 97.7848 277.371C98.0416 280.719 98.5457 286.965 98.8912 291.219C99.2367 295.472 99.839 302.167 100.189 306.065L100.852 313.208L99.2694 317.653C98.4151 320.132 97.2479 323.479 96.7063 325.09C96.1694 326.733 94.2413 332.172 92.3691 337.163C90.5344 342.186 87.8779 349.595 86.5146 353.685C83.7695 361.771 78.6433 377.972 77.6395 381.632L80.7768 374.89C81.7479 372.369 82.8545 369.353 84.017 366.085C87.0563 357.616 89.8387 349.918 93.4149 340.16C94.8995 336.07 96.8651 330.435 97.7801 327.601C98.6952 324.768 100.217 320.258 101.104 317.62L102.78 312.788L102.085 305.542L102.094 305.537Z" fill="#F9B218"/>
<path d="M63.7784 307.666C62.7653 303.38 61.2154 297.489 60.333 294.589C55.2348 277.362 52.4523 265.737 48.7547 246.124C48.1524 242.935 47.2981 238.818 46.8872 236.95L46.1262 233.565L47.4568 231.955C52.8678 225.479 60.6831 208.803 61.4394 202.071C61.6962 199.881 61.1873 199.559 60.4263 201.426C56.5654 210.96 51.724 221.067 48.8808 225.512C47.3728 227.832 43.9973 231.511 40.2251 235.064C40.4492 236.119 40.6919 237.268 40.93 238.421C41.3969 238.01 41.8497 237.613 42.2652 237.235C44.959 234.789 45.4306 234.466 45.4306 235.078C45.4306 237.622 51.0283 265.896 53.1806 274.267C54.287 278.454 57.261 289.015 58.909 294.426C59.3525 295.845 60.7111 300.803 61.9156 305.505C63.1481 310.206 64.1939 314.132 64.2873 314.263C64.3527 314.426 63.7831 315.874 62.9567 317.484C58.4328 326.691 55.7763 333.876 47.5221 359.152C42.0785 375.861 39.8329 383.368 33.0633 407.454C31.6067 412.576 29.6786 420.69 28.5394 426.292C28.1939 428.094 26.1351 441.941 26.1351 442.558C26.1351 442.623 24.2349 441.881 21.9566 440.947C21.3123 440.685 20.7334 440.447 20.2152 440.242C20.1358 440.704 20.0611 441.148 19.9864 441.573C20.9155 442.035 21.9239 442.502 22.909 442.912L25.8175 444.168V447.292C25.8175 447.59 25.8176 447.875 25.8269 448.132L26.7326 448.435C26.8073 447.931 26.8821 447.334 26.9615 446.647C27.0548 445.555 27.1808 444.654 27.2135 444.654C27.2462 444.654 28.446 445.102 29.9026 445.62C36.4807 448.067 47.018 450.415 52.4943 450.676C52.6203 450.686 52.7417 450.686 52.8585 450.695L53.2133 449.663C52.527 449.57 51.6865 449.458 50.6594 449.322C44.2354 448.454 36.5181 446.554 30.5049 444.332C28.9549 443.753 27.657 443.202 27.5636 443.043C27.3068 442.656 28.9223 432.707 30.4396 425.461C32.0549 417.543 33.0354 413.579 35.4677 405.204C36.4481 401.824 38.6004 394.223 40.2484 388.303C42.8722 378.863 52.4615 348.629 55.6876 339.548C57.3029 335.067 62.3031 322.737 64.1379 318.81L65.6832 315.463L63.7831 307.671L63.7784 307.666Z" fill="#F9B218"/>
<path d="M102.976 447.87C92.1264 447.87 79.8199 447.002 70.9308 445.62C70.5153 445.555 70.109 445.494 69.7075 445.438C69.6515 445.863 69.6049 446.25 69.5629 446.586C72.3314 446.993 75.9823 447.436 80.3848 447.903C86.3093 448.529 98.1724 448.832 104.223 448.645L104.377 447.884C103.952 447.884 103.485 447.875 102.972 447.875L102.976 447.87Z" fill="#F9B218"/>
<path d="M131.287 204.181C130.148 205.824 129.135 207.5 129.009 207.916C128.757 208.98 129.326 209.914 132.267 213.261C135.652 217.127 139.415 220.091 140.428 219.699C140.713 219.573 141.6 218.089 142.389 216.385C143.178 214.676 144 212.972 144.158 212.584C144.537 211.781 144.569 211.842 141.913 208.686C140.078 206.496 134.256 201.216 133.719 201.216C133.533 201.216 132.421 202.537 131.282 204.176L131.287 204.181Z" fill="#EB9071"/>
<path d="M43.4324 214.195C40.93 215.516 36.6956 218.541 35.4257 219.895C34.0344 221.375 34.1932 222.762 36.154 226.786C37.9235 230.33 40.7433 234.387 41.4716 234.387C42.1999 234.387 45.5846 230.586 47.5128 227.626C48.4932 226.114 49.8238 224.05 50.4868 222.991C51.1824 221.959 51.7193 220.899 51.7193 220.638C51.7193 220.413 50.8322 219.158 49.7257 217.869C48.6519 216.58 47.3541 215.002 46.8499 214.326C46.341 213.681 45.8368 213.135 45.7108 213.135C45.552 213.135 44.5389 213.616 43.4324 214.199V214.195Z" fill="#EB9071"/>
<path d="M122.939 198.373C120.059 193.448 119.144 192.192 119.144 193.093C119.144 193.896 120.568 197.407 122.309 200.852C126.539 209.293 133.294 217.286 141.609 223.799C141.754 222.725 141.894 221.688 142.02 220.727C133.92 214.489 128.771 208.336 122.939 198.373Z" fill="#F9B218"/>
<path d="M108.672 57.2909C105.068 57.7391 105.348 57.0014 105.129 66.3714C105.035 70.8487 104.718 76.3203 104.433 78.5426C103.644 85.046 102.407 93.4823 101.585 98.6692C100.796 103.338 99.2461 109.781 98.896 109.781C98.6765 109.781 91.3047 94.8409 90.0068 91.7456C88.6482 88.4915 86.0525 83.2113 83.9656 79.509C81.3698 74.9384 74.6003 64.3732 73.4611 63.1501C71.8131 61.3153 70.3285 60.7364 68.0828 60.9931C56.8501 62.1837 51.7893 63.8924 48.3718 67.7207C43.0869 73.6452 32.7131 89.4252 21.6391 108.329C5.18676 136.439 1.70857 143.782 0.471381 153.185C-0.63509 161.463 2.33886 179.46 7.14758 193.564C10.8825 204.61 14.2673 211.599 17.428 214.914C19.9584 217.556 23.0257 218.906 26.4432 218.938H27.8671L29.2257 221.515C29.9866 222.93 30.9344 224.317 31.3452 224.606C32.1996 225.185 32.2603 225.152 36.7563 222.384C38.3062 221.417 42.2279 219.228 45.4866 217.458L51.4345 214.27V213.112C51.4345 212.468 51.3084 211.244 51.1496 210.376C50.9909 209.508 50.7995 208.219 50.7388 207.509L50.6455 206.221L54.1236 206.319C64.3433 206.608 99.8717 203.387 113.696 200.908C115.656 200.553 120.75 199.395 125.054 198.298C129.326 197.238 132.87 196.431 132.963 196.529C133.024 196.594 132.459 197.948 131.665 199.559L130.241 202.458L131.222 204.003C132.328 205.74 142.389 216.044 142.991 216.044C143.183 216.044 144.224 215.175 145.335 214.111C147.487 212.019 147.389 212.08 152.866 211.408C156.755 210.927 157.894 210.441 159.224 208.831C161.694 205.773 169 188.349 174.346 172.765C177.983 162.139 178.459 160.431 179.281 155.249C180.261 148.871 180.229 142.625 179.248 139.408C177.605 133.932 175.168 129.683 168.492 120.57C156.12 103.632 151.848 97.8988 147.263 92.0724C144.387 88.4355 140.905 83.9583 139.546 82.0908C138.155 80.2233 135.909 77.2587 134.485 75.4893C133.094 73.7199 131.418 71.4649 130.75 70.4985C127.426 65.4424 123.033 61.0305 119.424 59.065C115.913 57.1975 113.285 56.7447 108.667 57.2956L108.672 57.2909Z" fill="white"/>
<path d="M62.1911 99.4676C61.5561 101.368 60.9586 108.936 60.1042 126C59.4693 138.362 57.5411 159.133 56.1172 168.989C55.5149 173.013 53.6801 182.159 52.9518 184.769C52.0694 187.859 47.1953 203.06 46.8779 203.765C46.4343 204.666 43.4604 206.987 35.3929 212.78C32.3863 214.937 29.6973 216.968 29.4125 217.29C28.7495 218.061 29.095 218.677 30.0754 218.448C30.7103 218.29 30.897 218.481 31.7841 220.348C32.8299 222.603 33.4602 223.406 34.1885 223.406C34.9168 223.406 34.6926 222.085 33.5255 219.863C32.9232 218.738 32.4191 217.706 32.4191 217.608C32.4191 217.384 34.6646 216.221 34.7907 216.385C34.8514 216.45 35.3276 217.449 35.8364 218.672C36.8169 220.862 37.5452 221.539 38.2082 220.862C38.4929 220.54 38.2688 219.896 37.2604 217.93L35.9625 215.386L37.4192 214.26C38.4089 213.51 38.9988 213.37 39.1886 213.84C40.3604 216.866 41.3735 218.574 41.9431 218.574C43.0169 218.574 42.9562 217.706 41.6256 215.129C40.8973 213.742 40.3277 212.486 40.3277 212.393C40.3277 212.169 42.8908 210.203 43.2083 210.203C43.3343 210.203 43.5258 210.75 43.6519 211.394C43.9693 213.163 45.0758 215.642 45.706 215.997C46.3083 216.319 46.9712 215.838 46.9712 215.096C46.9712 214.839 46.4624 213.485 45.8648 212.099C45.2626 210.684 44.7583 209.363 44.7583 209.134C44.7583 208.747 47.4801 206.431 48.7453 205.754C49.2822 205.465 50.0759 203.34 52.4756 195.903C58.2367 178.032 59.5626 170.076 61.8409 140.482C63.3256 121.13 63.895 98.8794 62.9146 98.5572C62.6952 98.4919 62.3778 98.8794 62.1864 99.4583L62.1911 99.4676Z" fill="#F9EAEC"/>
<path d="M123.22 104.589C123.22 105.681 125.12 112.768 126.857 118.114C136.255 147.19 139.481 160.039 140.62 172.373C141.474 181.808 140.652 187.864 137.739 193.849C136.857 195.651 136.633 195.94 136.157 195.684C134.574 194.815 133.976 196.295 135.368 197.617L136.157 198.359L134.733 200.646C133.976 201.902 133.341 203.191 133.341 203.513C133.341 204.638 134.256 204.059 135.746 202.066C136.567 200.973 137.296 200.007 137.356 199.942C137.483 199.745 138.715 200.908 138.715 201.23C138.715 201.389 138.145 202.388 137.45 203.485C136.278 205.32 135.834 206.674 136.404 206.674C136.53 206.674 137.51 205.805 138.556 204.741C140.456 202.808 140.517 202.808 141.054 203.42C141.591 204.031 141.563 204.129 140.013 206.384C139.126 207.673 138.398 208.896 138.398 209.153C138.398 210.021 139.313 209.508 141.054 207.64C142.067 206.576 142.921 205.707 142.987 205.707C143.052 205.707 143.398 206.127 143.743 206.641L144.406 207.607L142.982 209.671C140.802 212.86 141.208 213.504 143.804 211.025C144.625 210.222 145.48 209.578 145.639 209.578C145.797 209.578 146.241 209.998 146.619 210.544C147.347 211.576 148.043 211.8 148.295 211.062C148.641 210.129 144.845 204.554 140.639 199.951L138.486 197.537L139.089 196.505C139.976 194.993 141.838 189.134 142.347 186.393C143.645 178.989 142.917 168.073 140.414 157.088C139.971 155.253 139.686 153.577 139.779 153.353C139.845 153.162 140.699 152.905 141.68 152.807C144.971 152.452 148.23 150.36 147.693 148.941C147.347 148.007 146.362 148.007 144.527 148.843C143.547 149.296 142.693 149.679 142.627 149.679C142.562 149.679 143.323 148.68 144.336 147.424C146.456 144.879 148.29 141.593 148.132 140.664C148.006 139.763 147.721 140.019 144.336 144.366C141.395 148.133 139.145 150.58 138.925 150.29C138.832 150.225 137.912 147.102 136.838 143.399C134.845 136.41 129.751 120.504 127.188 113.128C126.399 110.808 125.353 107.88 124.91 106.592C124.406 105.205 123.897 104.271 123.645 104.271C123.392 104.271 123.201 104.43 123.201 104.594L123.22 104.589Z" fill="#F9EAEC"/>
<path d="M99.4936 113.348C99.4936 113.413 100.129 117.05 100.918 121.494C105.6 147.9 106.137 153.633 106.329 180.1C106.422 190.534 106.487 199.419 106.454 199.839C106.454 200.642 107.276 201.128 107.785 200.609C108.387 199.998 108.672 184.218 108.355 171.888C107.944 156.817 107.15 148.026 105.003 134.31C103.961 127.517 101.24 115.472 100.385 113.828C100.166 113.38 99.4982 113.025 99.4982 113.348H99.4936Z" fill="#F9EAEC"/>
<path d="M95.2218 133.376C93.9893 133.927 93.4803 134.566 93.2889 135.888C92.9434 138.077 94.428 139.847 96.5476 139.786C97.8455 139.753 99.0173 138.754 99.4889 137.242C99.9651 135.86 99.2694 134.118 97.9389 133.441C96.7997 132.83 96.4496 132.83 95.2171 133.376H95.2218Z" fill="#141313"/>
<path d="M96.0435 157.204C94.2694 158.203 93.8585 161.163 95.2544 162.839C97.5327 165.608 101.772 163.516 101.296 159.847C100.95 157.335 98.2611 155.948 96.0435 157.204Z" fill="#141313"/>
<path d="M97.0846 180.23C95.3152 181.005 94.3628 183.708 95.2171 185.543C96.0715 187.345 98.4151 188.055 100.278 187.023C102.178 185.991 102.617 182.901 101.165 181.225C100.217 180.132 98.3498 179.679 97.0846 180.226V180.23Z" fill="#141313"/>
<path d="M24.2676 460.126C24.1882 459.873 24.1228 459.635 24.0714 459.43C23.5579 457.553 22.7549 456.363 21.6578 455.863C21.7138 456.054 21.7699 456.255 21.8259 456.451C23.0911 460.798 23.1891 464.598 22.1714 468.59C21.317 471.937 20.0517 475.033 18.469 477.512C16.4102 480.794 17.8995 480.7 20.1778 477.381C22.1667 474.547 22.895 472.969 23.754 469.491C24.557 466.283 24.7158 463.039 24.2676 460.121V460.126Z" fill="#E8372E"/>
<path d="M101.487 476.484L99.5542 475.55L101.263 471.493C101.781 470.252 102.262 469.192 102.738 468.258C102.136 467.035 101.963 466.465 102.164 465.555C101.945 465.858 101.739 466.162 101.548 466.47C101.515 466.498 100.852 466.18 100.091 465.728C96.4495 463.599 89.5866 462.702 85.1561 463.762C83.9516 464.052 82.9384 464.276 82.8777 464.276C82.817 464.276 82.2149 463.244 81.5799 461.993C81.3138 461.484 81.043 460.998 80.7629 460.545C80.3007 460.994 79.8898 461.395 79.605 461.675C79.633 461.727 79.6564 461.783 79.6844 461.834C81.2671 465.121 82.6584 469.533 83.1953 472.88C83.382 474.201 83.3819 474.229 82.1821 474.873C80.7581 475.616 79.2642 477.199 78.2558 478.828C77.5041 480.032 77.0233 481.251 77.0233 482.185C77.0233 482.796 77.1213 483.277 77.28 483.277C77.322 483.277 77.4388 483.146 77.6116 482.918C77.9757 482.446 78.5686 481.559 79.2082 480.541C81.2671 477.287 83.9889 475.098 83.9889 476.676C83.9889 477.479 86.1692 479.673 87.4064 480.116C88.0413 480.341 89.876 480.504 91.426 480.537C93.9938 480.537 94.4327 480.439 95.922 479.603C96.8417 479.085 97.8221 478.314 98.0742 477.927C98.359 477.511 98.7699 477.152 99.0547 477.152C99.3114 477.152 100.796 477.829 102.346 478.664C103.868 479.533 105.255 480.112 105.385 479.953C105.829 479.533 103.518 477.474 101.492 476.475L101.487 476.484ZM93.7044 478.772C91.935 479.155 88.3914 478.706 87.2523 477.931C86.4306 477.381 85.5109 475.742 85.8283 475.387C86.1131 475.065 91.5242 475.42 94.3067 475.901C95.5065 476.125 96.613 476.386 96.7437 476.512C97.2479 476.965 95.2544 478.412 93.7044 478.767V478.772ZM98.3871 474.164C98.1023 474.874 97.7894 475.13 97.3739 475.065C92.9153 474.07 89.9088 473.618 87.8499 473.618C85.5109 473.618 85.3195 473.552 85.1327 472.875C84.8759 471.909 84.876 470.555 85.1607 470.298C85.5389 469.883 90.3196 470.074 92.7239 470.56C95.1283 471.073 97.3412 471.914 98.2889 472.717C98.7651 473.071 98.7652 473.263 98.3871 474.164ZM98.261 470.56C95.1937 468.627 88.5501 467.628 84.6238 468.529C84.1849 468.627 83.424 466.661 83.7695 466.307C83.8955 466.208 84.6565 465.919 85.4782 465.662C87.9759 464.953 92.7239 465.307 96.4542 466.498C98.1629 467.049 99.8436 467.497 100.156 467.497C100.917 467.497 100.917 467.819 100.096 469.752L99.4328 471.325L98.261 470.555V470.56Z" fill="#E8372E"/>
<path d="M48.8386 479.44C48.7592 479.473 48.6705 479.505 48.5865 479.543C46.1821 480.607 43.0168 481.186 41.2474 480.897C39.6647 480.64 38.4649 479.897 38.9411 479.449C39.3519 478.996 43.6564 477.582 45.9628 477.124C46.3549 477.05 46.6957 476.961 46.9805 476.863C46.7704 476.527 46.5884 476.209 46.4296 475.901C44.6882 476.079 40.972 477.12 39.0952 477.997C38.1755 478.413 37.3537 478.772 37.2884 478.772C36.9756 478.772 35.9017 476.13 36.0885 475.84C36.602 474.949 39.7674 474.029 45.4538 473.105C45.3931 472.768 45.3511 472.418 45.3231 472.054C45.1223 472.054 44.9123 472.063 44.6976 472.073C41.5649 472.199 40.3323 472.39 38.4368 473.105C37.1389 473.585 35.8458 474.038 35.5563 474.136C35.1781 474.262 34.8934 473.945 34.5152 473.007C34.2257 472.264 34.011 471.625 34.011 471.527C34.011 471.204 37.2697 469.724 38.9785 469.272C40.0196 468.982 42.2045 468.791 44.198 468.791C44.6322 468.791 45.029 468.791 45.3792 468.777C45.4492 468.319 45.5658 467.88 45.7572 467.348C45.2437 467.301 44.6601 467.259 44.0392 467.241C40.3743 467.115 37.4938 467.661 34.9307 468.982C34.0436 469.435 33.2827 469.757 33.222 469.692C33.194 469.626 32.4936 468.273 31.6766 466.695C31.4759 466.298 31.2704 465.906 31.0557 465.523C30.6822 465.761 30.3414 465.957 30.0286 466.111C30.9016 468.118 31.9801 470.84 32.4656 472.269C33.8242 476.097 35.2481 478.996 36.3266 480.094C38.5722 482.414 41.6396 483.086 45.5052 482.152C46.8405 481.835 48.4931 481.219 49.7957 480.602C49.4549 480.196 49.1421 479.809 48.8526 479.44H48.8386Z" fill="#E8372E"/>
<path d="M10.565 464.79C7.46499 465.56 4.58438 467.432 3.16044 469.589C0.564672 473.455 1.19965 480.313 4.36499 482.759C6.13908 484.146 9.4585 485.528 11.9562 485.915C13.2214 486.107 14.7715 486.527 15.3737 486.849C16.6716 487.526 18.7911 489.716 19.7388 491.392C21.765 494.837 26.5085 497.895 31.728 499.118C36.9803 500.342 53.5259 500.276 56.7846 499.02C58.526 498.376 60.2955 495.832 60.2955 494.03C60.2955 492.774 59.315 491.261 57.9238 490.393C56.4998 489.492 54.8845 489.426 50.5519 489.973C48.0215 490.295 47.1346 490.295 43.4977 489.716C37.9 488.88 34.926 488.913 31.2238 489.912C24.641 491.681 23.4738 490.911 21.3496 483.474C20.1498 479.193 19.5147 477.871 17.7453 475.939C15.9712 474.006 15.6911 473.203 15.6911 470.173C15.6585 468.725 15.4391 467.017 15.1216 466.083C14.6174 464.603 14.5193 464.472 13.4782 464.407C12.876 464.374 11.5454 464.566 10.5696 464.794L10.565 464.79Z" fill="#E8372E"/>
<path d="M77.2241 480.471C74.3436 483.823 73.3958 487.362 74.3762 490.906C75.324 494.417 77.8264 496.989 81.2112 498.021C83.4568 498.698 98.2937 498.987 103.579 498.474C107.977 498.021 109.559 497.376 110.885 495.542C112.216 493.674 112.594 492.288 112.435 489.809C112.276 487.231 111.296 484.818 109.368 482.497C108.009 480.789 105.633 478.828 105.003 478.795C104.751 478.795 104.653 479.762 104.685 482.241C104.746 485.271 104.652 485.878 104.05 487.007C102.5 489.939 100.852 490.71 96.0435 490.71C93.4477 490.71 91.6129 490.514 89.0825 489.907C84.8433 488.94 83.5781 488.296 81.7106 486.204C80.5388 484.883 80.1934 484.173 79.7826 482.339C79.4978 481.116 79.2736 479.892 79.2736 479.636C79.2736 478.604 78.6387 478.861 77.2195 480.471H77.2241Z" fill="#E8372E"/>
<path d="M80.6696 44.5919C80.6696 44.5919 87.047 48.0514 91.5523 43.4668L80.0347 58.1497L80.6696 44.5919Z" fill="#EB9071"/>
</svg>
