<svg width="46" height="46" viewBox="0 0 40 46" fill="none" xmlns="http://www.w3.org/2000/svg">
<g id="mdi:donation">
<path id="Vector" d="M26.6667 22.9999C31.2667 22.9999 35 18.7066 35 13.4166C35 8.12659 31.2667 3.83325 26.6667 3.83325C22.0667 3.83325 18.3333 8.12659 18.3333 13.4166C18.3333 18.7066 22.0667 22.9999 26.6667 22.9999ZM35.75 33.7333C35.1 32.9666 34.2833 32.5833 33.3333 32.5833H21.6667L18.2 31.1841L18.75 29.3824L21.6667 30.6666H26.3333C26.9167 30.6666 27.3833 30.3983 27.7667 29.9574C28.15 29.5166 28.3333 28.9799 28.3333 28.3858C28.3333 27.3508 27.9 26.6416 27.0333 26.2391L14.9167 21.0833H11.6667V38.3333L23.3333 42.1666L36.7167 36.4166C36.7333 35.4008 36.4 34.4999 35.75 33.7333ZM8.33335 21.0833H1.64001V42.1666H8.33335V21.0833Z" fill="#FF6700"/>
</g>
</svg>
