<svg width="46" height="46" viewBox="0 0 51 45" fill="none" xmlns="http://www.w3.org/2000/svg">
<g id="tabler:social">
<path id="Vector" d="M25.5 13.125C24.3728 13.125 23.2918 12.7299 22.4948 12.0267C21.6978 11.3234 21.25 10.3696 21.25 9.375C21.25 8.38044 21.6978 7.42661 22.4948 6.72335C23.2918 6.02009 24.3728 5.625 25.5 5.625C26.6272 5.625 27.7082 6.02009 28.5052 6.72335C29.3022 7.42661 29.75 8.38044 29.75 9.375C29.75 10.3696 29.3022 11.3234 28.5052 12.0267C27.7082 12.7299 26.6272 13.125 25.5 13.125ZM25.5 13.125V20.625M25.5 20.625C27.1908 20.625 28.8123 21.2176 30.0078 22.2725C31.2034 23.3274 31.875 24.7582 31.875 26.25C31.875 27.7418 31.2034 29.1726 30.0078 30.2275C28.8123 31.2824 27.1908 31.875 25.5 31.875C23.8092 31.875 22.1877 31.2824 20.9922 30.2275C19.7966 29.1726 19.125 27.7418 19.125 26.25C19.125 24.7582 19.7966 23.3274 20.9922 22.2725C22.1877 21.2176 23.8092 20.625 25.5 20.625ZM14.2375 33.375L20.1875 29.625M36.7625 33.375L30.8125 29.625M6.375 35.625C6.375 36.6196 6.82277 37.5734 7.6198 38.2766C8.41683 38.9799 9.49783 39.375 10.625 39.375C11.7522 39.375 12.8332 38.9799 13.6302 38.2766C14.4272 37.5734 14.875 36.6196 14.875 35.625C14.875 34.6304 14.4272 33.6766 13.6302 32.9734C12.8332 32.2701 11.7522 31.875 10.625 31.875C9.49783 31.875 8.41683 32.2701 7.6198 32.9734C6.82277 33.6766 6.375 34.6304 6.375 35.625ZM36.125 35.625C36.125 36.6196 36.5728 37.5734 37.3698 38.2766C38.1668 38.9799 39.2478 39.375 40.375 39.375C41.5022 39.375 42.5832 38.9799 43.3802 38.2766C44.1772 37.5734 44.625 36.6196 44.625 35.625C44.625 34.6304 44.1772 33.6766 43.3802 32.9734C42.5832 32.2701 41.5022 31.875 40.375 31.875C39.2478 31.875 38.1668 32.2701 37.3698 32.9734C36.5728 33.6766 36.125 34.6304 36.125 35.625Z" stroke="#FFC700" stroke-width="4" stroke-linecap="round" stroke-linejoin="round"/>
</g>
</svg>
