<svg width="46" height="46" viewBox="0 0 46 45" fill="none" xmlns="http://www.w3.org/2000/svg">
<g id="wpf:survey" clip-path="url(#clip0_102_1556)">
<path id="Vector" d="M15.5923 -4.04335e-05C15.1824 0.0762215 14.8133 0.291736 14.5501 0.608434C14.2869 0.925132 14.1465 1.32264 14.1539 1.73073V3.4615H7.79528C6.37989 3.4615 5.30774 4.51034 5.30774 5.89496V42.4038C5.30774 43.9615 6.37989 45 7.79528 45H38.0385C39.4539 45 40.526 43.9511 40.526 42.5665V5.89496C40.703 4.51034 39.6202 3.4615 38.2048 3.4615H31.8462V1.73073C31.8462 1.2717 31.6598 0.831472 31.328 0.50689C30.9962 0.182308 30.5462 -4.04335e-05 30.077 -4.04335e-05H15.9231C15.8677 -0.00259069 15.8122 -0.00259069 15.7568 -4.04335e-05C15.7014 -0.00259069 15.6477 -0.00259069 15.5923 -4.04335e-05ZM17.6924 3.4615H28.3077V6.92304H17.6924V3.4615ZM8.8462 6.92304H14.1539V8.65381C14.1539 9.11283 14.3403 9.55306 14.6721 9.87764C15.0039 10.2022 15.4539 10.3846 15.9231 10.3846H30.077C30.5462 10.3846 30.9962 10.2022 31.328 9.87764C31.6598 9.55306 31.8462 9.11283 31.8462 8.65381V6.92304H37.1539V41.5384H8.8462V6.92304ZM12.3847 15.5769V22.5H19.4616V15.5769H12.3847ZM14.1539 17.3077H17.6924V20.7692H14.1539V17.3077ZM23 17.3077V20.7692H33.6154V17.3077H23ZM12.3847 25.9615V32.8846H19.4616V25.9615H12.3847ZM23 27.6923V31.1538H33.6154V27.6923H23Z" fill="#49CEAE"/>
</g>
<defs>
<clipPath id="clip0_102_1556">
<rect width="46" height="45" fill="white"/>
</clipPath>
</defs>
</svg>
