<svg width="46" height="46" viewBox="0 0 43 44" fill="none" xmlns="http://www.w3.org/2000/svg">
<path d="M21.5 18.3334C23.4008 18.3334 25.2236 17.5608 26.5676 16.1855C27.9117 14.8103 28.6667 12.945 28.6667 11.0001C28.6667 9.05516 27.9117 7.1899 26.5676 5.81463C25.2236 4.43937 23.4008 3.66675 21.5 3.66675C19.5993 3.66675 17.7765 4.43937 16.4324 5.81463C15.0884 7.1899 14.3334 9.05516 14.3334 11.0001C14.3334 12.945 15.0884 14.8103 16.4324 16.1855C17.7765 17.5608 19.5993 18.3334 21.5 18.3334ZM9.85421 23.8334C11.0422 23.8334 12.1814 23.3505 13.0215 22.491C13.8615 21.6314 14.3334 20.4657 14.3334 19.2501C14.3334 18.0345 13.8615 16.8687 13.0215 16.0092C12.1814 15.1496 11.0422 14.6667 9.85421 14.6667C8.66626 14.6667 7.52697 15.1496 6.68696 16.0092C5.84695 16.8687 5.37504 18.0345 5.37504 19.2501C5.37504 20.4657 5.84695 21.6314 6.68696 22.491C7.52697 23.3505 8.66626 23.8334 9.85421 23.8334ZM37.625 19.2501C37.625 20.4657 37.1531 21.6314 36.3131 22.491C35.4731 23.3505 34.3338 23.8334 33.1459 23.8334C31.9579 23.8334 30.8186 23.3505 29.9786 22.491C29.1386 21.6314 28.6667 20.4657 28.6667 19.2501C28.6667 18.0345 29.1386 16.8687 29.9786 16.0092C30.8186 15.1496 31.9579 14.6667 33.1459 14.6667C34.3338 14.6667 35.4731 15.1496 36.3131 16.0092C37.1531 16.8687 37.625 18.0345 37.625 19.2501ZM21.5 20.1667C23.8759 20.1667 26.1545 21.1325 27.8345 22.8516C29.5146 24.5707 30.4584 26.9023 30.4584 29.3334V40.3334H12.5417V29.3334C12.5417 26.9023 13.4855 24.5707 15.1655 22.8516C16.8456 21.1325 19.1241 20.1667 21.5 20.1667ZM8.95837 29.3334C8.95837 28.0629 9.13754 26.8364 9.47437 25.6777L9.16979 25.7034C7.63412 25.876 6.21473 26.6225 5.1838 27.7999C4.15288 28.9772 3.58297 30.5026 3.58337 32.0834V40.3334H8.95837V29.3334ZM39.4167 40.3334V32.0834C39.4169 30.4488 38.8074 28.8756 37.7126 27.6852C36.6178 26.4948 35.1203 25.7768 33.5257 25.6777C33.8608 26.8364 34.0417 28.0629 34.0417 29.3334V40.3334H39.4167Z" fill="#FF3186"/>
</svg>
