<svg width="128" height="351" viewBox="0 0 128 351" fill="none" xmlns="http://www.w3.org/2000/svg">
<path d="M81.4706 52.3478C81.4706 54.1229 74.1511 70.7084 72.3593 72.9855C71.9971 73.4338 71.1965 75.0295 70.5675 76.5536C68.9664 80.3727 65.9166 86.3614 64.9064 87.6883C62.8859 90.324 60.3507 89.7861 58.2921 86.3256C55.6807 81.9506 51.4681 68.5926 49.7335 59.0896L49.1617 56.0235L48.9902 55.0911C48.9902 55.0911 48.7614 51.9354 48.7233 51.3975C48.6661 50.7878 48.7995 50.7161 50.5913 50.2858C52.7452 49.7479 54.8992 48.672 56.3097 47.399C57.1293 46.6997 57.2246 46.4308 57.2246 45.355C57.2246 44.6736 57.3581 43.0958 57.4915 41.8944L57.7584 39.6352L57.4724 39.2228L56.71 38.1291C54.9182 35.5471 54.4798 33.6824 54.4798 28.9488C54.4989 25.0221 54.537 24.8248 55.3566 22.7091C55.8332 21.5257 56.1953 20.2526 56.1953 19.9299C56.1953 19.123 57.5677 17.1507 58.8067 16.1824C59.3404 15.7521 60.2744 15.2501 60.9416 15.0529C62.5237 14.6046 63.0002 14.6046 64.4679 15.0708C66.9459 15.8776 68.9664 18.5134 70.0529 22.2608C70.6819 24.4842 70.6819 30.0246 70.072 32.4452C70.0338 32.6245 69.9766 32.8217 69.9385 33.019C69.7098 34.1844 69.6335 35.7085 69.6145 38.7567C69.6145 38.9718 69.6145 39.187 69.6145 39.4021C69.6145 44.584 69.6145 44.6557 70.2816 45.5701C71.1013 46.6997 72.55 47.5604 75.3901 48.5466C79.3167 49.9451 81.4706 51.272 81.4706 52.3657V52.3478Z" fill="#AC5F34"/>
<path d="M25.9642 69.2202C25.6021 69.776 24.7253 69.0947 23.8294 67.5527C23.391 66.8534 22.9335 66.2438 22.8001 66.2438C22.3998 66.2438 21.828 67.1044 21.218 68.5388L20.6462 69.9553L20.8177 70.547L21.2943 72.107C21.4658 72.6987 21.6374 73.2186 21.7708 73.7028C22.5332 76.4282 22.5904 77.3247 22.1711 77.9702C21.6183 78.777 20.3984 79.0998 17.1198 79.2791C15.6712 79.3508 13.7269 79.6018 12.8119 79.817C11.1727 80.1935 10.8296 80.3011 10.1815 78.526C10.0099 78.0598 9.81931 77.4681 9.59058 76.733C9.59058 76.715 9.59056 76.6971 9.5715 76.6612C8.10378 72.1069 8.44693 69.6505 11.1727 65.7776C11.7255 64.9886 12.7548 63.5184 13.441 62.5143C14.9087 60.3447 16.3383 59.0537 18.6066 57.7807C19.5215 57.2428 20.589 56.6152 20.9321 56.3463C21.5992 55.8622 22.9526 55.7187 23.5435 56.0594C24.935 56.92 26.9936 67.7678 26.0214 69.2022L25.9642 69.2202Z" fill="#AC5F34"/>
<path d="M93.1353 331.378C88.9799 332.131 85.3964 333.799 84.0812 335.61C83.7381 336.094 83.2615 336.614 82.9947 336.793C82.4228 337.206 82.3847 337.672 82.9375 339.196C83.6427 341.24 87.455 343.947 90.1808 344.324C90.8098 344.396 92.2394 344.826 93.3068 345.256C97.8816 347.049 103.257 346.243 106.707 343.266C108.861 341.366 109.89 339.68 109.89 337.905C109.89 333.584 106.154 331.414 98.3009 331.145C96.147 331.074 94.3552 331.145 93.1162 331.378H93.1353Z" fill="white"/>
<path d="M25.8115 332.184C21.8849 332.937 21.7896 332.973 19.0447 334.73C16.643 336.29 16.1474 337.384 16.014 341.383C15.8996 344.072 15.9378 344.395 16.5096 345.435C17.7295 347.64 20.9318 348.393 27.7748 348.142C33.5886 347.909 37.7439 346.833 41.3084 344.556C43.7482 343.014 45.1016 340.127 44.3582 338.012C43.7482 336.183 40.3744 334.085 36.4668 333.081C33.5123 332.328 27.7367 331.844 25.8115 332.202V332.184Z" fill="white"/>
<path d="M69.9568 32.9824C69.7281 34.1478 69.6518 35.6719 69.6328 38.72C68.775 39.742 67.8029 40.9075 66.8308 42.073C64.3909 44.9777 61.2839 48.7072 59.8734 50.285C58.501 51.8808 56.1564 54.678 54.6887 56.5068C51.6961 60.2005 51.372 60.5232 50.8002 60.308C50.2283 60.1108 50.3237 59.4653 51.0861 58.4792C51.6389 57.7978 51.7151 57.5468 51.4864 57.2599C51.2577 56.973 51.2577 56.7579 51.4292 56.3993C51.658 55.951 51.6389 55.9151 50.8574 56.0944C50.3808 56.1661 49.6756 56.1483 49.2753 56.0227C49.2372 56.0227 49.2181 56.0048 49.18 55.9868L49.0084 55.0545C49.0084 55.0545 48.7797 51.8988 48.7416 51.3609C48.6844 50.7512 48.8178 50.6795 50.6096 50.2492C52.7635 49.7113 54.9175 48.6355 56.328 47.3624C57.1476 46.6631 57.2429 46.3942 57.2429 45.3184C57.2429 44.637 57.3764 43.0591 57.5098 41.8578L57.7766 39.5986L57.4907 39.1862C57.9101 39.1862 58.3866 39.24 58.8441 39.2938C59.6637 39.4193 60.8455 39.4372 61.4936 39.3476C64.3337 38.8993 67.9744 36.3174 69.5184 33.6637C69.6709 33.4127 69.8043 33.1616 69.9378 32.9644L69.9568 32.9824Z" fill="#A0542C"/>
<path d="M22.0753 58.1392C20.9507 58.946 19.9976 60.1115 20.2645 60.3625C20.3789 60.4342 20.7601 60.2549 21.1604 59.9501C21.5607 59.6453 22.2087 59.215 22.6281 58.9819C23.524 58.4978 23.5812 58.5516 25.0298 60.8287C26.8407 63.6796 27.4506 62.9983 25.8113 59.986C24.2293 57.0454 23.829 56.884 22.0753 58.1212V58.1392Z" fill="#A0542C"/>
<path d="M23.1428 60.9897C22.0944 61.5634 20.3979 63.0337 20.3979 63.3744C20.3979 63.8764 20.7982 63.7868 22.0754 62.9261C22.7425 62.4779 23.4096 62.191 23.6574 62.2627C23.8671 62.3344 24.4199 63.0516 24.8964 63.8226C25.3348 64.5757 25.8114 65.2212 25.9448 65.2212C26.4213 65.2212 26.1545 63.8047 25.4492 62.5854C24.5533 61.0434 23.9052 60.5952 23.1237 60.9897H23.1428Z" fill="#A0542C"/>
<path d="M21.7888 64.4323C20.607 65.275 20.3211 65.6158 20.6261 65.8309C20.7595 65.9026 21.2932 65.6874 21.8079 65.3468C22.3416 64.9882 22.9325 64.7192 23.1422 64.7192C23.6378 64.7192 24.9149 66.4584 25.7726 68.359C26.4016 69.7217 26.9926 70.0625 26.9926 69.0763C26.9926 68.3949 25.2199 65.024 24.5146 64.3427C23.6378 63.5358 23.085 63.5537 21.7698 64.4503L21.7888 64.4323Z" fill="#A0542C"/>
<path d="M21.7891 73.6843C19.1396 74.9573 12.6397 77.6648 10.1808 78.5075C10.0092 78.0413 9.81862 77.4496 9.58988 76.7145C9.58988 76.6965 9.58986 76.6787 9.5708 76.6428C10.7526 75.9794 12.1822 75.1546 13.3069 74.5091C14.9461 73.5409 17.3669 72.1781 18.7012 71.4968C19.5971 71.0306 20.3023 70.7079 20.8551 70.5106L21.3317 72.0705C21.5032 72.6622 21.6748 73.1822 21.8082 73.6664L21.7891 73.6843Z" fill="#A0542C"/>
<path d="M69.9187 1.53316C67.1738 2.82414 65.973 6.44605 67.4216 9.09973C67.6313 9.53005 67.7838 9.92453 67.7457 9.97832C67.6695 10.0321 67.212 9.96039 66.7164 9.83488C64.105 9.09974 60.2165 9.88867 57.6622 11.6279C56.2326 12.5961 54.5553 14.7298 53.5069 16.9173C52.1726 19.6248 52.1917 23.7129 53.5641 25.2369L54.0597 25.7749L56.3852 23.928C59.0347 21.8302 61.4554 20.1089 61.5889 20.2344C61.6461 20.2882 61.8748 20.9695 62.1417 21.7226C63.3807 25.3983 65.5155 28.303 68.2222 29.9706C70.6621 31.4946 71.7295 31.3691 73.3307 29.4326C74.8556 27.5679 75.4846 25.739 75.6561 22.8343C75.8658 18.6386 74.9699 15.1781 73.1782 13.1699C72.4157 12.3092 72.3395 12.112 72.7398 12.112C74.684 12.112 76.9713 10.5521 77.7147 8.70526C78.4009 6.98396 78.1341 4.58131 77.162 3.21861C75.5799 1.08491 72.4538 0.367686 69.9568 1.55108L69.9187 1.53316Z" fill="#F0592A"/>
<path d="M78.3251 123.279C74.3984 123.548 69.3853 124.248 62.9235 125.395C50.9149 127.547 47.0836 128.461 44.9487 129.663C44.2625 130.075 43.176 130.649 42.547 130.972C41.4224 131.545 41.308 131.707 39.6687 135.365C37.6673 139.847 34.0075 150.139 32.4064 155.841C31.0149 160.664 30.3859 163.425 28.1366 173.915C21.8464 203.356 19.2922 218.399 17.9007 234.106C17.3289 240.436 16.5664 246.801 15.499 253.453C14.8318 257.631 13.6882 265.305 12.8876 270.523C12.1061 275.74 11.0195 282.231 10.5239 284.939C10.0283 287.646 9.4375 291.089 9.20877 292.577C8.5988 296.575 7.35982 302.994 6.29239 307.602C5.75867 309.808 4.95807 313.394 4.48154 315.546C3.98594 317.697 3.22348 321.014 2.80413 322.879C1.58421 327.971 1.24112 330.212 1.03145 334.319L0.84082 338.066H6.48295C12.8494 338.084 18.5106 338.371 23.1616 338.927C24.8962 339.124 27.5648 339.375 29.0897 339.482C30.6146 339.554 32.2157 339.787 32.6923 339.967C34.484 340.702 40.374 341.204 46.7214 341.24C53.2023 341.24 54.5937 341.042 55.2228 340.056C55.4324 339.751 55.3562 338.335 54.994 335.125C54.3841 329.657 54.3269 318.916 54.8415 299.39C55.318 281.137 55.604 274.306 56.233 267.403C56.843 260.392 58.7681 246.962 60.8077 235.29C62.8282 223.761 64.1244 214.096 65.4206 201.025C65.7065 198.049 66.1258 194.391 66.3165 192.938C66.5261 191.468 66.8501 188.743 67.0026 186.86C67.6888 179.24 67.6698 179.276 67.8795 185.856C68.5466 207.605 68.5847 209.219 69.7665 232.636C70.1097 239.79 70.529 250.387 70.6815 256.161C70.834 261.934 71.0818 270.397 71.1771 275.005C71.4439 284.419 71.1199 311.189 70.6815 316.854C70.0144 325.335 68.6991 337.51 68.3179 338.855C68.1844 339.339 68.1654 339.787 68.2607 339.895C68.4894 340.092 72.073 341.293 73.4454 341.616C76.3427 342.333 78.3441 342.405 82.6139 342.029C87.1886 341.598 89.8572 341.06 96.9289 339.124C105.011 336.9 111.396 335.861 117.02 335.843C119.764 335.825 123.291 335.233 123.843 334.731C124.206 334.372 124.168 334.121 123.424 332.131C122.986 330.894 122.109 328.76 121.499 327.38C118.678 320.889 117.191 313.376 115.704 298.171C115.152 292.451 115.075 290.73 114.656 274.521C114.503 268.963 114.218 261.324 113.989 257.577C113.779 253.812 113.493 247.608 113.322 243.789C112.693 228.709 111.987 215.818 111.511 210.152C111.225 206.888 110.806 201.527 110.558 198.264C110.119 191.863 108.194 176.21 107.108 170.059C105.792 162.439 103.505 152.99 102.114 149.242C98.6635 140.08 95.1181 132.998 91.3249 127.816C88.5419 123.997 88.9803 124.319 86.064 123.817C83.1476 123.333 80.479 123.154 78.3251 123.279Z" fill="#2C7BA1"/>
<path d="M74.3422 48.1698C73.7703 48.7974 73.0079 50.8414 72.131 54.0868C71.1398 57.888 70.0724 60.9362 68.1472 65.6518C65.9552 71.0668 62.2001 78.9381 61.9523 78.705C61.2661 78.0416 55.8908 61.5995 54.3278 55.3598C53.6606 52.7241 52.8219 49.9449 52.6123 49.5863C52.4788 49.3532 45.9027 50.6442 44.0919 51.2C43.0054 51.5586 40.7942 52.4372 39.1931 53.1903C35.4571 54.9295 34.3515 56.0412 32.2357 60.2727C31.397 61.9403 30.5202 63.9484 30.2533 64.7015C29.9865 65.4546 29.3575 67.1759 28.8047 68.5027C28.271 69.8116 27.6229 71.4612 27.3751 72.1246C26.9748 73.1287 26.0408 73.3439 26.9748 75.0114C27.6038 76.1052 28.3472 77.3961 28.6522 77.8623C28.9762 78.3464 29.529 79.4043 29.8911 80.1932C30.2914 80.9822 31.702 83.2593 33.0744 85.2496C34.4468 87.2398 35.762 89.266 36.0289 89.7501C36.2958 90.2342 36.9057 91.1665 37.4013 91.8479C38.6594 93.5154 39.6696 96.1511 40.5274 100.15C41.1374 102.965 41.2708 104.148 41.2708 107.071C41.2708 110.531 41.2517 110.693 40.0318 114.53C37.7444 121.863 37.0773 123.298 34.9996 125.611C34.2181 126.471 32.0451 127.69 31.2445 127.708C30.8824 127.708 30.9014 127.762 31.3779 127.941C31.721 128.085 31.9498 128.39 31.9498 128.73C31.9498 128.999 32.1785 130.147 32.4835 131.259C33.9131 136.566 35.8193 140.062 39.0406 143.146C41.1183 145.137 42.5669 145.908 44.8543 146.177C45.8074 146.302 47.4657 146.589 48.5331 146.786C51.297 147.342 60.0653 147.575 62.6957 147.163C70.0915 146.033 80.2321 141.748 85.5883 137.534C86.6367 136.709 87.6088 136.046 87.7423 136.1C88.4856 136.351 94.1659 143.362 96.7392 147.181C97.5207 148.364 98.3404 149.458 98.55 149.601C99.3887 150.265 103.544 150.767 106.784 150.641C112.865 150.408 116.677 148.956 119.556 145.728C121.748 143.272 123.349 138.718 124.855 130.739C125.274 128.444 125.96 125.144 126.361 123.405C126.97 120.769 127.066 119.658 127.066 116.699C127.066 113.024 126.856 111.894 125.77 109.653C125.427 108.935 124.721 107.447 124.187 106.336C123.654 105.224 122.663 102.66 121.976 100.652C121.271 98.6255 120.051 95.5953 119.27 93.892C115.82 86.5764 105.946 69.3275 105.088 69.1123C104.859 69.0406 104.383 68.5386 104.059 67.9469C103.716 67.3731 102.381 65.1139 101.066 62.9623C98.9884 59.5555 98.3213 58.7128 95.9768 56.4356C94.4709 55.0012 93.27 53.6744 93.27 53.4951C93.27 52.5269 89.4768 50.5545 85.8933 49.676C80.8992 48.4388 78.936 48.0622 76.8202 47.8829C74.9712 47.7574 74.6662 47.7753 74.285 48.1877L74.3422 48.1698Z" fill="white"/>
<path d="M109.794 336.632C109.603 336.954 109.375 337.51 109.26 337.869C108.993 339.034 107.449 340.953 105.963 341.939C105.2 342.441 103.428 343.248 102.017 343.678C98.6431 344.772 97.042 344.772 93.1726 343.571C88.0832 342.011 86.5583 341.616 85.3574 341.616C83.8516 341.616 83.4894 341.993 83.8325 343.158C84.4425 345.238 85.9292 346.565 89.589 348.376L91.5332 349.344L95.6315 349.416C101.426 349.541 103.694 348.986 106.897 346.637C108.536 345.453 110.442 342.818 111.166 340.863C111.643 339.465 111.738 336.99 111.357 336.363C111.033 335.879 110.194 336.004 109.775 336.614L109.794 336.632Z" fill="#EE9128"/>
<path d="M41.4797 342.423C36.7144 344.574 33.9314 345.184 28.9755 345.184C24.9154 345.184 22.2849 344.754 18.6251 343.535C17.2337 343.086 15.9947 342.746 15.8804 342.799C15.5944 342.979 15.6135 345.13 15.9375 346.242C16.2806 347.354 17.2718 348.591 18.3011 349.093C20.0929 349.971 24.7058 350.778 28.6896 350.922C32.559 351.047 32.7496 351.047 35.7994 350.24C38.9255 349.398 40.7935 348.681 41.88 347.784C42.8521 347.031 43.5955 345.256 43.748 343.391C43.8751 342.004 43.1126 341.682 41.4606 342.423H41.4797Z" fill="#EE9128"/>
<path d="M73.9977 48.0616C73.5784 48.743 72.0725 53.1179 70.9479 57.0447C69.7089 61.4196 68.6796 64.2347 66.4685 69.4166C64.467 74.0784 62.3132 78.5251 62.1607 78.3458C61.627 77.79 55.5273 58.748 54.6505 54.9827C54.0215 52.2931 53.0875 49.2629 52.7825 48.9402C52.4203 48.5816 48.894 49.7471 48.5699 50.3029C48.2268 50.9125 48.9131 53.871 50.7811 60.039C51.4101 62.1189 52.4394 65.705 53.0494 68.0001C54.8221 74.5267 56.7854 79.9954 59.9496 86.8986C60.8264 88.8709 61.1123 89.2474 61.6079 89.2474C62.6562 89.2474 62.1606 90.1798 69.8233 73.5585C71.8057 69.309 74.0168 64.4319 74.7792 62.6748C75.5226 60.9355 76.5138 58.8019 76.9904 57.9233C78.5915 54.8931 80.593 48.8864 80.2117 48.3306C79.983 47.972 77.4287 47.4879 75.8085 47.4879C74.6267 47.4879 74.3409 47.5954 74.0168 48.0437L73.9977 48.0616Z" fill="#A3D1EB"/>
<path d="M27.8706 104.166C18.8927 105.708 12.1069 115.372 12.6025 125.915C12.8313 131.097 13.7843 131.223 14.4705 126.166C15.1758 120.626 16.5291 116.753 18.8927 113.364C23.5437 106.658 31.2826 105.278 37.4013 110.047C41.3279 113.113 44.1109 118.187 45.4261 124.696C45.5786 125.503 45.9026 126.346 46.1123 126.543C46.7413 127.117 47.7135 126.991 48.2091 126.292C49.4099 124.517 46.97 116.179 44.0727 112.073C41.7091 108.738 37.63 105.618 34.4468 104.668C32.3691 104.058 29.7005 103.861 27.8706 104.166Z" fill="#CC832A"/>
<path d="M85.2441 137.624C84.9772 138.036 83.357 139.166 82.747 139.399C82.4802 139.471 82.2705 139.811 82.2705 140.116C82.2705 140.744 84.3291 145.8 85.4728 148.005C86.1399 149.278 87.074 152.703 88.7132 159.57C89.4566 162.654 90.1619 167.621 90.5622 172.337C91.115 178.81 91.8774 185.354 92.6399 190.124C94.9082 203.966 95.3466 210.654 95.6897 235.182C95.9756 256.914 96.2234 260.195 98.8157 278.305C102.113 301.273 104.286 320.566 104.61 329.693C104.725 332.651 104.877 335.161 104.973 335.233C105.049 335.341 105.335 335.341 105.583 335.233C105.983 335.09 106.002 334.552 105.868 329.065C105.678 321.983 104.82 313.053 103.047 299.928C102.628 296.791 101.961 291.914 101.599 289.045C101.237 286.194 100.569 281.406 100.15 278.43C97.8627 262.418 97.5386 258.241 97.2527 239.235C96.8524 214.114 96.0899 203.984 93.4404 188.653C92.7351 184.529 91.8584 177.375 91.4581 172.086C91.0387 166.958 90.0094 160.808 88.7132 155.949C88.0842 153.618 87.6077 151.717 87.6267 151.717C87.6839 151.717 88.3892 152.596 89.2279 153.671C90.0666 154.765 91.4962 156.397 92.4111 157.347C93.3261 158.297 94.0695 159.086 94.0695 159.14C94.0695 159.194 94.6413 161.31 95.3847 163.838C98.8157 175.851 100.131 193.423 100.76 215.889C101.046 225.428 101.465 230.234 102.094 237.334C102.456 241.386 103.066 250.656 103.41 257.685C103.886 267.224 104.591 274.378 106.44 287.557C107.546 295.733 108.175 301.04 108.804 307.638C109.852 318.683 110.653 322.61 113.455 330.374C114.846 334.247 115.532 335.502 116.028 335.036C116.123 334.964 115.532 332.902 114.713 330.499C111.739 321.624 110.977 318.074 110.1 309.001C109.338 300.825 109.185 299.373 107.736 288.041C106.059 274.898 105.468 269.142 105.106 262.759C104.572 253.077 104.019 245.205 103.39 237.603C102.514 227.293 101.961 217.772 101.675 207.516C101.256 192.616 100.836 185.641 99.9594 179.491C99.216 174.453 97.6911 167.657 96.414 163.802C95.7278 161.758 95.2322 160.09 95.3275 160.09C95.5372 160.108 99.0635 162.242 99.5972 162.69C100.55 163.497 104.458 181.338 105.602 189.926C106.821 199.053 107.451 213.63 107.47 232.726C107.47 252.879 109.604 280.725 112.235 295.123C113.15 300.215 116.181 314.542 116.981 317.536C117.82 320.799 119.078 324.816 119.516 325.605C120.203 326.895 120.469 325.981 119.879 324.331C118.697 320.996 117.686 316.98 116.066 309.109C112.216 290.515 110.958 280.707 109.49 258.223C108.994 250.782 108.613 238.338 108.27 218.131C107.946 199.286 107.489 192.741 105.735 182.969C105.049 179.132 102.78 169.862 101.58 165.828C101.217 164.609 100.893 163.533 100.893 163.408C100.893 163.282 101.656 163.461 102.609 163.784C104.629 164.483 105.849 164.573 106.078 163.981C106.154 163.748 105.926 162.565 105.525 161.328C105.163 160.108 104.839 158.746 104.839 158.315C104.839 157.706 104.687 157.473 104.134 157.257C102.552 156.648 100.684 155.662 99.0444 154.55C94.2982 151.358 88.6942 144.401 86.483 139.04C85.7968 137.301 85.5681 137.068 85.1678 137.642L85.2441 137.624Z" fill="#8CC2E1"/>
<path d="M60.8654 139.972C60.5032 141.138 60.122 146.696 59.8933 154.621C59.5311 167.424 58.4446 176.658 55.5473 192.616C53.4124 204.27 52.4403 212.016 52.0019 221.017C51.0488 240.22 50.7439 243.878 48.7043 260.087C46.3598 278.699 44.6823 294.352 43.3099 309.664C42.395 320.315 41.8803 332.543 42.2616 336.38C42.5475 339.751 42.7381 340.451 43.2527 340.343C43.5958 340.271 43.653 339.285 43.5958 332.561C43.5386 324.349 43.7292 320.62 44.7776 308.786C46.1691 292.81 47.6368 279.326 49.6192 264.014C51.8494 246.873 52.326 241.332 53.0503 224.693C53.584 212.841 54.3846 205.884 56.8625 192.454C59.7027 177.034 60.8845 164.662 60.9607 149.709C60.9607 146.858 61.056 143.487 61.1704 142.25C61.361 140.152 61.1704 138.915 60.8464 139.99L60.8654 139.972Z" fill="#8CC2E1"/>
<path d="M80.4984 140.635C80.2887 140.869 80.3459 141.693 80.7081 143.755C80.994 145.279 81.4706 147.897 81.7565 149.565C82.0424 151.232 83.0907 156.97 84.101 162.331C86.3312 174.219 86.8458 177.375 87.6464 185.318C89.1141 199.662 89.3047 202.889 89.7813 223.258C89.9909 232.94 90.2197 241.421 90.2769 242.121C90.3531 242.802 90.6009 245.832 90.8106 248.827C91.2109 253.829 91.7255 258.617 94.2035 280.061C95.3281 289.725 95.8428 295.607 96.2049 302.815C96.6433 311.547 96.9483 326.303 96.8149 332.274C96.7005 337.761 96.834 338.854 97.5773 338.137C98.6257 337.133 98.4161 309.126 97.2343 294.836C96.9674 291.518 96.0334 283.324 93.8413 265.125C92.2974 252.198 91.7636 245.223 91.4777 232.887C90.7343 202.154 90.5056 197.295 89.2476 186.358C88.142 176.944 87.8179 175.079 84.8062 159.928C83.8532 155.195 82.7286 149.224 82.252 146.642C81.299 141.281 80.9559 140.098 80.5174 140.618L80.4984 140.635Z" fill="#8CC2E1"/>
<path d="M76.743 142.787C76.743 142.913 76.9718 144.311 77.2768 145.907C78.611 153.438 81.2606 181.265 81.7562 193.332C81.8896 196.954 82.1565 202.925 82.2899 206.619C82.7664 218.632 83.3192 225.481 85.3206 244.936C86.1021 252.574 86.998 261.987 87.303 265.806C87.5889 269.626 88.0845 274.915 88.3895 277.569C91.039 302.259 91.6871 325.586 89.9334 335.179C89.171 339.303 89.2472 341.149 90.1241 340.091C90.4862 339.661 91.4584 334.497 91.7824 331.449C92.7736 320.996 92.1827 299.964 90.3338 281.37C89.9716 277.748 89.4188 272.297 89.1138 269.231C87.8176 255.73 87.5127 252.484 86.5405 243.43C84.6535 226.073 83.891 215.458 83.3573 199.303C83.0714 190.32 82.6139 183.291 81.7752 174.649C80.174 157.848 77.9629 142.661 77.1242 142.661C76.9336 142.661 76.7811 142.733 76.7811 142.841L76.743 142.787Z" fill="#8CC2E1"/>
<path d="M72.8915 144.473C72.8153 144.67 72.9488 145.89 73.1584 147.181C73.7875 150.749 74.8358 159.696 75.2933 165.039C75.6936 170.024 76.0748 181.141 76.3417 195.467C76.4942 203.984 77.7331 225.285 78.4384 231.632C78.6481 233.497 79.3534 239.647 80.0205 245.295C80.6877 250.943 81.5263 258.778 81.8885 262.741C83.4325 279.936 83.4134 279.864 83.4134 297.382C83.4134 314.9 83.2038 319.508 82.1173 329.621C81.9076 331.575 81.5454 334.785 81.3358 336.775C81.1261 338.765 80.9926 340.522 81.0689 340.648C81.3357 341.025 81.9457 340.899 82.0982 340.415C82.3269 339.626 83.0131 334.498 83.4134 330.248C84.6524 317.608 85.148 302.582 84.862 289.152C84.6524 280.151 84.4427 276.888 83.28 263.476C82.5175 254.583 82.1172 250.889 80.4208 237.37C79.3724 228.925 79.2008 227.275 78.4384 215.423C78.0762 209.614 77.676 199.896 77.5235 192.921C77.047 169.755 76.7801 166.061 74.8739 152.237C74.4546 149.099 73.959 146.015 73.8256 145.334C73.5397 144.15 73.1584 143.792 72.9106 144.473H72.8915Z" fill="#8CC2E1"/>
<path d="M69.67 145.369C69.3841 145.549 69.3269 145.979 69.4794 147.342C70.1846 154.496 71.4998 172.355 71.7095 178.272C71.862 182.234 72.1098 193.261 72.2623 202.8C72.5864 223.187 72.796 227.329 73.9969 238.965C75.0453 249.024 76.3033 264.606 76.7608 272.854C77.1229 279.828 76.9514 296.557 76.3605 306.114C76.1508 309.862 75.8268 316.998 75.6743 321.929C75.3503 332.507 75.274 333.583 74.5687 338.191C74.2828 340.11 74.0922 341.724 74.1684 341.831C74.5878 342.208 75.1215 341.222 75.5028 339.303C76.1318 336.165 76.4177 332.938 76.7227 324.833C77.0467 316.155 77.4279 308.087 77.8092 302.833C78.2476 296.253 78.4191 279.775 78.076 273.625C77.6566 265.915 76.3605 250.082 75.4265 240.991C74.0541 227.867 73.6538 219.439 73.3297 195.269C73.1772 185.228 72.9104 175.421 72.7007 172.462C72.2814 166.922 70.8518 151.95 70.4324 148.507C70.2799 147.342 70.2227 146.123 70.3371 145.782C70.4896 145.118 70.3181 144.993 69.67 145.369Z" fill="#8CC2E1"/>
<path d="M41.345 149.099C35.9316 161.005 33.2058 170.346 30.4419 186.484C26.9918 206.673 26.5915 209.47 25.2763 223.061C24.9141 226.88 24.4376 231.363 24.2279 233.03C24.0182 234.698 23.313 240.615 22.6458 246.173C21.4259 256.483 20.2823 265.197 19.3292 271.329C19.0433 273.194 18.1664 279.29 17.3468 284.867C15.1547 300.269 13.8014 307.495 11.5903 315.474C8.76922 325.586 7.72081 330.499 7.37771 334.982C7.22521 336.667 7.28241 337.331 7.51115 337.492C8.06393 337.815 8.25457 337.295 8.67392 333.906C9.20764 329.639 9.49352 328.312 11.8571 319.669C14.6401 309.36 16.0697 302.438 17.7852 290.712C18.2236 287.646 19.0814 282.016 19.6342 278.197C21.0638 268.712 22.5887 257.075 23.8467 246.209C24.4186 241.207 25.1429 235.236 25.4288 232.923C25.6956 230.628 26.115 226.647 26.3437 224.065C26.5534 221.483 26.9156 217.969 27.1062 216.23C27.3159 214.491 27.5637 212.267 27.659 211.299C27.9258 208.358 28.5548 203.679 29.241 199.411C29.6032 197.188 30.3275 192.741 30.8422 189.55C32.5768 178.774 34.1779 171.673 37.0562 162.116C37.8949 159.301 40.0107 153.85 41.8978 149.547C43.0796 146.858 43.213 146.427 42.8127 146.427C42.6793 146.427 42.0312 147.647 41.345 149.135V149.099Z" fill="#8CC2E1"/>
<path d="M64.9047 147.467C64.9047 148.077 65.0381 149.923 65.1906 151.591C65.8577 158.942 65.5527 163.192 63.3225 181.122C61.4736 195.897 61.2639 197.259 60.2727 202.925C58.8431 211.012 58.5953 213.594 58.3285 221.519C58.0616 229.175 57.547 236.796 56.8798 243.268C56.6701 245.294 55.9077 253.309 55.1643 261.091C54.4209 268.873 53.525 277.802 53.1819 280.94C50.6277 303.119 49.5412 320.243 50.1321 328.867C50.8183 338.908 51.1042 341.132 51.7714 340.719C52.0954 340.54 52.0383 338.747 51.4855 332.023C51.1233 327.881 51.1424 315.007 51.4855 309.736C51.8858 303.926 53.2201 289.17 53.9825 282.571C54.3256 279.505 54.9737 273.14 55.4312 268.407C56.6511 255.551 57.4516 247.59 58.176 241.601C58.7478 236.813 59.0719 231.739 59.3959 223.007C59.72 213.648 59.9296 211.657 61.2449 204.037C62.1598 198.855 65.0381 178.164 66.1436 168.876C66.8108 163.317 66.887 157.616 66.4105 152.308C65.9149 146.696 65.8386 146.373 65.324 146.373C65.038 146.373 64.9237 146.678 64.9237 147.431L64.9047 147.467Z" fill="#8CC2E1"/>
<path d="M49.1798 147.718C48.2076 148.83 42.1461 162.69 40.3353 167.908C39.1344 171.404 36.7518 179.813 35.4175 185.336C34.3119 189.908 33.3398 195.18 32.6536 200.415C32.2533 203.481 30.4615 223.384 29.2226 238.356C28.6126 245.671 27.9836 251.983 24.9909 279.577C23.3326 294.872 22.837 298.01 18.4148 319.149C15.0981 335.089 14.6216 338.119 15.5175 338.119C16.0893 338.119 16.1846 337.886 16.8517 334.031C17.1948 332.041 18.1479 327.505 18.9485 323.973C20.6068 316.693 23.447 302.402 24.4572 296.145C25.2197 291.411 27.1448 274.933 28.1742 264.534C28.5363 260.715 29.07 255.3 29.3559 252.52C29.6419 249.741 30.1756 243.699 30.5377 239.109C33.2444 204.79 34.0832 197.403 36.5993 185.981C39.0391 174.649 42.7561 163.389 47.6739 152.344C49.4847 148.22 49.9422 146.84 49.1798 147.736V147.718Z" fill="#8CC2E1"/>
<path d="M52.4205 154.801C51.7152 157.078 50.5715 160.61 49.8663 162.708C47.2167 170.651 42.2608 188.079 41.098 193.62C39.5922 200.631 38.7726 207.05 38.3151 215.19C38.1626 217.897 37.8767 222.452 37.648 225.303C37.4383 228.153 37.0761 233.389 36.8664 236.939C36.428 244.165 35.6275 251.893 34.1026 263.996C33.5307 268.514 32.5777 276.762 32.0058 282.339C29.3182 307.728 28.0029 317.93 25.849 329.585C24.4194 337.277 24.1716 339.375 24.61 339.375C24.7625 339.375 25.0294 339.124 25.1628 338.819C25.3916 338.281 27.6408 327.613 28.2888 323.829C29.2419 318.576 31.2053 303.299 32.7873 288.937C33.8738 279.04 34.7697 271.24 35.5512 265.162C36.733 255.712 37.7623 244.954 38.1817 237.854C38.3913 233.963 38.7154 229.355 38.8488 227.616C38.9823 225.876 39.2872 221.376 39.516 217.628C40.145 206.727 40.9456 200.756 42.7183 192.849C44.3957 185.282 48.3795 170.687 50.1903 165.165C51.4484 161.399 54.117 151.986 54.117 151.322C54.117 149.924 53.6214 151 52.4396 154.837L52.4205 154.801Z" fill="#8CC2E1"/>
<path d="M55.8508 155.124C55.279 163.264 52.8963 176.012 49.7703 188.133C46.5298 200.649 45.8246 205.687 43.461 232.511C42.9272 238.356 42.1267 246.998 41.612 251.732C41.1164 256.465 40.5255 262.382 40.2968 264.875C40.068 267.385 39.5915 272.262 39.2484 275.758C38.505 282.841 36.2748 306.76 35.3027 318.002C34.5211 326.86 33.6634 335.143 33.3203 337.223C32.9772 339.249 32.9772 339.375 33.4538 339.375C33.9875 339.375 34.2734 338.694 34.7499 336.219C35.3027 333.494 35.4933 331.719 37.0182 314.47C38.81 294.406 40.068 280.582 40.697 274.772C40.9639 272.119 41.3833 267.923 41.612 265.413C41.8217 262.902 42.241 258.814 42.5269 256.304C43.2894 249.706 43.7087 244.918 44.6237 233.551C46.6061 208.95 47.4066 202.818 50.3802 190.805C52.515 182.18 54.2687 173.915 54.993 169.181C56.2892 160.61 56.8801 153.026 56.3083 152.811C56.1177 152.757 55.9652 153.546 55.8317 155.142L55.8508 155.124Z" fill="#8CC2E1"/>
<path d="M55.0326 122.239C54.8992 122.311 52.1734 122.562 48.9711 122.849C45.7879 123.154 41.9375 123.476 40.4126 123.638C33.703 124.247 28.3658 124.642 23.6958 124.911C18.3586 125.198 15.1944 125.467 11.1916 126.04C9.81914 126.238 7.58896 126.471 6.23561 126.578C4.23417 126.704 3.73861 126.829 3.52893 127.206C3.3955 127.475 3.09051 129.375 2.86177 131.455C2.51867 134.647 2.4996 137.57 2.67115 151.537C2.82364 163.784 2.95707 167.943 3.20486 168.176C3.6814 168.625 8.02739 168.732 13.2883 168.427C15.8235 168.284 20.9128 167.979 24.6107 167.764C32.5593 167.316 34.9039 167.083 40.1839 166.24C42.3759 165.881 46.3788 165.379 49.0474 165.075C51.735 164.806 55.6617 164.268 57.7584 163.909C59.8551 163.586 62.3712 163.192 63.3624 163.102C64.4679 162.995 65.2876 162.779 65.5735 162.493C65.9928 162.08 65.9928 161.937 65.5735 159.982C65.3448 158.817 64.468 154.119 63.6864 149.529C62.8668 144.921 61.7994 139.183 61.2847 136.763C60.751 134.342 60.0266 130.164 59.6073 127.475C59.1879 124.785 58.7877 122.49 58.6924 122.347C58.5399 122.114 55.5854 122.024 55.0136 122.221L55.0326 122.239Z" fill="#EE9128"/>
<path d="M86.8279 136.53L85.951 137.283L86.3704 138.466C87.7428 142.339 91.822 148.256 95.5771 151.77C96.4157 152.559 97.3116 153.205 97.5594 153.205C98.1122 153.205 99.3702 150.945 99.3702 149.995C99.3702 149.152 98.1312 147.162 95.7676 144.275C94.9289 143.235 93.6137 141.622 92.8512 140.653C91.1738 138.538 88.3528 135.741 87.9525 135.741C87.8 135.741 87.2663 136.099 86.8279 136.494V136.53Z" fill="#AC5F34"/>
<path d="M22.8565 72.5725C20.4167 74.24 14.7555 76.7681 11.0195 77.8798C6.95942 79.0632 6.99757 79.0453 6.99757 80.9638C6.99757 81.5017 7.34066 84.281 7.76001 87.1677C8.21748 90.0545 8.86555 94.9136 9.22771 97.9617C10.257 106.389 10.8861 109.061 12.5253 112.145C14.1646 115.175 17.386 119.173 21.7319 123.476C26.0398 127.726 27.1835 128.407 30.3477 128.479C32.3682 128.533 33.8549 127.744 35.5514 125.718C38.1628 122.652 41.1554 115.551 42.2991 109.706C42.8328 107.16 42.8519 106.55 42.6232 104.524C41.8417 98.0693 37.0191 88.9966 27.5647 76.1047C26.5163 74.6703 25.5061 73.0925 25.3727 72.6442C25.0486 71.5505 24.4005 71.5325 22.8756 72.5725H22.8565Z" fill="white"/>
<path d="M53.9276 123.029C53.6608 123.71 54.4994 134.11 55.5859 143.29C56.1387 147.916 56.5009 151.789 56.4246 151.861C56.3103 151.932 54.4994 152.165 52.3455 152.345C50.2106 152.542 45.026 153.062 40.8134 153.474C36.6199 153.905 31.2828 154.407 28.9764 154.604C26.6509 154.801 23.6392 155.106 22.2667 155.231C20.8943 155.375 18.0542 155.608 15.9574 155.733C13.8607 155.877 11.5924 156.056 10.9253 156.146L9.72442 156.289L9.43851 152.667C9.07634 148.041 8.61886 139.722 8.352 132.639C8.14232 127.099 8.0089 126.418 7.17021 126.722C6.80804 126.866 6.75085 127.583 6.75085 132.012C6.75085 139.525 7.6658 156.666 8.12327 157.168C8.52356 157.616 16.8152 157.598 22.019 157.114C24.2492 156.917 28.2329 156.576 30.8443 156.361C33.4557 156.164 38.3164 155.751 41.633 155.482C44.9688 155.196 49.1623 154.855 50.9731 154.729C56.0624 154.317 58.3117 153.976 58.5786 153.492C58.7883 153.134 57.6636 141.031 56.7677 134.128C56.234 129.95 55.1666 123.531 54.8998 123.083C54.5757 122.527 54.1564 122.509 53.9467 123.029H53.9276Z" fill="white"/>
<path d="M32.8072 141.496C32.14 142.034 31.9875 142.321 31.9875 143.164C31.9875 144.473 32.3307 145.029 33.3219 145.369C34.8468 145.871 35.8189 145.728 36.5623 144.867C38.6399 142.518 35.2661 139.506 32.8072 141.496Z" fill="white"/>
<path d="M69.69 2.64515C68.3558 3.52373 67.6124 5.98018 68.0889 8.02422C69.0038 12.1482 74.1504 12.4709 76.2281 8.52627C77.2574 6.60773 76.0184 6.12363 74.7032 7.95252C73.5786 9.47659 72.3777 9.97864 71.1196 9.4766C69.3088 8.74146 68.718 5.96226 69.8998 3.66719C70.5669 2.32242 70.5097 2.08933 69.69 2.6631V2.64515Z" fill="#E54E25"/>
<path d="M65.9738 11.8612C64.4489 13.0267 63.229 14.497 62.4665 16.1107C61.5897 17.9755 62.0281 18.2265 63.229 16.541C63.839 15.6983 65.097 14.2818 66.05 13.3853C67.0031 12.5067 67.7846 11.6102 67.7846 11.4309C67.7846 10.7675 67.251 10.893 65.9738 11.8612Z" fill="#E54E25"/>
<path d="M24.2668 72.2502C24.1333 72.4833 26.1157 76.0514 27.9075 78.7409C33.4543 87.1323 36.2563 91.4893 37.3047 93.4078C38.7343 95.9539 40.5451 100.921 40.9454 103.395C41.3457 105.744 41.2885 110.406 40.8692 112.432C40.3354 114.727 38.9249 118.707 37.5715 121.505C36.5422 123.71 36.2372 124.893 36.6947 124.893C37.0378 124.893 39.9352 119.12 40.7548 116.807C42.2797 112.504 42.6419 110.639 42.6228 106.945C42.6038 103.144 42.2988 101.638 40.8311 97.5677C40.2973 96.1332 39.8589 94.7526 39.8589 94.5554C39.8589 94.3582 39.9923 91.7224 40.1448 88.746C40.6023 80.1395 40.4689 73.7922 39.7826 73.828C39.6302 73.828 39.3824 76.6431 39.2108 81.1615C39.0202 85.1779 38.7915 89.3018 38.6771 90.3238L38.4674 92.1706L37.2094 90.019C35.551 87.1861 25.1245 72.2323 24.7433 72.1067C24.5908 72.0888 24.3811 72.1247 24.3049 72.2502H24.2668Z" fill="#A3D1EB"/>
<path d="M87.131 73.7917C86.9213 74.1503 87.1882 75.3875 88.8465 82.1651C89.5518 85.016 90.9052 90.9868 91.8773 95.4514C92.8494 99.8981 94.2218 105.923 94.908 108.809L96.2042 114.099L95.3846 115.641C94.9461 116.502 93.8024 118.456 92.8494 119.998C90.6573 123.53 87.9887 128.443 87.2644 130.236C86.7116 131.599 86.7116 131.653 87.131 133.213C87.3978 134.091 87.6838 134.737 87.7981 134.611C87.8744 134.504 88.1222 133.804 88.2937 133.051C88.4462 132.298 89.0562 130.631 89.609 129.375C91.2673 125.664 96.7379 115.211 97.1382 114.977C97.3669 114.852 98.015 115.103 98.9109 115.641C101.751 117.38 105.83 118.151 105.83 116.95C105.83 116.537 105.258 116.215 103.009 115.282C101.446 114.655 100.112 114.063 100.016 113.991C99.9402 113.92 100.512 113.758 101.274 113.669C103.143 113.435 106.936 112.575 107.565 112.27C108.117 111.965 108.251 111.051 107.755 110.871C107.431 110.746 104.458 111.194 99.5971 112.055C98.625 112.198 97.7482 112.306 97.71 112.234C97.6338 112.18 97.3479 111.105 97.0429 109.849C91.7438 86.9346 91.2864 85.0698 88.9609 77.7364C87.7219 73.8455 87.455 73.3076 87.15 73.7917H87.131Z" fill="#A3D1EB"/>
<path d="M25.2775 76.3736C21.6749 78.4714 14.3744 81.0534 9.93313 81.7886C8.69415 81.9858 7.53142 82.2906 7.32174 82.452C6.90239 82.8106 6.88337 83.994 7.30272 84.4064C8.06517 85.1415 12.4683 84.4781 17.1955 82.9182C20.7981 81.6989 23.0474 80.6231 25.411 78.9197C27.2218 77.6108 27.9652 76.6605 27.6983 76.015C27.4696 75.4413 26.7453 75.5309 25.2775 76.3916V76.3736Z" fill="#A3D1EB"/>
<path d="M88.237 131.079C88.1608 131.276 89.4188 132.693 91.4393 134.665C95.2516 138.377 99.7882 144.025 101.79 147.593C102.495 148.884 103.353 150.067 103.639 150.229C104.382 150.605 105.43 149.906 105.43 148.991C105.43 146.822 98.9495 137.964 94.6035 134.199C91.344 131.348 88.6564 130.021 88.237 131.079Z" fill="#A3D1EB"/>
</svg>
