<svg width="163" height="401" viewBox="0 0 163 401" fill="none" xmlns="http://www.w3.org/2000/svg">
<path d="M36.3973 331.138C35.5676 334.129 34.2614 339.492 33.1711 344.363C32.65 346.63 31.8443 349.983 31.3917 351.838C30.9426 353.67 30.1334 357.458 29.6123 360.214C29.0912 362.97 28.1895 367.276 27.5964 369.753C27.0272 372.226 26.2215 376.094 25.841 378.31L25.1038 382.384L26.0775 383.336C26.6227 383.88 27.1918 384.394 27.3324 384.47C27.8055 384.778 35.6808 386.53 36.747 386.585C37.7173 386.635 37.7893 386.585 38.2178 385.603C38.4784 385.035 40.1858 379.596 42.0612 373.486C43.9331 367.402 46.8302 358.407 48.5342 353.507C51.5204 344.899 54.5101 335.773 54.8186 334.404C55.0552 333.321 54.9832 333.296 43.9811 330.203C41.324 329.454 39.2121 329.016 38.3584 329.016H36.9836L36.3905 331.131L36.3973 331.138Z" fill="#C77343"/>
<path d="M129.933 352.091C129.813 354.075 129.601 357.968 129.457 360.728C129.333 363.361 129.158 366.334 128.973 369.14C128.939 369.713 128.898 370.274 128.86 370.828C128.836 371.194 128.809 371.549 128.781 371.903C128.74 372.505 128.699 373.088 128.654 373.645C128.654 373.696 128.647 373.747 128.644 373.797C128.617 374.149 128.593 374.493 128.565 374.822C128.493 375.728 128.425 376.55 128.356 377.256C128.301 377.85 128.25 378.36 128.202 378.777L127.917 381.225L126.731 381.558C126.638 381.583 126.542 381.609 126.45 381.634C126.169 381.703 125.881 381.761 125.589 381.801C124.907 381.898 124.208 381.924 123.529 381.877C123.176 381.851 122.829 381.808 122.493 381.743C122.092 381.663 121.705 381.562 121.345 381.431L121.334 381.424C121.139 381.355 120.954 381.279 120.779 381.196C119.905 380.783 119.356 380.627 119.308 380.808C119.247 381 119.157 381.087 119.041 381.073C118.976 381.066 118.904 381.029 118.825 380.957H118.818C118.657 380.805 118.475 380.537 118.269 380.142C117.985 379.624 117.7 379.342 117.652 379.497C117.512 379.961 117.176 379.856 116.895 379.291C116.884 379.269 116.874 379.23 116.857 379.179C116.74 378.748 116.514 377.303 116.216 375.155C115.677 371.252 114.906 365.037 114.145 358.41C113.812 355.499 113.408 352.018 113.219 350.678C112.438 344.982 111.844 337.996 112.057 337.12C112.246 336.294 114.498 335.987 122.229 335.726C125.833 335.595 128.846 335.443 128.942 335.364C129.014 335.284 129.251 335.212 129.463 335.212C129.748 335.212 129.961 335.57 130.173 336.396C130.506 337.631 130.386 344.671 129.937 352.094L129.933 352.091Z" fill="#C77343"/>
<path d="M40.1198 167.165C39.9758 167.372 39.6227 169.305 39.3141 171.496C38.721 176.11 38.817 177.298 40.1438 181.06C41.3781 184.465 42.4444 186.63 45.0054 190.777C48.0397 195.673 48.2077 195.879 48.6808 195.673C49.2259 195.441 49.1539 194.514 48.4682 192.45C47.8031 190.414 47.7105 189.846 48.2797 190.979C48.8008 192.062 49.3253 192.656 49.7265 192.656C49.987 192.656 50.035 192.399 49.939 191.418C49.891 190.748 49.7505 190.002 49.6545 189.77C49.5345 189.433 49.6065 189.382 49.987 189.487C50.9127 189.745 50.5802 188.148 48.4682 182.219C47.1654 178.533 46.9014 177.501 47.1894 177.294C47.7825 176.907 49.3253 179.434 50.2716 182.346C51.1013 184.975 51.6944 185.413 52.1436 183.686C52.5241 182.089 51.739 179.409 49.4419 174.354C48.0191 171.236 46.2877 168.168 45.9551 168.168C45.8146 168.168 45.41 167.911 45.0294 167.6C44.1518 166.904 40.569 166.593 40.1198 167.162V167.165Z" fill="#C77343"/>
<path d="M106.602 38.4393C100.698 39.2396 89.4085 43.0529 86.9639 45.0918C85.6371 46.1999 85.2326 47.051 86.4908 46.1239C86.9639 45.7871 87.3925 45.53 87.4405 45.5553C87.4645 45.606 87.4165 46.2253 87.2999 46.9713C86.9194 49.5751 87.6565 52.2549 89.2199 54.033C90.5707 55.554 93.9409 58.4945 96.406 60.298C99.1317 62.2825 99.4882 62.3078 101.624 60.9172C104.113 59.2949 111.419 52.541 115.235 48.3655C118.057 45.2982 119.171 44.2154 119.315 44.4725C119.411 44.679 119.836 45.3489 120.286 45.9935L121.067 47.1524L121.139 46.1492C121.235 45.0664 120.759 44.1647 119.099 42.1005C117.937 40.6846 115.448 39.1889 113.336 38.6457C111.937 38.3089 108.426 38.1822 106.602 38.4393Z" fill="#F6AA87"/>
<path d="M97.9861 14.1217C94.4753 15.0777 91.7496 18.71 91.1805 23.1715C90.7519 26.677 90.8719 29.8747 91.4891 31.8846C92.3428 34.5897 94.2421 37.3239 96.2307 38.6891C96.2787 38.7145 96.0661 40.8801 95.7575 43.5345L95.2124 48.3293L93.8822 48.7167C91.5816 49.4374 87.1486 50.9077 86.4835 51.1902C85.2252 51.7044 85.5818 52.6604 88.2629 55.8291C91.6296 59.8525 94.7358 61.6053 99.1003 61.8624C103.513 62.1448 107.449 60.5732 110.719 57.1691C113.709 54.051 115.06 51.498 114.206 50.5709C114.018 50.3645 111.954 49.6945 109.605 49.0753C107.281 48.456 105.265 47.8657 105.121 47.7354C104.98 47.6303 104.788 46.189 104.716 44.5123C104.62 42.8356 104.456 40.8004 104.312 39.9747L104.099 38.4537L105.354 37.1138C109.173 33.0651 110.027 25.6413 107.346 19.7384C105.378 15.3819 101.607 13.1149 97.9792 14.118L97.9861 14.1217Z" fill="#C77343"/>
<path d="M85.9388 0.733396C83.5423 2.12401 82.5721 5.11527 83.6623 7.6937C84.4234 9.52612 86.2954 10.7864 87.8142 10.4785C88.5959 10.2975 88.5753 10.3735 87.7456 11.7424C85.6817 15.1465 85.5171 20.4554 87.3651 24.7106C88.6953 27.7525 89.9022 28.3211 92.1547 26.9015C94.6678 25.3298 97.1363 22.3386 98.9843 18.576L99.7214 17.1057L100.884 19.0902C102.948 22.621 107.096 26.6444 108.687 26.6444C109.469 26.6444 111.011 23.6785 112.03 20.1983C112.695 17.877 112.883 15.2225 112.551 12.9302L112.362 11.7424L113.312 11.8728C115.516 12.2096 118.105 10.4822 118.791 8.21155C119.264 6.63987 119.003 4.39462 118.174 3.13438C117.179 1.61339 115.969 0.994137 113.905 0.994137C112.434 0.994137 112.126 1.07018 111.368 1.71479C110.254 2.64186 109.28 4.44531 109.139 5.89024L109.019 6.9984L107.974 6.50951C105.317 5.29997 102.852 5.35066 100.976 6.66522L100.099 7.28448L99.1968 6.77025C97.918 6.04959 94.7158 6.17996 93.245 7.00201L92.2507 7.57057L92.3913 5.92285C92.5558 3.80796 91.9181 2.21092 90.5193 1.17883C89.3091 0.327806 87.0325 0.09604 85.9423 0.740646L85.9388 0.733396Z" fill="white"/>
<path d="M133.324 392.708C133.293 392.096 133.087 391.209 132.648 389.84C132.405 389.076 132.086 388.16 131.688 387.062C131.668 387.001 131.64 386.932 131.62 386.867C130.77 384.506 129.631 381.188 129.055 379.407C128.517 377.73 127.982 376.122 127.489 374.713C127.019 373.363 126.59 372.196 126.244 371.327C125.901 370.455 125.647 369.886 125.517 369.741C125.065 369.223 120.251 369.093 118.9 369.56C117.902 369.89 117.519 370.458 116.881 372.776C116.819 372.993 116.757 373.229 116.692 373.478C116.613 373.786 116.476 374.243 116.288 374.869C115.54 377.35 113.912 382.459 111.166 391.01C110.408 393.302 110.312 394.616 110.809 395.88C111.286 397.094 112.019 397.76 113.301 398.097C114.772 398.48 117.213 397.916 119.963 396.576C123.213 394.979 124.516 394.645 126.463 394.903C129.57 395.286 131.61 395.185 132.535 394.591C133.317 394.077 133.365 394.001 133.317 392.712L133.324 392.708Z" fill="#F05341"/>
<path d="M40.573 380.979L40.1684 379.664L38.6976 379.585C37.4496 379.519 36.5445 379.729 34.1446 380.704C33.8566 380.819 33.548 380.95 33.212 381.091C33.1606 381.113 33.1057 381.135 33.0543 381.156C32.5297 381.388 31.3675 381.569 30.4898 381.594C29.6052 381.594 29.1664 381.565 28.8372 381.395C28.6453 381.297 28.491 381.156 28.3093 380.946C28.2064 380.841 28.1241 380.747 28.0556 380.653C27.747 380.229 27.7196 379.766 27.7196 378.19C27.7436 377.006 27.8841 375.38 28.0761 374.554C28.6693 371.824 27.6956 370.661 25.227 371.179C21.4831 371.976 21.5551 371.925 21.5551 374.71C21.5551 375.369 21.5277 375.931 21.4591 376.438C21.3494 377.238 21.1334 377.901 20.7563 378.581C20.4546 379.125 20.05 379.675 19.5117 380.316C19.4329 380.414 19.3472 380.515 19.258 380.617C19.162 380.725 19.066 380.834 18.9735 380.935C18.4626 381.5 17.9621 382.004 17.4649 382.456C17.1975 382.699 16.9267 382.927 16.6524 383.141C16.1415 383.546 15.6204 383.905 15.065 384.234C14.6467 384.484 14.2113 384.712 13.7519 384.933C13.457 385.071 13.1484 385.209 12.8296 385.335C11.5713 385.879 10.3371 386.519 10.1245 386.802C9.53138 387.523 9.5554 390.387 10.1451 391.807C10.6937 393.118 12.257 394.588 13.7039 395.131C15.5998 395.852 19.5597 395.928 23.7116 395.283C25.731 395.001 29.8281 394.458 32.8177 394.099C35.8279 393.737 38.9136 393.299 39.6953 393.118L41.1181 392.784L41.2827 390.749C41.4712 388.095 41.0907 382.681 40.573 380.979Z" fill="#F05341"/>
<path d="M151.488 341.622C151.471 340.007 151.403 338.094 151.276 336.331C150.305 322.305 149.853 317.177 149.023 310.011C148.694 307.302 147.909 299.932 147.271 293.642C146.606 287.352 145.584 277.969 144.995 272.841C143.997 264.102 143.311 256.215 142.386 243.403C141.957 237.293 141.223 229.145 140.699 224.716C140.366 221.725 139.801 217.549 137.761 202.803C136.602 194.59 134.877 183.693 133.259 174.321C133.057 173.151 132.854 172.003 132.659 170.892C132.333 169.056 132.018 167.306 131.713 165.684C130.976 161.845 129.769 155.294 128.987 151.122C127.328 142.149 124.386 126.298 124.005 124.364C123.861 123.643 123.673 123.053 123.58 123.075C123.484 123.1 121.444 123.205 119.027 123.307C111.649 123.618 104.058 124.52 96.4986 126.015C91.7296 126.942 79.7059 130.292 75.9825 131.686C74.2957 132.331 72.3997 133.052 71.7826 133.283C70.6923 133.696 70.6203 133.798 69.9586 135.525C68.2718 139.932 65.8307 148.544 63.5302 158.083C62.7245 161.407 61.4903 166.097 60.8046 168.523C60.64 169.103 60.4446 169.78 60.2354 170.522C59.968 171.478 59.6732 172.532 59.3817 173.582C58.96 175.089 58.5486 176.595 58.2195 177.805C57.5098 180.485 55.4218 187.677 53.5704 193.786C51.7431 199.87 49.3225 207.989 48.2323 211.831C47.142 215.648 45.7398 220.363 45.1501 222.272C44.5569 224.177 43.0415 229.565 41.8073 234.255C40.5764 238.923 37.4462 250.468 34.8337 259.905C32.252 269.342 29.5675 279.189 28.9058 281.815C28.2201 284.444 26.6773 289.832 25.4225 293.801C18.9461 314.621 15.857 324.855 14.5679 329.972C14.4341 330.493 14.321 330.96 14.225 331.377C14.0776 332.025 13.9713 332.565 13.8959 333.01C13.6833 334.245 14.0879 334.611 16.3404 335.02C30.2155 337.653 44.0632 340.72 60.5714 344.845C63.1359 345.478 65.7382 346.098 68.0661 346.626C68.6901 346.768 69.2935 346.902 69.8695 347.028C73.3426 347.796 75.8762 348.281 76.1299 348.194C76.5139 348.057 76.7711 346.96 76.9425 344.519C76.9596 344.28 76.9768 344.023 76.9939 343.755C77.0591 342.708 77.1071 341.455 77.1482 339.974C77.2442 337.421 77.4122 333.991 77.5288 332.369C77.9299 327.085 78.6876 315.845 78.9516 311.336C79.4247 303.01 81.0601 289.735 83.5526 273.572C84.1458 269.81 84.9515 263.776 85.356 260.17C87.0634 244.829 89.9571 223.565 91.805 212.48C92.4427 208.717 92.5867 208.123 92.7547 208.873C92.9913 210.133 93.3718 230.55 93.6564 257.979C93.797 270.737 94.0096 286.979 94.1535 294.066C94.3901 306.773 94.2701 315.693 93.6564 327.962C93.5364 330.439 93.3238 335.592 93.1798 339.434C93.101 341.89 93.0084 344.374 92.9296 346.083C92.9021 346.713 92.8747 347.235 92.8542 347.611C92.8439 347.803 92.8336 347.959 92.8233 348.068C92.7513 348.995 92.7993 349.897 92.9159 350.103C93.1764 350.541 94.2667 350.414 100.527 349.227C105.32 348.299 113.761 347.065 119.737 346.42C126.779 345.645 133.112 345.413 141.556 345.62C146.061 345.721 150.045 345.801 150.425 345.822C150.779 345.822 151.183 345.67 151.303 345.46C151.427 345.239 151.492 344.073 151.495 342.484C151.495 342.208 151.495 341.922 151.495 341.629L151.488 341.622Z" fill="white"/>
<path d="M76.9357 344.511C76.3392 344.374 75.6363 344.2 74.8238 343.99C72.6433 343.396 70.7199 342.933 70.5759 342.933C70.4319 342.933 70.209 344.269 69.8628 347.021C69.2868 346.894 68.6833 346.76 68.0594 346.619C68.3268 344.312 68.4776 342.505 68.3713 342.393C68.0902 342.11 55.991 339.275 50.3957 338.17C47.7867 337.653 42.2394 336.494 38.0635 335.592C28.3574 333.481 20.7872 332.141 14.2217 331.373C14.3177 330.957 14.4308 330.489 14.5645 329.968C22.8821 330.953 32.9138 332.782 43.2816 335.205C45.6301 335.748 49.8026 336.675 52.5283 337.269C55.2814 337.834 59.7624 338.891 62.4915 339.612C65.2446 340.311 67.7576 340.955 68.0902 341.031C68.7039 341.183 68.7279 341.162 68.9885 339.047C70.0307 330.642 71.0284 323.167 71.5256 319.868C72.7118 312.057 75.2249 296.539 76.0066 292.157C77.1929 285.479 78.8283 274.988 80.0145 266.25C81.0808 258.569 83.1207 247.049 84.427 241.374C84.8076 239.748 85.5413 235.859 86.059 232.737C88.0063 221.395 90.5914 209.434 92.2508 204.125C93.1285 201.289 93.2485 200.619 93.5811 196.263C94.0782 189.534 94.5068 185.229 95.357 177.91L96.1147 171.514L94.5719 169.787C92.9125 167.907 92.0828 166.361 91.3731 163.909C90.1389 159.524 91.5617 147.798 94.6439 136.894C95.0245 135.529 95.4496 134.395 95.5696 134.395C95.9502 134.395 95.8336 135.97 95.2165 139.32C94.8839 141.073 94.2428 144.655 93.7936 147.284C92.0623 157.568 91.9422 160.973 93.2245 164.706C93.7011 166.071 95.6656 169.193 96.1902 169.374C96.3547 169.425 96.5227 168.73 96.6153 167.596C97.0199 162.776 99.5124 143.391 100.126 140.32C100.647 137.644 101.429 135.167 101.741 135.167C102.523 135.167 101.953 141.844 99.9615 156.305C99.3924 160.48 98.7512 165.481 98.5387 167.39C98.3261 169.298 97.757 174.067 97.2358 177.96C96.3582 184.609 96.1456 186.597 95.2199 196.777C95.0073 198.968 94.7673 200.822 94.6508 200.902C94.4142 201.083 93.4405 204.201 93.4405 204.82C93.4405 205.077 93.3479 205.284 93.2279 205.284C92.7548 205.284 89.7172 219.566 87.7492 230.934C87.0841 234.903 86.2784 239.31 85.9698 240.73C84.811 246.093 82.4865 259.778 81.5813 266.608C80.6111 273.826 79.6614 279.834 77.5494 292.157C76.3632 299.012 74.2992 311.926 73.161 319.611C72.4238 324.612 70.4353 341.469 70.5759 341.622C70.6239 341.676 72.2593 342.219 74.1792 342.835C75.2866 343.179 76.2226 343.483 76.9837 343.751L76.9323 344.515L76.9357 344.511Z" fill="#F9EAEC"/>
<path d="M132.656 170.888C132.635 170.88 132.615 170.873 132.591 170.866C128.679 169.682 125.809 167.799 122.964 164.525C119.336 160.375 118.126 156.149 117.269 144.832C117.056 142.123 116.796 139.005 116.676 137.871C116.535 136.738 116.439 135.782 116.439 135.757C116.439 135.554 115.963 135.731 115.798 135.988C115.706 136.169 115.562 138.849 115.538 141.942C115.397 151.173 116.203 156.094 118.692 161.639C119.761 164.011 120.327 164.912 121.918 166.716C125.189 170.478 128.223 172.622 132.042 173.933C132.505 174.089 132.903 174.219 133.253 174.317C133.05 173.147 132.848 171.999 132.653 170.888H132.656Z" fill="#F9EAEC"/>
<path d="M81.6974 136.195C81.3889 135.652 81.1523 136.014 80.4186 138.049C80.014 139.237 79.2324 141.761 78.7112 143.67C76.9558 150.011 74.6313 155.142 71.1685 160.194C68.316 164.344 65.8132 166.749 60.2316 170.515C59.9642 171.471 59.6694 172.525 59.3779 173.575C61.1607 172.597 63.5161 171.13 65.4052 169.783C71.5217 165.401 77.0004 157.076 79.5375 148.337C80.2472 145.889 81.91 136.554 81.6974 136.199V136.195Z" fill="#F9EAEC"/>
<path d="M151.492 342.476C150.676 342.458 149.709 342.433 148.578 342.389C133.664 341.9 121.993 342.237 114.306 343.345C107.802 344.28 100.027 345.826 92.8473 347.6L92.8816 346.934L92.9125 346.304L92.9228 346.072C96.2004 345.203 99.838 344.33 102.804 343.733C112.266 341.824 116.723 341.209 123.793 340.792C127.091 340.589 134.774 340.64 140.113 340.872C143.942 341.056 148.42 341.361 151.488 341.625V342.48L151.492 342.476Z" fill="#F9EAEC"/>
<path d="M151.042 187.246C148.008 173.119 141.507 161.827 134.061 157.757C131.547 156.392 128.39 155.953 126.281 156.67C125.05 157.109 122.486 159.068 121.159 160.614C115.68 166.98 114.258 181.752 117.744 196.187C120.683 208.434 126.518 218.408 133.323 222.895C135.459 224.314 137.023 224.752 139.683 224.752C141.699 224.752 142.1 224.673 143.475 223.952C147.295 221.968 149.904 217.741 151.398 211.143C152.941 204.36 152.797 195.365 151.042 187.246ZM135.391 183.867C132.806 186.677 127.78 181.857 125.428 174.357C124.814 172.398 124.646 171.366 124.553 169.2C124.433 165.749 124.694 164.692 125.952 163.584C127.114 162.602 127.944 162.526 129.415 163.326C133.114 165.336 136.649 172.764 136.694 178.612C136.718 181.397 136.361 182.838 135.391 183.867Z" fill="#141313"/>
<path d="M125.925 152.317C125.024 154.895 124.454 158.814 124.314 163.145C124.149 167.864 123.981 167.425 126.494 168.765C129.22 170.236 131.212 171.032 131.737 170.906C132.141 170.775 132.542 169.924 133.609 167.089C135.127 163.015 136.194 160.567 136.574 160.309C136.694 160.233 136.811 159.639 136.811 158.995C136.811 158.042 136.667 157.68 135.957 156.829C135.484 156.261 134.582 155.384 133.941 154.87C132.494 153.711 127.492 150.901 126.875 150.901C126.542 150.901 126.282 151.263 125.925 152.321V152.317Z" fill="#C77343"/>
<path d="M154.529 99.1226C153.154 96.6746 151.704 94.1722 151.327 93.5819C150.974 93.0134 149.17 89.9207 147.343 86.7266C143.311 79.6649 138.59 71.9043 136.553 68.942C132.141 62.5467 127.965 56.9552 126.117 54.9418C125.339 54.098 124.766 53.4027 124.42 52.9029C124.163 52.5299 124.029 52.2619 124.029 52.1098C124.022 51.7151 123.902 51.1429 123.703 50.4766C122.918 47.8692 120.92 43.7988 119.881 43.0636C119.699 42.9333 119.538 42.8355 119.38 42.7739C118.76 42.5313 118.218 42.8681 116.798 44.1175C115.897 44.9178 113.62 47.0073 111.745 48.7347C108.474 51.7731 104.939 54.5072 101.333 56.7778C100.407 57.3717 99.5291 57.8606 99.3886 57.8606C98.9394 57.8606 95.9738 54.1595 93.4813 50.6033C93.063 50.0022 92.655 49.4083 92.2779 48.8361C90.7591 46.5148 89.3362 44.5049 89.1237 44.3782C88.9557 44.2551 88.63 44.2913 88.2288 44.4434C87.9408 44.552 87.6117 44.7186 87.2688 44.9286H87.262C86.4803 45.4067 85.6334 46.0947 85.0437 46.8009C84.406 47.5759 83.8575 48.608 83.5043 49.7668C83.4666 49.8935 83.4255 50.0131 83.3878 50.1326C83.1238 50.9438 82.9078 51.5703 82.8872 51.5956C82.8769 51.6137 82.7329 51.6608 82.4929 51.7296C82.0849 51.8419 81.389 52.0084 80.6107 52.1895C76.9593 53.0405 72.1938 54.6376 71.1721 55.3618C70.2464 56.0282 68.3984 58.5306 66.787 61.29C63.4408 67.0408 49.8982 95.4976 46.3189 104.312C42.0984 114.727 41.6698 115.911 38.6802 124.882C33.9866 138.904 32.4918 144.267 32.0152 148.855C31.4015 154.834 32.5158 158.47 35.8105 161.15L36.9968 162.102V165.789C36.9968 168.986 37.0448 169.53 37.4219 169.942C37.5934 170.131 38.4402 170.482 39.5545 170.844L39.6676 170.88L39.9624 170.974L40.5247 171.145L40.6036 171.17C40.703 171.195 40.8059 171.228 40.9087 171.257C41.6047 171.445 42.5955 171.757 43.6927 172.122L44.5121 172.398C45.8115 172.847 47.1966 173.35 48.4 173.81L49.096 174.078C50.2617 174.527 51.3519 174.925 52.185 175.212C52.8193 175.429 53.3027 175.577 53.5564 175.635C53.6319 175.653 53.6833 175.661 53.7176 175.661C54.1187 175.661 54.3107 175.454 54.4273 174.94C54.4958 174.552 54.9004 173.394 55.305 172.361L56.0181 170.504L56.8238 171.022C57.8215 171.692 58.8843 172.05 59.4809 171.898C60.1186 171.692 60.4271 171.022 61.3288 167.592C61.7814 165.865 63.3208 160.61 64.7436 155.942C66.1425 151.249 67.4693 146.791 67.6818 145.991L68.0864 144.524L71.3332 143.858C75.6737 142.956 84.2621 141.46 86.9157 141.149C96.3064 140.015 98.7749 139.805 103.945 139.784C109.708 139.733 115.66 140.117 119.051 140.765C120.686 141.073 125.524 142.67 125.833 142.978C125.881 143.028 125.335 144.343 124.602 145.889C123.199 148.957 122.466 151.176 122.682 151.741C122.822 152.205 125.335 154.113 129.583 157.076C132.902 159.372 134.754 160.838 137.006 162.953C137.788 163.703 138.593 164.318 138.785 164.318C139.07 164.318 141.134 161.689 141.823 160.451C142.012 160.114 142.104 160.168 142.464 160.708C143.102 161.686 144.456 162.975 145.334 163.438C146.993 164.286 148.179 163.438 150.003 160.085C151.759 156.837 157.594 140.931 159.703 133.609C162.36 124.382 162.977 121.311 163.001 117.523C163.001 113.992 163.121 114.249 154.536 99.119L154.529 99.1226Z" fill="#F6AA87"/>
<path d="M76.2873 75.1857C75.6222 76.0113 74.2474 78.9483 73.1571 81.9142C71.9468 85.1879 68.0795 97.87 66.4921 103.748C64.8807 109.676 62.4842 121.148 61.6305 126.895C60.6808 133.468 60.3517 143.445 61.0613 144.553C61.5345 145.328 62.0316 145.299 68.0795 144.216C70.8531 143.728 74.5285 143.159 76.2153 142.927C80.2712 142.413 81.694 142.076 82.0506 141.613C82.2872 141.28 82.2872 141.175 82.0026 140.968C81.1969 140.428 74.7685 140.943 67.0852 142.181C64.9253 142.514 63.0293 142.801 62.8407 142.801C62.5562 142.801 62.5322 142.156 62.6727 138.857C62.8167 135.17 63.3379 128.648 63.6705 126.588C64.7127 119.653 66.6121 110.349 68.0589 104.961C69.1252 100.916 73.8908 85.1119 75.5776 79.984C76.3833 77.5359 77.0484 75.345 77.0484 75.1386C77.0484 74.6243 76.7399 74.6497 76.2907 75.1893L76.2873 75.1857Z" fill="#EB9071"/>
<path d="M121.678 111.258C120.279 110.537 118.451 109.346 117.601 108.651C115.136 106.59 111.978 101.64 110.936 98.1849C110.556 96.9501 110.25 96.3779 109.894 96.2258C109.253 95.9687 99.4609 95.4508 96.0667 95.4762C94.6679 95.5015 92.1548 95.6319 90.4714 95.7333C87.0086 95.9651 86.4395 96.2222 86.0589 97.6924C85.7024 99.1591 84.4235 101.687 83.1653 103.414C81.835 105.272 78.7768 108.133 77.426 108.828C76.9014 109.085 75.7392 109.679 74.8889 110.117C73.6786 110.737 73.2741 111.073 73.1575 111.588C72.3758 114.963 71.8787 130.021 72.5164 130.843C72.9415 131.437 73.8466 131.408 80.0351 130.636C87.4818 129.734 90.9205 129.503 99.3409 129.322C106.122 129.17 111.529 129.347 117.173 129.916L118.739 130.071L119.452 128.55C120.046 127.29 124.246 113.471 124.246 112.801C124.246 112.696 123.104 112.001 121.681 111.255L121.678 111.258ZM117.79 123.81L116.819 127.033L106.599 127.058C94.3113 127.109 87.7663 127.547 80.6042 128.862C77.9231 129.351 75.578 129.814 75.3655 129.894C75.0089 129.995 74.9403 129.611 74.8203 126.595C74.7278 124.715 74.7483 120.924 74.8409 118.168L75.0329 113.192L76.5037 112.598C78.5642 111.798 81.0568 110.121 82.7436 108.423C85.4247 105.743 88.4349 100.792 88.4349 99.065C88.4555 97.5983 88.1263 97.649 98.0861 97.4896C103.136 97.4136 107.665 97.3629 108.118 97.3629L108.948 97.3883L109.112 98.9346C109.493 102.697 112.009 107.285 115.088 109.864C115.753 110.432 117.221 111.41 118.386 112.08C119.528 112.75 120.45 113.42 120.45 113.576C120.45 114.115 118.791 120.507 117.793 123.81H117.79Z" fill="#EB9071"/>
<path d="M57.6471 168.382C55.3706 166.01 52.5249 164.181 48.517 162.45C43.3468 160.237 38.7458 159.306 37.371 160.183C36.9458 160.44 36.9458 160.491 37.3504 160.958C37.5869 161.24 38.1561 161.523 38.6292 161.602C40.124 161.86 40.124 161.885 39.6715 164.438C39.3458 166.386 39.3458 169.07 39.5549 170.837L39.6681 170.873L39.9629 170.967L40.5252 171.137L40.604 171.163C40.7 170.515 40.7994 169.711 40.8817 168.845C41.2863 164.978 41.6394 162.816 41.9514 162.609C42.2326 162.428 45.2702 163.486 45.2702 163.768C45.2702 163.898 45.0096 164.981 44.7011 166.144C44.2382 167.878 43.7891 170.663 43.6931 172.119L44.5125 172.394C44.5982 172.133 44.6908 171.811 44.7937 171.424C45.7399 167.893 46.7856 164.746 47.0702 164.619C47.3547 164.518 49.6793 165.47 50.1078 165.858C50.2244 165.984 50.2244 166.216 50.0564 166.397C49.4598 167.201 48.5684 171.576 48.4004 173.806L49.0964 174.074C49.3364 173.513 49.6244 172.763 49.9158 171.941C51.8838 166.375 51.7638 166.527 53.5432 167.741L54.4929 168.411L53.7797 170.652C53.3786 171.916 52.7855 173.593 52.4769 174.39C52.3638 174.686 52.2678 174.962 52.1855 175.208C52.8198 175.425 53.3032 175.574 53.5569 175.632C54.1226 174.784 54.7397 173.596 55.254 172.3C55.7991 170.935 56.2723 169.801 56.2963 169.747C56.3443 169.696 56.8654 170.029 57.5065 170.442C60.0916 172.249 60.1876 170.985 57.6471 168.382Z" fill="#EB9071"/>
<path d="M134.486 370.633C133.869 370.633 133.063 370.734 132.683 370.839L132.018 371.045L132.871 369.963C134.034 368.471 134.366 367.334 133.869 366.508C133.324 365.581 132.374 365.682 131.092 366.74C130.482 367.239 129.731 368.09 128.973 369.141C128.551 369.72 128.133 370.354 127.729 371.02C127.564 371.281 127.19 371.799 126.673 372.432C125.761 373.548 124.42 375.022 123.056 376.043L122.085 376.793L117.392 374.265L116.915 372.849C116.908 372.824 116.898 372.802 116.891 372.776C116.829 372.994 116.768 373.229 116.703 373.479C116.624 373.787 116.487 374.243 116.298 374.87C116.449 375.942 116.631 377.329 116.853 379.179C116.939 379.864 117.028 380.613 117.128 381.435C117.272 382.699 117.508 383.988 117.652 384.271C117.865 384.684 117.793 384.865 117.224 385.278C116.847 385.56 115.66 386.748 114.615 387.907C113.144 389.482 112.434 390.514 111.7 392.111C111.491 392.564 111.316 392.984 111.172 393.364C110.675 394.675 110.579 395.512 110.963 395.512C111.104 395.512 111.2 395.41 111.2 395.305C111.2 395.2 111.368 394.852 111.639 394.374C112.479 392.89 114.32 390.098 115.232 388.989C115.917 388.193 116.939 387.161 117.508 386.748L118.527 385.973L119.425 386.487C121.084 387.439 123.957 387.081 125.048 385.741C125.713 384.941 126.258 385.071 128.462 386.407C129.971 387.324 131.404 388.501 132.648 389.84C132.405 389.076 132.086 388.16 131.689 387.063C131.668 387.001 131.64 386.932 131.62 386.867C130.015 385.705 128.212 384.608 127.468 384.398C126.923 384.267 126.378 384.086 126.234 384.035C126.045 383.985 126.045 383.601 126.258 382.67C126.319 382.442 126.381 382.076 126.45 381.631C126.587 380.668 126.731 379.313 126.827 378.082C126.971 376.275 127.135 374.757 127.159 374.707C127.177 374.699 127.297 374.699 127.492 374.714C127.746 374.728 128.13 374.761 128.565 374.823C128.709 374.844 128.86 374.866 129.011 374.888C133.087 375.453 135.888 374.989 136.55 373.649C137.308 372.103 136.29 370.633 134.486 370.633ZM122.15 377.98C122.246 377.98 122.747 378.133 123.22 378.343C123.717 378.549 124.31 378.781 124.55 378.857C124.931 378.987 124.955 379.063 124.643 379.527C124.451 379.838 123.837 380.479 123.292 380.993L122.294 381.924L120.848 381.175C120.042 380.787 119.284 380.378 119.164 380.273C118.976 380.092 121.749 377.98 122.15 377.98ZM117.834 378.545C117.834 378.162 117.765 377.205 117.669 376.434L117.529 375.04L118.098 375.427C118.407 375.659 119.164 376.148 119.802 376.535C120.419 376.919 120.916 377.336 120.916 377.412C120.916 377.618 118.355 379.27 118.047 379.27C117.927 379.27 117.834 378.958 117.834 378.549V378.545ZM118.427 384.166C118.359 384.035 118.239 383.163 118.146 382.232L118.002 380.505L119.733 381.457C121.156 382.232 121.393 382.46 121.132 382.721C120.446 383.42 118.571 384.423 118.427 384.166ZM124.334 384.886C123.597 385.683 121.557 386.353 120.752 386.071C119.922 385.788 119.257 385.35 119.305 385.144C119.425 384.832 121.941 383.159 122.342 383.13C122.534 383.13 123.22 383.336 123.858 383.619L125.044 384.108L124.334 384.883V384.886ZM125.665 381.301C125.521 382.304 125.308 383.181 125.212 383.231C125.116 383.311 124.595 383.13 124.05 382.873L123.052 382.384L124.427 380.888C125.161 380.063 125.826 379.393 125.87 379.422C125.894 379.472 125.822 380.298 125.661 381.301H125.665ZM125.946 376.561C125.757 378.259 125.665 378.314 124.05 377.568L123.244 377.205L124.523 375.942C125.212 375.243 125.853 374.757 125.946 374.859C126.042 374.96 126.042 375.735 125.946 376.561ZM129.055 370.553C130.526 368.442 133.015 366.454 133.015 367.359C133.015 368.152 130.516 370.806 128.781 371.904C128.809 371.553 128.833 371.194 128.86 370.828C128.922 370.741 128.987 370.651 129.055 370.553ZM135.412 372.925C134.819 373.7 132.967 374.087 130.598 373.932L128.644 373.794C128.644 373.747 128.651 373.696 128.654 373.642L129.457 373.236C130.903 372.537 133.204 371.842 134.106 371.817C134.486 371.791 135.031 371.947 135.264 372.15C135.645 372.461 135.669 372.566 135.408 372.925H135.412Z" fill="white"/>
<path d="M128.86 370.827C128.836 371.193 128.808 371.548 128.781 371.903C128.712 371.946 128.644 371.986 128.578 372.026C127.845 372.439 127.883 372.189 128.86 370.827Z" fill="#C77343"/>
<path d="M128.654 373.645C128.654 373.696 128.647 373.746 128.644 373.797L128.394 373.779L128.658 373.645H128.654Z" fill="white"/>
<path d="M28.309 380.953C28.2061 380.848 28.1238 380.754 28.0553 380.66C27.9833 380.718 27.9113 380.78 27.8359 380.845L25.7033 382.623L25.1788 382.014L24.6131 381.359C23.3651 379.91 22.004 377.77 21.4589 376.445C21.3903 376.282 21.3354 376.133 21.2943 375.996C20.5126 373.367 17.2178 369.477 15.795 369.477C15.603 369.477 15.2704 369.705 15.0338 369.991C14.4647 370.661 14.6807 372.258 15.4864 373.627L16.1035 374.63H14.9413C13.923 374.63 13.683 374.732 13.1653 375.431C12.4282 376.383 12.4042 376.691 13.0007 377.491C13.4259 378.085 13.5939 378.111 16.7447 378.136C18.9252 378.161 20.2554 378.292 20.636 378.498C20.6703 378.516 20.7114 378.545 20.7594 378.589C21.1777 378.918 22.172 379.943 23.1251 381.026L25.0451 383.188L23.9754 383.937C23.3822 384.35 22.8165 384.683 22.7171 384.683C22.4565 384.683 21.2943 383.137 20.132 381.258C19.9023 380.888 19.6966 380.573 19.5115 380.323C19.4326 380.421 19.3469 380.522 19.2577 380.624C19.1618 380.732 19.0658 380.841 18.9732 380.943C19.5492 382.416 20.8314 384.651 21.3457 385.024C21.8188 385.386 21.7949 385.408 20.9652 385.976C20.492 386.284 20.0875 386.519 20.0395 386.465C20.0189 386.414 19.2577 385.23 18.3801 383.836C18.0578 383.329 17.7424 382.855 17.4647 382.463C17.1972 382.706 16.9264 382.934 16.6521 383.148C16.8852 383.633 17.2212 384.26 17.5949 384.893C18.9218 387.034 18.9218 387.265 17.7149 387.265C17.0807 387.265 15.8087 385.792 15.0647 384.242C14.6464 384.491 14.211 384.72 13.7516 384.941C14.1424 385.817 14.7493 386.806 15.4624 387.628C16.1961 388.453 16.4087 388.555 17.4784 388.555C19.7 388.555 21.4177 387.591 26.3307 383.583C26.5673 383.394 26.8107 383.191 27.0576 382.985C27.709 382.442 28.3158 381.906 28.8438 381.406C28.6518 381.308 28.4976 381.167 28.3158 380.957L28.309 380.953ZM16.1687 376.948C13.9641 376.948 13.443 376.742 13.9642 376.046C14.1561 375.789 14.7219 375.663 15.6476 375.663C16.7618 375.663 17.1424 375.764 17.6875 376.307L18.3526 376.923L16.1721 376.948H16.1687ZM20.2932 376.333C19.892 376.767 16.3093 373.186 15.8601 371.896C15.291 370.299 15.9081 370.375 17.4749 372.077C18.8258 373.544 20.5126 376.097 20.2966 376.333H20.2932Z" fill="white"/>
<path d="M36.7531 390.662C36.2319 389.71 35.6388 388.421 35.4228 387.801C34.8948 386.139 34.2674 382.63 34.144 380.707C33.856 380.823 33.5474 380.953 33.2114 381.094C33.16 383.057 33.2594 385.614 33.5028 386.9C34.168 390.38 35.9234 393.577 37.0582 393.396C37.8673 393.266 37.7679 392.495 36.7496 390.666L36.7531 390.662Z" fill="white"/>
<path d="M8.15638 386.092C4.7656 386.787 1.5394 389.134 0.473134 391.738C0.188569 392.357 0 393.385 0 394.211C0 396.971 1.56683 398.618 4.50505 398.98C6.521 399.238 19.803 398.079 29.5262 396.815C32.6564 396.402 36.1912 395.989 37.3535 395.913C38.5397 395.837 39.8905 395.707 40.3877 395.631L41.2654 395.475V393.208C41.2654 391.919 41.1454 390.836 41.0288 390.76C40.8848 390.659 39.3214 390.836 37.518 391.122C35.7386 391.405 32.0393 391.897 29.2896 392.18C26.564 392.462 23.1492 392.824 21.6989 392.98C20.2761 393.132 17.9756 393.288 16.6008 393.313C14.4922 393.338 13.9917 393.262 13.306 392.824C11.8832 391.922 11.5026 391.097 11.5026 389.007C11.5026 387.975 11.5506 386.867 11.6226 386.508C11.7426 385.915 11.6706 385.864 10.7929 385.813C10.2718 385.788 9.08551 385.915 8.15982 386.096L8.15638 386.092Z" fill="white"/>
<path d="M121.921 390.659C120.142 390.992 118.767 391.716 116.562 393.44C114.262 395.273 113.789 395.53 113.028 395.53C112.362 395.53 111.368 394.291 111.108 393.132C110.871 392.18 110.634 392.256 110.182 393.469C109.709 394.784 109.685 397.387 110.158 398.34C110.703 399.528 112.266 400.198 114.831 400.35C117.416 400.505 129.7 399.781 130.911 399.397C133.732 398.521 134.493 396.587 133.472 392.951C133.115 391.687 132.999 391.611 132.025 392.05C130.767 392.618 130.081 392.538 127.828 391.535C125.6 390.532 123.892 390.271 121.924 390.659H121.921Z" fill="white"/>
<path d="M124.033 52.1033C124.026 51.7086 123.906 51.1364 123.707 50.4701C116.202 53.512 103.592 59.6793 100.835 61.7145C100.287 62.1273 99.7212 62.4605 99.5772 62.4605C99.4332 62.4605 98.7955 62.0766 98.1338 61.5841L96.9475 60.7077L97.6126 60.2189C97.9692 59.9364 100.15 58.5204 102.426 57.0465C112.839 50.4484 116.894 47.0443 119.243 43.0245C119.294 42.9412 119.339 42.8543 119.387 42.7674C118.766 42.5248 118.225 42.8616 116.805 44.1109C115.904 44.9113 113.627 47.0008 111.752 48.7282C108.481 51.7665 104.946 54.5007 101.339 56.7713C100.414 57.3652 99.536 57.8541 99.3955 57.8541C98.9463 57.8541 95.9807 54.153 93.4882 50.5968C91.4173 48.2973 89.3157 45.8492 88.2357 44.4369L87.2757 44.9221H87.2689C88.7808 47.3919 90.3888 49.3257 94.3178 53.4396C96.5944 55.837 98.4458 57.8468 98.3738 57.8975C98.3258 57.9482 97.7326 58.4118 97.0709 58.9296L95.8607 59.8567L90.9065 55.8623C88.1774 53.646 85.1432 51.3247 84.1729 50.6548C83.9124 50.4846 83.6484 50.3035 83.3981 50.1297C83.1341 50.9409 82.9181 51.5674 82.8975 51.5927C82.8872 51.6108 82.7433 51.6579 82.5033 51.7267C82.5615 51.7665 82.6232 51.8064 82.6815 51.8462C85.4792 53.7257 91.9556 58.9586 95.8915 62.5148C97.5509 64.0648 99.1177 65.2997 99.3303 65.2997C99.5429 65.2997 100.256 64.9122 100.897 64.4486C104.62 61.7362 114.988 56.6627 124.437 52.9C124.18 52.527 124.046 52.2591 124.046 52.107L124.033 52.1033Z" fill="#EB9071"/>
<path d="M120.073 78.0529C119.84 78.7265 120.563 84.097 121.372 87.6858C122.414 92.2705 124.437 99.3322 125.867 103.269C128.061 109.334 131.171 115.494 133.492 118.431C134.023 119.127 134.472 119.775 134.472 119.891C134.472 120.677 129.042 134.105 126.913 138.574C126.038 140.424 125.315 142.115 125.315 142.347C125.315 142.579 125.699 142.995 126.23 143.343C126.721 143.669 127.403 144.154 127.722 144.455L128.318 144.987L127.595 146.722C126.103 150.242 125.339 153.367 126.018 153.157C126.145 153.11 126.954 151.582 127.807 149.731C128.637 147.902 129.446 146.349 129.576 146.305C129.724 146.236 130.344 146.747 130.962 147.417L132.069 148.619L130.941 151.306C129.6 154.526 129.388 155.29 129.875 155.29C130.067 155.29 130.704 154.363 131.431 153.066C133.413 149.503 133.115 149.64 134.647 151.538L135.967 153.135L135.117 154.917C134.308 156.63 134.03 157.836 134.479 157.836C134.586 157.836 135.182 157.093 135.799 156.217C136.416 155.315 136.992 154.595 137.078 154.595C137.164 154.595 137.609 155.033 138.059 155.565L138.888 156.514L138.079 158.042C137.633 158.875 137.205 159.849 137.119 160.197C137.013 160.755 137.057 160.845 137.438 160.845C137.716 160.845 138.247 160.334 138.974 159.339L140.081 157.857L141.295 159.06C144.041 161.837 146.62 163.55 147.6 163.297C148.814 162.949 148.409 162.022 146.534 160.867C144.573 159.661 142.296 157.51 139.163 153.899C133.752 147.649 131.006 144.777 129.323 143.549C128.428 142.901 127.598 142.347 127.471 142.3C127.345 142.253 128.047 140.496 129.024 138.389C132.24 131.537 135.011 124.265 135.415 121.604L135.566 120.655L137.417 120.028C138.439 119.681 139.886 119.264 140.654 119.101C142.378 118.707 142.996 118.359 142.996 117.758C142.996 117.041 142.08 116.787 140.417 117.088C139.629 117.204 138.885 117.32 138.758 117.32C138.631 117.32 138.864 116.718 139.269 115.976C140.037 114.633 140.229 113.615 139.759 113.615C139.612 113.615 138.607 114.633 137.524 115.86L135.566 118.131L134.904 117.32C133.094 115.096 130.728 110.49 128.62 105.141C127.17 101.436 124.039 91.2493 122.209 84.2129C121.314 80.8306 120.505 77.9841 120.419 77.8683C120.292 77.7306 120.165 77.8212 120.076 78.0529H120.073Z" fill="#EB9071"/>
<path d="M104.106 38.457L95.2126 48.3289L96.2308 38.6888C96.2308 38.6888 100.527 41.2672 104.106 38.457Z" fill="#B65D35"/>
</svg>
