<svg width="99" height="301" viewBox="0 0 99 301" fill="none" xmlns="http://www.w3.org/2000/svg">
<g clip-path="url(#clip0_102_1922)">
<path d="M48.021 0.446955C46.2509 0.713754 42.627 2.57292 40.7339 4.20461C37.9232 6.61984 35.2562 11.2284 32.6337 18.1175C28.262 29.705 27.3652 31.4265 22.4313 37.7988C19.5369 41.534 14.3311 46.6341 10.9582 48.9819C7.8755 51.15 8.06375 50.9731 8.47949 51.4645C9.22728 52.3604 13.7689 56.1377 16.164 57.8621C18.8911 59.8308 19.7251 60.3223 22.8287 61.7995C25.8696 63.2542 27.5351 63.7457 30.1158 63.9451C37.4264 64.5265 43.9212 62.2011 52.8137 55.826C57.2482 52.6497 63.4344 44.8872 66.1615 39.116C68.2428 34.6646 69.056 25.63 67.9317 19.502C66.389 11.0459 62.5376 4.87582 57.0207 2.03371C54.1262 0.534016 51.1481 0.0200768 48.0262 0.444147L48.021 0.446955Z" fill="#FFFEFC"/>
<path d="M55.1617 30.3507C56.0977 36.8831 56.1396 37.3296 55.7029 37.5094C55.4937 37.5992 48.3113 38.4277 47.9766 38.4052C47.4144 38.3603 47.3935 38.3154 47.268 36.796C47.2628 36.7567 47.2628 36.7174 47.2576 36.6724C47.1791 35.6895 47.1216 33.0861 47.1007 30.6905L47.0798 26.1269L46.8993 25.6944L46.4339 24.5822C45.6626 22.6585 45.205 20.1983 45.205 17.8729C45.205 16.3957 44.4965 15.7919 44.9959 14.1827C45.7463 11.8349 47.4536 9.7089 49.2029 8.97029C50.0971 8.56869 51.909 8.70068 52.8059 9.19496C53.9511 9.8437 54.929 10.894 55.0545 11.6102C55.1172 11.9219 55.4284 12.9526 55.7421 13.8682C56.2415 15.3454 56.3252 15.8593 56.3252 18.2296C56.3252 21.2037 55.9722 23.0601 55.0545 24.8715L54.6492 25.6747L54.5106 25.9443L54.6597 26.9722L55.1564 30.3507H55.1617Z" fill="#FBC4AF"/>
<path d="M43.9605 252.519C43.9605 252.788 43.7722 253.055 43.5029 253.167C42.9617 253.398 42.5982 253.78 41.2621 255.9C40.9065 256.464 40.4804 257.155 39.9627 257.998C39.6149 258.554 39.1992 259.211 38.7468 259.91C37.6016 261.688 36.2368 263.744 35.2353 265.156C33.3188 267.864 32.7566 268.824 32.8403 269.206C32.924 269.54 32.7985 269.81 32.3828 270.167C32.0716 270.414 31.716 270.636 31.5696 270.636C31.4441 270.636 25.7598 265.378 25.4278 263.544C25.2395 262.516 24.3034 260.994 25.0539 259.877C25.4068 259.34 26.6148 257.728 27.7182 256.321C28.602 255.192 29.8596 253.546 30.8166 252.271C31.0571 251.954 31.2741 251.662 31.465 251.401C32.252 250.334 33.0678 249.266 33.4731 248.747C33.5594 248.635 33.6299 248.547 33.6718 248.491C34.0875 248 34.3594 247.932 35.672 247.887C38.8174 247.775 41.772 248.581 42.8571 249.856C43.3983 250.482 43.9605 251.847 43.9605 252.519Z" fill="#FBC4AF"/>
<path d="M70.4051 280.813C70.4051 281.574 69.1553 283.004 67.9264 283.63C66.6975 284.279 64.1168 284.346 61.8264 283.765C59.515 283.184 59.3686 283.004 59.1411 280.589C58.8221 277.252 57.4782 269.47 56.3173 264.081C56.1866 263.474 56.0584 262.898 55.9329 262.362C55.6689 261.185 55.5041 260.337 55.4257 259.686C55.376 259.259 55.3656 258.919 55.3891 258.627C55.4518 257.933 66.7576 255.518 66.2373 255.897C66.036 256.057 65.9366 256.153 66.0125 256.846C66.0831 257.515 66.3158 258.745 66.7786 261.132C66.7838 261.16 66.789 261.194 66.7942 261.225C67.291 263.921 67.9473 267.482 68.2349 269.184C68.5251 270.905 69.1291 274.104 69.5893 276.275C70.026 278.465 70.4025 280.502 70.4025 280.816L70.4051 280.813Z" fill="#FBC4AF"/>
<path d="M54.6675 26.9751C54.3511 27.3795 54.019 27.7502 53.7471 27.9805C52.934 28.6742 48.2903 34.4679 47.6262 35.6306C47.4928 35.8441 47.3438 36.2794 47.2627 36.6697C47.1843 35.6868 47.1268 33.0834 47.1059 30.6878L47.085 26.1242L46.9045 25.6917C47.8537 26.9161 49.0381 27.6856 50.2513 27.8682C51.7704 28.0928 52.8137 27.6435 54.2073 26.1466C54.3694 25.9725 54.5184 25.8124 54.657 25.6748L54.5184 25.9444L54.6675 26.9723V26.9751Z" fill="#F4A87F"/>
<path d="M41.2595 255.9C40.9039 256.464 40.4778 257.155 39.9601 257.998C39.6123 258.554 39.1966 259.211 38.7442 259.91C37.1336 258.284 32.8508 254.153 30.814 252.269C31.0545 251.951 31.2715 251.659 31.4624 251.398C32.2494 250.331 33.0652 249.264 33.4705 248.744C35.3478 250.46 37.5676 252.476 38.9377 253.723C40.0594 254.743 40.7889 255.417 41.2569 255.897L41.2595 255.9Z" fill="#F4A87F"/>
<path d="M66.7996 261.222C65.5053 261.592 63.7849 262.067 61.4944 262.696C59.0026 263.381 57.3868 263.819 56.3174 264.081C56.1866 263.474 56.0585 262.898 55.933 262.362C55.6689 261.185 55.5042 260.337 55.4258 259.686C57.7633 259.087 60.6943 258.307 62.9089 257.686C64.0149 257.377 65.0843 257.088 66.0152 256.846C66.0858 257.515 66.3185 258.745 66.7813 261.132C66.7865 261.16 66.7917 261.194 66.7969 261.225L66.7996 261.222Z" fill="#F4A87F"/>
<path d="M50.5807 3.10918C48.7478 3.73546 47.6654 4.54147 45.3749 6.8893C43.0845 9.2596 41.9392 10.9362 40.1273 14.5843C37.6277 19.617 36.6498 24.6272 37.8159 26.5285C38.2107 27.1997 39.8763 27.7361 40.7313 27.489C41.6464 27.1997 43.21 25.4304 44.8546 22.8158C45.6651 21.5183 47.1241 19.5047 48.102 18.3195C50.6225 15.3005 51.454 13.6463 52.4136 9.88868C52.4763 9.70895 53.266 10.3802 54.453 11.5456C56.2231 13.3346 56.4741 13.6913 57.0572 15.2584C57.6403 16.7356 57.9122 17.1372 58.9947 18.1201C60.0772 19.0834 60.37 19.2604 60.9949 19.1929C64.3051 18.8784 62.2656 11.2086 57.3501 5.48229C55.6218 3.49113 55.3498 3.28892 53.9562 3.11199C53.3313 3.02212 52.5809 2.90978 52.2907 2.82272C52.0005 2.75532 51.2291 2.89013 50.5833 3.11199L50.5807 3.10918Z" fill="#FFFEFC"/>
<path d="M53.9536 111.857C49.0825 112.213 41.3771 113.623 37.3584 114.876C34.9633 115.611 28.3822 118.319 25.7179 119.661C23.281 120.891 21.0533 122.256 19.7225 123.329C19.1394 123.823 18.7629 124.023 18.7028 123.843C18.64 123.641 18.5354 123.641 18.3498 123.843C18.1615 124.045 18.3079 124.893 19.0583 127.87C19.5787 129.929 20.3709 132.835 20.8285 134.313C21.6207 136.952 22.6404 141.202 29.3863 170.21C33.4468 187.588 35.1751 195.216 37.1126 204.096C37.9022 207.786 39.1729 213.378 39.9024 216.487C40.6528 219.618 41.2568 222.325 41.2568 222.48C41.2568 222.926 35.9674 230.621 32.3251 235.474C26.5781 243.124 26.8474 242.72 26.9938 243.324C27.1403 243.973 31.5747 249.474 33.8861 251.889C35.5307 253.611 40.2162 257.883 40.4254 257.86C40.4881 257.86 41.3849 256.697 42.4047 255.265C45.4037 251.106 47.5477 248.241 47.6105 248.309C47.736 248.466 49.4224 254.931 50.1101 257.86C51.0069 261.708 51.2344 262.109 52.4633 262.132C54.6491 262.132 67.04 258.801 69.6416 257.503C70.5149 257.057 71.2444 256.63 71.2444 256.565C71.2444 256.501 70.9725 254.908 70.6404 253.075C70.2848 251.218 69.7436 247.75 69.3906 245.357C69.035 242.964 68.2454 238.224 67.6414 234.845C64.8515 219.612 65.0607 221.067 65.5183 220.239C65.7274 219.86 67.2675 217.354 68.9539 214.715C73.14 208.118 76.4711 202.346 78.7197 197.783C80.3016 194.584 80.7199 193.511 81.2402 191.34C82.0116 188.096 82.0325 186.776 81.3448 179.82C80.8245 174.476 80.1996 167.002 79.7839 160.807C79.6584 158.906 79.3681 154.968 79.159 152.084C78.9289 149.2 78.6596 144.614 78.5341 141.907C78.2621 135.711 77.9719 131.26 77.5745 127.817C77.4098 126.339 77.2842 125.064 77.2842 124.977C77.2842 124.91 77.4934 124.798 77.7627 124.753C78.0948 124.708 78.2412 124.506 78.2831 124.059C78.3667 123.388 78.6569 123.767 71.8693 116.322C69.9737 114.241 68.4336 113.101 66.538 112.34C65.1836 111.803 64.8306 111.758 60.8328 111.691C58.4796 111.668 55.3969 111.736 53.9615 111.848L53.9536 111.857Z" fill="#FFFEFC"/>
<path d="M26.05 258.447C25.8827 258.627 25.0303 259.318 24.1753 260.011C22.0313 261.733 20.0729 263.522 19.9055 263.904C19.8428 264.084 20.6769 265.648 21.9476 267.706C23.1346 269.63 25.1741 273.099 26.4657 275.446C29.2346 280.457 33.69 287.68 34.8379 289.09C35.2954 289.649 35.8367 290.095 36.0668 290.095C36.8564 290.095 36.9819 289.244 36.7126 285.442C36.5662 283.518 36.3596 280.075 36.255 277.791C36.1295 275.511 35.9439 272.492 35.8393 271.082C35.7347 269.672 35.5909 267.347 35.5046 265.937C35.4209 264.527 35.2353 263.098 35.0889 262.783C34.715 262 33.4861 261.376 32.652 261.553C32.299 261.643 31.695 262 31.3395 262.382L30.6936 263.053L29.9014 261.868C28.5679 259.877 27.0697 258.11 26.7141 258.133C26.5049 258.133 26.2147 258.29 26.0474 258.444L26.05 258.447Z" fill="#050606"/>
<path d="M65.3039 275.938C64.3888 276.185 61.7427 277.415 61.3897 277.727C61.0995 278.019 61.0577 278.308 61.1623 279.159L61.2878 280.209L60.4354 279.962C59.7059 279.738 59.5176 279.76 59.2065 280.097C58.8954 280.454 58.8535 281.103 58.8535 287.031C58.8535 294.881 58.8744 294.97 60.5818 295.866C61.7479 296.47 61.8316 296.47 65.8294 296.47C69.8273 296.47 69.89 296.47 71.2026 295.821C71.9111 295.462 72.7844 294.836 73.1191 294.412C74.0787 293.249 74.0552 292.196 72.9936 288.126C71.5582 282.557 71.1816 281.237 70.5777 279.493C69.9528 277.749 69.9318 277.749 69.286 277.862C68.9304 277.929 68.4938 278.041 68.3055 278.128C68.0571 278.218 67.8898 278.061 67.7015 277.57C67.0975 276.002 66.5354 275.623 65.3065 275.938H65.3039Z" fill="#050606"/>
<path d="M54.8923 31.6708C53.8726 31.8477 51.624 32.1847 49.8957 32.4543C48.1883 32.7211 46.3136 33.0581 45.7724 33.2379C45.2102 33.3951 44.6481 33.5047 44.5226 33.4822C44.3343 33.4597 44.2507 34.3556 44.1696 36.5686L44.065 39.7L39.8999 39.8348C32.6128 40.1016 29.7602 40.6184 28.0293 42.0254C26.8004 43.0111 24.6145 45.8729 22.0522 49.7653C21.0743 51.2426 18.4701 55.1575 16.2633 58.4883C14.0565 61.7994 11.536 65.689 10.6836 67.0989C9.83125 68.5087 7.89379 71.685 6.37205 74.1452C2.29057 80.787 1.7075 81.7953 0.813282 83.764L0.00012207 85.5529L0.0837912 88.4596C0.146543 90.8074 0.43677 92.911 1.56108 99.5304C3.47762 110.691 5.10133 117.445 6.62045 120.577C8.01667 123.483 10.6392 126.213 14.2213 128.494C16.7627 130.125 19.2179 131.513 19.5316 131.513C19.6781 131.513 21.2809 130.238 23.0928 128.651C26.5076 125.699 28.0894 124.447 28.194 124.604C28.2359 124.649 28.6516 125.432 29.1301 126.303C29.6295 127.199 30.1916 128.025 30.3799 128.137C30.5891 128.249 33.1488 128.362 36.0641 128.384C38.9586 128.384 43.3721 128.496 45.8299 128.586C48.3504 128.699 53.7654 128.699 58.2208 128.586C62.5716 128.496 67.0505 128.409 68.1539 128.384H70.1541L70.8418 127.6C71.2366 127.176 71.6523 126.817 71.7987 126.817C71.9242 126.817 72.8185 127.845 73.778 129.097C75.9848 132.049 80.7749 137.329 81.2534 137.329C81.4625 137.329 81.9619 136.882 82.3567 136.365C82.7725 135.829 85.1884 133.279 87.7299 130.707C93.6652 124.736 94.7476 123.573 94.9777 122.902C95.0823 122.59 95.4144 120.105 95.7072 117.355C95.9791 114.626 96.4158 110.826 96.6432 108.925C97.1426 104.72 98.3088 88.4147 98.3088 85.6175C98.3088 82.8203 97.9558 80.8095 97.1845 79.3323C96.8289 78.6386 95.4562 76.3357 94.1227 74.2097C92.7892 72.0838 90.8335 68.7305 89.751 66.7618C87.3769 62.4004 80.5474 50.4337 79.1119 48.1084C75.6135 42.5393 72.9283 39.2507 71.3438 38.6918C70.2404 38.2902 65.9916 38.3323 63.0135 38.7592C61.7637 38.9614 60.6812 39.0709 60.5975 39.0035C60.5139 38.9586 60.3883 38.3323 60.3073 37.6386C60.14 36.1165 59.4523 32.8082 59.1202 31.9123C58.9111 31.3534 58.8091 31.3085 57.8286 31.3309C57.2455 31.3534 55.933 31.5079 54.8923 31.6651V31.6708Z" fill="#FAB018"/>
<path d="M69.9475 45.4263C69.5108 45.6931 69.4481 46.7463 69.822 47.1479C70.2586 47.6169 71.1973 47.4596 71.5712 46.8558C71.8823 46.3419 71.8823 46.252 71.5712 45.7381C71.2156 45.1567 70.5724 45.0219 69.9475 45.4263Z" fill="#FFFEFC"/>
<path d="M32.7565 45.6735C32.1526 46.3223 32.652 47.6422 33.5069 47.6422C34.2364 47.6422 34.5894 47.2828 34.5894 46.5245C34.5894 45.7662 34.2364 45.4067 33.5488 45.4067C33.2586 45.4067 32.903 45.5191 32.7565 45.6735Z" fill="#FFFEFC"/>
<path d="M56.7879 45.9178C56.5579 46.0975 56.4324 46.4317 56.4951 46.7687C56.5369 47.1928 56.7043 47.3276 57.2246 47.3726C57.8077 47.44 57.9122 47.3726 58.0378 46.8362C58.1423 46.3896 58.0796 46.1425 57.8077 45.9206C57.3292 45.5611 57.2455 45.5611 56.7879 45.9206V45.9178Z" fill="#FFFEFC"/>
<path d="M44.9174 46.4346C44.52 46.8362 44.4808 47.8893 44.8337 48.2685C45.2704 48.7375 46.2091 48.5802 46.562 48.0017C47.2915 46.8165 45.8535 45.4292 44.9174 46.4374V46.4346Z" fill="#FFFEFC"/>
<path d="M26.3009 53.5904C25.676 54.0594 25.6969 54.9104 26.3637 55.3794C26.8421 55.7136 26.9258 55.7136 27.4043 55.3794C28.071 54.9104 28.092 54.0594 27.4671 53.5904C27.2187 53.3882 26.9467 53.231 26.884 53.231C26.8212 53.231 26.5493 53.3882 26.3009 53.5904Z" fill="#FFFEFC"/>
<path d="M78.4635 54.0819C78.2543 54.3066 78.1105 54.7082 78.1105 54.9525C78.1105 55.4664 78.7354 56.1377 79.2139 56.1377C79.6505 56.1377 80.4009 55.3541 80.4009 54.9076C80.4009 54.4386 79.6505 53.6775 79.1929 53.6775C78.9655 53.6775 78.6517 53.8572 78.4635 54.0791V54.0819Z" fill="#FFFEFC"/>
<path d="M66.5929 54.3964C65.8451 55.135 65.7406 55.7388 66.2609 56.4325C67.0505 57.5278 68.5932 56.9015 68.5932 55.4945C68.5932 54.197 67.4479 53.5707 66.5929 54.3992V54.3964Z" fill="#FFFEFC"/>
<path d="M38.4617 55.267C37.4629 56.0955 37.9205 57.7047 39.2723 58.0642C39.8972 58.2215 40.7287 57.7047 40.9378 57.0335C41.147 56.3623 40.6894 55.3569 40.0828 55.0424C39.3533 54.6829 39.084 54.7278 38.4591 55.267H38.4617Z" fill="#FFFEFC"/>
<path d="M51.1429 55.3569C50.518 56.0281 50.4971 56.5645 51.0592 57.348C51.8933 58.4882 53.5379 57.9069 53.5379 56.4521C53.5379 55.6686 53.3706 55.4018 52.7666 55.0451C52.0789 54.6632 51.705 54.7306 51.1429 55.3569Z" fill="#FFFEFC"/>
<path d="M80.712 63.7456C80.2963 64.6162 80.3172 64.9981 80.8376 65.557C81.1487 65.8912 81.4206 65.9811 81.8154 65.8687C82.8979 65.6019 83.2509 64.3466 82.4822 63.5209C81.8573 62.8497 81.1069 62.9395 80.712 63.7456Z" fill="#FFFEFC"/>
<path d="M21.3645 64.0573C20.9278 64.3915 20.8441 65.557 21.2599 66.0709C21.6547 66.6073 22.6352 66.5175 23.0091 65.9361C23.4693 65.2424 23.4248 64.9307 22.8208 64.3044C22.2587 63.6782 21.924 63.6108 21.3645 64.0573Z" fill="#FFFEFC"/>
<path d="M70.6535 65.3773C70.175 65.9811 70.1541 66.7646 70.6116 67.3909C71.7359 68.9131 73.6106 67.1662 72.5674 65.5795C72.2144 65.0206 71.0274 64.8858 70.6508 65.3773H70.6535Z" fill="#FFFEFC"/>
<path d="M44.8128 66.071C44.6664 66.2507 44.5827 66.6748 44.6245 67.0343C44.6664 67.5482 44.7919 67.683 45.354 67.728C45.9162 67.7954 46.0835 67.7055 46.2901 67.2365C46.4783 66.7422 46.4574 66.5878 46.1437 66.2058C45.707 65.6694 45.1449 65.6245 44.8102 66.071H44.8128Z" fill="#FFFEFC"/>
<path d="M31.6322 67.5706C31.1328 67.8823 31.1328 69.1574 31.6322 69.6292C32.4428 70.4127 33.5488 69.8538 33.5488 68.6912C33.5488 67.5959 32.5291 67.0145 31.6322 67.5734V67.5706Z" fill="#FFFEFC"/>
<path d="M11.1412 68.9777C10.6836 70.2528 11.8498 71.4154 12.7231 70.5673C13.1806 70.1208 13.2643 69.3372 12.8904 68.9356C12.5374 68.5565 11.2876 68.6014 11.1412 68.9805V68.9777Z" fill="#FFFEFC"/>
<path d="M26.9259 73.9458C25.9271 74.6816 26.7586 76.5632 27.9247 76.1588C28.9026 75.8246 28.9653 74.3249 28.0293 73.8559C27.3626 73.5217 27.4881 73.5217 26.9259 73.9458Z" fill="#FFFEFC"/>
<path d="M89.0633 74.1676C88.6659 74.5692 88.6266 75.6224 88.9796 76.0015C89.3326 76.3807 90.3131 76.3357 90.687 75.9116C91.1236 75.4426 91.1027 74.6366 90.6451 74.1901C90.1667 73.7211 89.479 73.6986 89.0633 74.1676Z" fill="#FFFEFC"/>
<path d="M38.7755 74.8388C38.5245 75.173 38.3389 75.6223 38.3389 75.8442C38.3389 76.448 39.0893 77.1642 39.6933 77.1642C39.9835 77.1642 40.4018 76.9619 40.6293 76.7176C41.4399 75.847 40.8594 74.2574 39.7142 74.2574C39.403 74.2574 39.0265 74.5046 38.7781 74.8388H38.7755Z" fill="#FFFEFC"/>
<path d="M77.381 75.2629C76.6515 76.0239 76.6724 77.1866 77.4019 77.8129C77.7131 78.0825 78.1314 78.2819 78.3589 78.2819C78.8374 78.2819 79.9826 77.1192 79.9826 76.6277C79.9826 76.0015 79.525 75.1955 79.0047 74.9511C78.2543 74.5916 77.9432 74.6366 77.381 75.2629Z" fill="#FFFEFC"/>
<path d="M65.6151 75.5999C64.7182 76.5632 65.3248 78.0601 66.5929 78.0601C67.3643 78.0601 67.9055 77.4563 67.9055 76.5604C67.9055 75.2854 66.4701 74.6816 65.6151 75.5971V75.5999Z" fill="#FFFEFC"/>
<path d="M17.0974 78.9531C16.2633 79.849 16.7627 81.1886 17.9315 81.1886C18.5355 81.1886 19.1813 80.5174 19.1813 79.8911C19.1813 79.4895 18.2243 78.5038 17.8269 78.5038C17.6596 78.5038 17.3275 78.706 17.0974 78.9503V78.9531Z" fill="#FFFEFC"/>
<path d="M6.30931 82.1295C5.6844 82.8007 6.26747 83.7387 7.24535 83.6067C8.28599 83.4719 8.07943 81.8627 7.01788 81.8627C6.76687 81.8627 6.45573 81.975 6.30931 82.1295Z" fill="#FFFEFC"/>
<path d="M32.3199 84.188C32.1735 84.3678 32.0898 84.7918 32.1316 85.1513C32.1735 85.6428 32.3199 85.8 32.7774 85.845C33.8181 85.9798 34.3384 84.994 33.6298 84.2358C33.235 83.7892 32.631 83.7892 32.3199 84.1908V84.188Z" fill="#FFFEFC"/>
<path d="M95.7281 84.8368C94.9358 85.463 95.4561 87.0048 96.4366 87.0048C96.8942 87.0048 97.4773 86.2887 97.4773 85.7298C97.4773 85.2159 96.8733 84.5447 96.4157 84.5447C96.2275 84.5447 95.9372 84.6795 95.7307 84.8368H95.7281Z" fill="#FFFEFC"/>
<path d="M83.1907 85.3507C83.026 86.0444 83.3162 86.4011 83.9411 86.2888C85.0445 86.1315 84.919 84.7666 83.8156 84.7666C83.4627 84.7666 83.2953 84.9239 83.1907 85.3479V85.3507Z" fill="#FFFEFC"/>
<path d="M68.0101 86.2241C67.7198 86.5162 67.4897 87.0301 67.4897 87.3418C67.4897 87.6536 67.7198 88.1703 68.0101 88.4596C69.0298 89.5773 70.6143 88.8836 70.6143 87.3418C70.6143 85.8 69.0324 85.1063 68.0101 86.2241Z" fill="#FFFEFC"/>
<path d="M25.0512 87.4992C24.6564 87.9261 24.74 89.1084 25.1976 89.5577C25.7388 90.0717 26.4474 89.9397 26.9468 89.2235C27.2998 88.6871 27.3207 88.5523 27.0723 87.9935C26.8448 87.4795 26.6147 87.3223 26.0526 87.2773C25.6578 87.2324 25.1976 87.3447 25.0538 87.502L25.0512 87.4992Z" fill="#FFFEFC"/>
<path d="M14.0774 91.3439C13.8473 91.5236 13.7035 91.9252 13.7035 92.3718C13.7035 93.2227 14.182 93.7142 15.037 93.7142C15.7665 93.7142 16.2659 93.1778 16.2659 92.3942C16.2659 91.2316 14.9951 90.6277 14.08 91.3411L14.0774 91.3439Z" fill="#FFFEFC"/>
<path d="M89.9366 93.7394C89.3953 94.0736 89.4581 95.1942 89.9993 95.5284C90.7079 95.93 91.4348 95.461 91.4348 94.6325C91.4348 93.6917 90.6844 93.2452 89.9366 93.7366V93.7394Z" fill="#FFFEFC"/>
<path d="M72.1961 94.5229C71.7987 94.9245 71.7594 95.9777 72.1124 96.3568C72.4654 96.736 73.4459 96.691 73.8198 96.267C74.0081 96.09 74.1545 95.6856 74.1545 95.3963C74.1545 95.1071 74.0081 94.7027 73.8198 94.5257C73.6551 94.3235 73.2786 94.1663 73.0093 94.1663C72.7399 94.1663 72.3634 94.3235 72.1987 94.5257L72.1961 94.5229Z" fill="#FFFEFC"/>
<path d="M59.2849 94.7449C58.4508 95.6155 59.2849 97.0029 60.5556 96.8709C60.9714 96.8259 61.4525 96.1772 61.4525 95.6408C61.4525 94.568 59.9961 93.9642 59.2875 94.7449H59.2849Z" fill="#FFFEFC"/>
<path d="M77.7968 96.8933C77.2346 97.2275 77.0673 97.5196 77.0673 98.2133C77.0673 99.376 78.5027 99.9798 79.2113 99.1288C79.627 98.6373 79.6689 97.4522 79.3159 97.1152C78.8374 96.7361 78.2334 96.6237 77.7968 96.8905V96.8933Z" fill="#FFFEFC"/>
<path d="M2.10489 97.5196C1.60549 98.056 1.58457 98.3705 2.02122 99.0418C2.41603 99.6456 3.35469 99.6905 3.83318 99.1316C4.26983 98.6177 4.26983 98.2161 3.85409 97.5673C3.45928 96.9411 2.66704 96.9186 2.10489 97.5224V97.5196Z" fill="#FFFEFC"/>
<path d="M26.8841 97.5196C26.301 98.1459 26.3428 98.9968 26.9886 99.4434C27.9482 100.115 29.1954 99.0614 28.7797 97.9212C28.445 96.9832 27.5508 96.8035 26.8841 97.5196Z" fill="#FFFEFC"/>
<path d="M52.0815 101.255C51.1664 101.614 50.9363 103.291 51.7076 103.872C52.3325 104.341 52.7482 104.319 53.415 103.76C53.7706 103.471 53.9562 103.089 53.9562 102.665C53.9562 102.24 53.7679 101.859 53.415 101.569C52.8528 101.1 52.6436 101.033 52.0815 101.255Z" fill="#FFFEFC"/>
<path d="M14.5978 102.44C13.7428 103.358 14.3258 104.9 15.5129 104.9C15.9103 104.9 16.347 104.72 16.5326 104.499C17.3039 103.583 16.6581 101.993 15.5338 101.993C15.2436 101.993 14.8252 102.196 14.5978 102.44Z" fill="#FFFEFC"/>
<path d="M65.8452 102.575C65.283 103.358 65.3039 103.67 65.9497 104.364C66.3446 104.81 66.5956 104.9 67.0322 104.788C68.1147 104.521 68.4677 103.266 67.699 102.44C67.1159 101.814 66.3655 101.881 65.8452 102.575Z" fill="#FFFEFC"/>
<path d="M83.3582 102.35C82.8588 102.729 82.7333 103.737 83.149 104.184C83.9203 105.012 85.5022 103.917 84.9819 102.909C84.7936 102.527 84.1713 101.99 83.8994 101.99C83.8576 101.99 83.6065 102.148 83.3582 102.35Z" fill="#FFFEFC"/>
<path d="M39.0658 104.094C38.671 104.72 38.8775 105.391 39.607 105.793C40.5431 106.352 41.5628 104.653 40.7941 103.824C40.3574 103.355 39.4188 103.513 39.0658 104.091V104.094Z" fill="#FFFEFC"/>
<path d="M94.3737 107.45C93.9371 108.031 94.1645 108.995 94.8313 109.239C95.3098 109.419 95.4771 109.374 95.851 108.972C96.2249 108.571 96.2667 108.391 96.0994 107.877C95.953 107.408 95.7464 107.228 95.2653 107.183C94.8914 107.138 94.5175 107.251 94.3711 107.45H94.3737Z" fill="#FFFEFC"/>
<path d="M24.3426 109.262C24.1335 109.753 24.1544 109.91 24.5518 110.312C24.9257 110.739 25.0721 110.758 25.5297 110.537C25.9036 110.334 26.05 110.112 26.05 109.621C26.05 108.568 24.7584 108.301 24.3426 109.262Z" fill="#FFFEFC"/>
<path d="M45.2494 110.626C44.75 111.006 44.6245 112.014 45.0402 112.46C45.6651 113.132 46.8731 112.505 46.8731 111.497C46.8731 111.051 46.2064 110.267 45.8325 110.267C45.7697 110.267 45.4978 110.424 45.2494 110.626Z" fill="#FFFEFC"/>
<path d="M72.8001 110.713C72.3007 111.317 72.3425 112.278 72.9047 112.772C73.8198 113.556 74.9859 112.997 74.9859 111.744C74.9859 110.424 73.6106 109.753 72.8001 110.716V110.713Z" fill="#FFFEFC"/>
<path d="M58.1188 110.938C57.5775 111.519 57.5984 112.078 58.1397 112.817C58.7228 113.6 59.6588 113.556 60.2628 112.705C61.2407 111.272 59.3032 109.663 58.1188 110.938Z" fill="#FFFEFC"/>
<path d="M32.6311 111.25C31.6506 112.281 32.1526 113.62 33.4835 113.62C35.0862 113.62 35.2954 111.227 33.7135 110.823C33.2769 110.711 33.0259 110.801 32.6311 111.247V111.25Z" fill="#FFFEFC"/>
<path d="M6.14192 111.564C5.87261 111.767 5.43335 112.592 5.43335 112.952C5.43335 113.398 6.45307 114.294 6.95247 114.294C8.07677 114.294 8.59709 112.438 7.68196 111.744C7.18256 111.362 6.51582 111.298 6.13931 111.564H6.14192Z" fill="#FFFEFC"/>
<path d="M87.3768 112.817C86.6891 113.935 87.7925 115.145 88.8332 114.429C89.4581 113.982 89.5208 113.176 88.9796 112.662C88.4384 112.126 87.7507 112.193 87.3768 112.82V112.817Z" fill="#FFFEFC"/>
<path d="M77.0071 114.474C76.5495 115.01 76.5704 115.704 77.028 116.151C77.8203 116.934 79.1511 116.353 79.1511 115.255C79.1511 114.157 77.6712 113.665 77.0071 114.471V114.474Z" fill="#FFFEFC"/>
<path d="M16.2633 116.308C15.7221 116.889 15.743 117.448 16.2842 118.187C16.5535 118.569 16.9091 118.768 17.3039 118.768C17.9079 118.768 18.7603 117.917 18.7603 117.313C18.7603 117.156 18.572 116.777 18.3236 116.443C17.8033 115.726 16.8673 115.659 16.2633 116.308Z" fill="#FFFEFC"/>
<path d="M53.0385 119.349C52.6228 119.773 52.6228 120.197 52.9967 120.557C53.4752 120.981 54.2674 120.737 54.3302 120.155C54.4766 119.172 53.6635 118.656 53.0385 119.352V119.349Z" fill="#FFFEFC"/>
<path d="M39.1703 119.661C38.6709 120.197 38.65 120.512 39.0866 121.183C39.6906 122.121 41.2516 121.562 41.2516 120.4C41.2516 119.953 40.4593 119.214 40.0018 119.214C39.7717 119.214 39.3978 119.417 39.1677 119.661H39.1703Z" fill="#FFFEFC"/>
<path d="M63.9286 119.908C63.5756 120.644 63.9913 121.45 64.7417 121.45C65.4294 121.45 65.8242 121.091 65.8242 120.445C65.8242 119.799 65.4294 119.439 64.7417 119.439C64.3678 119.439 64.0959 119.596 63.9286 119.908Z" fill="#FFFEFC"/>
<path d="M72.6746 121.147C71.6967 122.017 72.3425 123.877 73.6551 123.877C74.3401 123.877 74.9886 123.115 74.9886 122.312C74.9886 120.97 73.6551 120.299 72.6772 121.15L72.6746 121.147Z" fill="#FFFEFC"/>
<path d="M86.6474 122.545C86.3127 123.239 86.399 123.865 86.8958 124.222C87.5207 124.691 87.8135 124.668 88.3129 124.132C88.8123 123.596 88.8541 122.947 88.3966 122.478C87.939 121.964 86.9193 122.031 86.6474 122.545Z" fill="#FFFEFC"/>
<path d="M29.4647 122.694C28.6307 123.298 29.0072 124.348 30.0478 124.348C31.0884 124.348 31.465 123.298 30.6309 122.694C30.3825 122.492 30.1106 122.335 30.0478 122.335C29.9851 122.335 29.7131 122.492 29.4647 122.694Z" fill="#FFFEFC"/>
<path d="M12.4537 124.986C11.9962 125.522 12.0171 126.216 12.4747 126.662C13.246 127.401 14.3912 126.907 14.3912 125.834C14.3912 124.761 13.0996 124.202 12.4537 124.983V124.986Z" fill="#FFFEFC"/>
<path d="M64.8646 37.7763C64.0305 37.8661 63.4082 38.0683 63.1363 38.3351C62.4905 38.9614 60.0745 42.8539 54.9943 51.442C49.914 60.0076 32.2336 90.3609 30.1733 94.0512L28.798 96.5114L28.5496 101.634C28.2384 108.411 28.4031 108.59 30.8609 104.251C31.7133 102.752 32.4846 101.544 32.5892 101.544C32.6938 101.544 33.2769 101.791 33.9018 102.125C36.0066 103.176 37.9833 103.6 40.9405 103.625C43.9395 103.648 45.8116 103.246 48.6668 101.968C55.4126 98.9491 61.0995 91.7904 63.7011 82.9804C66.4491 73.7436 65.283 64.2146 60.5373 57.1908C59.8915 56.2275 59.3712 55.3569 59.3712 55.267C59.3712 55.1772 59.9543 54.1044 60.6838 52.8743C62.765 49.3638 64.9927 45.3365 66.8465 41.7361C68.3656 38.8069 68.533 38.3576 68.2637 38.0683C67.8898 37.6892 66.619 37.5769 64.8698 37.7763H64.8646Z" fill="#F05341"/>
<path d="M25.9245 126.171C24.8002 127.154 23.051 128.631 22.0522 129.437C20.5959 130.622 20.2403 131.027 20.3239 131.383C21.3437 136.907 22.4052 141.047 23.0092 141.94C23.2811 142.319 23.3648 142.319 23.8642 142.03C24.8002 141.494 30.0897 134.425 31.1303 132.302C32.0272 130.468 31.9644 130.176 29.5275 126.084C28.9654 125.146 28.3823 124.362 28.2568 124.362C28.1104 124.362 27.0488 125.168 25.9245 126.174V126.171Z" fill="#FBC4AF"/>
<path d="M70.562 127.6C69.9162 128.159 69.0455 129.479 68.9618 129.726C68.7945 130.33 69.5736 130.777 71.0718 132.7C73.7362 136.076 75.4671 137.778 76.2358 137.778C76.5705 137.778 78.921 135.503 78.921 135.144C78.921 134.986 77.6503 133.616 76.3168 132.052C75.0069 130.487 73.527 128.676 73.0694 128.024C72.6119 127.353 71.9425 126.699 71.8353 126.592C71.6366 126.396 71.2261 127.061 70.5594 127.598L70.562 127.6Z" fill="#FBC4AF"/>
<path d="M18.1171 263.769C17.4922 264.283 16.7025 264.932 16.3679 265.224L15.7848 265.715L17.1601 268.153C18.4936 270.501 21.1579 274.685 25.6342 281.485C26.8422 283.318 28.9444 286.54 30.2779 288.643C31.6113 290.724 32.9213 292.738 33.1932 293.094L33.6717 293.743L35.2745 292.581C36.1478 291.954 36.8773 291.373 36.8773 291.283C36.8773 291.216 35.8366 289.427 34.5659 287.323C33.3161 285.22 30.4844 280.479 28.3195 276.789C24.7191 270.706 19.678 262.809 19.3878 262.809C19.325 262.809 18.7629 263.255 18.1171 263.772V263.769Z" fill="#FFFEFC"/>
<path d="M30.7773 262.943C30.3198 263.457 30.8819 270.593 31.5905 273.233C32.4429 276.477 34.213 279.808 35.5883 280.816C36.5453 281.51 36.6708 281.51 36.6708 280.816C36.6708 280.504 36.5871 280.257 36.4825 280.257C36.1897 280.257 34.5241 277.685 33.8182 276.12C32.5474 273.391 32.0062 271.088 31.5696 266.592C31.2584 263.528 31.0702 262.632 30.7773 262.946V262.943Z" fill="#FFFEFC"/>
<path d="M67.9683 278.732C68.0101 279.134 68.5095 281.372 69.0717 283.675C70.2587 288.595 70.3816 288.149 67.5918 289.109C65.8007 289.735 63.4057 290.025 62.9272 289.691C62.739 289.556 62.5716 288.708 62.467 287.275C62.1559 283.608 61.8421 280.878 61.633 280.319C61.4055 279.67 60.9479 279.872 61.1126 280.563C61.1545 280.81 61.3218 282.734 61.4473 284.835C61.7585 289.71 61.884 290.247 62.8017 290.674C63.1965 290.85 63.7378 290.985 64.0097 290.985C64.6555 290.985 70.1934 289.241 70.549 288.927C70.6954 288.792 70.8209 288.3 70.8209 287.829C70.8209 286.085 68.5723 278.01 68.0729 278.01C67.9474 278.01 67.9055 278.322 67.9683 278.727V278.732Z" fill="#FFFEFC"/>
<path d="M71.655 292.802C69.1344 294.209 66.8231 294.794 63.6384 294.771C62.3886 294.771 60.7649 294.636 60.0773 294.482L58.7856 294.19L58.681 294.993C58.6183 295.439 58.4928 296.515 58.4326 297.363C58.3071 298.728 58.328 298.972 58.6627 299.287C59.6615 300.203 61.952 300.517 65.1392 300.158C70.0731 299.599 75.8227 297.273 75.8227 295.864C75.8227 295.372 73.969 291.637 73.7624 291.682C73.6996 291.682 72.7427 292.196 71.6576 292.8L71.655 292.802Z" fill="#FFFEFC"/>
<path d="M56.1186 32.0723C56.014 32.3869 56.7644 39.2534 56.9736 39.8797C57.1618 40.3487 57.8704 40.3937 58.0351 39.9247C58.1606 39.5905 57.6194 36.2793 56.9527 33.2603C56.6206 31.828 56.3487 31.4264 56.1186 32.0751V32.0723Z" fill="#EBA123"/>
<path d="M53.538 34.1533C53.538 35.8524 53.9955 39.5651 54.2675 40.0369C54.4348 40.329 54.9342 40.329 55.1015 40.0369C55.227 39.8347 54.8924 37.7116 54.142 33.5944C54.0165 32.9682 53.8308 32.4318 53.7262 32.4318C53.6216 32.4318 53.538 33.2153 53.538 34.1533Z" fill="#EBA123"/>
<path d="M50.9364 32.8783C50.769 33.1704 51.4148 38.9164 51.6868 39.7449C51.8959 40.3262 52.4581 40.4386 52.6228 39.9471C52.6856 39.7674 52.4973 38.1806 52.1862 36.4141C51.6658 33.3502 51.2893 32.2773 50.9364 32.8811V32.8783Z" fill="#EBA123"/>
<path d="M48.4158 33.4372C48.2511 33.8837 48.7086 38.9838 48.957 39.7224C49.1662 40.3038 49.7493 40.4386 49.9166 39.9471C50.1049 39.4107 49.0825 33.2575 48.8132 33.1479C48.6668 33.103 48.4786 33.2378 48.4158 33.44V33.4372Z" fill="#EBA123"/>
<path d="M45.8534 36.0546C45.8744 38.7394 46.1855 40.3262 46.7267 40.4385C47.3098 40.5733 47.3726 39.9021 47.017 37.1274C46.6221 34.1308 46.5176 33.7714 46.1201 33.7714C45.8927 33.7714 45.8299 34.2404 45.8508 36.0518L45.8534 36.0546Z" fill="#EBA123"/>
<path d="M30.6728 58.7354C30.5682 58.9798 30.3616 61.0608 30.2361 63.4086C30.1106 65.734 29.9014 69.1574 29.7995 71.0138C29.674 72.8477 29.4465 76.7401 29.2582 79.6244C28.8843 85.8422 28.2594 94.141 27.8228 98.525C27.5326 101.522 27.0933 109.149 27.0933 111.497C27.0933 112.615 27.0933 112.637 25.8016 113.623C24.1779 114.853 19.8454 119.484 18.4518 121.45C17.2648 123.104 15.2253 127.311 15.2253 128.092C15.2253 128.873 15.56 128.718 16.0803 127.69L16.5588 126.794L18.0387 128.471C19.0166 129.611 19.6624 130.17 19.9762 130.17C20.8495 130.17 20.4756 129.364 18.7473 127.62L17.0818 125.921L17.7276 124.916C18.0806 124.357 18.4152 123.91 18.4571 123.91C18.4989 123.91 19.1447 124.761 19.8925 125.789C21.3306 127.78 22.2248 128.676 22.5385 128.474C23.0798 128.117 22.413 127.019 20.1435 124.404C19.1238 123.242 19.1029 123.197 19.414 122.616C19.5788 122.281 19.8507 121.989 20.018 121.967C20.2063 121.944 21.0587 122.95 21.9973 124.247C22.9569 125.567 23.8093 126.573 24.0394 126.573C24.7479 126.618 24.3923 125.769 22.3947 122.68L21.0848 120.622L21.647 120.04L22.23 119.436L23.0406 120.622C25.3938 124.065 26.2671 124.961 26.2671 123.952C26.2671 123.728 25.6003 122.366 24.8107 120.933L23.3308 118.293L23.8093 117.869C24.0812 117.622 24.3505 117.445 24.4133 117.423C24.4969 117.423 25.2473 118.63 26.0788 120.108C26.9312 121.585 27.6816 122.792 27.7862 122.792C28.1601 122.792 27.8489 121.607 26.8893 119.549C26.3272 118.319 25.7441 117.134 25.5977 116.909C25.3676 116.575 25.4094 116.44 25.9507 115.971C26.3037 115.679 26.6383 115.434 26.7011 115.412C26.7638 115.412 27.4489 116.976 28.2411 118.878C29.5746 122.166 30.1786 123.014 30.074 121.54C30.0322 121.183 29.6374 119.526 29.1563 117.872C28.6778 116.218 28.3039 114.673 28.3222 114.449C28.3431 114.246 28.364 113.733 28.3849 113.331C28.4895 109.371 28.8216 103.266 29.0726 100.539C29.4883 95.8429 29.7602 92.4195 29.9067 89.8021C29.9694 88.572 30.1158 86.2466 30.2178 84.657C31.2375 70.0505 31.614 59.1146 31.1146 58.6006C30.9473 58.3984 30.8427 58.4209 30.678 58.7354H30.6728Z" fill="#EBA123"/>
<path d="M69.0298 59.7408C69.3226 62.4706 71.0718 71.303 73.0067 79.6243C74.0682 84.233 75.2553 89.5774 75.6109 91.4786L76.2776 94.9442L75.9456 100.76C75.7364 103.959 75.4671 108.029 75.2997 109.818C75.1324 111.607 74.9468 114.067 74.884 115.297C74.8213 116.527 74.6539 118.585 74.531 119.86L74.3219 122.208L73.2812 123.551C72.0942 125.073 71.7621 125.744 71.9268 126.236C72.1752 126.952 72.6982 126.55 73.7388 124.916C74.7585 123.284 74.9049 123.194 75.6763 123.618C75.7599 123.686 75.3024 124.334 74.6775 125.095C73.595 126.393 73.1165 127.331 73.3858 127.623C73.697 127.957 74.4265 127.331 75.5089 125.811C76.1547 124.893 76.7378 124.135 76.7796 124.135C76.8215 124.135 77.1745 124.292 77.5693 124.514L78.2988 124.873L77.0908 126.283C75.3207 128.361 74.6539 129.46 74.9651 129.794C75.3207 130.173 75.7573 129.816 76.9653 128.137C77.5484 127.334 78.2569 126.37 78.5472 125.946L79.0884 125.208L79.9617 125.699L80.8585 126.168L79.6296 127.555C77.9013 129.524 76.8607 130.931 76.8607 131.358C76.8607 132.007 77.2973 132.007 77.9432 131.381C78.4007 130.889 81.1697 127.266 81.5671 126.64C81.6089 126.573 82.9006 127.221 83.0862 127.401C83.128 127.446 82.2966 128.474 81.2115 129.659C80.129 130.867 79.1302 132.119 78.9629 132.456C78.67 133.082 78.7537 133.754 79.1511 133.754C79.4231 133.754 81.1069 131.852 82.6286 129.794C83.8784 128.137 84.2105 127.937 84.8982 128.474C85.2721 128.788 85.1466 128.943 82.7306 131.583C80.8141 133.709 80.1892 134.512 80.1892 134.958C80.1892 136.346 81.5226 135.206 84.7282 131.024C85.978 129.392 86.0617 129.347 86.6238 129.569C87.2487 129.813 87.8946 129.659 87.8946 129.255C87.8946 128.159 79.627 123.239 76.8163 122.68C75.6292 122.433 75.6292 122.413 75.943 120.22C76.0894 119.102 76.3168 116.395 76.4423 114.182C76.5679 111.969 76.7535 109.351 76.8581 108.366C77.1065 106.352 77.5876 96.9354 77.5876 94.3854C77.5876 93.467 77.5039 92.2369 77.4202 91.6556C77.2529 90.6698 77.2738 90.5828 77.7314 90.4929C81.0442 89.8217 83.2091 89.0157 85.3322 87.6311C86.2682 87.0273 86.4356 86.8026 86.3938 86.3336C86.2892 85.3956 85.4342 85.4827 82.9372 86.7577C80.9187 87.7631 78.8348 88.5242 78.6491 88.322C78.6073 88.2771 79.5852 87.2492 80.8559 86.0416C83.3555 83.6263 83.834 82.8877 83.2509 82.4187C83.0418 82.2614 82.6888 82.1716 82.4796 82.239C82.2495 82.3064 80.8768 83.5365 79.4178 84.9912C77.9615 86.446 76.7117 87.6087 76.628 87.5413C76.5443 87.4963 76.4397 87.2295 76.3796 86.9599C76.3378 86.6678 75.2344 82.0171 73.9637 76.6053C71.0692 64.3269 69.5475 58.5557 69.1736 58.4208C68.9435 58.331 68.9017 58.5781 69.0272 59.7408H69.0298Z" fill="#EBA123"/>
<path d="M32.9841 128.875C32.754 129.167 31.6297 130.754 30.4844 132.408C28.5051 135.293 25.778 138.871 23.7987 141.199C22.7372 142.451 22.6535 143.257 23.5896 143.257C25.0276 143.257 34.4587 129.502 33.6273 128.606C33.4808 128.449 33.2952 128.538 32.9814 128.873L32.9841 128.875Z" fill="#EFE6D7"/>
<path d="M54.9969 128.586C54.9969 128.698 55.227 130.622 55.5172 132.88C56.2677 138.809 56.2258 139.32 54.9133 142.499C54.4766 143.572 54.4139 143.639 54.3093 143.148C52.228 131.92 51.5403 128.991 50.9782 128.878C50.4788 128.766 50.5206 129.662 51.1455 133.442C51.4358 135.141 51.8541 137.646 52.0816 139.011C52.3117 140.353 52.8738 144.58 53.3105 148.405C54.7695 160.683 55.227 164.197 55.9565 169.095C56.9135 175.38 58.4744 184.729 58.8509 186.451C59.0183 187.186 59.3922 189.604 59.685 191.817C59.9752 194.008 60.4354 197.075 60.7257 198.617C61.0159 200.158 61.5179 203.18 61.8709 205.326C62.2239 207.474 62.8305 210.805 63.2253 212.706C63.6201 214.608 64.2659 217.939 64.6607 220.087C65.0581 222.235 65.5785 225.007 65.8059 226.237C66.036 227.467 66.6609 230.779 67.1813 233.618C70.0757 249.499 72.0132 259.07 72.4916 259.899C72.991 260.77 72.9283 259.565 72.3034 256.7C71.9295 254.956 71.1163 250.864 70.4914 247.598C69.8665 244.332 68.9723 239.746 68.5356 237.42C68.0781 235.073 67.7016 233.104 67.7016 232.992C67.7016 232.902 67.848 232.834 68.0127 232.834C68.2611 232.834 68.3029 232.655 68.2219 231.983C67.3669 225.319 66.9512 222.544 66.3263 219.638C64.4934 210.937 64.1404 209.036 63.1416 202.638C62.5585 198.881 62.0382 195.592 61.9755 195.348C61.8918 194.901 61.9755 194.856 63.8083 194.766C66.9721 194.587 68.4101 193.559 66.0151 193.199C64.2241 192.932 61.6643 192.303 61.6643 192.126C61.6643 192.059 61.9127 191.747 62.2056 191.433C62.4958 191.143 63.3508 189.868 64.0803 188.593C65.3902 186.38 65.7667 185.237 65.3092 185.038C65.1837 184.993 64.1639 185.954 63.0605 187.184C61.3323 189.062 61.0185 189.31 60.9374 188.908C59.7085 182.465 57.2508 166.16 55.8153 155.089L54.7119 146.568L55.1695 145.965C55.7107 145.203 57.2299 141.044 57.5018 139.612C57.6064 138.986 57.6064 137.89 57.4809 136.882C57.2534 134.846 55.9408 129.123 55.6061 128.696C55.3368 128.339 55.0022 128.294 55.0022 128.583L54.9969 128.586Z" fill="#EFE6D7"/>
<path d="M67.3642 128.698C67.1995 129.145 67.4688 129.617 69.4063 132.231C72.5517 136.503 75.9037 140.418 77.028 141.179C77.5901 141.558 77.8202 141.606 78.236 141.381C78.5053 141.246 78.7354 140.954 78.7354 140.755C78.7354 140.53 77.2372 138.696 75.3834 136.686C73.5505 134.672 71.1973 132.01 70.1357 130.76C68.261 128.524 67.5943 128.03 67.3668 128.701L67.3642 128.698Z" fill="#EFE6D7"/>
<path d="M39.7953 219.506C39.7953 219.865 41.3562 226.998 42.5224 231.986C42.959 233.91 44.0833 238.339 45.0011 241.827C45.9162 245.318 46.8758 249.207 47.1059 250.505C48.1256 256.074 49.0224 259.228 49.6055 259.228C50.1886 259.228 48.8551 251.064 47.1896 244.152C44.2742 232.073 43.0662 227.198 42.5041 225.207C41.6308 222.165 40.4437 219.191 40.0881 219.191C39.9234 219.191 39.7979 219.326 39.7979 219.503L39.7953 219.506Z" fill="#EFE6D7"/>
<path d="M64.0959 40.5284C60.9714 45.2241 54.1419 56.879 47.0823 69.5618C43.3564 76.2486 38.4618 84.8592 34.9425 90.9899C29.3419 100.651 29.0281 101.28 29.5902 101.659C29.6948 101.726 29.9432 101.592 30.1524 101.367C30.3616 101.142 32.5474 97.4746 35.0052 93.203C40.4411 83.7639 43.9813 77.6584 48.7479 69.5618C58.7019 52.5849 65.4059 40.4863 65.4059 39.5006C65.4059 38.8293 65.032 39.1411 64.0933 40.5284H64.0959Z" fill="#EC4731"/>
<path d="M56.9527 68.8456C56.5997 69.09 51.2684 77.7707 47.7072 83.8762C45.958 86.8953 43.6467 90.8327 42.5642 92.6666C41.3353 94.7027 40.6267 96.09 40.7104 96.3119C41.066 97.2948 41.5654 96.5562 48.8315 84.2104C50.5808 81.2588 52.5391 77.8803 53.2268 76.7176C53.8935 75.5549 54.4766 74.5495 54.5184 74.5046C54.5603 74.4372 54.8923 74.6394 55.2688 74.9286C57.3292 76.6053 57.9332 76.9423 58.3515 76.6951C59.1621 76.2261 58.7463 75.5774 57.039 74.5944C56.1421 74.0805 55.3734 73.6115 55.2898 73.5216C55.227 73.4542 55.6454 72.4713 56.2493 71.376C57.2272 69.5196 57.541 68.4216 56.9579 68.8484L56.9527 68.8456Z" fill="#FFFEFC"/>
</g>
<defs>
<clipPath id="clip0_102_1922">
<rect width="98.3087" height="300" fill="white" transform="translate(0.00012207 0.303589)"/>
</clipPath>
</defs>
</svg>
