<svg width="78" height="251" viewBox="0 0 78 251" fill="none" xmlns="http://www.w3.org/2000/svg">
<g id="Group">
<g id="Group_2">
<path id="Vector" d="M20.0358 121.69C18.7597 117.36 17.9083 115.061 16.565 112.875C15.9952 111.944 15.3366 111.034 14.5177 109.998C14.1321 109.517 13.7161 108.884 13.5623 108.6C13.3239 108.123 12.9578 107.788 12.4313 107.58C11.9677 107.394 11.3784 107.309 10.6483 107.318C9.92471 107.334 8.78296 107.435 8.12001 107.552C6.11599 107.919 4.85292 108.4 4.40445 108.983C4.17263 109.264 4.03399 109.631 4.06432 109.78C4.10982 109.929 4.29613 110.828 4.46512 111.793C4.56911 112.338 4.66444 112.81 4.76843 113.246C5.09124 114.619 5.4682 115.643 6.29797 117.498C8.47097 122.355 12.0327 126.994 15.6378 129.655C16.4849 130.288 17.488 130.952 17.8736 131.152C18.2592 131.351 18.7684 131.652 19.0132 131.833L19.4595 132.149L19.7996 131.716C20.5709 130.735 20.7399 124.049 20.0314 121.688L20.0358 121.69ZM17.9386 122.721C17.8454 123.054 17.6764 123.203 17.384 123.237C16.9052 123.304 16.1361 122.822 16.2899 122.554C16.3354 122.472 16.3051 122.437 16.2292 122.488C16.0754 122.589 15.2586 121.44 15.1958 121.041C15.1806 120.94 14.9965 120.56 14.7798 120.193C14.5632 119.827 14.2707 119.212 14.132 118.813C13.6858 117.583 13.8699 116.285 14.4549 116.535C14.5783 116.585 14.7322 116.618 14.8253 116.618C15.0572 116.618 16.4892 118.247 16.4892 118.529C16.4892 118.662 16.5499 118.779 16.6279 118.779C16.7817 118.779 17.6613 121.007 17.7371 121.608C17.7674 121.841 17.8606 122.073 17.9538 122.139C18.0469 122.206 18.0469 122.421 17.9386 122.721Z" fill="#E5845D"/>
<path id="Vector_2" d="M12.113 119.911C11.8206 120.427 14.5937 124.069 16.5522 125.75C17.8001 126.815 20.6685 128.926 20.8679 128.926C21.13 128.926 20.0511 127.812 17.8001 125.766C15.287 123.487 14.6392 122.822 13.3003 121.058C12.7457 120.358 12.282 119.776 12.2517 119.776C12.2214 119.776 12.1585 119.843 12.113 119.909V119.911Z" fill="#DB724C"/>
<path id="Vector_3" d="M9.87936 120.26C9.72554 120.361 9.94003 120.842 10.7265 122.123C12.0047 124.234 14.6868 127.18 16.7992 128.791C19.0025 130.487 22.7029 132.433 23.2878 132.218C23.3962 132.186 22.4711 131.468 21.208 130.655C16.9075 127.86 15.7506 126.962 13.8397 124.949C12.6828 123.751 11.6819 122.504 11.1424 121.656C10.2022 120.127 10.1545 120.076 9.87936 120.257V120.26Z" fill="#DB724C"/>
<path id="Vector_4" d="M16.5652 112.875V114.855L4.77295 113.248C4.66896 112.813 4.57363 112.341 4.46963 111.795C4.30065 110.83 4.11433 109.932 4.06884 109.783C4.03851 109.634 4.17715 109.267 4.40897 108.985L12.4359 107.582C12.9623 107.791 13.3285 108.125 13.5668 108.602C13.7206 108.884 14.1366 109.517 14.5222 110C15.3411 111.036 15.9998 111.946 16.5695 112.877L16.5652 112.875Z" fill="#DB724C"/>
</g>
<g id="Group_3">
<path id="Vector_5" d="M37.6844 0.44625C35.1409 0.861124 32.9679 2.17451 30.9639 4.47121C28.2818 7.56558 26.8649 11.2078 24.798 20.1539C23.2577 26.8561 21.037 33.2603 19.1565 36.3707C18.3549 37.7001 18.292 37.9178 18.6473 38.0347C18.8163 38.1012 19.0178 38.1012 19.0936 38.0508C19.4793 37.7849 24.3799 36.703 27.4325 36.2033C34.647 35.0069 40.5507 34.1244 43.001 33.8929C46.8227 33.4941 53.9288 33.1273 57.5209 33.1273C60.5432 33.1273 61.1888 33.0769 61.1888 32.811C61.1888 32.7606 60.8183 32.2792 60.3872 31.7796C58.4135 29.5172 56.5806 26.2922 54.8994 22.1503C54.2213 20.4542 53.2204 18.0589 52.6961 16.828C52.1718 15.5972 51.2316 13.3028 50.6011 11.7556C48.5039 6.53412 47.5788 4.93652 45.6528 3.15783C44.1276 1.75964 41.5061 0.512724 39.6104 0.31331C39.2248 0.28122 38.3625 0.329352 37.6844 0.44625Z" fill="#A94B25"/>
<path id="Vector_6" d="M43.6355 29.6684C44.1901 31.8299 44.2204 33.526 43.6961 33.5765C43.5272 33.5765 42.9725 33.7094 42.4634 33.8424C40.923 34.2756 36.499 34.7065 35.9444 34.491C35.5285 34.342 35.4353 34.3581 35.3118 34.5919C35.1883 34.8073 35.1277 34.8257 34.9717 34.6744C34.638 34.3145 34.7203 32.8201 35.2165 30.1589C35.3183 29.6157 35.4374 29.0266 35.5718 28.3871C35.9596 26.5763 36.3496 24.683 36.4904 23.8991C36.5055 23.812 36.5185 23.7387 36.5272 23.6791L36.5359 23.6195L36.6962 22.6316L36.655 22.5812L35.9097 21.6826C34.5384 20.0186 33.8906 18.4553 33.6284 16.1288C33.4594 14.749 33.7064 12.4523 34.1527 10.9234C34.7702 8.87886 36.0029 7.31334 37.513 6.69905C39.2245 5.98391 40.9339 6.41712 42.1991 7.91388C44.6646 10.8088 44.8964 17.4262 42.6606 21.0707L42.3681 21.5474L42.1839 21.8523L42.2446 22.3038L42.3681 23.1977C42.6757 25.3936 43.1394 27.7545 43.6312 29.6684H43.6355Z" fill="#E5845D"/>
<path id="Vector_7" d="M36.9606 5.16788C34.9414 5.88302 33.7087 7.12993 32.5973 9.59167C31.488 12.0374 31.41 12.9519 32.2723 13.7817L32.7511 14.2653L36.3432 13.5662C38.332 13.1834 39.9656 12.835 40.0111 12.8006C40.0414 12.7685 39.9331 11.8357 39.7641 10.7538C39.5951 9.65585 39.4868 8.65878 39.5323 8.52583C39.6254 8.25995 40.6719 10.5887 41.012 11.8357C41.181 12.4499 41.1961 12.4683 41.7508 12.301C43.1222 11.9182 45.1565 11.1366 45.3125 10.9211C45.514 10.6552 45.3905 10.3389 45.098 10.3389C45.0049 10.3389 44.8359 9.98821 44.7275 9.57334C44.3571 8.07658 42.847 6.28185 41.2438 5.43147C40.0566 4.79885 38.2844 4.68195 36.9585 5.16558L36.9606 5.16788Z" fill="#A94B25"/>
<path id="Vector_8" d="M36.6573 22.5837C36.6573 22.5837 39.6363 24.587 42.1862 21.8525L34.9285 31.8966L36.6573 22.586V22.5837Z" fill="#DB724C"/>
</g>
<path id="Vector_9" d="M45.438 32.063C45.4835 32.3123 45.5615 32.429 45.6525 32.3283C45.7912 32.1796 45.6677 31.6306 45.4684 31.6306C45.4077 31.6306 45.3904 31.8296 45.438 32.063Z" fill="#060707"/>
<path id="Vector_10" d="M58.3091 87.6296C58.1184 87.5058 57.1197 85.3352 56.3787 83.4763C56.2206 83.0821 56.0754 82.7016 55.9498 82.3577C55.5945 81.3928 55.2717 80.579 55.2413 80.5447C55.211 80.4942 55.0247 80.6272 54.8254 80.8106C54.3314 81.3102 53.5146 81.7091 51.2961 82.5892C48.9368 83.5038 47.2426 83.9691 43.4664 84.7507C38.3188 85.8143 36.4686 86.0137 28.3615 86.2979C26.0824 86.3758 24.7023 86.4056 23.7924 86.3712C22.7698 86.33 22.3365 86.2039 21.888 85.9655C21.1016 85.5507 20.5015 84.6017 20.5015 83.7697C20.5166 82.3394 22.304 79.245 24.3232 77.1844C27.0508 74.3903 28.979 73.5743 35.2207 72.5612C39.675 71.83 41.0941 71.7131 46.9046 71.5962C50.4967 71.5298 52.0999 71.4289 52.0999 71.3143C52.0999 71.2134 51.9612 70.6496 51.7771 70.0513C51.3611 68.6211 51.1921 67.7569 51.2983 67.64C51.4976 67.4246 51.6384 67.64 52.0847 68.8869C52.3469 69.6021 52.5635 70.2347 52.5635 70.2851C52.5635 70.3195 52.7173 70.7183 52.9037 71.1676C53.0726 71.6008 53.259 72.0822 53.2742 72.2312C53.2936 72.3137 53.4388 72.7377 53.6468 73.3153C53.7811 73.6821 53.9371 74.113 54.1061 74.5599C54.1516 74.6745 54.1949 74.7914 54.2382 74.9083C54.6824 76.0705 55.1373 77.2876 55.5706 78.4611C56.1318 79.9808 56.6539 81.4294 57.0634 82.5961C57.4447 83.6849 57.7285 84.5261 57.852 84.957C58.3134 86.5202 58.5149 87.7671 58.3134 87.6342L58.3091 87.6296Z" fill="#E5845D"/>
<path id="Vector_11" d="M31.551 241.554C31.3517 242.37 30.8729 242.336 28.4529 241.304C27.2657 240.789 25.5867 240.09 24.7374 239.773C23.8903 239.441 22.7334 238.891 22.1636 238.558C21.1302 237.96 21.115 237.944 21.115 237.261C21.115 236.878 21.3143 235.217 21.5613 233.585C21.9383 231.098 22.1853 228.455 22.3759 224.785C22.4019 224.288 22.4257 223.77 22.4517 223.231C22.5254 221.558 22.5925 219.681 22.6554 217.535C22.6554 217.336 22.7789 217.269 23.1342 217.269C23.3963 217.285 23.6585 217.219 23.704 217.12C23.7646 217.038 24.4753 216.937 25.2769 216.921C26.0785 216.886 26.7717 216.838 26.8021 216.804C26.8324 216.77 27.634 216.737 28.5743 216.737C30.1471 216.737 31.3344 216.905 31.5489 217.136C31.6724 217.269 31.6615 219.408 31.5142 223.836C31.499 224.299 31.4817 224.79 31.4644 225.305C31.4622 225.374 31.46 225.448 31.4557 225.519C31.3019 229.727 31.3019 231.407 31.4709 234.249C31.6875 238.274 31.7179 240.901 31.5489 241.55L31.551 241.554Z" fill="#E5845D"/>
<path id="Vector_12" d="M57.1219 224.075C57.0135 224.575 56.8294 225.157 56.7362 225.388C56.6431 225.622 56.2574 227.119 55.874 228.714C55.8653 228.753 55.8545 228.79 55.8458 228.831C55.7396 229.269 55.6161 229.764 55.4861 230.282C55.1417 231.662 54.7474 233.2 54.4852 234.202C54.0996 235.616 53.7139 237.062 53.6381 237.394C53.5449 237.743 53.4063 238.027 53.3153 238.027C53.2243 238.027 53.207 238.094 53.2547 238.194C53.3002 238.277 53.285 238.362 53.194 238.362C53.116 238.362 53.0098 238.295 52.947 238.194C52.9015 238.112 52.7628 238.078 52.6394 238.144C52.5159 238.194 52.4076 238.16 52.4076 238.061C52.4076 237.963 52.1909 237.812 51.9287 237.713C50.7718 237.28 43.3429 232.641 43.2043 232.274C43.1588 232.157 43.2346 231.925 43.3732 231.793C43.5119 231.644 43.6202 231.444 43.6202 231.359C43.6202 231.275 44.0513 230.511 44.5908 229.647C45.1303 228.799 45.6697 227.834 45.7781 227.534C45.8561 227.332 46.1377 226.615 46.5017 225.702C46.6122 225.425 46.7313 225.129 46.8548 224.822C46.9588 224.561 47.0693 224.293 47.1798 224.025C47.9662 222.079 48.3519 220.965 48.289 220.731C48.2284 220.515 48.289 220.298 48.4125 220.215C48.536 220.133 48.7353 220.066 48.8588 220.066C49.3831 220.066 53.3586 221.281 54.8557 221.911C55.7353 222.278 56.5521 222.544 56.6756 222.493C56.7839 222.443 56.9832 222.576 57.1067 222.794C57.3233 223.126 57.3233 223.293 57.1219 224.075Z" fill="#E5845D"/>
<path id="Vector_13" d="M34.3242 33.26C33.6764 33.9591 33.137 34.6238 33.137 34.7407C33.137 35.057 33.5833 35.1235 33.7544 34.8232C33.9083 34.5917 33.9083 34.6078 33.8324 34.9562C33.6006 36.0701 33.5703 36.3704 33.7089 36.2031C33.8476 36.0541 35.6198 31.9626 35.544 31.9626C35.5288 31.9626 34.9893 32.5448 34.3264 33.26H34.3242Z" fill="#F59B6F"/>
<path id="Vector_14" d="M54.2342 74.9035C54.0977 74.9218 53.9677 74.9401 53.8399 74.9562C52.761 75.0891 51.0646 75.3711 50.094 75.6049C47.752 76.1527 41.8635 77.2346 37.8403 77.8672C35.2036 78.2821 26.7109 79.7972 25.1229 80.1295C24.2909 80.3129 25.5692 79.6803 26.7109 79.3639C27.6815 79.082 27.7444 79.0476 27.1724 79.082C26.3708 79.0981 26.2018 78.9491 26.6026 78.5342C26.8019 78.3187 27.5277 78.0849 29.0529 77.7847C30.2402 77.5348 32.5973 77.0535 34.2937 76.7028C38.1154 75.8868 50.0008 73.7597 51.4329 73.6084C51.8359 73.5741 52.7133 73.4549 53.6405 73.3127C53.7749 73.6795 53.9309 74.1104 54.0998 74.5574C54.1453 74.672 54.1887 74.7889 54.232 74.9058L54.2342 74.9035Z" fill="#DB724C"/>
<path id="Vector_15" d="M31.5163 223.839C31.5011 224.302 31.4838 224.792 31.4664 225.308C30.8663 225.241 29.9715 225.193 28.6695 225.154C26.9276 225.088 24.447 224.955 23.1514 224.854C22.8611 224.829 22.6033 224.806 22.3801 224.785C22.4061 224.288 22.43 223.77 22.4559 223.231C23.1861 223.233 24.3126 223.288 25.957 223.389C28.689 223.566 30.4655 223.703 31.5184 223.834L31.5163 223.839Z" fill="#DB724C"/>
<path id="Vector_16" d="M55.8461 228.831C55.7399 229.269 55.6164 229.764 55.4864 230.282C55.3109 230.22 55.09 230.138 54.8105 230.028C54.1324 229.762 51.851 228.629 49.7539 227.515C48.116 226.647 47.0761 226.071 46.502 225.7C46.6124 225.423 46.7316 225.127 46.8551 224.82C49.0541 225.689 54.5353 228.127 55.8461 228.829V228.831Z" fill="#DB724C"/>
<path id="Vector_17" d="M77.3291 165.266C77.1905 165.417 77.067 165.683 77.067 165.848C77.067 166.348 76.0639 170.389 75.4009 172.585C74.2159 176.477 70.7321 186.688 68.6501 192.375C67.309 196.052 65.2595 202.188 64.042 206.178C63.5025 207.909 62.3911 211.402 61.5743 213.912C60.8052 216.275 59.6678 219.936 58.9442 222.299C58.9008 222.448 58.8553 222.59 58.8163 222.727C58.708 223.087 58.5975 223.442 58.4914 223.791C57.9108 225.686 57.406 227.245 57.289 227.486C57.1503 227.768 57.0723 228.15 57.12 228.334C57.3041 229.099 56.2881 229.198 54.9297 228.533C54.3447 228.251 53.5582 227.885 53.1748 227.717C49.3097 226.053 46.6688 224.907 44.9118 224.128C44.4958 223.942 44.1275 223.779 43.8046 223.635C42.4159 223.012 41.8591 222.734 41.7682 222.645C41.4388 222.276 41.4778 221.166 41.9653 218.588C42.0216 218.292 42.0845 217.98 42.1516 217.646C42.2405 217.212 42.3379 216.747 42.4463 216.243C43.4017 211.803 43.8956 209.408 46.3308 197.317C48.0423 188.818 48.35 187.353 50.094 179.404C50.7093 176.66 51.5109 172.952 51.8814 171.171C52.2497 169.39 52.774 167.079 53.0383 166.048L53.1445 165.644L53.5301 164.168L53.3633 163.788L52.9603 162.871C52.6526 162.174 52.4057 161.541 52.4057 161.475C52.4057 161.026 50.4797 155.953 48.7053 151.711C46.0232 145.306 46.008 145.24 44.4048 140.635L43.1395 136.993L43.0637 136.775L42.3943 146.395V146.4L42.3401 147.204C41.9393 152.925 41.5082 159.412 41.3847 161.608C41.1074 166.33 40.6611 172.168 40.1519 177.907C39.9526 180.183 39.6753 183.413 39.5366 185.059C39.398 186.707 39.151 189.283 38.9972 190.796C38.8282 192.309 38.5834 195.153 38.4599 197.117C38.3212 199.079 38.0743 202.073 37.9204 203.769C37.7515 205.465 37.5045 208.044 37.381 209.506C37.0062 213.669 36.8242 215.631 36.6595 217.178C36.6075 217.673 36.5577 218.127 36.5014 218.595C36.484 218.76 36.4645 218.929 36.4407 219.103C36.2089 221.066 36.1959 221.483 36.3779 222.065C36.5122 222.519 36.4046 222.924 36.0551 223.28L35.5308 223.811L28.1322 223.679C26.5203 223.651 24.9864 223.617 23.7039 223.575C23.3052 223.562 22.9282 223.548 22.5838 223.536C21.2232 223.484 20.3154 223.429 20.1638 223.378C19.685 223.245 19.5312 223.096 19.2842 222.464C19.061 221.927 18.9874 221.391 18.8942 218.168C18.8855 217.85 18.8769 217.504 18.8682 217.13C18.853 216.603 18.8379 216.011 18.8227 215.36C18.5151 202.82 18.3439 194.337 18.1749 182.48C18.0839 175.844 17.9605 169.642 17.8825 168.677C17.6507 165.734 17.2672 153.608 17.1134 144.394C16.927 133.965 16.6974 125.965 16.4959 123.687C16.4201 122.77 16.2814 119.813 16.1883 117.116C16.0019 111.644 15.8329 108.733 15.508 105.059C15.3845 103.679 15.2003 101.515 15.1072 100.234C14.8754 97.0091 14.6912 95.7278 14.4291 95.2785C14.2276 94.9622 14.2124 94.7123 14.3359 93.8826C14.5526 92.5027 14.7844 91.9366 15.8329 90.4054C16.3247 89.6903 17.3582 88.1615 18.1121 87.0131C18.8682 85.8648 19.8865 84.4689 20.3783 83.9187C21.442 82.7223 21.5655 82.6879 24.5098 82.6214C34.9913 82.3555 48.8786 80.7602 53.4131 79.2772C54.7217 78.8623 55.2914 78.7775 55.6164 79.0136C55.8612 79.1786 56.5719 80.7762 57.3583 82.9377C58.4524 85.9312 59.9928 91.8357 60.9503 96.6927C61.7975 100.917 62.2459 102.847 62.9847 105.458C63.3703 106.79 64.016 109.366 64.4341 111.197C65.6213 116.368 67.8398 124.851 69.8438 131.854C70.3378 133.6 71.2001 137.043 71.7547 139.505C72.8336 144.293 73.789 148.153 74.7596 151.63C75.6696 154.922 77.5046 163.155 77.5523 164.118C77.5826 164.75 77.5198 165.067 77.3356 165.266H77.3291Z" fill="#F05341"/>
<path id="Vector_18" d="M67.6189 129.125C67.5734 129.258 67.5279 129.208 67.5279 129.027C67.5127 128.844 67.5582 128.743 67.6059 128.812C67.6514 128.862 67.6665 129.011 67.621 129.128L67.6189 129.125Z" fill="#060707"/>
<path id="Vector_19" d="M67.7727 129.79C67.7272 129.923 67.6817 129.872 67.6817 129.692C67.6665 129.509 67.712 129.408 67.7597 129.477C67.8052 129.527 67.8203 129.676 67.7748 129.792L67.7727 129.79Z" fill="#060707"/>
<path id="Vector_20" d="M62.9783 250.288C62.9588 250.308 61.6958 250.308 59.7762 250.292C59.2823 250.29 58.745 250.283 58.173 250.279C57.3259 250.267 56.4052 250.256 55.4432 250.24C55.3761 250.24 55.3089 250.24 55.2417 250.237L53.632 250.212L50.8307 250.171L49.0802 250.143L47.5506 250.12L46.5801 248.857C45.5011 247.462 45.5163 247.51 45.9323 245.231L46.1164 244.2L45.2217 242.953L44.3269 241.69L43.9261 242.089C43.7094 242.288 43.3411 242.621 43.079 242.804C42.4095 243.285 42.1084 243.175 40.9818 241.335C40.7868 241.018 40.568 240.649 40.321 240.225C40.2539 240.113 40.1845 239.994 40.1109 239.87C39.7664 239.29 39.3548 238.602 38.9323 237.901C38.6355 237.406 38.3344 236.904 38.0484 236.427C37.7299 235.9 37.4309 235.405 37.1753 234.986C37.1558 234.953 37.1363 234.921 37.1189 234.892C36.794 234.355 36.534 233.92 36.3303 233.564C35.7497 232.558 35.6111 232.185 35.6652 231.942C35.7735 231.508 37.3919 230.277 38.98 229.429L39.5779 229.106L39.8119 228.98L39.9744 229.207L40.074 229.345C40.2409 229.555 40.308 229.638 40.6157 229.372C40.8172 229.2 41.1226 228.872 41.6318 228.331C42.4637 227.449 43.3108 226.734 44.0063 226.335C44.6844 225.952 45.2542 225.737 45.5466 225.769C45.9778 225.803 46.0406 225.918 46.9657 228.297C47.5052 229.661 48.2288 231.458 48.5841 232.256L48.7596 232.641L49.247 233.718L49.8276 233.255L49.8948 233.202C51.1427 232.205 53.4392 231.722 54.4726 232.221C55.0576 232.521 56.013 234.649 56.4767 236.711C56.6521 237.509 56.8081 238.266 56.8579 238.6C56.8709 238.676 56.8775 238.731 56.8775 238.758C56.8775 238.926 57.2479 239.208 57.848 239.49C57.9607 239.547 58.0799 239.611 58.1968 239.68C58.6366 239.932 59.0959 240.244 59.3278 240.452C60.2009 241.254 62.0207 244.475 62.4713 245.979C62.506 246.093 62.532 246.196 62.5493 246.29C62.6512 246.797 62.74 246.911 63.1061 247.008C63.1256 247.012 63.1451 247.017 63.1668 247.024C63.4441 247.09 63.7063 247.173 63.7518 247.223C63.8298 247.306 63.1191 250.15 62.9805 250.283L62.9783 250.288Z" fill="#060707"/>
<path id="Vector_21" d="M35.5569 250.038C35.4095 250.132 34.7292 250.187 33.0285 250.217C32.4804 250.226 31.824 250.233 31.0484 250.237C29.9716 250.242 28.6609 250.244 27.0728 250.237H26.7392C26.2387 250.237 25.7664 250.237 25.3158 250.235C23.6454 250.231 22.3065 250.221 21.2298 250.205C20.6123 250.196 20.0815 250.185 19.6266 250.166C17.3106 250.088 16.9509 249.917 16.9509 249.538C16.9509 249.039 17.5359 244.865 17.629 244.716C17.6745 244.615 17.9519 244.5 18.2292 244.45L18.6906 244.356L18.721 244.349L18.851 243.659L19.0914 242.387C19.2908 241.323 19.5226 239.909 19.6006 239.277C19.8779 236.799 20.4173 235.666 21.6977 234.853C21.8559 234.752 21.9989 234.653 22.1289 234.559C22.6315 234.193 22.911 233.874 23.0323 233.514C23.0908 233.351 23.1146 233.179 23.1146 232.989C23.1146 231.841 23.4699 231.525 25.1186 231.227C25.5801 231.144 26.6764 231.078 27.5386 231.059C29.4646 231.043 29.4646 231.025 30.3746 233.521C30.4829 233.812 30.6021 234.105 30.7191 234.378C30.7191 234.378 30.7191 234.378 30.7191 234.381C31.005 235.045 31.2997 235.602 31.486 235.813C31.5315 235.866 31.577 235.923 31.6203 235.985C32.0774 236.645 32.4501 237.975 33.1672 241.433C33.4467 242.799 33.6222 243.487 33.7717 243.787C33.828 243.9 33.8821 243.959 33.9385 243.978C34.0425 244.005 34.2353 244.406 34.4779 245.069C34.8094 245.974 35.2384 247.365 35.6652 248.952C35.897 249.816 35.8818 249.834 35.5569 250.033V250.038Z" fill="#060707"/>
<path id="Vector_22" d="M52.7133 81.7911C52.7133 82.5728 53.8377 89.1764 54.4248 91.8352C55.1181 94.9617 55.9045 97.7397 56.4288 98.8697C56.9834 100.05 58.2941 101.581 59.3579 102.329C61.0218 103.477 64.0441 104.041 64.9691 103.376C65.8011 102.794 65.2616 102.313 63.8122 102.313C62.6727 102.313 61.2688 101.946 60.2202 101.364C59.2799 100.848 57.9085 99.484 57.3994 98.5534C56.5674 97.0246 55.4279 92.7498 54.4096 87.4275C54.0088 85.3646 53.4694 82.9189 53.0837 81.4726C52.9451 80.9729 52.7133 81.1723 52.7133 81.7889V81.7911Z" fill="#F36F55"/>
<path id="Vector_23" d="M36.6555 217.176C36.6035 217.671 36.5515 218.125 36.4973 218.592C35.8582 218.638 34.9439 218.68 33.6007 218.735C31.3497 218.817 28.191 218.902 26.5726 218.902H23.6435L23.6889 222.927C23.6911 223.154 23.6955 223.367 23.6976 223.573C23.299 223.559 22.9242 223.546 22.5775 223.534C22.5537 223.133 22.5299 222.688 22.5017 222.196C22.3934 220.35 22.3024 218.803 22.2699 218.769C22.2504 218.737 20.3525 218.409 18.8901 218.166C18.8815 217.847 18.8707 217.501 18.862 217.13C19.7568 217.197 20.8703 217.29 21.3925 217.339L22.363 217.455L22.2699 214.228C22.2244 212.45 22.0706 208.523 21.9471 205.514C21.8388 202.486 21.5918 196.283 21.4228 191.71C21.2538 187.138 21.0068 181.034 20.8833 178.155C20.7598 175.276 20.5909 170.371 20.4977 167.26C20.3135 160.457 19.8044 145.822 19.4968 137.905C19.3733 134.744 19.2346 130.887 19.1891 129.339C19.1285 127.776 18.9573 123.252 18.7883 119.277C18.6345 115.303 18.4178 108.467 18.3269 104.076C18.173 96.757 18.1882 96.0923 18.42 95.8424C18.6518 95.5926 18.6822 95.5926 18.8988 95.8929C19.0223 96.0762 19.1155 96.459 19.1155 96.7249C19.1155 97.0068 19.2541 99.6015 19.4231 102.48C19.5921 105.357 19.7307 108.268 19.7307 108.917C19.7307 109.781 19.7914 110.132 19.9301 110.132C20.0232 110.132 20.84 109.749 21.7326 109.267C23.0888 108.536 23.5525 108.186 24.5837 107.055C27.0037 104.445 28.4531 100.901 29.207 95.8287C29.3912 94.6138 29.4995 92.5188 29.5775 89.0096L29.6707 83.9372L30.026 83.8867C30.2101 83.8546 30.3813 83.7033 30.3813 83.5544C30.4419 82.8048 30.6586 85.5004 30.8276 89.1105C31.0269 93.5182 30.9207 95.996 30.3661 98.6572C29.9198 100.837 29.4107 102.134 28.0848 104.546C26.1739 108.02 24.6162 109.469 21.3188 110.883C20.1316 111.399 19.8846 111.564 19.8846 111.864C19.8846 112.747 20.3634 127.581 20.4847 131.091C20.5779 133.236 20.684 136.264 20.7317 137.827C20.9158 143.548 21.425 158.167 21.503 159.946C21.8258 166.949 22.0576 173.085 22.1962 178.242C22.2742 181.536 22.3804 185.093 22.4281 186.143C22.5212 188.105 22.8895 199.898 23.0455 205.518C23.169 209.892 23.416 215.647 23.5243 216.729L23.6175 217.627L28.7196 217.527C31.5404 217.476 34.7468 217.343 35.8712 217.245C36.168 217.217 36.4301 217.197 36.6598 217.18L36.6555 217.176Z" fill="#F36F55"/>
<path id="Vector_24" d="M61.5309 163.684C60.7142 163.884 59.9277 164.083 59.7891 164.117C59.6027 164.168 59.4511 164.684 59.2041 165.981C58.6646 168.823 58.0017 171.619 56.7841 176.227C56.1515 178.606 55.2871 181.998 54.8711 183.793C54.4573 185.588 53.5907 188.966 52.9451 191.293C52.3125 193.622 51.3267 197.213 50.7721 199.276C49.509 204 46.0556 218.936 46.2094 219.069C46.3958 219.252 49.4483 220.199 51.4827 220.717C52.5443 220.98 55.0119 221.514 56.9553 221.897C57.7461 222.048 58.4025 222.181 58.9485 222.301C58.9051 222.45 58.8596 222.592 58.8206 222.729C58.7123 223.089 58.6018 223.444 58.4957 223.793C57.7222 223.6 56.5306 223.337 55.5665 223.146C52.3623 222.498 50.4969 221.998 48.0748 221.134C46.8897 220.719 45.8714 220.403 45.8411 220.453C45.8086 220.485 45.5313 221.517 45.2388 222.748C45.111 223.3 45.0027 223.756 44.9139 224.132C44.4979 223.946 44.1296 223.784 43.8068 223.639C44.2227 221.973 44.6777 219.99 44.6365 219.937C44.5911 219.905 43.8978 219.555 43.081 219.156C42.6022 218.92 42.2426 218.739 41.9696 218.59C42.0259 218.294 42.0887 217.982 42.1559 217.648C42.4397 217.748 42.8037 217.881 43.2673 218.058L44.9788 218.723L45.3017 217.359C45.488 216.612 45.9798 214.615 46.3957 212.919C46.829 211.223 47.505 208.413 47.9231 206.682C48.3391 204.935 49.0497 202.325 49.4787 200.862C50.7114 196.672 51.5282 193.578 52.7761 188.389C53.8853 183.765 54.5786 180.887 56.769 172.089C57.7851 167.98 58.4957 164.72 58.3873 164.606C58.3548 164.571 56.9834 164.837 55.3347 165.188C54.4551 165.378 53.7337 165.532 53.1444 165.649L53.53 164.172L53.3632 163.792C54.9101 163.414 56.7061 162.999 57.5402 162.841C58.7101 162.623 58.7101 162.657 58.032 161.193C57.8457 160.778 57.1069 159.098 56.4137 157.452C53.608 150.848 48.8612 139.722 46.9504 135.248C45.8238 132.635 44.6365 129.843 44.2986 129.027L43.6984 127.563L43.5121 129.775C43.419 131.005 43.25 134.015 43.1568 136.493C43.1503 136.66 43.1438 136.825 43.1395 136.99C42.9705 141.609 42.7257 144.671 42.3942 146.397V146.402C42.3336 146.72 42.2686 146.993 42.1992 147.222C41.9848 147.988 41.6901 148.318 41.8309 147.637C41.8937 147.355 41.9999 143.912 42.0627 139.986C42.1841 133.799 42.8644 120.592 43.2327 117.285C43.2803 116.868 43.4493 114.44 43.6183 111.88C43.7873 109.32 44.0039 106.457 44.0971 105.51C44.2054 104.58 44.2964 103.814 44.3289 103.814C44.3592 103.814 44.5607 104.098 44.7752 104.447L45.1608 105.079L45.007 107.658C44.916 109.072 44.7145 112.132 44.5455 114.461C44.3766 116.79 44.1296 120.381 44.0061 122.444L43.7591 126.203L45.41 129.846C46.3047 131.858 47.7216 135.067 48.5536 136.997C49.3855 138.909 51.7145 144.148 53.7163 148.639C55.7204 153.113 57.9259 158.068 58.6018 159.632L59.8346 162.46L61.3294 162.229C63.5956 161.878 63.7191 161.878 63.7798 162.295C63.8578 162.875 63.1645 163.308 61.5309 163.691V163.684Z" fill="#F36F55"/>
<g id="Group_4">
<path id="Vector_25" d="M63.104 247.012C61.8453 247.189 60.4349 247.342 59.8348 247.342C58.2619 247.342 53.8076 246.494 52.6203 245.978C50.6618 245.114 48.9979 243.666 47.4099 241.454C44.9812 238.103 40.8995 231.607 39.5758 229.106L39.9744 229.207L40.6135 229.372C40.9299 229.872 41.3155 230.5 41.6751 231.109C44.5566 235.916 48.9503 242.32 49.9988 243.235C51.9725 244.997 53.3743 245.563 56.8732 246.029C59.3581 246.37 60.1186 246.393 62.467 245.983C62.5017 246.098 62.5277 246.201 62.545 246.295C62.6469 246.801 62.7357 246.916 63.1018 247.012H63.104Z" fill="#1B1A17"/>
<path id="Vector_26" d="M39.3961 233.007C39.2444 233.332 38.0636 234.275 37.1191 234.893C36.7941 234.357 36.5341 233.922 36.3304 233.566C36.5016 233.426 36.7096 233.271 36.9609 233.089C37.6087 232.624 38.2565 232.207 38.38 232.159C39.2596 231.827 39.7665 232.26 39.3982 233.007H39.3961Z" fill="#1B1A17"/>
<path id="Vector_27" d="M58.197 239.684C57.8222 239.874 57.3174 240.03 56.752 240.092C56.2277 240.158 55.4564 240.307 55.0556 240.44C53.5456 240.94 52.575 240.573 51.2491 239.01C50.324 237.928 48.5215 233.305 48.7511 232.656C48.7511 232.652 48.7533 232.647 48.7576 232.642L49.2451 233.72L49.8257 233.257C50.0207 233.681 50.4475 234.659 50.8634 235.615C51.8969 238.043 52.2348 238.577 53.0668 239.108C53.5492 239.408 54.4223 239.347 55.6861 238.925C56.1454 238.771 56.5202 238.664 56.8538 238.602C56.8668 238.677 56.8733 238.733 56.8733 238.76C56.8733 238.927 57.2438 239.209 57.8439 239.491C57.9566 239.548 58.0757 239.613 58.1927 239.681L58.197 239.684Z" fill="#1B1A17"/>
<path id="Vector_28" d="M22.1333 234.559C22.1311 234.802 22.1333 235.077 22.1333 235.384C22.1485 238.345 22.4734 239.659 23.4137 240.573C24.7244 241.855 26.9429 242.054 28.9014 241.055C30.1493 240.422 30.5805 240.023 30.9986 239.143C31.3127 238.492 31.5294 237.222 31.6269 235.989C31.5836 235.925 31.5381 235.87 31.4926 235.817C31.3084 235.606 31.0138 235.047 30.7256 234.385C30.6758 234.751 30.639 235.187 30.613 235.703C30.5198 237.566 30.1818 238.912 29.7182 239.262C29.5341 239.411 28.9318 239.677 28.3923 239.877C26.605 240.509 24.3994 240.06 23.9076 238.946C23.7841 238.68 23.6303 237.816 23.5523 237.034C23.3487 234.887 23.2295 233.974 23.0367 233.516L22.1333 234.561V234.559Z" fill="#1B1A17"/>
<path id="Vector_29" d="M39.673 237.282C39.3849 237.534 39.1422 237.738 38.9342 237.903C38.6374 237.408 38.3363 236.906 38.0503 236.429C38.3493 236.221 38.7587 235.975 39.3199 235.652C40.076 235.219 40.7541 234.871 40.8299 234.871C40.8906 234.871 41.0617 234.971 41.2155 235.086C41.6467 235.434 41.3542 235.852 39.6752 237.282H39.673Z" fill="#1B1A17"/>
<path id="Vector_30" d="M43.3108 238.462C43.3108 238.795 43.0183 239.212 42.2015 240.092C41.7206 240.599 41.3219 241.009 40.9818 241.334C40.7868 241.018 40.568 240.649 40.321 240.225C40.2538 240.113 40.1845 239.994 40.1108 239.87C40.9298 239.123 41.8657 238.334 42.3098 238.061C42.4788 237.96 42.7106 237.912 42.819 237.944C42.9425 237.995 43.0963 238.027 43.1743 238.027C43.2523 238.027 43.3129 238.226 43.3129 238.46L43.3108 238.462Z" fill="#1B1A17"/>
<path id="Vector_31" d="M34.4782 245.075C34.2875 245.101 34.0968 245.121 33.9084 245.133C33.1848 245.183 31.0724 245.133 29.2071 245.016C27.3417 244.915 24.2891 244.766 22.4259 244.699C20.1662 244.619 19.2541 244.564 18.6952 244.358L18.7255 244.351L18.8555 243.661C19.3646 243.707 23.364 243.755 28.0826 243.769C30.221 243.769 32.2033 243.778 33.774 243.796C33.8304 243.909 33.8845 243.968 33.9409 243.987C34.0449 244.014 34.2377 244.415 34.4803 245.078L34.4782 245.075Z" fill="#1B1A17"/>
<path id="Vector_32" d="M21.362 249.256C21.3252 249.595 21.2818 249.914 21.232 250.205C20.6145 250.196 20.0837 250.184 19.6288 250.166C19.6483 249.847 19.7003 249.428 19.7891 248.791C19.9126 247.81 20.0664 246.927 20.1119 246.845C20.1574 246.744 20.4521 246.677 20.7294 246.677C21.5462 246.677 21.6241 246.994 21.362 249.256Z" fill="#1B1A17"/>
<path id="Vector_33" d="M27.0967 249.455C27.0902 249.749 27.0837 250.01 27.075 250.237H26.7414C26.2409 250.237 25.7686 250.237 25.318 250.235C25.3223 250.04 25.3288 249.827 25.3375 249.588C25.383 248.49 25.4762 247.392 25.5693 247.127C25.708 246.76 25.8315 246.677 26.2626 246.677C27.0945 246.677 27.1725 246.893 27.0945 249.455H27.0967Z" fill="#1B1A17"/>
<path id="Vector_34" d="M33.0308 250.217C32.4826 250.226 31.8262 250.233 31.0506 250.237C30.7494 247.798 30.7689 247.076 31.1047 246.863C31.4449 246.648 31.9064 246.781 32.2292 247.179C32.5498 247.574 32.8878 248.972 33.0308 250.219V250.217Z" fill="#1B1A17"/>
<path id="Vector_35" d="M50.8633 248.956C50.8633 249.421 50.8525 249.822 50.8286 250.171L49.0781 250.143C49.0825 250.006 49.0911 249.866 49.1063 249.721C49.2298 248.174 49.4291 247.393 49.7541 247.193C50.0769 246.978 50.0011 246.978 50.4625 247.177C50.8482 247.326 50.8633 247.377 50.8633 248.956Z" fill="#1B1A17"/>
<path id="Vector_36" d="M55.4561 249.955C55.454 250.054 55.4475 250.15 55.4432 250.242C55.376 250.242 55.3088 250.242 55.2417 250.239L53.632 250.214C53.6385 250.134 53.645 250.054 53.6558 249.973C53.8248 248.41 53.9331 247.961 54.1497 247.812C54.4725 247.578 54.9817 247.679 55.259 248.011C55.4908 248.277 55.5211 248.577 55.4583 249.957L55.4561 249.955Z" fill="#1B1A17"/>
<path id="Vector_37" d="M59.7766 250.292C59.2826 250.29 58.7453 250.283 58.1733 250.278C58.2102 249.311 58.2838 248.915 58.4636 248.623C58.7713 248.108 59.3433 248.025 59.7267 248.44C59.9434 248.674 59.9759 249.073 59.7766 250.292Z" fill="#1B1A17"/>
</g>
<g id="Group_5">
<path id="Vector_38" d="M57.1132 80.6641C57.0525 80.4784 56.9875 80.2813 56.9225 80.0796C56.8965 80.004 56.8727 79.9329 56.851 79.8641C56.4307 78.631 56.3809 78.3284 55.5663 78.4568C55.2326 78.5095 54.7712 78.6356 54.1017 78.7983C51.0491 79.5478 45.0847 80.5105 39.5363 81.1775C32.6772 82.0096 30.1792 82.225 26.4355 82.2915C24.8323 82.3259 23.4154 82.3923 23.3222 82.4405C22.9669 82.5734 23.2919 83.0227 23.7382 83.0227C23.9852 83.0227 24.217 83.0892 24.2625 83.1556C24.2993 83.2221 24.217 83.6003 24.0718 84.0748C24.0372 84.1917 23.9982 84.3131 23.9548 84.4369C23.944 84.4667 23.9354 84.4965 23.9245 84.524C23.7252 85.1085 23.6017 85.6724 23.645 85.7824C23.6905 85.8993 23.645 86.0162 23.5367 86.0643C23.4565 86.0895 23.5779 86.2133 23.7902 86.3715C24.1498 86.6328 24.7738 86.9789 25.1226 87.0637C25.6945 87.2104 26.9728 88.1341 27.7007 88.8974C27.7982 89.0005 27.8849 89.0991 27.9607 89.1931C28.0279 89.2802 28.1123 89.404 28.2077 89.5529C28.537 90.0687 28.9963 90.8961 29.3516 91.6479C29.3603 91.6686 29.3711 91.6869 29.3798 91.7052C29.5076 91.9711 29.6311 92.2164 29.7546 92.4456C30.5388 93.908 31.3079 94.7056 32.987 95.9136C35.0213 97.3782 36.4707 97.6602 40.7712 97.4768C46.5211 97.2109 49.8337 96.0786 51.8377 93.6673C52.7477 92.5694 53.2243 91.5883 53.6251 89.9747C53.6316 89.9518 53.6381 89.9288 53.6446 89.9059C53.7962 89.3054 53.9587 88.7324 54.1342 88.1868C54.3812 87.4144 54.6498 86.6969 54.9445 86.0345C55.107 85.6701 55.2738 85.3217 55.4493 84.9893C55.7396 84.4415 56.0494 83.9372 56.383 83.4765C56.4979 83.3138 56.6192 83.1579 56.7405 83.0066C56.8553 82.8645 56.9637 82.7247 57.0633 82.5918C57.319 82.2479 57.4966 81.9729 57.4966 81.9248C57.4966 81.8606 57.3363 81.3357 57.1175 80.6641H57.1132Z" fill="#FFC233"/>
<path id="Vector_39" d="M55.4448 84.9892C55.2715 85.3216 55.1025 85.67 54.94 86.0344C54.4266 84.721 53.8395 84.1663 52.6674 83.5887C51.7271 83.1074 51.6816 83.1074 49.2465 83.1555C47.8903 83.1715 45.7021 83.3549 44.3913 83.5383C43.0806 83.7216 40.9856 84.0196 39.7529 84.187C38.5201 84.3703 36.2994 84.6362 34.8197 84.7691C30.8117 85.168 30.0101 85.4339 29.1478 86.6991C28.5997 87.5082 28.4285 87.9965 28.2076 89.5528C28.1122 89.4038 28.0278 89.2823 27.9606 89.1929C27.8869 89.099 27.7981 89.0004 27.7006 88.8996C27.8848 87.6985 28.3332 86.5937 28.9767 85.7846C29.2388 85.4843 29.4381 85.1863 29.4381 85.1198C29.4381 85.0694 29.1457 85.019 28.7904 85.019C27.9108 85.019 25.4799 84.7554 23.9201 84.5262C23.2333 84.4253 22.7198 84.3336 22.5768 84.2718C22.319 84.148 22.5725 84.093 24.0652 84.0746C24.804 84.0655 25.8461 84.0655 27.2781 84.0723C30.6384 84.0884 33.0432 84.038 34.1373 83.889C48.2564 82.1263 51.478 81.5762 56.1793 80.0795C56.3959 80.0084 56.6213 79.9374 56.8466 79.864C56.8704 79.9328 56.8921 80.0038 56.9181 80.0795C56.9852 80.2835 57.048 80.4783 57.1087 80.664C55.863 81.0857 54.4222 81.5029 53.1267 81.7917C52.3879 81.959 51.7856 82.1401 51.7856 82.1905C51.7856 82.257 52.0781 82.406 52.4486 82.5229C53.7896 82.9561 54.8231 83.8271 55.4427 84.9892H55.4448Z" fill="white"/>
<path id="Vector_40" d="M53.0532 86.2979C52.113 85.3008 50.9409 84.8333 49.277 84.7668C48.5057 84.7324 47.6586 84.7507 47.3965 84.7828C47.1495 84.8333 45.9623 84.9983 44.7772 85.1817C34.651 86.6784 31.9991 87.3271 30.6732 88.6084C30.3504 88.9247 30.0103 89.1745 29.9171 89.1745C29.824 89.1745 29.7482 89.3579 29.7482 89.5734C29.7482 89.8072 29.6875 90.1716 29.5943 90.4054C29.512 90.6461 29.4253 91.1182 29.3517 91.6454C29.3604 91.6661 29.3712 91.6844 29.3799 91.7027C29.5077 91.9686 29.6312 92.2139 29.7547 92.4431C29.9106 91.2351 30.1165 90.3389 30.2443 90.3389C30.3223 90.3389 31.0459 90.4214 31.8323 90.5383L33.2817 90.7217L33.3272 92.3193C33.3727 93.8505 33.3879 93.9169 33.728 93.9651C34.3758 94.0659 34.5296 93.7496 34.5296 92.2345V90.8363H36.0397C38.9385 90.8363 44.4869 90.0203 46.844 89.257C48.3692 88.7757 50.9279 87.6273 51.6688 87.0956L52.2386 86.6967L52.6546 87.2285C53.1832 87.907 53.3934 88.4571 53.6447 89.9034C53.7963 89.3029 53.9588 88.7299 54.1343 88.1843C53.87 87.4417 53.4974 86.7609 53.0554 86.2956L53.0532 86.2979ZM46.779 88.4113C45.6698 88.7115 41.1678 89.4267 38.6871 89.6926C36.083 89.9745 30.6711 89.5917 30.9181 89.1447C31.2885 88.5121 34.248 87.7809 40.5373 86.7838C43.1263 86.369 45.6546 85.9518 46.1637 85.8693C47.7518 85.6195 50.1089 85.6538 50.9106 85.9518C51.3114 86.1008 51.6342 86.2842 51.6342 86.3506C51.6342 86.534 47.9663 88.0812 46.779 88.4135V88.4113Z" fill="white"/>
</g>
<path id="Vector_41" d="M77.4526 107.919C77.3919 108.236 77.2988 108.268 76.6358 108.22C76.235 108.185 72.0731 108.22 67.3718 108.32C60.621 108.453 58.8012 108.437 58.617 108.27C58.2162 107.922 58.1079 107.355 58.2617 106.441C58.3397 105.959 58.5087 103.58 58.6473 101.153C58.7708 98.7256 58.955 95.9635 59.033 94.9986C59.2323 92.4543 59.3406 89.7588 59.4944 82.0596L59.5984 76.9389L59.6331 75.1901L59.1889 74.727L58.0277 73.5099L57.5684 73.0286L57.0918 73.0721L56.4895 73.1294C54.2082 73.3289 43.6031 75.009 38.6093 75.974C37.4221 76.2078 35.065 76.657 33.3686 76.955C29.2219 77.7206 27.2655 78.1515 27.1269 78.3188C27.0966 78.3532 26.9081 78.901 26.6329 79.7514C26.4878 80.1983 26.321 80.7301 26.139 81.3123C25.9873 81.796 25.827 82.3163 25.6623 82.8572C23.459 90.0086 19.2646 103.214 17.6463 108.054C16.8143 110.516 16.1211 112.779 16.1211 113.077C16.1059 113.377 16.0279 113.691 15.9369 113.792C15.7983 113.941 12.0979 113.01 7.1669 111.564C2.3876 110.168 0.877557 109.801 0.678238 109.984C0.292601 110.317 0.00012207 110.035 0.00012207 109.32C0.00012207 108.323 0.554749 105.71 3.46869 93.0869C6.13566 81.4957 8.09202 72.2974 8.86329 67.7407C9.55657 63.6332 10.3127 59.7916 11.084 56.5803C11.7317 53.8687 13.9047 46.1351 14.7995 43.3754L15.1071 42.3944L15.0248 42.1904L14.0759 39.8983C13.3046 38.0027 13.0901 37.338 13.2136 37.1386C13.2721 37.0377 13.5819 36.836 14.0564 36.5724C14.9555 36.0727 16.4439 35.3553 17.9323 34.7089C18.3114 34.5416 18.6905 34.3834 19.061 34.2321C19.2733 34.145 19.4835 34.0602 19.6893 33.98C27.1334 31.053 35.3488 29.1895 44.0884 28.4743C46.6601 28.2703 55.1701 28.3918 58.0472 28.66C58.2054 28.676 58.3484 28.6921 58.4697 28.7058C58.7708 28.7448 59.0698 28.7884 59.3644 28.8296C61.7433 29.1826 63.795 29.6181 64.2499 29.8702C64.4817 30.0032 64.5727 30.1201 64.4817 30.1361C64.3734 30.1361 64.2824 30.3355 64.2824 30.5854C64.2737 30.7046 64.2456 30.9452 64.2022 31.2501C64.1502 31.6214 64.0744 32.0775 63.9899 32.5153L63.6975 33.9961L64.3062 35.3759L64.6226 36.0933C65.1317 37.2577 66.2713 39.9189 67.1357 42.0299C70.0951 49.1814 72.1923 54.0223 74.673 59.3767C75.4897 61.1554 76.1527 62.7026 76.1527 62.8195C76.1527 62.9364 76.2133 63.0693 76.3065 63.1014C76.6618 63.2344 76.7853 66.6932 76.8611 78.7016C76.9391 90.7925 77.0453 96.3303 77.3854 103.981C77.4786 105.943 77.5089 107.724 77.4634 107.924L77.4526 107.919Z" fill="white"/>
<g id="Group_6">
<path id="Vector_42" d="M64.2978 35.3714C64.1982 35.7817 64.0877 36.2264 63.9663 36.7031C63.2102 39.6806 60.6213 53.3691 59.8825 58.3247C59.6832 59.6885 59.4037 61.9348 59.265 63.3147C59.1264 64.6785 58.7711 67.688 58.4938 70.0008C58.3096 71.4929 58.1579 72.6505 58.028 73.5077L57.5687 73.0264L57.092 73.0699C57.092 72.3731 57.1722 71.4127 57.352 69.5996C57.7528 65.5907 57.7832 63.9954 57.5059 62.148C57.3672 61.2174 57.2892 58.0244 57.2285 51.5859C57.1505 41.8902 57.3368 34.0557 57.7073 30.8788C57.7983 30.1477 57.9153 29.3752 58.041 28.6532C58.1991 28.6692 58.3421 28.6853 58.4634 28.699C58.7646 28.738 59.0635 28.7816 59.3582 28.8228C59.2542 30.9453 59.0549 34.4133 58.7256 39.8571C58.6476 41.1384 58.5869 45.8945 58.5869 50.4192L58.6021 58.6525L58.9422 56.491C59.1416 55.2945 59.5597 53.0826 59.8522 51.5675C60.1598 50.0547 60.6234 47.3936 60.9007 45.663C61.7132 40.2788 63.4096 32.9441 64.196 31.2433C64.144 31.6123 64.0682 32.0685 63.9837 32.5063L63.6912 33.987L64.3 35.3668L64.2978 35.3714Z" fill="#F2E0D0"/>
<path id="Vector_43" d="M26.6332 79.749C26.488 80.1959 26.3212 80.7277 26.1392 81.3099C25.8207 80.3793 25.2444 77.168 24.9693 74.6215C24.8003 73.0583 24.4298 70.1473 24.1373 68.1348C23.7575 65.5294 22.6374 61.5381 20.7771 56.1607C19.4794 52.3742 17.4017 47.3453 15.0207 42.1857L14.0718 39.8936C13.3005 37.998 13.086 37.3333 13.2095 37.1339C13.268 37.033 13.5778 36.8313 14.0523 36.5677C14.2624 36.9321 14.4596 37.2828 14.6264 37.6014C15.7053 39.6804 18.1101 45.2365 18.9269 47.5974C19.358 48.8283 20.1445 51.0401 20.6688 52.5048C21.1931 53.9695 21.9167 56.0645 22.2871 57.1624C22.6576 58.2603 22.9349 58.893 22.8873 58.5766C22.8396 58.2603 22.7031 56.9469 22.5645 55.6657C22.2568 52.6057 21.5462 48.4478 20.9764 46.268C20.7294 45.303 20.1748 43.0086 19.7437 41.1955C19.0244 38.1195 18.6409 36.7213 17.926 34.7065C18.3051 34.5392 18.6842 34.381 19.0547 34.2297C19.3775 34.9357 19.7047 35.6944 19.9452 36.3064C20.9938 39.0844 22.4735 46.0685 23.7365 54.2193C24.6616 60.2407 25.9399 69.8699 26.3558 74.0278C26.5833 76.2535 26.6743 78.3393 26.6332 79.7536V79.749Z" fill="#F2E0D0"/>
<path id="Vector_44" d="M67.0796 74.0416C66.6637 74.4083 62.348 75.9715 61.2691 76.1366C60.8076 76.203 60.3288 76.4025 60.0667 76.6362C59.9193 76.7738 59.7612 76.8723 59.5987 76.9365L59.6334 75.1876L59.1892 74.7246C60.4783 73.2118 62.79 70.8487 63.5179 70.3994C63.9794 70.1175 64.4733 69.8837 64.612 69.8837C65.3984 69.8837 64.9196 71.7953 63.8104 73.0926L63.0543 73.9911L63.7779 73.8582C64.1787 73.7917 65.1644 73.7253 65.966 73.7253C67.4154 73.7253 67.4306 73.7253 67.0753 74.0416H67.0796Z" fill="#F2E0D0"/>
</g>
<g id="Group_7">
<path id="Vector_45" d="M72.4436 108.137V110.2C72.4436 112.911 71.9041 115.323 70.6714 118.082C69.1288 121.539 67.6838 123.499 66.737 123.386C66.6915 123.382 66.6439 123.37 66.6005 123.354C66.399 123.292 66.2127 123.419 65.8986 123.827C65.8769 123.856 65.8531 123.886 65.8292 123.921C65.2746 124.67 64.889 124.869 64.4578 124.62C64.4557 124.62 64.4492 124.615 64.447 124.615C64.2217 124.489 64.083 124.542 63.8101 124.853C63.6259 125.064 63.4786 125.19 63.3486 125.227C63.1493 125.293 62.9889 125.163 62.7918 124.853C62.4062 124.221 62.5752 123.474 63.7017 120.696C64.4405 118.882 64.7806 117.801 64.9648 116.721C65.3808 114.076 65.2118 112.746 64.564 113.611C64.2564 114.009 64.1025 114.525 63.2684 117.851C62.729 120.063 62.4972 120.528 62.0812 120.363C61.5417 120.129 61.4637 119.465 61.6501 116.522C61.8927 112.49 62.3347 110.525 63.3139 109.068C63.3226 109.052 63.3334 109.035 63.3443 109.022C63.6021 108.637 63.7646 108.458 63.9942 108.362C64.122 108.309 64.2715 108.279 64.4687 108.256C64.824 108.222 66.7652 108.19 68.7843 108.174L72.4371 108.139L72.4436 108.137Z" fill="#E5845D"/>
<path id="Vector_46" d="M72.4438 108.167V109.283C71.5859 109.287 70.4766 109.283 69.0684 109.267C64.9694 109.228 63.7648 109.198 63.3185 109.063C63.3271 109.047 63.338 109.031 63.3488 109.017C63.6066 108.632 63.7691 108.453 63.9988 108.357C64.2371 108.336 64.5036 108.318 64.7809 108.302C66.2801 108.206 69.9393 108.157 72.4416 108.167H72.4438Z" fill="#DB724C"/>
<path id="Vector_47" d="M67.1405 116.684C66.9867 117.881 65.6608 121.956 64.8137 123.852C64.7032 124.097 64.5797 124.354 64.4475 124.613C64.2222 124.487 64.0836 124.539 63.8106 124.851C63.6264 125.062 63.4791 125.188 63.3491 125.225C63.4423 125.012 63.5398 124.791 63.6394 124.567C64.3175 123.054 65.1798 120.874 65.5654 119.76C65.9359 118.63 66.3974 117.266 66.5837 116.732C66.9693 115.651 67.2922 115.618 67.1383 116.682L67.1405 116.684Z" fill="#DB724C"/>
<path id="Vector_48" d="M66.7375 123.386C67.4438 121.834 69.2073 116.776 69.2073 116.285C69.2073 115.953 68.9906 115.836 68.852 116.07C68.8065 116.152 68.2973 117.516 67.6951 119.114C66.8675 121.342 66.3107 122.811 65.899 123.826L66.7353 123.386H66.7375Z" fill="#DB724C"/>
</g>
</g>
</svg>
