<svg width="121" height="351" viewBox="0 0 121 351" fill="none" xmlns="http://www.w3.org/2000/svg">
<path d="M31.8478 289.724C31.1219 292.342 29.9789 297.035 29.0249 301.297C28.5689 303.28 27.8639 306.214 27.468 307.837C27.075 309.44 26.367 312.755 25.911 315.166C25.455 317.577 24.666 321.345 24.147 323.512C23.649 325.677 22.9441 329.061 22.6111 331L21.9661 334.565L22.8181 335.398C23.295 335.874 23.793 336.323 23.916 336.39C24.33 336.659 31.2209 338.193 32.1538 338.241C33.0028 338.285 33.0658 338.241 33.4408 337.382C33.6688 336.884 35.1628 332.125 36.8037 326.779C38.4417 321.456 40.9767 313.585 42.4676 309.298C45.0806 301.766 47.6965 293.78 47.9665 292.583C48.1735 291.635 48.1105 291.613 38.4837 288.907C36.1587 288.251 34.3108 287.868 33.5638 287.868H32.3608L31.8419 289.718L31.8478 289.724Z" fill="#C77343"/>
<path d="M113.691 308.059C113.586 309.795 113.4 313.201 113.274 315.616C113.166 317.92 113.013 320.521 112.851 322.977C112.821 323.478 112.785 323.969 112.752 324.454C112.731 324.774 112.707 325.084 112.683 325.395C112.647 325.921 112.611 326.431 112.572 326.919C112.572 326.963 112.566 327.008 112.563 327.052C112.539 327.359 112.518 327.66 112.494 327.949C112.431 328.741 112.371 329.46 112.311 330.078C112.263 330.598 112.218 331.045 112.176 331.409L111.927 333.551L110.889 333.842C110.808 333.865 110.724 333.887 110.643 333.909C110.397 333.969 110.145 334.02 109.89 334.055C109.293 334.14 108.681 334.163 108.088 334.121C107.779 334.099 107.476 334.061 107.182 334.004C106.831 333.934 106.492 333.846 106.177 333.732L106.168 333.725C105.997 333.665 105.835 333.598 105.682 333.526C104.917 333.164 104.437 333.028 104.395 333.187C104.341 333.354 104.263 333.431 104.161 333.418C104.104 333.412 104.041 333.38 103.972 333.316H103.966C103.825 333.183 103.666 332.949 103.486 332.604C103.237 332.15 102.988 331.903 102.946 332.039C102.823 332.445 102.529 332.353 102.283 331.859C102.274 331.84 102.265 331.805 102.25 331.761C102.148 331.384 101.95 330.119 101.689 328.24C101.218 324.824 100.543 319.387 99.8767 313.588C99.5857 311.04 99.2317 307.995 99.0667 306.823C98.3827 301.838 97.8637 295.726 98.0497 294.959C98.2147 294.237 100.186 293.967 106.951 293.739C110.103 293.625 112.74 293.492 112.824 293.422C112.887 293.353 113.094 293.289 113.28 293.289C113.529 293.289 113.715 293.603 113.901 294.325C114.192 295.406 114.087 301.566 113.694 308.062L113.691 308.059Z" fill="#C77343"/>
<path d="M35.1051 146.248C34.9791 146.429 34.6701 148.121 34.4001 150.038C33.8811 154.075 33.9651 155.114 35.1261 158.407C36.206 161.385 37.139 163.28 39.38 166.908C42.0349 171.192 42.1819 171.373 42.5959 171.192C43.0729 170.99 43.0099 170.179 42.4099 168.372C41.8279 166.592 41.7469 166.094 42.2449 167.086C42.7009 168.033 43.1599 168.553 43.5109 168.553C43.7389 168.553 43.7808 168.328 43.6969 167.469C43.6549 166.883 43.5319 166.23 43.4479 166.027C43.3429 165.733 43.4059 165.688 43.7389 165.78C44.5488 166.005 44.2578 164.608 42.4099 159.421C41.2699 156.195 41.0389 155.292 41.2909 155.111C41.8099 154.772 43.1599 156.984 43.9879 159.532C44.7138 161.832 45.2328 162.216 45.6258 160.704C45.9588 159.307 45.2718 156.962 43.2619 152.538C42.0169 149.81 40.5019 147.126 40.2109 147.126C40.0879 147.126 39.734 146.901 39.401 146.629C38.633 146.02 35.498 145.748 35.1051 146.245V146.248Z" fill="#C77343"/>
<path d="M93.2773 33.6133C88.1114 34.3136 78.2326 37.6502 76.0937 39.4342C74.9327 40.4038 74.5787 41.1485 75.6797 40.3373C76.0937 40.0426 76.4687 39.8176 76.5107 39.8398C76.5317 39.8842 76.4897 40.426 76.3877 41.0788C76.0547 43.3571 76.6997 45.7019 78.0676 47.2577C79.2496 48.5886 82.1986 51.1616 84.3555 52.7396C86.7405 54.4761 87.0524 54.4983 88.9214 53.2815C91.0993 51.8619 97.4922 45.9522 100.831 42.2987C103.3 39.6148 104.275 38.6674 104.401 38.8924C104.485 39.073 104.857 39.6592 105.25 40.2232L105.934 41.2372L105.997 40.3595C106.081 39.412 105.664 38.623 104.212 36.8168C103.195 35.5779 101.017 34.2692 99.1692 33.7939C97.9452 33.4992 94.8733 33.3883 93.2773 33.6133Z" fill="#F6AA87"/>
<path d="M85.7379 12.3351C82.6659 13.1716 80.281 16.3499 79.783 20.2537C79.408 23.321 79.513 26.119 80.053 27.8776C80.8 30.2447 82.4619 32.637 84.2019 33.8316C84.2439 33.8538 84.0579 35.7487 83.7879 38.0714L83.3109 42.2667L82.147 42.6058C80.134 43.2364 76.2551 44.5229 75.6731 44.77C74.5721 45.22 74.8841 46.0565 77.2301 48.8291C80.176 52.3496 82.8939 53.8832 86.7129 54.1082C90.5738 54.3554 94.0177 52.9801 96.8796 50.0016C99.4956 47.2733 100.678 45.0394 99.9306 44.2282C99.7656 44.0476 97.9596 43.4613 95.9047 42.9195C93.8707 42.3776 92.1067 41.8611 91.9807 41.7471C91.8577 41.6552 91.6897 40.394 91.6267 38.9269C91.5427 37.4598 91.3988 35.679 91.2728 34.9565L91.0868 33.6257L92.1847 32.4532C95.5267 28.9106 96.2736 22.4148 93.9277 17.2498C92.2057 13.4378 88.9058 11.4542 85.7319 12.3319L85.7379 12.3351Z" fill="#C77343"/>
<path d="M75.1968 0.620604C73.0998 1.83739 72.2509 4.45474 73.2048 6.71087C73.8708 8.31423 75.5088 9.41695 76.8378 9.14761C77.5217 8.98917 77.5037 9.05571 76.7778 10.2535C74.9718 13.2321 74.8278 17.8774 76.4448 21.6006C77.6087 24.2624 78.6647 24.7598 80.6357 23.5177C82.8346 22.1425 84.9946 19.5251 86.6116 16.2328L87.2565 14.9463L88.2735 16.6828C90.0795 19.7723 93.7094 23.2927 95.1014 23.2927C95.7853 23.2927 97.1353 20.6976 98.0263 17.6524C98.6083 15.6213 98.7733 13.2986 98.4823 11.2928L98.3173 10.2535L99.1483 10.3676C101.077 10.6623 103.342 9.15077 103.942 7.16399C104.356 5.78877 104.128 3.82417 103.402 2.72146C102.532 1.3906 101.473 0.848751 99.6673 0.848751C98.3803 0.848751 98.1103 0.915291 97.4473 1.47932C96.4723 2.29051 95.6204 3.86853 95.4974 5.13284L95.3923 6.10248L94.4774 5.6747C92.1524 4.61635 89.9955 4.66071 88.3545 5.81095L87.5865 6.3528L86.7975 5.90285C85.6786 5.27228 82.8766 5.38634 81.5896 6.10564L80.7197 6.60313L80.8427 5.16137C80.9867 3.31084 80.4287 1.91344 79.2047 1.01036C78.1457 0.265712 76.1538 0.0629168 75.1998 0.626947L75.1968 0.620604Z" fill="white"/>
<path d="M116.658 343.599C116.631 343.063 116.451 342.287 116.067 341.089C115.854 340.42 115.575 339.619 115.227 338.659C115.209 338.605 115.185 338.545 115.167 338.488C114.423 336.422 113.427 333.519 112.923 331.96C112.452 330.493 111.984 329.086 111.552 327.853C111.141 326.671 110.766 325.651 110.463 324.891C110.163 324.127 109.941 323.629 109.827 323.503C109.431 323.05 105.219 322.936 104.037 323.344C103.164 323.633 102.828 324.13 102.27 326.158C102.216 326.348 102.162 326.554 102.105 326.773C102.036 327.042 101.916 327.441 101.751 327.99C101.097 330.16 99.6725 334.631 97.2696 342.113C96.6066 344.118 96.5226 345.269 96.9576 346.374C97.3746 347.436 98.0166 348.019 99.1385 348.314C100.426 348.65 102.561 348.155 104.967 346.983C107.811 345.585 108.951 345.294 110.655 345.519C113.373 345.855 115.158 345.766 115.968 345.246C116.652 344.796 116.694 344.73 116.652 343.602L116.658 343.599Z" fill="#F05341"/>
<path d="M35.5015 333.335L35.1475 332.185L33.8606 332.115C32.7686 332.058 31.9766 332.242 29.8767 333.095C29.6247 333.196 29.3547 333.31 29.0607 333.434C29.0157 333.453 28.9677 333.472 28.9227 333.491C28.4637 333.693 27.4467 333.852 26.6787 333.874C25.9047 333.874 25.5207 333.849 25.2327 333.7C25.0648 333.614 24.9298 333.491 24.7708 333.307C24.6808 333.215 24.6088 333.133 24.5488 333.05C24.2788 332.679 24.2548 332.274 24.2548 330.895C24.2758 329.859 24.3988 328.437 24.5668 327.714C25.0858 325.325 24.2338 324.308 22.0738 324.761C18.7979 325.458 18.8609 325.414 18.8609 327.85C18.8609 328.427 18.8369 328.918 18.7769 329.362C18.6809 330.062 18.4919 330.642 18.1619 331.238C17.8979 331.713 17.5439 332.195 17.0729 332.756C17.0039 332.841 16.9289 332.93 16.8509 333.019C16.7669 333.114 16.6829 333.209 16.602 333.297C16.155 333.792 15.717 334.232 15.282 334.628C15.048 334.84 14.811 335.04 14.571 335.227C14.124 335.582 13.668 335.896 13.182 336.184C12.816 336.403 12.435 336.602 12.033 336.796C11.775 336.916 11.5051 337.036 11.2261 337.147C10.1251 337.623 9.0451 338.183 8.8591 338.431C8.34012 339.061 8.36113 341.568 8.87712 342.81C9.35711 343.957 10.7251 345.243 11.991 345.719C13.65 346.349 17.1149 346.416 20.7478 345.852C22.5148 345.605 26.0997 345.129 28.7157 344.816C31.3496 344.499 34.0495 344.115 34.7335 343.957L35.9785 343.665L36.1225 341.885C36.2875 339.562 35.9545 334.825 35.5015 333.335Z" fill="#F05341"/>
<path d="M132.553 298.898C132.538 297.484 132.478 295.811 132.367 294.268C131.518 281.996 131.122 277.509 130.396 271.238C130.108 268.868 129.421 262.42 128.863 256.915C128.281 251.411 127.387 243.201 126.871 238.714C125.998 231.068 125.398 224.167 124.588 212.956C124.213 207.61 123.571 200.481 123.112 196.605C122.821 193.988 122.326 190.335 120.541 177.432C119.527 170.245 118.018 160.71 116.602 152.51C116.425 151.486 116.248 150.482 116.077 149.509C115.792 147.902 115.516 146.372 115.249 144.952C114.604 141.593 113.548 135.861 112.864 132.211C111.412 124.359 108.838 110.489 108.505 108.797C108.379 108.167 108.214 107.65 108.133 107.669C108.049 107.691 106.264 107.783 104.149 107.872C97.6935 108.145 91.0516 108.934 84.4368 110.242C80.2639 111.053 69.7431 113.984 66.4852 115.204C65.0092 115.768 63.3502 116.399 62.8102 116.602C61.8563 116.963 61.7933 117.052 61.2143 118.563C59.7383 122.42 57.6023 129.955 55.5894 138.301C54.8844 141.21 53.8044 145.313 53.2044 147.437C53.0604 147.944 52.8895 148.536 52.7065 149.186C52.4725 150.022 52.2145 150.944 51.9595 151.863C51.5905 153.181 51.2305 154.5 50.9425 155.558C50.3215 157.903 48.4945 164.196 46.8746 169.541C45.2756 174.865 43.1577 181.969 42.2037 185.331C41.2497 188.671 40.0227 192.797 39.5067 194.467C38.9878 196.133 37.6618 200.848 36.5818 204.952C35.5048 209.036 32.7659 219.138 30.4799 227.396C28.221 235.653 25.872 244.269 25.2931 246.566C24.6931 248.867 23.3431 253.582 22.2451 257.055C16.5783 275.272 13.8753 284.227 12.7473 288.704C12.6303 289.16 12.5313 289.569 12.4473 289.933C12.3183 290.501 12.2253 290.973 12.1593 291.363C11.9733 292.443 12.3273 292.763 14.2983 293.121C26.439 295.425 38.5558 298.109 53.0004 301.718C55.2444 302.272 57.5213 302.814 59.5583 303.277C60.1043 303.4 60.6323 303.518 61.1363 303.629C64.1752 304.3 66.3922 304.725 66.6142 304.649C66.9501 304.529 67.1751 303.568 67.3251 301.433C67.3401 301.224 67.3551 300.999 67.3701 300.764C67.4271 299.848 67.4691 298.752 67.5051 297.456C67.5891 295.222 67.7361 292.221 67.8381 290.802C68.1891 286.179 68.8521 276.343 69.0831 272.398C69.4971 265.113 70.9281 253.496 73.109 239.354C73.628 236.062 74.333 230.783 74.687 227.627C76.181 214.204 78.7129 195.598 80.3299 185.898C80.8878 182.606 81.0138 182.086 81.1608 182.742C81.3678 183.845 81.7008 201.71 81.9498 225.71C82.0728 236.873 82.2588 251.085 82.3848 257.286C82.5918 268.405 82.4868 276.21 81.9498 286.945C81.8448 289.113 81.6588 293.622 81.5328 296.984C81.4638 299.132 81.3828 301.306 81.3138 302.802C81.2898 303.353 81.2658 303.809 81.2478 304.139C81.2388 304.307 81.2298 304.443 81.2208 304.538C81.1578 305.349 81.1998 306.138 81.3018 306.319C81.5298 306.702 82.4838 306.591 87.9617 305.552C92.1556 304.741 99.5414 303.66 104.77 303.096C110.932 302.418 116.473 302.215 123.862 302.396C127.804 302.485 131.29 302.554 131.623 302.573C131.932 302.573 132.286 302.44 132.391 302.257C132.499 302.063 132.556 301.043 132.559 299.652C132.559 299.411 132.559 299.161 132.559 298.904L132.553 298.898Z" fill="white"/>
<path d="M67.3185 301.427C66.7965 301.306 66.1815 301.154 65.4706 300.97C63.5626 300.451 61.8796 300.045 61.7536 300.045C61.6276 300.045 61.4327 301.214 61.1297 303.622C60.6257 303.512 60.0977 303.394 59.5517 303.271C59.7857 301.252 59.9177 299.671 59.8247 299.573C59.5787 299.326 48.9919 296.845 44.096 295.878C41.8131 295.425 36.9592 294.411 33.3053 293.622C24.8125 291.775 18.1886 290.602 12.4437 289.931C12.5277 289.566 12.6267 289.157 12.7437 288.701C20.0216 289.563 28.7994 291.163 37.8712 293.283C39.9261 293.758 43.577 294.57 45.962 295.089C48.3709 295.583 52.2919 296.509 54.6798 297.139C57.0887 297.751 59.2877 298.315 59.5787 298.381C60.1157 298.515 60.1367 298.496 60.3647 296.645C61.2766 289.29 62.1496 282.75 62.5846 279.864C63.6226 273.029 65.8216 259.451 66.5055 255.617C67.5435 249.773 68.9745 240.594 70.0125 232.948C70.9454 226.227 72.7304 216.147 73.8734 211.182C74.2064 209.759 74.8484 206.356 75.3013 203.624C77.0053 193.7 79.2673 183.234 80.7192 178.588C81.4872 176.107 81.5922 175.521 81.8832 171.709C82.3182 165.822 82.6932 162.054 83.4372 155.65L84.1002 150.054L82.7502 148.543C81.2982 146.898 80.5722 145.545 79.9512 143.4C78.8713 139.563 80.1162 129.302 82.8132 119.761C83.1462 118.567 83.5182 117.575 83.6232 117.575C83.9561 117.575 83.8541 118.953 83.3142 121.884C83.0232 123.418 82.4622 126.552 82.0692 128.852C80.5542 137.851 80.4492 140.83 81.5712 144.097C81.9882 145.292 83.7072 148.023 84.1661 148.181C84.3101 148.226 84.4571 147.617 84.5381 146.626C84.8921 142.408 87.0731 125.446 87.6101 122.759C88.0661 120.417 88.75 118.25 89.023 118.25C89.707 118.25 89.209 124.093 87.4661 136.746C86.9681 140.399 86.4071 144.775 86.2211 146.445C86.0351 148.115 85.5371 152.288 85.0811 155.694C84.3131 161.512 84.1271 163.252 83.3172 172.159C83.1312 174.076 82.9212 175.698 82.8192 175.768C82.6122 175.927 81.7602 178.655 81.7602 179.197C81.7602 179.422 81.6792 179.602 81.5742 179.602C81.1602 179.602 78.5023 192.1 76.7803 202.046C76.1983 205.519 75.4933 209.376 75.2233 210.618C74.2094 215.311 72.1754 227.285 71.3834 233.261C70.5345 239.577 69.7035 244.833 67.8555 255.617C66.8175 261.615 65.0116 272.915 64.0156 279.639C63.3706 284.015 61.6306 298.765 61.7536 298.898C61.7956 298.945 63.2266 299.421 64.9066 299.959C65.8755 300.261 66.6945 300.527 67.3605 300.761L67.3155 301.43L67.3185 301.427Z" fill="#F9EAEC"/>
<path d="M116.074 149.506C116.056 149.499 116.038 149.493 116.017 149.487C112.594 148.451 110.083 146.803 107.593 143.938C104.419 140.307 103.36 136.609 102.61 126.707C102.424 124.337 102.196 121.608 102.091 120.617C101.968 119.625 101.884 118.788 101.884 118.766C101.884 118.589 101.467 118.744 101.323 118.969C101.242 119.127 101.116 121.472 101.095 124.178C100.972 132.255 101.677 136.562 103.855 141.413C104.791 143.488 105.286 144.277 106.678 145.855C109.54 149.148 112.195 151.024 115.537 152.171C115.942 152.307 116.29 152.421 116.596 152.507C116.419 151.483 116.242 150.479 116.071 149.506H116.074Z" fill="#F9EAEC"/>
<path d="M71.4854 119.15C71.2154 118.674 71.0084 118.991 70.3664 120.772C70.0124 121.811 69.3284 124.02 68.8724 125.69C67.3365 131.238 65.3025 135.728 62.2726 140.149C59.7766 143.78 57.5867 145.884 52.7028 149.18C52.4688 150.016 52.2108 150.938 51.9558 151.857C53.5158 151.002 55.5767 149.718 57.2297 148.539C62.5816 144.705 67.3755 137.42 69.5954 129.774C70.2164 127.632 71.6714 119.463 71.4854 119.153V119.15Z" fill="#F9EAEC"/>
<path d="M132.556 299.645C131.842 299.63 130.996 299.607 130.006 299.569C116.956 299.142 106.744 299.436 100.018 300.406C94.3276 301.223 87.5237 302.576 81.2419 304.129L81.2719 303.546L81.2989 302.995L81.3079 302.792C84.1758 302.031 87.3587 301.268 89.9537 300.745C98.2335 299.075 102.133 298.536 108.319 298.172C111.205 297.995 117.928 298.039 122.599 298.242C125.95 298.403 129.868 298.669 132.553 298.901V299.649L132.556 299.645Z" fill="#F9EAEC"/>
<path d="M132.162 163.819C129.507 151.458 123.819 141.578 117.303 138.016C115.104 136.821 112.341 136.438 110.496 137.065C109.419 137.449 107.175 139.163 106.014 140.516C101.22 146.087 99.9755 159.012 103.026 171.642C105.597 182.359 110.703 191.085 116.658 195.012C118.527 196.254 119.895 196.637 122.223 196.637C123.987 196.637 124.338 196.567 125.541 195.937C128.883 194.2 131.166 190.502 132.474 184.729C133.824 178.794 133.698 170.923 132.162 163.819ZM118.467 160.862C116.205 163.321 111.807 159.104 109.749 152.541C109.212 150.827 109.065 149.924 108.984 148.029C108.879 145.009 109.107 144.084 110.208 143.114C111.225 142.256 111.951 142.189 113.238 142.889C116.475 144.648 119.568 151.147 119.607 156.265C119.628 158.701 119.316 159.962 118.467 160.862Z" fill="#141313"/>
<path d="M110.185 133.256C109.396 135.513 108.898 138.941 108.775 142.731C108.631 146.86 108.484 146.476 110.683 147.649C113.068 148.935 114.811 149.632 115.27 149.521C115.624 149.407 115.975 148.663 116.908 146.182C118.237 142.617 119.17 140.475 119.503 140.25C119.608 140.183 119.709 139.664 119.709 139.1C119.709 138.266 119.583 137.949 118.963 137.205C118.549 136.707 117.76 135.94 117.199 135.49C115.933 134.476 111.556 132.017 111.016 132.017C110.725 132.017 110.497 132.334 110.185 133.26V133.256Z" fill="#C77343"/>
<path d="M135.213 86.7114C134.01 84.5693 132.741 82.3798 132.411 81.8633C132.102 81.3658 130.524 78.6597 128.925 75.8649C125.397 69.6859 121.266 62.8954 119.484 60.3034C115.623 54.7074 111.969 49.8149 110.352 48.0531C109.671 47.3148 109.17 46.7064 108.867 46.2691C108.642 45.9428 108.525 45.7083 108.525 45.5752C108.519 45.2298 108.414 44.7292 108.24 44.1461C107.553 41.8646 105.804 38.303 104.895 37.6598C104.736 37.5457 104.595 37.4601 104.457 37.4063C103.914 37.194 103.44 37.4887 102.198 38.5819C101.409 39.2821 99.4175 41.1105 97.7765 42.622C94.9146 45.2805 91.8217 47.6729 88.6657 49.6597C87.8558 50.1793 87.0878 50.6071 86.9648 50.6071C86.5718 50.6071 83.9768 47.3687 81.7959 44.257C81.4299 43.731 81.0729 43.2113 80.7429 42.7107C79.414 40.6795 78.169 38.9209 77.983 38.81C77.836 38.7023 77.551 38.734 77.2 38.867C76.948 38.9621 76.66 39.1079 76.36 39.2916H76.354C75.67 39.7099 74.929 40.312 74.4131 40.9299C73.8551 41.608 73.3751 42.511 73.0661 43.525C73.0331 43.6359 72.9971 43.7405 72.9641 43.8451C72.7331 44.5549 72.5441 45.1031 72.5261 45.1252C72.5171 45.1411 72.3911 45.1823 72.1811 45.2425C71.8241 45.3407 71.2151 45.4865 70.5341 45.6449C67.3392 46.3896 63.1693 47.787 62.2753 48.4207C61.4654 49.0037 59.8484 51.1933 58.4384 53.6079C55.5105 58.6398 43.6607 83.5395 40.5288 91.2522C36.8359 100.365 36.4609 101.402 33.845 109.25C29.738 121.52 28.4301 126.213 28.0131 130.227C27.4761 135.459 28.4511 138.64 31.334 140.985L32.372 141.818V145.044C32.372 147.842 32.414 148.317 32.744 148.679C32.894 148.843 33.635 149.151 34.6099 149.468L34.7089 149.499L34.9669 149.582L35.4589 149.731L35.5279 149.753C35.6149 149.775 35.7049 149.804 35.7949 149.829C36.4039 149.994 37.2709 150.266 38.2309 150.586L38.9478 150.827C40.0848 151.22 41.2968 151.66 42.3498 152.063L42.9588 152.297C43.9787 152.69 44.9327 153.039 45.6617 153.289C46.2167 153.479 46.6397 153.609 46.8617 153.66C46.9277 153.676 46.9727 153.682 47.0027 153.682C47.3537 153.682 47.5217 153.501 47.6237 153.052C47.6837 152.712 48.0376 151.698 48.3916 150.795L49.0156 149.17L49.7206 149.623C50.5936 150.209 51.5236 150.523 52.0456 150.39C52.6035 150.209 52.8735 149.623 53.6625 146.622C54.0585 145.111 55.4055 140.513 56.6505 136.428C57.8744 132.322 59.0354 128.421 59.2214 127.721L59.5754 126.438L62.4163 125.854C66.2142 125.065 73.7291 123.757 76.051 123.484C84.2678 122.492 86.4278 122.309 90.9517 122.29C95.9946 122.245 101.202 122.581 104.169 123.148C105.6 123.418 109.833 124.815 110.103 125.084C110.145 125.129 109.668 126.279 109.026 127.632C107.799 130.316 107.157 132.258 107.346 132.753C107.469 133.158 109.668 134.828 113.385 137.42C116.289 139.429 117.909 140.713 119.88 142.563C120.564 143.219 121.269 143.758 121.437 143.758C121.686 143.758 123.492 141.457 124.095 140.374C124.26 140.079 124.341 140.126 124.656 140.598C125.214 141.454 126.399 142.582 127.167 142.988C128.619 143.729 129.657 142.988 131.253 140.053C132.789 137.211 137.895 123.294 139.74 116.887C142.065 108.813 142.605 106.126 142.626 102.812C142.626 99.7221 142.731 99.9471 135.219 86.7082L135.213 86.7114Z" fill="#F6AA87"/>
<path d="M66.7516 65.7661C66.1696 66.4886 64.9666 69.0584 64.0126 71.6536C62.9537 74.5181 59.5697 85.6149 58.1808 90.7578C56.7708 95.9449 54.6739 105.983 53.9269 111.012C53.0959 116.763 52.8079 125.493 53.4289 126.463C53.8429 127.141 54.2779 127.116 59.5697 126.168C61.9967 125.74 65.2126 125.243 66.6886 125.04C70.2375 124.59 71.4825 124.295 71.7945 123.89C72.0015 123.598 72.0015 123.506 71.7525 123.326C71.0475 122.854 65.4226 123.304 58.6998 124.387C56.8098 124.679 55.1508 124.929 54.9858 124.929C54.7368 124.929 54.7158 124.365 54.8388 121.478C54.9648 118.253 55.4208 112.546 55.7118 110.743C56.6238 104.675 58.2858 96.5343 59.5517 91.8193C60.4847 88.2798 64.6546 74.4516 66.1306 69.9647C66.8356 67.8226 67.4176 65.9055 67.4176 65.7249C67.4176 65.275 67.1476 65.2972 66.7546 65.7693L66.7516 65.7661Z" fill="#EB9071"/>
<path d="M106.468 97.3296C105.244 96.699 103.645 95.6565 102.901 95.0481C100.744 93.2451 97.9813 88.9135 97.0693 85.8905C96.7363 84.81 96.4693 84.3093 96.1573 84.1762C95.5963 83.9513 87.0285 83.4981 84.0586 83.5203C82.8346 83.5425 80.6356 83.6566 79.1627 83.7453C76.1327 83.9481 75.6348 84.1731 75.3018 85.4596C74.9898 86.7429 73.8708 88.9547 72.7698 90.4661C71.6058 92.0917 68.9299 94.595 67.7479 95.2034C67.2889 95.4283 66.272 95.948 65.528 96.3314C64.469 96.8733 64.115 97.168 64.013 97.6179C63.329 100.571 62.894 113.747 63.452 114.466C63.824 114.986 64.616 114.96 70.0309 114.285C76.5467 113.496 79.5557 113.294 86.9235 113.135C92.8574 113.002 97.5883 113.157 102.526 113.655L103.897 113.791L104.521 112.46C105.04 111.357 108.715 99.2656 108.715 98.6794C108.715 98.5875 107.716 97.9791 106.471 97.3264L106.468 97.3296ZM103.066 108.312L102.217 111.132L93.2744 111.155C82.5226 111.199 76.7957 111.582 70.5289 112.733C68.1829 113.16 66.131 113.566 65.945 113.636C65.633 113.724 65.573 113.389 65.468 110.749C65.387 109.104 65.405 105.787 65.486 103.375L65.654 99.0216L66.941 98.502C68.7439 97.8017 70.9249 96.3346 72.4008 94.8485C74.7468 92.5036 77.3807 88.172 77.3807 86.6605C77.3987 85.3772 77.1107 85.4215 85.8255 85.2821C90.2444 85.2156 94.2073 85.1712 94.6033 85.1712L95.3293 85.1934L95.4733 86.5464C95.8063 89.8387 98.0083 93.8535 100.702 96.1096C101.284 96.6071 102.568 97.4627 103.588 98.0489C104.587 98.6351 105.394 99.2213 105.394 99.3575C105.394 99.8297 103.942 105.422 103.069 108.312H103.066Z" fill="#EB9071"/>
<path d="M50.4415 147.313C48.4495 145.237 45.9596 143.637 42.4527 142.122C37.9288 140.186 33.9028 139.372 32.6999 140.139C32.3279 140.364 32.3279 140.408 32.6819 140.817C32.8889 141.064 33.3868 141.311 33.8008 141.381C35.1088 141.606 35.1088 141.628 34.7128 143.862C34.4278 145.567 34.4278 147.915 34.6108 149.461L34.7098 149.493L34.9678 149.575L35.4598 149.724L35.5288 149.746C35.6128 149.179 35.6998 148.476 35.7718 147.718C36.1258 144.334 36.4348 142.442 36.7078 142.262C36.9538 142.103 39.6117 143.029 39.6117 143.276C39.6117 143.39 39.3837 144.337 39.1137 145.354C38.7087 146.872 38.3157 149.309 38.2317 150.583L38.9487 150.824C39.0237 150.595 39.1047 150.313 39.1947 149.974C40.0227 146.885 40.9377 144.131 41.1867 144.02C41.4357 143.932 43.4696 144.765 43.8446 145.104C43.9466 145.215 43.9466 145.418 43.7996 145.576C43.2776 146.28 42.4976 150.108 42.3506 152.059L42.9596 152.294C43.1696 151.803 43.4216 151.147 43.6766 150.428C45.3986 145.557 45.2936 145.69 46.8505 146.752L47.6815 147.338L47.0575 149.299C46.7066 150.405 46.1876 151.872 45.9176 152.57C45.8186 152.829 45.7346 153.07 45.6626 153.286C46.2176 153.476 46.6406 153.606 46.8626 153.656C47.3575 152.915 47.8975 151.876 48.3475 150.741C48.8245 149.547 49.2385 148.555 49.2595 148.507C49.3015 148.463 49.7575 148.754 50.3185 149.116C52.5804 150.697 52.6644 149.591 50.4415 147.313Z" fill="#EB9071"/>
<path d="M117.676 324.282C117.136 324.282 116.431 324.371 116.098 324.463L115.516 324.643L116.263 323.696C117.28 322.391 117.571 321.396 117.136 320.673C116.659 319.862 115.828 319.951 114.706 320.876C114.172 321.313 113.515 322.058 112.852 322.977C112.483 323.484 112.117 324.038 111.763 324.621C111.619 324.849 111.292 325.303 110.839 325.857C110.041 326.833 108.868 328.123 107.674 329.016L106.825 329.672L102.718 327.46L102.301 326.222C102.295 326.199 102.286 326.18 102.28 326.158C102.226 326.348 102.172 326.554 102.115 326.773C102.046 327.042 101.926 327.441 101.761 327.99C101.893 328.928 102.052 330.141 102.247 331.76C102.322 332.359 102.4 333.015 102.487 333.735C102.613 334.84 102.82 335.968 102.946 336.216C103.132 336.577 103.069 336.735 102.571 337.097C102.241 337.344 101.203 338.383 100.288 339.397C99.0012 340.775 98.3802 341.678 97.7382 343.076C97.5552 343.472 97.4023 343.84 97.2763 344.172C96.8413 345.319 96.7573 346.051 97.0933 346.051C97.2163 346.051 97.3003 345.963 97.3003 345.871C97.3003 345.779 97.4473 345.475 97.6842 345.056C98.4192 343.757 100.03 341.314 100.828 340.344C101.428 339.647 102.322 338.744 102.82 338.383L103.711 337.705L104.497 338.155C105.949 338.988 108.463 338.675 109.417 337.502C109.999 336.802 110.476 336.916 112.405 338.085C113.725 338.887 114.979 339.917 116.068 341.089C115.855 340.421 115.576 339.619 115.228 338.659C115.21 338.605 115.186 338.545 115.168 338.488C113.764 337.47 112.186 336.51 111.535 336.327C111.058 336.212 110.581 336.054 110.455 336.01C110.29 335.965 110.29 335.629 110.476 334.815C110.53 334.615 110.584 334.295 110.644 333.906C110.764 333.063 110.89 331.878 110.974 330.8C111.1 329.219 111.244 327.891 111.265 327.847C111.28 327.841 111.385 327.841 111.556 327.853C111.778 327.866 112.114 327.895 112.495 327.948C112.621 327.967 112.753 327.987 112.885 328.006C116.452 328.5 118.903 328.094 119.482 326.922C120.145 325.569 119.254 324.282 117.676 324.282ZM106.882 330.712C106.966 330.712 107.404 330.845 107.818 331.028C108.253 331.209 108.772 331.412 108.982 331.478C109.315 331.592 109.336 331.659 109.063 332.065C108.895 332.337 108.358 332.898 107.881 333.348L107.008 334.162L105.742 333.506C105.037 333.167 104.374 332.809 104.269 332.717C104.104 332.559 106.531 330.712 106.882 330.712ZM103.105 331.206C103.105 330.87 103.045 330.033 102.961 329.359L102.838 328.139L103.336 328.478C103.606 328.68 104.269 329.108 104.827 329.447C105.367 329.783 105.802 330.148 105.802 330.214C105.802 330.395 103.561 331.84 103.291 331.84C103.186 331.84 103.105 331.567 103.105 331.209V331.206ZM103.624 336.124C103.564 336.01 103.459 335.246 103.378 334.432L103.252 332.92L104.767 333.754C106.012 334.432 106.219 334.631 105.991 334.859C105.391 335.471 103.75 336.349 103.624 336.124ZM108.793 336.754C108.148 337.451 106.363 338.038 105.658 337.791C104.932 337.543 104.35 337.16 104.392 336.979C104.497 336.707 106.699 335.243 107.05 335.218C107.218 335.218 107.818 335.398 108.376 335.645L109.414 336.073L108.793 336.751V336.754ZM109.957 333.617C109.831 334.495 109.645 335.262 109.561 335.306C109.477 335.376 109.021 335.217 108.544 334.993L107.671 334.565L108.874 333.256C109.516 332.534 110.098 331.947 110.137 331.973C110.158 332.017 110.095 332.74 109.954 333.617H109.957ZM110.203 329.469C110.038 330.956 109.957 331.003 108.544 330.35L107.839 330.033L108.958 328.928C109.561 328.316 110.122 327.891 110.203 327.98C110.287 328.069 110.287 328.747 110.203 329.469ZM112.924 324.213C114.211 322.365 116.389 320.626 116.389 321.418C116.389 322.112 114.202 324.434 112.684 325.395C112.708 325.087 112.729 324.773 112.753 324.453C112.807 324.377 112.864 324.298 112.924 324.213ZM118.486 326.288C117.967 326.966 116.347 327.305 114.274 327.169L112.564 327.049C112.564 327.007 112.57 326.963 112.573 326.915L113.275 326.561C114.541 325.949 116.554 325.341 117.343 325.318C117.676 325.296 118.153 325.433 118.357 325.61C118.69 325.882 118.711 325.974 118.483 326.288H118.486Z" fill="white"/>
<path d="M112.753 324.453C112.732 324.773 112.708 325.083 112.684 325.394C112.624 325.432 112.564 325.467 112.507 325.502C111.865 325.863 111.898 325.644 112.753 324.453Z" fill="#C77343"/>
<path d="M112.573 326.918C112.573 326.962 112.567 327.007 112.564 327.051L112.345 327.035L112.576 326.918H112.573Z" fill="white"/>
<path d="M24.7707 333.313C24.6807 333.221 24.6087 333.139 24.5487 333.056C24.4857 333.107 24.4227 333.161 24.3567 333.218L22.4907 334.774L22.0318 334.241L21.5368 333.668C20.4448 332.4 19.2538 330.528 18.7768 329.368C18.7168 329.225 18.6688 329.095 18.6328 328.975C17.9488 326.674 15.0659 323.271 13.8209 323.271C13.6529 323.271 13.3619 323.471 13.1549 323.721C12.657 324.307 12.8459 325.705 13.5509 326.903L14.0909 327.78H13.074C12.183 327.78 11.973 327.869 11.52 328.481C10.875 329.314 10.854 329.583 11.376 330.284C11.748 330.803 11.895 330.825 14.6519 330.848C16.5599 330.87 17.7238 330.984 18.0568 331.165C18.0868 331.18 18.1228 331.206 18.1648 331.244C18.5308 331.532 19.4008 332.429 20.2348 333.376L21.9147 335.268L20.9788 335.924C20.4598 336.285 19.9648 336.577 19.8778 336.577C19.6498 336.577 18.6328 335.224 17.6158 333.579C17.4148 333.256 17.2348 332.98 17.0729 332.762C17.0039 332.847 16.9289 332.936 16.8509 333.025C16.7669 333.12 16.6829 333.215 16.6019 333.303C17.1059 334.593 18.2278 336.548 18.6778 336.875C19.0918 337.191 19.0708 337.21 18.3448 337.708C17.9308 337.977 17.5769 338.183 17.5349 338.136C17.5169 338.091 16.8509 337.055 16.0829 335.835C15.8009 335.392 15.5249 334.976 15.2819 334.634C15.0479 334.847 14.8109 335.046 14.5709 335.233C14.7749 335.658 15.0689 336.206 15.3959 336.76C16.5569 338.633 16.5569 338.836 15.5009 338.836C14.9459 338.836 13.8329 337.546 13.1819 336.19C12.816 336.409 12.435 336.608 12.033 336.802C12.375 337.568 12.9059 338.434 13.5299 339.153C14.1719 339.875 14.3579 339.964 15.2939 339.964C17.2379 339.964 18.7408 339.121 23.0397 335.613C23.2467 335.449 23.4597 335.271 23.6757 335.091C24.2457 334.615 24.7767 334.146 25.2387 333.709C25.0707 333.623 24.9357 333.5 24.7767 333.316L24.7707 333.313ZM14.1479 329.808C12.219 329.808 11.763 329.628 12.219 329.019C12.387 328.794 12.882 328.683 13.6919 328.683C14.6669 328.683 14.9999 328.772 15.4769 329.247L16.0589 329.786L14.1509 329.808H14.1479ZM17.7568 329.27C17.4059 329.65 14.2709 326.516 13.8779 325.388C13.3799 323.991 13.9199 324.057 15.2909 325.546C16.4729 326.83 17.9488 329.064 17.7598 329.27H17.7568Z" fill="white"/>
<path d="M32.1594 341.808C31.7034 340.975 31.1844 339.847 30.9954 339.305C30.5335 337.85 29.9845 334.78 29.8765 333.097C29.6245 333.199 29.3545 333.313 29.0605 333.436C29.0155 335.154 29.1025 337.391 29.3155 338.516C29.8975 341.561 31.4334 344.359 32.4264 344.201C33.1344 344.087 33.0474 343.412 32.1564 341.811L32.1594 341.808Z" fill="white"/>
<path d="M7.13696 337.81C4.17002 338.418 1.34709 340.471 0.414114 342.75C0.16512 343.291 0.00012207 344.191 0.00012207 344.914C0.00012207 347.328 1.3711 348.77 3.94204 349.087C5.706 349.312 17.3277 348.298 25.8356 347.192C28.5745 346.831 31.6674 346.47 32.6844 346.403C33.7224 346.337 34.9044 346.222 35.3393 346.156L36.1073 346.02V344.036C36.1073 342.908 36.0023 341.961 35.9003 341.894C35.7743 341.805 34.4064 341.961 32.8284 342.211C31.2714 342.458 28.0345 342.889 25.6286 343.136C23.2436 343.383 20.2557 343.7 18.9867 343.836C17.7417 343.97 15.7288 344.106 14.5258 344.128C12.6808 344.15 12.2429 344.084 11.6429 343.7C10.3979 342.911 10.0649 342.189 10.0649 340.36C10.0649 339.457 10.1069 338.488 10.1699 338.174C10.2749 337.654 10.2119 337.61 9.44391 337.566C8.98792 337.543 7.94994 337.654 7.13996 337.813L7.13696 337.81Z" fill="white"/>
<path d="M106.681 341.805C105.124 342.097 103.921 342.731 101.992 344.239C99.9791 345.842 99.5651 346.067 98.8991 346.067C98.3171 346.067 97.4471 344.984 97.2191 343.97C97.0121 343.136 96.8051 343.203 96.4091 344.264C95.9952 345.415 95.9742 347.693 96.3881 348.526C96.8651 349.566 98.2331 350.152 100.477 350.285C102.739 350.421 113.488 349.787 114.547 349.451C117.016 348.685 117.682 346.993 116.788 343.811C116.476 342.705 116.374 342.639 115.522 343.022C114.421 343.52 113.821 343.45 111.85 342.572C109.9 341.694 108.406 341.466 106.684 341.805H106.681Z" fill="white"/>
<path d="M108.529 45.5691C108.523 45.2237 108.418 44.723 108.244 44.14C101.677 46.8017 90.6431 52.198 88.2312 53.9789C87.7512 54.3401 87.2562 54.6316 87.1302 54.6316C87.0042 54.6316 86.4462 54.2957 85.8672 53.8648L84.8293 53.098L85.4113 52.6702C85.7233 52.423 87.6312 51.184 89.6232 49.8944C98.734 44.121 102.283 41.1424 104.338 37.6251C104.383 37.5523 104.422 37.4762 104.464 37.4002C103.921 37.1879 103.447 37.4825 102.205 38.5757C101.416 39.276 99.4239 41.1044 97.783 42.6158C94.921 45.2744 91.8281 47.6668 88.6722 49.6536C87.8622 50.1732 87.0942 50.601 86.9712 50.601C86.5782 50.601 83.9833 47.3626 81.8023 44.2509C79.9904 42.2388 78.1514 40.0967 77.2064 38.8609L76.3665 39.2855H76.3604C77.6834 41.4466 79.0904 43.1387 82.5283 46.7383C84.5203 48.836 86.1402 50.5947 86.0772 50.639C86.0352 50.6834 85.5163 51.089 84.9373 51.5421L83.8783 52.3533L79.5434 48.8582C77.1554 46.919 74.5005 44.8878 73.6515 44.3016C73.4235 44.1527 73.1925 43.9942 72.9735 43.8421C72.7425 44.5519 72.5535 45.1001 72.5355 45.1223C72.5265 45.1381 72.4005 45.1793 72.1906 45.2395C72.2416 45.2744 72.2955 45.3093 72.3465 45.3441C74.7945 46.9887 80.4614 51.5675 83.9053 54.6791C85.3573 56.0353 86.7282 57.1159 86.9142 57.1159C87.1002 57.1159 87.7242 56.7768 88.2852 56.3712C91.5431 53.9979 100.615 49.5585 108.883 46.2662C108.658 45.9398 108.541 45.7053 108.541 45.5723L108.529 45.5691Z" fill="#EB9071"/>
<path d="M105.064 68.2755C104.86 68.8649 105.493 73.5641 106.201 76.7043C107.113 80.7159 108.883 86.8948 110.133 90.3392C112.053 95.6468 114.774 101.037 116.805 103.607C117.27 104.215 117.663 104.782 117.663 104.884C117.663 105.571 112.911 117.321 111.048 121.231C110.283 122.85 109.65 124.33 109.65 124.533C109.65 124.736 109.986 125.1 110.451 125.404C110.88 125.689 111.477 126.114 111.756 126.377L112.278 126.843L111.645 128.361C110.34 131.441 109.671 134.175 110.265 133.991C110.376 133.95 111.084 132.613 111.831 130.994C112.557 129.394 113.265 128.034 113.379 127.996C113.508 127.936 114.051 128.383 114.591 128.969L115.56 130.021L114.573 132.372C113.4 135.189 113.214 135.858 113.64 135.858C113.808 135.858 114.366 135.047 115.002 133.912C116.736 130.794 116.475 130.915 117.816 132.575L118.971 133.972L118.227 135.531C117.519 137.03 117.276 138.085 117.669 138.085C117.762 138.085 118.284 137.436 118.824 136.669C119.364 135.88 119.868 135.249 119.943 135.249C120.018 135.249 120.408 135.633 120.801 136.099L121.527 136.929L120.819 138.266C120.429 138.995 120.054 139.847 119.979 140.151C119.886 140.639 119.925 140.719 120.258 140.719C120.501 140.719 120.966 140.272 121.602 139.4L122.571 138.104L123.633 139.156C126.036 141.587 128.292 143.086 129.15 142.864C130.212 142.56 129.858 141.748 128.217 140.738C126.501 139.682 124.509 137.8 121.767 134.641C117.033 129.172 114.63 126.659 113.157 125.585C112.374 125.018 111.648 124.533 111.537 124.492C111.426 124.45 112.041 122.914 112.896 121.069C115.71 115.074 118.134 108.711 118.488 106.382L118.62 105.552L120.24 105.004C121.134 104.7 122.4 104.335 123.072 104.193C124.581 103.847 125.121 103.543 125.121 103.017C125.121 102.39 124.32 102.168 122.865 102.431C122.175 102.532 121.524 102.634 121.413 102.634C121.302 102.634 121.506 102.108 121.86 101.458C122.532 100.283 122.7 99.3922 122.289 99.3922C122.16 99.3922 121.281 100.283 120.333 101.357L118.62 103.344L118.041 102.634C116.457 100.688 114.387 96.6576 112.542 91.9775C111.273 88.7359 108.535 79.8223 106.933 73.6655C106.15 70.7059 105.442 68.2153 105.367 68.1139C105.256 67.9935 105.145 68.0727 105.067 68.2755H105.064Z" fill="#EB9071"/>
<path d="M91.0929 33.6289L83.311 42.2668L84.202 33.8317C84.202 33.8317 87.9609 36.0878 91.0929 33.6289Z" fill="#B65D35"/>
</svg>
