<svg width="110" height="351" viewBox="0 0 110 351" fill="none" xmlns="http://www.w3.org/2000/svg">
<path d="M66.4806 0.70876C62.2672 1.13324 59.9363 2.09294 57.48 4.43679C53.8224 7.86953 51.7963 12.2251 48.4794 23.7044C46.8478 29.4072 45.2162 32.8215 42.6881 35.9035C41.9889 36.734 41.4152 37.4907 41.4152 37.6015C41.451 38.1182 42.0785 38.432 43.7639 38.6719C44.8397 38.838 46.3457 39.0594 47.0809 39.1886C47.8518 39.3547 51.0074 39.5209 54.1451 39.6131C58.9143 39.7423 60.5997 39.687 64.6697 39.2256C71.6981 38.4504 79.9815 36.5126 81.6669 35.2576C82.4737 34.6486 82.6888 33.4859 83.3881 26.7865C84.4638 16.2483 83.1192 10.3426 78.6189 5.74715C75.4095 2.48052 70.1741 0.302737 66.4627 0.70876H66.4806Z" fill="#AC5F34"/>
<path d="M77.4527 51.2957C75.4267 53.012 74.3151 53.3811 71.6436 53.252C69.1514 53.1228 67.1074 52.4215 65.0455 50.945L64.1311 50.3175V47.623C64.1311 45.2422 64.0415 44.7993 63.5215 44.1533C63.5036 44.1164 63.4677 44.098 63.4498 44.0611C62.9299 43.3782 62.9478 43.0645 63.2167 35.8668L63.4677 28.3369L63.2347 27.8939L62.8043 27.045C61.3879 24.2951 60.8859 21.2869 61.37 18.3893C61.5313 17.3743 61.7824 15.7317 61.89 14.6982C62.3023 11.2286 64.7407 8.1465 67.6812 7.38982C70.0299 6.76233 71.9663 7.38982 73.9744 9.40147C76.1618 11.6161 77.13 14.3845 77.1659 18.5554C77.1659 21.8774 76.7535 23.6492 75.3909 26.2145L74.602 27.6356L74.2254 28.3184L74.4585 29.8502L74.835 32.2495C75.1936 34.3903 75.857 37.86 76.3232 39.9639C76.8252 42.0494 77.4527 44.9285 77.7396 46.368C78.0444 47.8075 78.3492 49.3024 78.4389 49.6531C78.5823 50.1699 78.3851 50.4836 77.4707 51.2772L77.4527 51.2957Z" fill="#F8AC87"/>
<path d="M105.674 150.9C105.638 151.159 105.585 151.417 105.531 151.694C104.76 155.902 100.69 164.078 97.2832 168.286C94.9882 171.128 94.1276 171.755 91.9581 172.161C90.0217 172.53 89.4121 172.291 89.1611 170.98C88.8563 169.393 89.2687 157.674 89.7349 154.758C91.2589 145.438 93.7869 141.433 99.1299 139.846C100.044 139.55 101.568 139.329 102.501 139.329H104.186L104.903 142.891C105.495 145.825 105.764 147.431 105.8 148.76C105.818 149.498 105.764 150.162 105.638 150.919L105.674 150.9Z" fill="#F8AC87"/>
<path d="M62.4282 347.489C61.3165 349.63 59.3264 349.944 51.3836 349.261C47.8336 348.966 46.2378 348.929 46.184 349.113C46.0227 349.575 44.6959 349.427 43.1898 348.781C42.0065 348.264 41.4507 347.729 39.6756 345.459C35.6236 340.291 34.9064 339.424 32.97 337.542C31.0336 335.678 27.878 333.223 26.9636 332.891C25.2244 332.208 25.7086 329.384 28.4876 324.05C28.4876 324.05 28.5235 323.958 28.5414 323.94C28.7745 323.478 29.0255 322.98 29.2586 322.482C30.1372 320.673 30.9798 318.828 31.3026 317.923C31.966 315.985 32.1632 315.727 33.3286 314.97C34.996 313.918 37.4882 312.903 39.4425 312.442C41.4327 311.999 42.9926 311.981 43.2615 312.368C43.3691 312.553 43.4767 313.18 43.5125 313.752C43.5305 314.675 44.0863 319.012 44.5345 322.094C44.6959 323.165 44.8393 324.087 44.9469 324.66C44.9648 324.77 44.9828 324.881 45.0007 324.973C45.7537 328.424 49.6803 334.035 57.3182 342.543C57.7844 343.06 58.143 343.171 59.3443 343.171C61.191 343.171 62.3026 343.687 62.6971 344.758C63.1095 345.902 63.0916 346.216 62.4282 347.526V347.489Z" fill="#F8AC87"/>
<path d="M100.134 345.422C98.6102 345.865 91.044 346.308 89.5558 346.05C88.8386 345.92 87.9422 345.865 87.5836 345.92C86.0596 346.216 84.6969 345.533 82.8144 343.54C81.8103 342.488 80.4118 340.827 79.6588 339.83C77.9375 337.56 73.9213 333.408 72.4511 332.374C70.8733 331.248 67.4308 329.532 66.8571 329.532C66.1578 329.532 65.6737 327.963 65.9068 326.45C66.1041 325.158 66.4627 324.051 67.0364 322.943C67.2695 322.463 67.5564 322.02 67.8791 321.541C67.9329 321.467 67.9867 321.393 68.0404 321.319C69.1162 319.824 70.7299 316.964 71.3036 315.543C71.5009 315.026 71.5008 314.731 71.2678 314.472C70.4968 313.586 71.0705 313.346 75.8577 312.7C77.6327 312.46 83.1371 312.774 84.1591 313.162C85.181 313.586 85.181 313.605 85.0197 314.657C84.8762 315.524 85.1273 316.558 86.5078 320.544C86.5975 320.802 86.6871 321.042 86.7768 321.301C87.1712 322.408 87.5657 323.497 87.9063 324.383C88.3008 325.416 88.6235 326.191 88.7849 326.468C89.7531 328.295 92.5859 332.116 94.4147 334.072C95.365 335.087 96.6021 336.582 97.2117 337.357C98.4668 339.055 98.6282 339.184 99.5426 339.184C100.618 339.184 102.035 340.144 102.501 341.196C103.254 342.949 102.196 344.795 100.098 345.404L100.134 345.422Z" fill="#F8AC87"/>
<path d="M74.2073 28.3555L74.4404 29.8873C74.2252 30.2011 74.0997 30.4041 74.0997 30.4779C74.0997 30.6255 73.9025 30.9209 73.6873 31.1054C73.4363 31.29 72.3068 32.7295 71.1593 34.3167C69.4381 36.679 65.7446 41.3483 63.4496 44.0797C62.9296 43.3968 62.9476 43.0831 63.2165 35.8854L63.4675 28.3555L63.2345 27.9126C63.4317 28.0049 63.611 28.1156 63.7365 28.2448C64.866 29.4259 66.3362 29.9242 68.8284 29.9242C71.0696 29.9242 71.2848 29.8689 72.7012 29.0015C73.4184 28.577 74.2073 28.0048 74.5838 27.6542L74.2073 28.3371V28.3555Z" fill="#ED9F79"/>
<path d="M105.675 150.901C103.756 151.51 99.7402 152.34 97.75 152.506L95.724 152.691L95.8137 151.934C95.9033 151.178 95.9212 151.178 101.264 149.812C103.308 149.295 104.778 148.944 105.818 148.741C105.836 149.48 105.782 150.144 105.657 150.901H105.675Z" fill="#ED9F79"/>
<path d="M87.9596 324.383C86.328 324.383 83.7641 324.235 79.9272 323.94C77.2737 323.7 73.3292 323.497 71.1956 323.423C68.2013 323.331 67.4662 323.276 67.0538 322.962L67.8965 321.559C68.8109 321.522 70.0301 321.467 71.6259 321.43C79.0666 321.264 84.3199 321.209 86.8121 321.301C87.2066 322.408 87.601 323.497 87.9417 324.383H87.9596Z" fill="#ED9F79"/>
<path d="M44.9652 324.622C43.6564 324.659 41.7379 324.659 38.9768 324.622C31.8408 324.585 29.4562 324.493 28.4701 324.013L29.241 322.445C30.5499 322.371 32.5042 322.279 34.6378 322.223C39.6581 322.076 42.6882 322.002 44.5349 322.057C44.6963 323.128 44.8397 324.05 44.9473 324.622H44.9652Z" fill="#ED9F79"/>
<path d="M66.5871 5.21165C65.0451 5.67304 62.3557 7.22332 61.2082 8.27529C59.3794 9.95474 57.963 12.0956 57.8016 13.4797C57.6941 14.4763 57.7837 14.7901 58.3216 15.3438C59.2001 16.2296 60.8138 16.5988 62.0868 16.2112C62.6067 16.0635 63.557 15.9713 64.1666 16.0635C65.332 16.2112 65.3858 16.1743 65.583 14.8085C65.8878 12.8707 66.4436 11.0252 66.7126 11.099C66.874 11.1544 67.1608 12.2986 67.2863 13.6643L67.5553 16.1189L69.8503 16.1927C71.1232 16.2481 73.1672 16.1743 74.4223 16.0082C76.3586 15.7498 76.7531 15.7683 77.0041 16.1189C77.3986 16.6172 78.2233 16.6172 78.8867 16.1743C79.6935 15.6206 79.7115 13.5536 78.9405 12.6493C78.5998 12.2617 78.1157 11.3943 77.8289 10.693C77.1117 8.88432 74.9781 6.8173 72.952 5.96834C71.1232 5.19321 67.9138 4.84254 66.5512 5.26702L66.5871 5.21165Z" fill="#AC5F34"/>
<path d="M90.8463 118.381C85.5212 119.433 72.3789 120.818 58.86 121.777C51.7958 122.276 38.1515 123.604 32.0555 124.398C27.3938 125.007 26.0132 125.099 25.6367 124.841C25.3319 124.693 24.9912 124.638 24.8837 124.767C24.5789 125.062 24.5251 247.091 24.8299 259.511C24.9733 265.343 25.2243 272.504 25.3498 275.457C25.5112 278.41 25.7084 287.195 25.816 294.983L25.9774 309.12L24.9733 309.304C24.4534 309.415 23.7182 309.784 23.3596 310.117C22.7859 310.726 22.75 310.873 22.9114 313.937C23.1266 318.016 23.6106 321.245 24.023 321.614C24.2203 321.762 25.4036 322.039 26.6766 322.223C29.8143 322.611 50.738 322.094 51.2938 321.614C51.491 321.43 51.8137 319.843 52.0648 318.034C52.4233 315.321 52.4592 314.214 52.1724 311.205C51.9751 309.249 51.9213 307.422 52.011 307.164C52.1006 306.905 52.2799 304.986 52.4592 302.9C52.6206 300.815 53.015 297.179 53.284 294.798C54.288 286.77 55.0052 279.074 55.5072 271.544C55.9734 264.642 56.5651 259.53 58.0353 249.324C58.7883 244.064 59.5772 238.527 59.8103 236.996C60.0255 235.445 60.5275 230.831 60.9219 226.679C61.3164 222.545 61.675 219.057 61.7288 218.891C61.8901 218.337 62.177 243.879 62.177 259.899C62.1412 269.717 62.3742 283.208 62.6432 292.491L63.1093 308.345L62.177 309.083L61.2626 309.821L61.4239 314.417C61.5136 316.927 61.7288 319.363 61.8901 319.824C62.4101 321.245 62.8225 321.264 77.3991 321.725C81.5767 321.854 85.575 322.094 86.2563 322.242C86.9556 322.408 87.9238 322.445 88.4258 322.371C89.9498 322.113 90.147 321.301 90.147 314.915C90.147 309.766 90.1111 309.397 89.5912 308.898C89.2864 308.603 88.9278 308.382 88.7664 308.382C88.4078 308.382 88.4078 303.86 88.7664 300.409C89.2864 295.426 89.8422 287.841 90.147 281.861C90.3084 278.539 90.6132 273.076 90.8463 269.717C91.0973 266.34 91.3483 262.501 91.42 261.228C91.5097 259.917 91.7607 256.817 91.9399 254.307C92.3523 249.601 92.693 243.99 93.195 233.526C93.715 222.489 94.3066 210.862 94.719 203.48C94.9342 199.457 95.3286 192.222 95.5438 187.405C95.7948 182.588 96.1175 177.107 96.261 175.262C96.9244 167.289 97.1216 119.47 96.4761 119.267C96.3327 119.212 96.2251 118.954 96.2251 118.695C96.2251 118.381 95.9562 118.178 95.3645 118.068C94.1453 117.865 93.6791 117.883 90.8283 118.437L90.8463 118.381Z" fill="#A3D1EB"/>
<path d="M88.4087 310.761C88.3191 310.964 88.2474 310.89 88.2474 310.614C88.2115 310.319 88.3011 310.172 88.3908 310.282C88.4804 310.356 88.4984 310.595 88.4087 310.779V310.761Z" fill="black"/>
<path d="M64.4549 328.424C64.2039 328.609 64.1143 330.417 64.186 336.6L64.2757 344.536L69.7621 344.61L75.2126 344.665V340.476C75.2126 337.043 75.3023 336.286 75.6071 336.286C75.8222 336.286 76.2705 336.711 76.5753 337.227C76.916 337.744 77.5973 338.667 78.1352 339.258C78.6551 339.83 80.0177 341.528 81.1473 342.986C82.3127 344.444 83.5857 345.865 83.9981 346.123C84.8049 346.621 85.8807 346.64 98.2879 346.511C102.77 346.455 103.236 346.4 103.738 345.938C104.402 345.311 104.438 344.813 103.828 344.222C103.416 343.853 102.95 343.798 100.278 343.927C98.6106 344.001 95.7061 344.222 93.8235 344.407C91.9409 344.554 90.3272 344.647 90.2555 344.536C89.9148 344.241 91.8692 342.598 93.5545 341.767C94.4331 341.325 96.0288 340.679 97.0508 340.365C98.2341 339.977 98.9334 339.608 98.9872 339.313C99.041 339.073 98.4134 338.076 97.6066 337.117C96.7818 336.157 95.6881 334.791 95.1682 334.108C93.5545 331.986 92.3174 331.672 89.3052 332.65C86.06 333.702 81.0577 336.471 80.6991 337.375C80.6094 337.578 79.2289 336.489 77.2925 334.681C73.8321 331.488 70.9275 329.587 68.2022 328.701C66.5886 328.147 65.1004 328.055 64.4908 328.387L64.4549 328.424Z" fill="#F0592A"/>
<path d="M23.7903 332.171C23.5931 332.411 23.4497 335.253 23.4317 340.144C23.378 347.12 23.4317 347.766 23.88 348.301C24.3282 348.818 24.884 348.929 29.0795 349.261C35.1397 349.759 34.7632 350.018 34.7632 345.127V341.436L36.1796 343.392C39.7297 348.283 42.4191 349.686 49.4653 350.424C53.4457 350.848 62.2312 350.664 62.8945 350.165C63.5221 349.649 63.2531 348.541 62.3925 348.098C61.7471 347.766 61.1375 347.766 57.8026 348.025C54.0553 348.338 50.1646 348.228 49.4116 347.785C48.6406 347.342 51.8858 345.404 54.127 344.961C54.9338 344.795 55.92 344.444 56.2965 344.149C56.6909 343.854 57.2468 343.632 57.5157 343.632C58.2867 343.632 58.3942 343.189 57.7667 342.58C57.4619 342.285 57.2109 341.897 57.2109 341.713C57.2109 341.104 54.5573 337.745 53.4098 336.896C51.4376 335.438 50.0032 335.53 45.6284 337.523C43.6383 338.409 42.6163 339.092 41.1102 340.476L39.1738 342.248L37.5602 340.255C34.9245 336.988 31.769 334.331 29.1154 333.112C26.6232 331.968 24.2744 331.544 23.7903 332.116V332.171Z" fill="#F0592A"/>
<path d="M97.3016 125.303L92.8372 126.263C90.3808 126.816 87.2432 127.444 85.8626 127.684C81.936 128.33 76.5931 129.64 76.0373 130.12C75.5711 130.507 75.5711 130.766 75.8938 135.767C76.109 138.646 76.3958 144.94 76.5572 149.756C76.862 159.243 77.4716 165.518 78.2247 166.293C79.8024 168.046 86.5619 163.34 90.3808 157.859C93.1778 153.854 96.3693 147.505 97.463 143.795C98.6463 139.901 99.9373 131.965 99.9373 128.662C99.9552 126.539 99.8835 126.152 99.3815 125.654C99.0408 125.321 97.3016 125.321 97.3016 125.321V125.303Z" fill="white"/>
<path d="M72.4326 131.208C71.7334 131.319 69.0798 131.67 66.498 131.965C63.9161 132.26 59.4875 132.925 56.6726 133.423C53.8397 133.94 48.8374 134.807 45.5742 135.361C42.3111 135.914 39.1196 136.487 38.4921 136.634C37.8825 136.8 35.3903 137.262 32.9519 137.705C27.8061 138.627 24.0051 139.587 22.7859 140.27C21.9073 140.731 21.9073 140.768 21.8177 143.038C21.728 145.88 22.3914 148.686 23.9513 151.712C25.5829 154.924 27.2503 157.101 30.4597 160.147C33.0057 162.601 33.7229 163.118 36.5019 164.557C39.8727 166.274 43.351 167.566 47.5465 168.636C51.7779 169.743 52.6923 169.817 59.7565 169.873C65.0815 169.891 66.9821 169.817 68.8467 169.448C71.6079 168.931 73.3829 168.249 73.7953 167.547C74.1359 166.975 74.5662 133.368 74.2614 131.854C74.1539 131.337 73.9925 130.931 73.867 130.931C73.7594 130.95 73.1139 131.061 72.4326 131.19V131.208Z" fill="white"/>
<path d="M52.4958 41.5324C51.1869 41.9199 49.8422 42.4182 49.4478 42.6028C49.0533 42.8058 48.3182 43.0273 47.7803 43.1011C46.5611 43.3041 46.597 43.2856 45.9874 51.4984C45.0192 64.9525 44.7323 67.1487 42.3836 78.5358C41.5588 82.5591 40.4472 88.7232 39.8914 92.2483C38.5646 100.812 37.184 109.098 36.1262 114.986C35.3014 119.618 35.2476 120.208 35.1221 129.104C34.9607 139.365 35.0683 140.417 36.3772 140.916C37.3812 141.303 47.8341 141.285 52.9082 140.86C61.8729 140.159 72.4334 138.535 79.5514 136.782C83.2269 135.896 89.1616 133.773 93.4826 131.817C95.5624 130.894 97.3374 130.138 97.463 130.138C97.8215 130.138 97.463 135.84 96.7996 140.454C96.1541 145.124 96.1003 147.098 96.6023 147.283C97.1582 147.467 99.3635 146.729 102.609 145.216C106.481 143.444 108.776 141.395 109.225 139.328C109.87 136.431 109.44 130.913 107.754 119.673C107.396 117.163 106.876 113.638 106.625 111.83C106.374 110.021 105.854 107.179 105.495 105.499C105.101 103.802 104.133 98.5785 103.308 93.8724C100.117 75.952 97.7677 66.595 93.2854 54.0821C90.5422 46.4231 88.2472 43.8393 83.1194 42.7504C80.9858 42.2706 79.6231 42.2337 79.6231 42.5843C79.6231 43.0457 75.4993 45.9248 73.6347 46.7922C71.3038 47.8442 70.5329 47.7519 67.0904 46.1093C62.9845 44.153 60.9944 42.9719 59.811 41.8277C58.7353 40.7757 58.6994 40.7572 56.763 40.7572C55.4004 40.7757 54.1095 40.9971 52.4779 41.5139L52.4958 41.5324Z" fill="#EE9128"/>
<path d="M58.197 38.6724C56.673 39.5398 55.3462 40.2411 55.2028 40.2411C54.7008 40.2411 55.0594 41.2931 56.4579 43.8953C58.2329 47.2173 64.7054 58.0138 64.9385 58.0138C65.0999 58.0138 66.9646 54.2304 68.7396 50.244C69.6181 48.2324 69.9229 47.8079 70.4249 47.8079C71.0704 47.8079 71.2497 48.0663 74.5308 53.3999L76.252 56.2236L78.4932 52.2003C82.6708 44.6705 83.6748 42.3266 82.7067 42.3266C82.5453 42.3266 81.3978 41.7176 80.1786 41.0163C78.9594 40.278 77.8478 39.7059 77.7223 39.7059C77.6147 39.7059 76.8437 40.5179 76.001 41.5145C72.5406 45.7409 71.178 47.2727 70.7656 47.2727C70.0664 47.2911 66.086 43.194 61.6574 37.9157L60.9582 37.0852L58.215 38.6724H58.197Z" fill="white"/>
<path d="M63.7014 98.0433C60.0258 98.3755 56.9778 99.1322 52.6209 100.756C46.3815 103.1 42.5087 105.093 40.0703 107.271C34.7273 111.94 31.1055 118.695 30.0656 125.764C29.6174 128.772 29.707 130.913 30.3167 133.866C32.5578 144.367 39.2276 145.936 51.2224 138.756C52.603 137.944 55.0952 136.579 56.7626 135.748C60.9223 133.681 63.4145 132.242 71.16 127.535C74.8176 125.321 78.9235 122.885 80.2682 122.091C87.4759 117.938 93.3747 113.989 94.558 112.476C95.8131 110.925 95.2573 109.209 92.5141 106.275C87.7269 101.107 83.6748 99.3537 73.9212 98.2463C68.9009 97.6742 67.61 97.6373 63.6655 98.0065L63.7014 98.0433Z" fill="#2C7BA1"/>
<path d="M102.214 144.902C100.69 145.566 98.8612 146.397 98.1441 146.766L96.8173 147.43V150.697L99.5246 150.033C100.995 149.663 103.093 149.11 104.15 148.777L106.087 148.168L105.836 145.898C105.674 144.607 105.441 143.628 105.28 143.665C105.119 143.702 103.72 144.237 102.196 144.902H102.214Z" fill="white"/>
<path d="M52.0836 94.7028C51.4202 95.3303 50.8285 96.8436 50.8285 97.914C50.8285 98.6891 50.4162 98.6707 49.3942 97.8586C48.2288 96.9359 46.4896 96.4745 45.9876 96.9728C44.6608 98.2832 46.2027 100.738 49.2507 102.067C50.9899 102.823 52.245 102.879 52.8725 102.196C53.518 101.55 54.3965 98.7445 54.6117 96.7329C54.7551 95.3672 54.7013 95.0165 54.271 94.592C53.6076 93.8907 52.8546 93.9461 52.0477 94.7028H52.0836Z" fill="#EFE6D6"/>
<path d="M64.5437 102.621C56.4575 103.248 50.9352 104.835 44.7675 108.379C39.1914 111.572 35.6772 115.872 33.1312 122.645C31.1948 127.849 30.4956 134.327 31.8761 134.327C32.1451 134.327 32.2706 133.958 32.2706 132.943C32.2706 129.344 33.9022 123.088 35.7848 119.563C37.004 117.293 39.3348 114.119 40.7512 112.79C42.4366 111.221 45.2695 109.357 45.5384 109.652C45.646 109.782 46.6142 111.055 47.6362 112.494C50.738 116.776 59.882 128.495 61.0474 129.658C61.8005 130.47 62.4639 130.599 62.4639 129.99C62.4639 129.492 60.8502 127.111 59.2186 125.229C57.5512 123.291 47.439 110.833 46.8473 109.911C46.5783 109.542 46.4349 109.099 46.5425 108.951C46.8831 108.453 50.4511 106.884 53.7681 105.814C57.085 104.743 60.0792 104.134 63.8803 103.857L66.0139 103.691L66.1573 114.1C66.3187 124.841 66.4621 126.595 67.1793 126.595C67.5379 126.595 67.5917 125.34 67.52 117.053C67.4662 111.793 67.3765 106.644 67.269 105.574L67.1076 103.636L70.4066 103.802C73.3471 103.95 78.7976 104.669 79.0666 104.928C79.1204 104.983 78.8514 106.478 78.439 108.213C76.5744 116.259 75.642 122.793 76.3413 122.793C76.8433 122.793 77.1123 121.722 78.4211 114.617C80.1065 105.186 80.1603 104.983 80.7161 105.131C80.985 105.205 81.6843 105.334 82.2939 105.444C85.9515 106.053 89.3043 107.751 94.1453 111.461C94.7549 111.922 94.8983 111.922 94.8983 111.443C94.8983 111.073 92.3703 109.006 89.5733 107.087C87.5472 105.666 84.553 104.688 79.6224 103.765C74.0642 102.75 68.4344 102.307 64.5616 102.621H64.5437Z" fill="#8CC2E1"/>
<path d="M69.0078 10.6928C68.8105 10.9511 69.5277 15.362 69.7787 15.6019C69.8684 15.6758 70.0297 15.6573 70.1732 15.5835C70.4421 15.4174 69.7787 10.988 69.4201 10.6374C69.2767 10.5082 69.0795 10.5267 69.0078 10.6928Z" fill="#A0542C"/>
<path d="M56.0459 12.1507C55.6873 12.7597 54.9164 15.4173 53.2489 21.7107C51.3663 28.816 50.3443 31.3998 47.6908 35.903C46.2564 38.3576 46.0771 38.9297 46.7226 38.9297C47.117 38.9297 49.0713 35.9769 50.2906 33.5776C51.7249 30.6986 52.8365 27.3396 54.0378 22.0798C54.5936 19.6252 55.3467 16.4878 55.7232 15.0482C56.3328 12.7413 56.4942 11.4678 56.0639 12.1507H56.0459Z" fill="#A0542C"/>
<path d="M80.6628 23.9622C80.5731 24.0914 80.3042 25.5863 80.0531 27.3027C79.6408 30.1818 78.8698 34.0759 78.3857 35.8476C78.2244 36.4197 78.2781 36.5859 78.6367 36.5859C79.085 36.5859 79.2822 36.0691 80.0173 32.9316C80.3759 31.4367 80.591 29.9603 81.1468 25.1619C81.2544 24.1653 80.9496 23.4639 80.6448 23.9622H80.6628Z" fill="#A0542C"/>
<path d="M54.9874 29.5907C54.0551 33.2449 53.7144 34.1677 52.6386 36.2532C51.9394 37.5266 51.527 38.6524 51.6705 38.7816C52.1725 39.2614 54.2164 35.3858 54.9695 32.5805C55.7404 29.7937 55.9377 28.4834 55.5791 28.4834C55.4177 28.4834 55.1667 28.9817 55.0053 29.5723L54.9874 29.5907Z" fill="#A0542C"/>
<path d="M73.4542 114.174L70.7468 114.34L65.7624 118.253C63.0013 120.394 60.025 122.885 59.1644 123.771C58.3037 124.639 57.3893 125.414 57.1383 125.525C56.6184 125.709 54.18 132.519 53.4628 135.749C53.0504 137.65 53.0504 137.834 53.4986 138.277C54.2158 139.016 54.7179 138.905 57.0487 137.465C59.4333 136.007 60.7242 135.454 66.0851 133.682C70.6751 132.169 75.785 129.788 78.5461 127.85C81.1997 126.004 87.1523 120.375 87.9053 119.047C88.2101 118.475 88.7301 117.773 89.0708 117.478C89.4114 117.183 90.0748 116.463 90.5051 115.835C91.1685 114.913 91.2581 114.636 91.0071 114.34C90.4872 113.731 90.0031 113.842 86.5785 115.356C83.3692 116.795 79.5143 117.939 74.6734 118.936C73.239 119.231 71.7329 119.545 71.3743 119.619C70.962 119.729 70.7647 119.674 70.8723 119.49C71.1771 119.065 73.8307 117.496 75.2292 116.961C76.7173 116.389 78.2772 115.079 78.2772 114.433C78.2772 114.064 78.08 113.953 77.2552 114.008C76.6815 114.027 74.9782 114.119 73.49 114.193L73.4542 114.174Z" fill="#F8AC87"/>
<path d="M28.864 160.405C28.613 160.83 29.2226 179.193 29.635 183.456C30.1908 189.251 30.6928 210.992 30.4956 219.906C30.4059 223.634 30.2266 234.929 30.0832 244.987C29.9218 255.046 29.6708 266.119 29.5095 269.625C29.2047 276.583 29.5095 291.366 30.1191 298.767C30.3163 301.092 30.4776 304.414 30.4776 306.131V309.268L28.6847 309.471C23.8617 310.08 23.001 310.283 22.9293 310.911C22.8217 311.612 22.8397 311.612 32.2885 311.224C35.8565 311.058 41.3788 310.892 44.5523 310.8C49.6443 310.652 50.3614 310.597 50.9173 310.154L51.5269 309.656L50.8635 309.139C50.2001 308.622 49.9491 308.585 43.2434 308.751C39.4244 308.825 35.5158 308.954 34.5656 309.01L32.8444 309.139L32.8981 306.869C32.9161 305.595 32.7368 301.037 32.4857 296.737C31.6072 282.101 31.3562 275.457 31.5355 270.788C31.6251 268.26 31.7865 258.644 31.8403 249.435C31.9299 240.244 32.1092 229.282 32.2527 225.129C32.7188 211.878 32.1451 192.813 30.8721 180.319C30.7287 178.805 30.4777 174.229 30.3163 170.131C30.0115 161.697 29.9039 160.571 29.3481 160.35C29.1329 160.276 28.8998 160.295 28.8461 160.405H28.864Z" fill="#8CC2E1"/>
<path d="M64.0412 174.228C63.5213 178.934 62.7324 187.59 61.9076 198.091C61.5669 202.041 61.1546 206.747 60.9394 208.537C60.545 211.785 59.8098 231.957 60.025 232.972C60.0788 233.268 60.3657 231.33 60.5987 228.654C61.0649 224.187 62.6965 210.826 63.2344 207.485C63.3958 206.415 63.5033 207.725 63.6826 212.708C63.7902 216.362 63.9874 221.899 64.1488 224.981C64.2922 228.063 64.3998 235.778 64.3998 242.089C64.4357 260.73 64.9735 274.627 66.1927 286.512C66.7127 291.643 67.1251 298.969 67.2147 304.543L67.3044 308.991L65.6369 309.175C64.7225 309.286 63.3599 309.434 62.5889 309.489C61.6745 309.563 61.2083 309.729 61.2083 309.969C61.2083 310.264 63.6468 310.301 74.6375 310.283C88.7301 310.283 89.3218 310.227 89.3218 309.139C89.3218 308.123 88.497 308.013 82.2934 308.326C79.084 308.493 74.8168 308.659 72.8266 308.751L69.2228 308.917L68.8642 300.354C68.7029 295.647 68.416 290.314 68.2546 288.524C67.0354 273.445 66.8382 268.868 66.6231 247.109C66.4796 235.039 66.3183 224.63 66.2286 223.984C66.139 223.339 65.87 218.688 65.6549 213.668C65.4397 208.629 65.0453 202.115 64.7942 199.162C64.3819 193.939 64.3819 193.551 65.0632 182.367C65.4218 176.074 65.6728 170.74 65.5831 170.537C65.4935 170.334 65.2246 170.168 64.9735 170.168C64.5612 170.168 64.4177 170.74 64.0233 174.265L64.0412 174.228Z" fill="#8CC2E1"/>
<path d="M51.9395 41.9198C51.5451 42.1228 51.1685 42.2336 51.061 42.1782C50.4872 41.846 40.5543 45.4633 34.9065 48.084C32.5219 49.1729 30.6393 51.0185 28.7925 53.9898C27.914 55.4293 26.641 57.3856 25.9417 58.4007C25.2784 59.3973 23.4675 62.5347 21.9614 65.3215C20.4374 68.1083 17.8017 72.7775 16.0984 75.6382C14.3951 78.4988 12.2795 82.1899 11.4188 83.8509C10.5403 85.4935 9.53625 87.3206 9.17766 87.8927C8.0481 89.7567 5.21524 95.9947 3.94225 99.4643C3.27886 101.291 2.22102 104.004 1.59349 105.444C0.15913 108.784 -0.289095 111.368 0.177072 113.823C0.535662 115.834 4.04982 124.121 6.54202 128.79C9.33902 134.05 12.6919 137.151 24.8301 145.751C32.4681 151.158 36.9684 153.65 39.6757 153.982C41.5583 154.24 44.3553 153.355 50.039 150.715L54.3958 148.704L54.7006 147.578C56.1709 142.189 57.157 136.911 57.5335 132.629C57.8383 129.289 57.8383 123.217 57.5694 122.257C57.4259 121.777 56.7984 121.316 55.3282 120.559C54.1986 119.987 52.065 118.75 50.6127 117.809C49.1784 116.886 46.5069 115.225 44.7498 114.1C42.9748 112.955 40.877 111.479 40.124 110.778C38.7434 109.578 38.7075 109.523 38.851 108.249C39.1916 105.186 40.1778 99.5012 41.5942 92.6542C42.4548 88.6124 43.5126 83.1127 43.9788 80.4551C44.427 77.7975 45.1084 74.0879 45.467 72.2239C45.8256 70.3415 46.4172 66.2443 46.722 63.0699C47.0627 59.914 47.493 55.78 47.7261 53.916C48.246 49.3205 48.4253 47.4011 48.4791 45.5002L48.515 43.9131L49.77 43.5993C51.294 43.2671 53.6966 42.1044 53.6966 41.7722C53.6966 41.4031 52.836 41.4585 52.0292 41.8829L51.9395 41.9198Z" fill="#EE9128"/>
<path d="M89.2699 115.742C87.5845 116.979 83.1201 119.083 79.0859 120.559C75.2849 121.944 72.7209 123.069 72.7209 123.346C72.7209 123.955 73.976 123.604 79.0859 121.519C85.5405 118.935 88.0327 117.68 89.8257 116.13C91.4394 114.764 90.9911 114.487 89.2699 115.742Z" fill="#ED9F79"/>
<path d="M86.3465 119.654C85.2886 120.485 82.5275 121.851 77.0411 124.176C73.5448 125.671 72.2539 126.483 73.3655 126.483C74.0289 126.483 79.0133 124.453 82.4558 122.773C85.8265 121.149 87.6912 119.894 87.6912 119.267C87.6912 118.75 87.3864 118.824 86.3644 119.654H86.3465Z" fill="#ED9F79"/>
<path d="M80.7347 124.711C77.364 126.206 72.0569 128.31 71.6983 128.31C71.4831 128.31 71.3038 128.495 71.3038 128.698C71.3038 129.214 71.8238 129.196 73.7064 128.532C76.0014 127.72 83.1014 124.508 83.3166 124.139C83.6572 123.641 82.5994 123.844 80.7168 124.693L80.7347 124.711Z" fill="#ED9F79"/>
<path d="M46.5959 59.7663C46.4883 59.8402 46.3987 60.32 46.3987 60.7814C46.3987 63.6051 43.7989 76.93 41.5577 85.4565C41.0378 87.5419 39.7648 93.1156 38.7966 97.8771C37.7925 102.602 36.914 106.717 36.8243 106.976C36.6809 107.363 36.412 107.234 34.9776 106.201C34.0453 105.555 32.4854 104.337 31.5351 103.58C30.5669 102.805 29.6884 102.214 29.5091 102.325C28.9892 102.639 30.0828 104.134 32.7723 106.68C35.1748 109.006 35.3541 109.209 34.7445 109.338C29.7063 110.335 28.5409 110.704 28.1285 111.368C27.6265 112.236 27.9672 112.955 28.9354 113.084C29.5091 113.158 34.7266 112.125 37.1292 111.442L38.2408 111.128L40.3206 112.881C44.7313 116.573 50.5045 120.43 54.5208 122.312L56.6544 123.327V125.505C56.6544 130.285 55.6862 136.689 53.8932 143.831C53.445 145.659 53.0685 147.56 53.0685 148.058C53.0685 149.11 53.7139 149.497 54.3773 148.87C55.6862 147.633 58.8956 128.716 58.5011 124.601C58.2322 121.814 58.1425 121.703 54.951 120.19C51.9568 118.787 49.357 117.219 42.9921 112.974C40.0875 111.036 39.0835 110.224 38.9221 109.689C38.8145 109.264 38.9759 107.659 39.3883 105.499C40.7509 98.523 42.5976 89.6828 43.3686 86.5084C44.283 82.8542 46.2552 73.4419 46.6676 70.8212C47.1697 67.8683 47.5462 62.1101 47.3848 60.8183C47.1876 59.6371 46.9904 59.3788 46.6138 59.7663H46.5959Z" fill="#CC832A"/>
</svg>
