<svg width="121" height="351" viewBox="0 0 121 351" fill="none" xmlns="http://www.w3.org/2000/svg">
<path d="M70.2635 1.08647C67.1045 2.00561 65.1682 3.54719 62.3704 7.36566C60.6444 9.71027 58.4979 14.9316 57.1064 20.0853C56.5794 22.0848 55.4218 26.1129 54.5573 28.9865C53.6957 31.8826 53 34.3691 53 34.5529C53 35.8171 67.1045 36.417 75.5245 35.4978C82.3666 34.7593 86.7868 33.9337 91.6067 32.4824C93.0811 32.047 94.3424 31.6762 94.3868 31.6762C94.6177 31.6762 94.4282 30.986 94.1558 30.8247C93.694 30.5248 91.5653 27.3513 90.9554 26.0646C90.6593 25.4195 89.86 23.8102 89.1672 22.4976C88.4714 21.1625 87.2102 18.3115 86.3249 16.1733C84.1578 10.8132 83.5656 9.54902 82.1564 7.40758C80.0928 4.23413 77.5466 1.74761 75.6104 1.0123C74.3047 0.528538 72.0754 0.576911 70.2635 1.08002V1.08647Z" fill="#F05341"/>
<path d="M98.1587 154.815C97.8004 155.115 97.7797 155.437 98.0314 162.475C98.2623 169.466 98.4725 173.262 98.8959 177.013C99.0646 178.693 99.485 179.59 100.095 179.59C100.453 179.59 100.432 179.819 100.053 180.37C99.6952 180.877 99.633 181.66 99.9262 181.66C100.033 181.66 100.432 181.109 100.791 180.441C101.17 179.796 101.969 178.416 102.579 177.407C103.799 175.359 105.842 171.427 105.842 171.105C105.842 170.989 105.924 170.85 106.031 170.805C106.241 170.737 108.012 166.274 108.79 163.948C109.066 163.12 109.359 162.339 109.462 162.2C109.758 161.765 110.641 158.704 110.809 157.579C110.892 156.956 111.061 156.405 111.188 156.315C111.336 156.199 111.357 156.037 111.209 155.786C111.04 155.486 110.43 155.396 108.05 155.325C106.431 155.257 103.923 155.047 102.472 154.863C99.2097 154.451 98.662 154.451 98.1557 154.818L98.1587 154.815Z" fill="#F8A694"/>
<path d="M85.5046 43.8733C83.5477 48.1755 80.4508 50.3847 75.5687 50.8878C73.97 51.0716 70.9797 50.5879 69.0435 49.8526C66.4322 48.8625 61.5294 44.6086 61.0231 42.8832C60.7922 42.0995 60.7507 42.0995 59.8655 42.193C59.2764 42.2866 58.8974 42.2156 58.7908 42.0318C58.5806 41.6641 58.9803 41.4094 60.0106 41.2255C60.4517 41.132 61.0646 40.9256 61.3784 40.7643C61.6952 40.5805 63.1252 40.0742 64.5789 39.613C64.6025 39.6065 64.6262 39.5969 64.6499 39.5904C66.074 39.1389 67.3589 38.739 67.5454 38.6713C67.7704 38.6003 67.8622 38.0843 67.948 35.1527C67.9747 34.253 68.0013 33.1306 68.031 31.7245C68.1583 25.9516 68.1375 24.6616 67.8622 23.3974C67.273 20.7303 67.5454 17.1634 68.558 14.5414C69.0642 13.1611 71.2314 10.9068 72.5992 10.3101C74.2631 9.59738 76.8714 9.73605 78.4524 10.61C81.567 12.358 83.7371 16.499 83.7371 20.6851C83.7371 24.065 82.8726 26.4128 80.7469 28.7607L79.7847 29.8282L79.3376 30.3248L79.5301 32.4534L79.7373 34.7174C79.9682 37.1329 80.1785 39.1583 80.2229 39.2034C80.2643 39.226 80.7913 39.3647 81.4012 39.5033C83.3167 39.8936 86.2655 40.974 86.3691 41.3449C86.452 41.5287 86.0524 42.6575 85.5046 43.8765V43.8733Z" fill="#F8A694"/>
<path d="M95.0856 48.4044C95.0649 48.5205 95.0856 48.9559 95.1063 49.3945C95.1685 51.0296 93.7592 66.9001 92.7911 75.5013C91.2545 89.0498 90.6653 98.5508 90.6653 109.545C90.6653 124.451 91.2959 131.766 93.3181 140.828C95.0648 148.604 96.1396 151.777 98.4755 156.102L99.1298 157.344L97.9515 157.228C96.9626 157.134 96.7939 157.182 96.7939 157.527C96.7939 157.94 97.1314 158.079 98.8367 158.334C99.491 158.424 100.08 158.656 100.29 158.908C100.732 159.437 101.386 159.482 101.575 158.976C101.723 158.563 102.523 158.608 106.374 159.343C108.373 159.733 114.901 160.378 115.005 160.217C115.005 160.172 115.194 159.872 115.384 159.527C115.594 159.159 115.89 158.031 116.056 157.018L116.349 155.154L117.927 153.545C119.105 152.348 119.694 151.564 120.242 150.323C120.938 148.849 121 148.504 121 146.804C121 143.308 120.452 138.683 119.188 131.624C118.261 126.47 116.621 118.327 115.967 115.615C115.609 114.167 114.851 110.6 114.262 107.704C113.672 104.782 112.997 101.631 112.787 100.689C112.577 99.7441 111.819 95.8128 111.103 91.9491C110.407 88.0855 109.652 84.1961 109.418 83.3221C109.208 82.4255 108.722 80.1938 108.364 78.3523C107.754 75.1111 107.227 72.9471 104.616 62.6204C102.573 54.5707 100.323 49.8782 97.9426 48.6817C97.1225 48.2689 95.1211 48.0851 95.0796 48.4044H95.0856Z" fill="white"/>
<path d="M116.79 153.458C116.79 153.525 116.707 153.641 116.58 153.712C116.473 153.78 116.369 153.735 116.369 153.622C116.369 153.484 116.476 153.368 116.58 153.368C116.707 153.368 116.79 153.413 116.79 153.458Z" fill="black"/>
<path d="M51.1495 280.977C51.0636 281.015 50.9333 281.028 50.7498 281.028C50.2021 281.028 50.0984 281.189 49.2339 283.376C48.8372 284.392 48.4582 285.372 48.0911 286.32C43.9847 296.941 41.6192 303.507 40.2661 308.173C38.1611 315.304 35.7601 322.918 35.5084 323.264C35.1709 323.702 34.8334 323.402 34.9607 322.757C35.0229 322.296 34.6439 321.79 32.8142 319.813C31.5944 318.5 29.7618 316.662 28.7729 315.743C27.7841 314.801 26.6472 313.604 26.2475 313.05C25.8478 312.521 25.4067 312.131 25.2794 312.198C24.9212 312.337 24.9419 312.105 25.2794 311.647C25.4482 311.44 25.7649 309.715 26.0166 307.828C27.7367 294.609 28.0091 292.767 29.445 284.879C29.5398 284.369 29.6375 283.831 29.7411 283.263C30.1467 281.047 30.5404 279.122 30.7595 278.274C30.8365 277.977 30.8928 277.813 30.9194 277.813C31.026 277.813 31.1089 277.906 31.1089 278.019C31.1089 278.132 32.2665 278.297 33.6995 278.364C35.1087 278.458 37.9302 278.664 39.9523 278.848C41.9744 279.032 45.0683 279.287 46.7944 279.422C50.584 279.699 51.1939 279.861 51.2797 280.525C51.3212 280.78 51.2945 280.915 51.1524 280.98L51.1495 280.977Z" fill="#F8A694"/>
<path d="M89.7207 285.746C89.7207 285.746 89.7207 285.762 89.7178 285.769C89.022 289.081 88.1397 294.28 87.2131 300.353C85.6765 310.566 83.5922 323.147 83.3198 323.931C83.1511 324.437 83.0474 324.483 82.0142 324.37C80.2674 324.186 76.0367 323.173 73.8043 322.415C71.8059 321.748 71.7615 321.703 71.5513 320.896C71.424 320.413 71.2789 314.201 71.193 306.013C71.0746 294.438 71.0509 292.377 71.4565 286.92C71.5543 285.611 71.6727 284.108 71.8237 282.228C71.8651 281.815 71.9924 281.354 72.1197 281.215C72.247 281.076 74.7932 280.915 78.6035 280.825C89.5283 280.525 89.7622 280.525 90.1619 280.964C90.5823 281.402 90.5201 281.95 89.7237 285.75L89.7207 285.746Z" fill="#F8A694"/>
<path d="M79.3379 30.325L79.5304 32.4536C78.9382 32.9954 78.2129 33.6565 77.3158 34.4628C75.5897 36.0269 72.3893 39.2713 70.2221 41.6385C66.2845 45.9633 65.8433 46.3084 65.3578 45.457C65.189 45.1571 65.2749 44.8829 65.7782 44.1702C66.3259 43.4349 66.4295 43.0898 66.3881 42.261C66.3259 41.087 66.0091 40.8581 65.3134 41.5708C64.3452 42.5609 63.5666 41.6385 64.2179 40.2582C64.2801 40.1324 64.4341 39.897 64.6472 39.5906C66.0713 39.1391 67.3562 38.7392 67.5427 38.6715C67.7677 38.6005 67.8595 38.0845 67.9454 35.1529C68.2059 34.7563 68.422 34.4112 68.5523 34.1628C68.9105 33.4501 69.4997 32.5987 69.8372 32.2762C70.1954 31.9537 70.3849 31.6312 70.2576 31.5634C70.151 31.4957 70.0474 31.2409 70.0474 31.0345C70.0474 30.8281 69.6684 30.3895 69.2066 30.067C67.6493 29.0318 68.8069 28.9125 70.8053 30.2283C72.0488 31.0442 73.4166 31.5344 74.9414 31.4473C76.7829 31.3441 78.5208 31.1313 79.779 29.8219L79.332 30.3186L79.3379 30.325Z" fill="#EF8874"/>
<path d="M51.1498 280.976C51.0639 281.015 50.9336 281.028 50.7501 281.028C50.2024 281.028 50.0987 281.189 49.2342 283.376C48.8375 284.391 48.4585 285.372 48.0914 286.32C44.8495 286.149 39.6506 285.769 35.8462 285.401C33.8123 285.217 31.2276 285.004 29.4453 284.878C29.5401 284.369 29.6378 283.83 29.7414 283.263C30.147 281.047 30.5407 279.122 30.7598 278.274C32.9921 278.519 35.6449 278.825 37.8446 279.099C40.4559 279.399 44.3699 279.857 46.5608 280.112C49.0447 280.389 50.7086 280.686 51.0017 280.892C51.0432 280.921 51.0905 280.95 51.1498 280.976Z" fill="#E08661"/>
<path d="M89.7204 285.746C89.1816 285.785 88.5924 285.824 87.947 285.862C85.5696 286.001 81.8007 286.275 79.5476 286.459C77.2916 286.646 74.2836 286.807 71.4532 286.92C71.5509 285.611 71.6694 284.108 71.8204 282.228C71.8618 281.815 71.9891 281.354 72.1164 281.215C72.2437 281.076 74.7899 280.915 78.6002 280.825C89.525 280.525 89.7589 280.525 90.1586 280.964C90.579 281.402 90.5168 281.95 89.7204 285.75V285.746Z" fill="#E08661"/>
<path d="M74.6635 1.10928C74.4533 1.24796 74.474 1.31569 74.7908 1.43179C75.7797 1.77687 76.3274 2.09938 77.6745 3.08625C79.5693 4.46657 81.0023 5.86947 81.0023 6.30808C81.0023 6.51448 81.5085 7.29817 82.1184 8.07863C83.4448 9.73631 83.8237 10.4265 83.5277 10.6329C83.1902 10.8619 83.276 11.552 83.7379 12.197L84.1583 12.7711L83.5484 13.0001C82.9592 13.2291 82.8941 13.1839 81.8638 11.6649C80.7062 9.98465 78.7492 8.21409 77.2097 7.47877C72.9789 5.43086 66.6609 8.83652 64.1799 14.4933C63.1259 16.8637 62.2851 20.1275 62.0305 22.8204C61.7581 25.5101 62.0719 31.8376 62.5989 34.1145L62.747 34.7112L59.2741 34.5499C56.7694 34.4338 55.7598 34.4596 55.6533 34.6402C55.4223 35.0337 55.8013 35.1014 59.5258 35.3304C61.4413 35.4691 63.8009 35.6303 64.7898 35.7432C65.7786 35.8367 67.1879 35.9044 67.9488 35.8819C69.2959 35.8593 73.9707 34.7789 74.1365 34.479C74.1809 34.3887 73.799 33.3276 73.275 32.1344C72.748 30.9379 72.1588 29.3963 71.9279 28.7061C71.4868 27.3258 70.1604 20.9305 69.9502 19.0922C69.7814 17.7345 69.6127 17.8957 71.9486 17.4378C75.0425 16.8153 80.5789 15.4834 81.5263 15.1125C83.883 14.1934 86.3906 12.9743 86.6215 12.6518C86.8317 12.3744 86.811 12.1454 86.515 11.5488C85.9258 10.2846 82.6839 6.18875 81.251 4.85357C78.4502 2.2316 75.4629 0.551346 74.6606 1.10606L74.6635 1.10928Z" fill="#F05341"/>
<path d="M102.706 247.101C102.434 253.173 101.821 266.422 101.401 274.981L101.149 280.087L99.864 280.316C99.1475 280.454 97.0218 280.661 95.1062 280.799C93.7621 280.896 92.1752 281.028 90.985 281.138C90.4817 281.183 90.0494 281.225 89.7356 281.26C89.5432 281.28 89.2797 281.309 88.9659 281.341C87.6217 281.477 85.3272 281.686 83.314 281.835C82.7574 281.88 82.1801 281.931 81.6057 281.983C80.9544 282.041 80.306 282.099 79.705 282.154C78.4822 282.27 77.4401 282.383 76.8924 282.454C76.4275 282.518 75.5246 282.57 74.287 282.602C73.7511 282.618 73.1531 282.631 72.4988 282.638C70.2517 282.673 67.365 282.676 64.1883 282.65C63.5754 282.647 62.9507 282.641 62.3201 282.634C60.4223 282.615 58.4535 282.589 56.4728 282.551C55.8718 282.541 55.2708 282.531 54.6698 282.515C52.7424 282.476 50.8299 282.431 48.9943 282.376L48.115 282.351L47.2534 282.325C45.1277 282.257 43.1411 282.183 41.4032 282.096C40.7963 282.067 40.2189 282.038 39.6771 282.009C39.4048 281.993 39.1442 281.98 38.8926 281.964C36.7757 281.838 34.6144 281.686 32.4857 281.518C31.9114 281.473 31.34 281.425 30.7745 281.377C27.5504 281.109 24.4358 280.809 21.6853 280.503C21.0488 280.432 20.433 280.361 19.8379 280.29C15.6604 279.793 12.5991 279.303 11.7376 278.948C11.6221 278.903 11.2372 278.809 10.6777 278.687C10.2217 278.587 9.6533 278.468 9.02269 278.339C6.43805 277.81 2.79646 277.123 1.60924 276.971C0.957904 276.878 0.303602 276.742 0.15557 276.649C-0.0339106 276.51 0.217747 275.681 1.10298 273.52C1.778 271.888 3.71426 267.035 5.41959 262.733C7.12491 258.43 8.8717 254.083 9.31283 253.07C11.1011 248.839 16.2822 235.174 17.3746 231.791C17.7122 230.711 18.3842 228.802 18.849 227.534C19.3109 226.27 20.0481 223.993 20.4715 222.474C20.8919 220.955 21.6498 218.311 22.1561 216.608C22.6623 214.905 23.589 211.432 24.2404 208.903C25.5253 203.798 27.3757 196.551 28.5126 192.342C30.0077 186.682 33.3976 171.825 35.2273 162.785C36.7431 155.241 37.9215 150.11 38.8896 146.914C39.3307 145.466 39.9436 143.028 40.2574 141.509C40.7844 139.026 41.2048 137.758 41.2048 138.632C41.2048 138.861 41.2877 138.839 41.4772 138.539C41.6667 138.239 42.1285 138.126 43.3098 138.055C50.9305 137.571 56.6771 136.952 62.6783 135.962C69.3516 134.859 79.0151 133.363 81.203 133.111C82.4228 132.972 85.4545 132.559 87.9385 132.169C90.4225 131.802 93.6022 131.363 94.9907 131.179C96.3793 130.995 98.0017 130.879 98.5702 130.902L99.6242 130.924L99.7722 134.811C99.8551 136.949 100.172 141.09 100.468 144.012C101.815 157.376 102.067 162.598 102.153 179.574C102.215 188.247 102.363 198.183 102.49 201.656C102.848 211.848 102.976 240.464 102.7 247.088L102.706 247.101Z" fill="#FFC233"/>
<path d="M42.0543 305.413C42.0543 305.668 41.7671 306.693 41.2875 308.206C41.1424 308.667 40.9766 309.173 40.796 309.718C40.1861 311.569 39.3957 313.846 38.5371 316.226C37.338 319.584 36.0531 323.151 35.6949 324.163C34.5372 327.453 34.0961 328.42 33.7379 328.42C33.5484 328.42 33.1694 328.604 32.8734 328.811C32.1569 329.317 30.5167 329.249 29.294 328.672C27.482 327.798 24.4296 323.796 23.9263 321.657C23.799 321.128 23.6302 320.393 23.5266 320.025C23.1417 318.671 24.1069 312.089 25.7086 305.139C25.7649 304.887 25.8241 304.635 25.8833 304.384C25.9011 304.31 25.9159 304.236 25.9366 304.165C26.1498 303.233 26.3481 302.371 26.3688 302.201C26.4103 302.017 26.4517 301.833 26.4517 301.788C26.4932 301.649 27.7781 301.765 28.3051 301.994C29.59 302.523 33.0836 303.374 36.7903 304.042C40.8316 304.777 42.0543 305.1 42.0543 305.422V305.413Z" fill="white"/>
<path d="M86.6862 307.806C86.6803 308.277 86.6329 308.909 86.5411 309.699C86.4879 310.186 86.4138 310.737 86.3221 311.347C86.0408 313.256 85.6026 315.743 85.0046 318.755C84.4154 321.722 83.6575 325.656 83.2992 327.472C82.9617 329.288 82.5828 330.923 82.4584 331.084C82.1416 331.497 81.8485 331.291 81.8485 330.671C81.8485 330.188 81.8278 330.188 81.2801 330.788C79.8057 332.307 76.4394 333.293 74.4381 332.813C73.8282 332.652 73.1117 332.513 72.8393 332.49C72.1643 332.423 72.0607 332.145 71.5544 328.878C70.755 323.521 70.6484 321.886 70.376 311.115L70.3524 310.192L70.2695 307.025L75.5957 307.003C78.5 307.003 81.8485 306.909 83.0061 306.819C84.1638 306.725 85.2592 306.612 85.4279 306.612C85.5967 306.59 85.9549 306.635 86.2273 306.706C86.6063 306.822 86.6892 307.006 86.6892 307.809L86.6862 307.806Z" fill="white"/>
<path d="M80.2647 162.565C79.338 178.552 78.959 184.051 78.1389 192.7C77.233 202.408 76.2234 210.851 75.2138 217.543C74.9177 219.384 74.373 223.409 73.9496 226.515C71.6758 243.605 67.9277 266.012 65.7605 275.397C65.3845 277.023 64.822 279.661 64.1973 282.66C63.5844 282.657 62.9597 282.65 62.3291 282.644C62.7702 280.477 63.2765 278.08 63.9308 275.029C66.4148 263.506 69.0261 248.094 71.4242 230.888C72.0548 226.263 72.8779 220.719 73.2124 218.581C75.0658 206.803 77.0849 188.517 78.053 174.762C78.284 171.405 78.6215 166.803 78.7903 164.549C79.1692 159.605 79.6755 149.987 79.9479 142.557C80.0544 139.59 80.1374 137.129 80.1581 137.081C80.1581 137.058 80.241 137.036 80.3475 137.036C80.8331 137.036 80.768 153.667 80.2647 162.568V162.565Z" fill="#FCAF17"/>
<path d="M97.4211 189.527C96.074 211.264 95.8224 216.14 94.9993 235.945C94.8305 240.176 94.5996 245.559 94.4723 247.907C94.3657 250.255 94.1762 254.118 94.0519 256.534C93.6522 264.951 93.3769 267.183 91.5265 277.971C91.3577 278.951 91.1742 280.022 90.9847 281.138C90.4814 281.183 90.0491 281.225 89.7353 281.26C89.5428 281.28 89.2793 281.309 88.9655 281.341C89.1461 280.215 89.3326 279.071 89.5221 277.926C91.038 268.792 91.4376 265.664 91.7337 260.443C92.0298 255.128 92.5331 244.73 92.7877 238.473C93.4627 221.981 94.1762 208.938 95.2095 193.964C95.9881 182.603 96.1362 179.887 96.3671 170.87C96.6188 162.014 96.3464 144.302 95.926 140.506C95.7779 139.08 95.7779 138.39 95.9674 137.906C96.0947 137.561 96.2842 137.261 96.3671 137.261C96.45 137.261 96.5773 138.113 96.6395 139.148C96.7017 140.206 96.8704 141.977 96.977 143.128C97.3767 146.74 97.8415 157.138 97.9658 164.752C98.0932 171.86 97.8593 182.648 97.4181 189.527H97.4211Z" fill="#FCAF17"/>
<path d="M85.191 185.431C85.0845 187.088 84.8535 190.929 84.6848 193.964C83.6308 212.689 82.5176 224.028 79.5273 246.639C79.0418 250.18 78.201 256.624 77.6325 260.971C76.9575 266.109 75.5098 275.387 74.2929 282.605C73.7571 282.621 73.159 282.634 72.5047 282.64C73.31 277.474 74.1271 272.282 74.4528 270.308C74.6837 268.882 75.0627 266.144 75.3173 264.212C75.5482 262.258 76.1374 257.933 76.5815 254.573C77.446 248.223 78.9589 236.309 79.8441 229.063C80.8981 220.458 82.1386 206.658 83.0031 193.961C83.1719 191.429 83.4443 187.498 83.613 185.221C84.0542 179.31 84.3295 173.537 84.6019 164.058C84.8535 155.18 84.7914 139.467 84.4953 138.803C84.2851 138.342 84.6226 138.274 84.9808 138.709C85.3805 139.261 85.6322 144.714 85.7595 156.121C85.9075 166.98 85.6766 178.387 85.191 185.427V185.431Z" fill="#FCAF17"/>
<path d="M64.5819 139.08C64.5819 139.196 64.4339 139.332 64.2652 139.425C63.9928 139.519 63.9484 140.183 63.9484 143.428C63.9484 147.843 63.5487 152.996 62.7908 158.195C60.7479 172.434 59.8864 178.229 59.5074 180.738C58.708 185.892 53.0443 216.691 51.6558 223.293C49.3199 234.542 47.1497 247.1 45.9507 256.185C44.8937 264.396 43.1943 274.062 41.409 282.105C40.8021 282.076 40.2248 282.047 39.683 282.018C39.8991 281.002 40.0945 280.041 40.2662 279.19C41.6992 271.92 43.3601 261.961 44.1595 255.682C45.024 248.919 47.3185 235.464 48.9172 227.573C49.4442 225.018 50.664 218.81 51.6321 213.747C52.6002 208.687 54.1575 200.611 55.0842 195.806C56.831 186.721 57.3994 183.522 59.5045 170.618C62.326 153.458 63.0424 148.168 63.2941 142.876C63.377 140.967 63.525 139.287 63.6109 139.151C63.7796 138.829 64.579 138.784 64.579 139.083L64.5819 139.08Z" fill="#FCAF17"/>
<path d="M75.0215 140.644C74.9593 141.634 74.7906 145.014 74.684 148.188C74.2636 159.459 73.5057 168.015 71.6109 182.805C69.9677 195.709 67.3387 214.021 63.7593 237.783C62.4951 246.2 61.0236 256.069 60.4759 259.726C59.4663 266.534 58.1044 274.345 56.4791 282.553C55.878 282.544 55.277 282.534 54.676 282.518C56.784 271.262 58.2317 262.226 60.0555 249.396C60.7068 244.843 61.9296 236.516 62.7911 230.878C64.6238 218.778 66.6015 205.461 67.6318 198.099C68.0522 195.177 68.896 189.175 69.5266 184.757C71.3385 171.921 72.9787 157.866 73.5264 150.252C73.9468 144.479 74.2222 141.534 74.4945 140.06C74.8321 138.196 75.1696 138.564 75.0215 140.635V140.644Z" fill="#FCAF17"/>
<path d="M59.4244 142.783C59.2764 143.724 58.4978 149.155 57.6777 154.86C56.1618 165.303 53.8881 178.116 50.6047 194.771C47.7003 209.448 46.143 217.22 45.4473 220.419C45.1098 222.051 44.417 225.318 43.9522 227.666C43.4666 230.014 42.6672 233.878 42.1432 236.245C41.6369 238.638 40.6895 243.353 40.0589 246.71C38.7118 254.047 35.9525 267.322 34.3952 274.014C33.8949 276.161 33.2258 278.787 32.4915 281.525C31.9172 281.48 31.3458 281.431 30.7803 281.383C32.0593 276.339 33.4182 270.659 34.0784 267.476C34.6676 264.625 35.467 260.852 35.8666 259.059C36.2663 257.288 37.1101 253.102 37.7407 249.742C38.3714 246.384 39.7392 239.551 40.7932 234.561C41.8471 229.569 43.887 219.633 45.32 212.479C46.7736 205.326 48.479 196.999 49.0889 193.961C49.7195 190.926 50.3531 187.821 50.4774 187.059C50.6047 186.302 51.4663 181.906 52.3722 177.284C53.8673 169.786 58.6044 143.102 58.856 140.87C58.8975 140.386 59.0455 140.041 59.1728 140.086C59.5932 140.225 59.6583 141.077 59.4244 142.779V142.783Z" fill="#FCAF17"/>
<path d="M93.4217 142.115C93.4217 142.85 93.0842 143.012 92.9362 142.367C92.8089 141.86 92.7675 144.527 92.7053 160.033C92.6431 170.521 92.5572 173.904 92.199 179.01C91.4825 188.785 91.145 193.822 90.7897 199.505C89.7357 216.804 87.61 242.289 86.3695 252.709C85.1527 262.793 83.4503 273.181 81.6088 281.979C80.9575 282.037 80.3091 282.095 79.7081 282.15C81.0492 275.423 82.3726 267.921 83.1898 262.161C84.7678 251.028 86.6833 230.923 88.2643 209.025C88.8742 200.608 89.8631 187.724 90.4759 180.158C91.1924 171.302 91.3404 167.99 91.5299 156.35C91.6987 146.092 91.9503 140.799 92.2878 140.225C92.6875 139.49 93.4247 140.709 93.4247 142.112L93.4217 142.115Z" fill="#FCAF17"/>
<path d="M52.6863 143.866C52.4968 145.108 52.0113 148.514 51.6323 151.458C49.7168 165.603 45.0863 191.53 42.3685 203.285C42.0961 204.481 41.4832 207.381 41.0007 209.725C38.9578 219.778 34.1172 239.906 32.2845 245.956C31.9056 247.22 29.7177 254.467 27.4439 262.058C24.8533 270.673 23.0888 276.336 21.6854 280.519C21.0489 280.448 20.4331 280.377 19.838 280.306C23.6069 268.518 30.0493 247.542 31.947 240.667C35.9261 226.244 44.0531 188.772 47.3986 169.357C47.9256 166.323 48.6835 162.133 49.0832 160.04C49.4829 157.947 50.1135 154.267 50.4717 151.874C51.0816 147.711 52.0705 141.844 52.26 141.225C52.3873 140.857 52.7662 140.88 52.9113 141.27C52.9735 141.454 52.8699 142.628 52.6804 143.87L52.6863 143.866Z" fill="#FCAF17"/>
<path d="M42.1404 165.558C40.814 172.827 39.4255 180.074 39.0879 181.66C38.7504 183.247 37.9925 186.814 37.4241 189.597C35.8461 197.279 33.5071 206.503 27.7813 227.898C25.3387 237.006 22.3071 246.3 16.7914 261.713C15.7374 264.68 14.5591 268.037 14.1594 269.189C13.4844 271.214 12.0958 274.984 10.6806 278.703C10.2247 278.603 9.65625 278.483 9.02563 278.354C9.42532 277.251 9.86646 276.039 10.349 274.71C11.9922 270.156 13.887 264.935 14.5383 263.093C15.169 261.252 16.371 257.894 17.2118 255.618C19.5063 249.293 22.4551 240.505 24.1367 235.029C25.5045 230.475 26.6829 226.195 29.9248 213.75C30.5998 211.218 31.5679 207.538 32.092 205.584C34.197 197.718 37.7142 181.593 40.5772 166.593C41.3765 162.407 42.3654 157.437 42.7651 155.55C43.523 151.961 44.7872 143.656 44.7872 142.279C44.7872 141.841 44.8494 141.405 44.9352 141.312C45.252 140.967 45.5244 141.38 45.5866 142.253C45.7346 144.324 44.4497 152.88 42.1344 165.555L42.1404 165.558Z" fill="#FCAF17"/>
<path d="M48.9968 282.386C51.0396 274.388 51.6051 271.469 52.893 263.09C53.42 259.617 54.4296 253.66 55.1046 249.864C57.3369 237.49 58.5774 229.853 62.8733 202.134C64.5165 191.484 66.6837 175.865 67.8413 166.248C68.4719 160.866 69.0847 155.735 69.2091 154.861C69.5673 152.1 70.494 142.048 70.4082 141.957C70.3667 141.889 70.2187 141.98 70.1121 142.141C69.816 142.554 68.9545 148.236 67.9449 156.473C67.483 160.269 66.6185 166.571 66.0294 170.505C62.8289 192.058 61.9466 197.67 59.8416 210.532C59.211 214.328 58.2192 220.423 57.6537 224.103C56.5997 230.704 54.0743 245.517 52.6858 253.086C52.3068 255.247 51.5074 260.172 50.9183 264.058C50.0626 269.657 48.9998 275.01 47.2589 282.338L48.9968 282.389V282.386Z" fill="#FCAF17"/>
<path d="M25.94 304.158C26.4226 304.323 27.0473 304.555 27.8437 304.861C31.6333 306.287 35.7811 307.345 40.3494 308.058C40.684 308.109 40.9978 308.157 41.2879 308.206C41.1429 308.667 40.9771 309.173 40.7965 309.718C39.707 309.628 38.8188 309.554 38.6648 309.554C38.4132 309.554 38.203 310.083 37.8447 311.67C37.5931 312.844 37.0453 314.937 36.6249 316.34C35.9736 318.478 35.7841 318.871 35.3815 318.939C35.0647 318.984 34.8959 318.894 34.8959 318.662C34.8959 318.178 36.6841 311.437 37.0838 310.357C37.2733 309.873 37.3799 309.438 37.3355 309.389C37.294 309.322 36.8943 309.206 36.471 309.09C35.7752 308.928 35.6923 308.951 35.5028 309.48C35.3963 309.78 35.3134 310.17 35.3134 310.309C35.3134 310.47 34.9137 311.966 34.4281 313.621C33.7324 316.036 33.4807 316.681 33.1847 316.681C32.9745 316.681 32.7643 316.588 32.6991 316.475C32.637 316.359 33.0159 314.588 33.5192 312.54C34.0462 310.47 34.4045 308.699 34.3186 308.628C34.212 308.535 33.833 308.351 33.4541 308.216C32.9903 308.048 32.632 308.285 32.3794 308.928C32.1692 309.457 31.3491 311.895 30.5467 314.311C29.1997 318.452 28.7585 319.326 28.4417 318.452C28.4003 318.291 28.6934 317.117 29.0931 315.875C29.7444 313.898 31.3047 308.122 31.3047 307.687C31.3047 307.525 29.5164 306.79 29.1789 306.79C29.0723 306.79 28.8 307.548 28.569 308.448C27.4943 312.45 25.6232 318.684 25.3479 319.074C25.0103 319.558 24.5692 319.397 24.5692 318.774C24.5692 318.568 24.886 317.349 25.265 316.085C26.5913 311.828 28.0213 306.239 27.8111 306.171C27.1213 305.89 26.3397 305.5 25.7002 305.132L25.9281 304.158H25.94Z" fill="#E6CDC1"/>
<path d="M86.5377 309.699C86.4844 310.186 86.4104 310.737 86.3187 311.347C85.9427 311.379 85.5992 311.395 85.318 311.395C84.2877 311.395 84.1603 311.463 84.0745 311.902C84.0123 312.201 83.7162 313.766 83.4231 315.42C82.6652 319.606 81.4662 324.553 81.1079 324.944C80.8563 325.244 80.7911 325.221 80.6668 324.898C80.5602 324.553 82.0997 315.791 82.7718 313.053C83.13 311.65 83.0442 311.556 81.7178 311.673C80.9184 311.74 80.8977 311.766 80.8326 312.663C80.726 314.549 79.6957 322.967 79.527 323.496C79.296 324.163 78.9792 324.208 78.7068 323.634C78.5174 323.244 78.9585 317.952 79.527 313.882C79.6335 313.03 79.7371 312.224 79.7371 312.111C79.7371 311.95 79.2309 311.86 78.5174 311.86H77.2739L77.1259 315.472C77.0637 317.474 76.8535 320.142 76.6847 321.406C76.516 322.67 76.3058 324.373 76.2229 325.202C76.0748 326.398 75.9712 326.721 75.6544 326.766C75.2755 326.859 75.2548 326.721 75.4028 323.154C75.4857 321.106 75.7196 317.816 75.9505 315.839C76.1814 313.837 76.3087 312.16 76.2021 312.066C76.1192 311.972 75.5715 311.837 74.9824 311.744L73.9076 311.605L73.7596 316.849C73.5909 322.76 73.4635 323.889 72.981 324.002C72.4332 324.118 72.3296 323.428 72.3918 320.251C72.4333 318.594 72.454 315.972 72.4747 314.407V311.531L70.3904 311.118C70.3904 311.118 70.3756 311.118 70.3697 311.115L70.346 310.192C73.5257 310.55 78.0052 310.453 84.1781 309.925C84.9923 309.85 85.7857 309.776 86.5348 309.702L86.5377 309.699Z" fill="#E6CDC1"/>
<path d="M22.1204 159.002C21.2559 159.53 21.2144 159.53 21.2144 159.092C21.2144 158.863 21.1315 158.656 21.0042 158.656C20.6874 158.656 20.7526 164.613 21.1108 168.248C21.2795 169.996 21.5727 173.008 21.7414 174.966C22.4135 182.096 23.0056 183.731 25.9307 186.537C27.6568 188.217 29.9927 189.917 31.026 190.262C31.7188 190.491 32.1629 189.894 31.9527 188.975C31.701 187.756 31.5322 187.411 30.2266 185.179C28.5834 182.419 28.163 181.154 28.163 179.152C28.163 177.704 28.9831 172.021 29.4035 170.618L29.5723 170.044L29.9305 170.667C30.7536 172.047 31.553 175.246 31.7424 178.052C31.9527 181.18 32.2458 181.964 33.1754 181.848C33.9955 181.754 35.1738 179.042 35.6594 176.188C36.0798 173.588 35.911 172.002 34.7949 168.435C34.3952 167.171 33.9955 165.513 33.8682 164.755C33.6373 163.168 33.3826 162.456 32.7935 161.649C32.5625 161.327 32.1392 160.475 31.8668 159.74C31.4878 158.705 31.3191 158.476 31.1503 158.727C31.026 158.889 30.9608 159.256 31.0437 159.534C31.1918 160.153 31.2539 160.13 29.9276 159.601C28.5183 159.002 25.6554 158.427 24.181 158.427C23.3165 158.427 22.7688 158.589 22.1174 159.002H22.1204Z" fill="#F8A694"/>
<path d="M22.224 310.679C21.2144 310.908 20.4565 311.485 19.9502 312.382C19.1094 313.852 19.592 315.51 21.2351 316.936C22.1825 317.742 22.899 319.096 22.899 320.064C22.899 320.409 22.5615 321.538 22.1411 322.547C21.7414 323.56 21.0693 325.263 20.6667 326.343C20.2463 327.424 18.7304 330.829 17.2975 333.935C14.4345 340.101 14.0141 341.527 14.4553 343.297C14.5826 343.849 14.9408 344.561 15.2132 344.907C15.7194 345.529 15.7609 345.529 16.0333 345.136C16.2642 344.79 16.4122 344.768 16.7498 344.952C16.9807 345.09 18.159 345.413 19.361 345.69C21.1493 346.103 22.4993 346.197 27.1297 346.287C34.6883 346.448 35.381 346.219 36.8762 343.252C38.0338 340.927 37.9716 340.285 35.9909 335.315C35.2123 333.383 35.2123 333.335 35.2123 330.255C35.233 327.333 35.2745 326.966 36.0324 324.16C36.4735 322.505 36.9176 320.848 37.0005 320.48C37.0834 320.09 37.3588 318.984 37.6104 318.019C38.1581 315.81 38.1581 315.075 37.6311 313.949C36.7252 311.995 35.3574 311.466 30.4723 311.143C28.5568 311.027 26.3452 310.821 25.5251 310.708C23.8612 310.453 23.3135 310.453 22.221 310.685L22.224 310.679Z" fill="black"/>
<path d="M75.7385 317.445C74.2433 317.835 73.2545 318.364 72.2005 319.332C70.7912 320.667 70.6432 321.264 70.4744 326.346C70.3471 330.442 70.285 330.994 69.7372 332.742C69.3997 333.8 68.3487 336.238 67.3569 338.147C66.368 340.079 65.4414 342.104 65.2933 342.656C64.6627 344.887 65.1038 346.935 66.2615 347.209C66.599 347.277 66.9986 347.487 67.126 347.648C68.1563 349.028 78.4711 349.854 81.9469 348.867C82.4088 348.728 83.1045 348.59 83.4628 348.57C85.2747 348.409 86.6839 345.052 86.6839 340.84C86.6839 339.231 86.1984 336.77 84.8957 331.639C84.7062 330.949 84.5582 329.846 84.5375 329.201C84.496 327.914 84.7062 327.475 86.4737 325.198C87.8623 323.428 88.9577 321.541 89.1265 320.69C89.233 320.093 89.1472 319.838 88.6409 319.242C88.1139 318.574 87.7764 318.435 85.5263 317.929C82.4325 317.239 77.5267 316.987 75.7385 317.445Z" fill="black"/>
<path d="M62.8974 39.4323C57.4468 40.0064 44.7516 42.9767 43.594 43.941C43.215 44.2409 43.2772 45.1826 43.7184 46.263L44.0766 47.1821L42.4986 48.9075C40.2455 51.3683 37.7201 55.8543 32.3732 66.9872C27.3431 77.4783 22.31 88.9305 19.9533 95.3968C19.5122 96.5933 18.1858 99.8119 17.0075 102.527C15.8291 105.243 14.2718 108.923 13.5346 110.693C12.8182 112.464 11.8915 114.628 11.4918 115.524C10.5444 117.572 9.95523 119.365 8.14332 125.738C6.47944 131.627 6.18633 133.169 6.45871 134.962C7.25809 140.277 10.5207 147.888 15.1956 155.434L16.2703 157.16L16.3324 159.692C16.3946 163.071 16.4153 163.12 17.3627 163.442C19.1954 164.039 28.9833 165.097 32.7107 165.097H35.2776L35.5944 164.223C35.7631 163.739 36.2457 161.762 36.6661 159.808C37.0865 157.853 37.7615 154.886 38.1612 153.251C38.5816 151.597 39.1708 149.133 39.4876 147.775L40.056 145.269L40.7932 145.408C45.3201 146.237 71.7823 145.269 87.9503 143.705C91.4883 143.36 101.886 141.68 103.802 141.151C104.959 140.828 105.548 140.76 105.717 140.922C105.907 141.106 106.096 141.083 106.371 140.854C106.73 140.577 106.771 140.048 106.857 135.055C106.898 132.043 106.836 124.98 106.709 119.414C106.434 107.868 106.055 102.853 104.793 94.5034C103.615 86.7504 102.582 79.2747 101.848 73.3632C101.51 70.5574 101.09 67.3355 100.9 66.2326C100.121 61.2176 99.5116 55.19 98.9846 47.1628C98.9224 45.9889 98.7537 44.9536 98.6056 44.8375C98.3747 44.6311 95.722 43.4346 93.3209 42.4671C92.6251 42.1898 91.0678 41.6609 89.8481 41.3158C88.6283 40.9707 86.8371 40.4192 85.869 40.0967C83.4472 39.2904 83.1748 39.313 82.9231 40.3031C82.4169 42.3284 80.7323 44.4441 78.9648 45.2955C77.7864 45.8696 75.637 46.1243 73.5764 45.9405C70.7342 45.6857 67.365 43.4088 65.6182 40.603C64.733 39.1775 64.7981 39.2227 62.9033 39.4291L62.8974 39.4323Z" fill="white"/>
<path d="M61.2955 41.6642C61.1475 42.077 61.4435 42.6995 62.7077 44.5861C64.4752 47.2081 66.5595 49.0012 69.2122 50.1752C75.4 52.9132 81.3805 50.8428 85.6734 44.47C86.8517 42.6995 87.1271 41.9867 86.683 41.6868C86.2418 41.3869 85.6527 41.8481 84.8296 43.1349C82.5766 46.6308 79.0416 49.1367 75.6931 49.6205C71.187 50.2429 66.4085 47.7789 63.2732 43.2026C61.9883 41.3385 61.5264 40.9708 61.2925 41.661L61.2955 41.6642Z" fill="#E6CDC1"/>
<path d="M42.8986 43.8249C42.8986 44.0764 43.1503 44.8827 43.4463 45.618C44.8556 49.0914 49.2551 61.3273 50.0575 63.9976C51.4045 68.5288 52.1625 72.4634 51.9108 73.4986C51.7835 73.9824 51.0878 77.0397 50.3328 80.3293C49.5956 83.6189 48.6482 87.7598 48.2278 89.5304C47.8281 91.301 47.0494 95.0743 46.5224 97.9252L45.5336 103.079L44.7964 103.24C44.3967 103.33 42.9223 103.537 41.5338 103.676C37.9751 104.066 37.4274 104.25 37.4274 104.94C37.4274 105.491 37.4895 105.514 38.6471 105.514C39.2985 105.514 40.7107 105.353 41.741 105.169C42.795 104.985 43.7187 104.824 43.8046 104.824C43.8904 104.824 42.9815 105.63 41.8062 106.594C39.639 108.387 39.0912 109.194 39.8699 109.516C40.3318 109.722 41.6167 108.874 43.4286 107.149C44.228 106.391 44.9237 105.791 44.9652 105.836C44.9859 105.885 44.5862 108.642 44.0592 111.98C42.271 122.997 42.0815 124.422 41.1341 132.888C40.6071 137.513 40.0801 142.157 39.9558 143.192C39.787 144.64 39.787 145.192 39.9765 145.446C40.1452 145.675 40.2933 145.698 40.4827 145.537C40.6308 145.398 40.8824 145.33 41.0305 145.353C41.2407 145.398 41.3473 145.076 41.3887 144.156C41.4094 143.466 41.6404 141.328 41.8742 139.441C42.0844 137.532 42.6529 132.746 43.1148 128.792C43.5766 124.835 44.1243 120.443 44.3553 119.017C45.3885 112.644 47.7866 98.6605 48.2485 96.2901C49.0064 92.4716 52.2898 78.7393 53.4918 74.392L53.9122 72.8052L53.3438 70.251C52.5207 66.6647 50.3535 59.2342 49.5749 57.4378C49.2374 56.609 48.207 54.1708 47.3218 52.0326C45.5336 47.6853 43.5322 43.5894 43.1532 43.454C43.0052 43.4088 42.9016 43.5701 42.9016 43.8216L42.8986 43.8249Z" fill="#E6CDC1"/>
<path d="M98.2626 44.2412C97.8837 45.2538 98.2212 49.785 99.3166 58.941C99.5475 60.8276 100.012 65.7491 100.371 69.8675C101.339 81.439 101.425 82.3356 102.097 87.2344C102.434 89.7661 102.813 92.6171 102.92 93.5588C103.447 98.3899 103.55 99.4026 103.74 101.841C103.846 103.289 104.033 107.017 104.16 110.123C104.288 113.228 104.477 117.989 104.581 120.704C105.042 131.376 105.235 138.945 105.066 139.106C104.687 139.496 98.5824 140.97 95.003 141.499C92.9187 141.822 88.605 142.351 85.4253 142.673C82.2456 142.996 78.5418 143.454 77.2155 143.708C75.8891 143.963 73.4258 144.26 71.7649 144.399C68.8191 144.605 68.0168 144.811 68.6267 145.227C69.0885 145.55 73.9943 145.434 77.1118 145.021C78.7313 144.792 82.9443 144.424 86.4793 144.17C91.8262 143.779 93.8483 143.547 98.5854 142.673C101.721 142.099 104.628 141.499 105.048 141.364C106.585 140.88 106.585 140.812 106.544 135.336C106.502 132.643 106.396 128.551 106.268 126.203C106.162 123.881 105.975 119.646 105.848 116.795C105.555 109.939 105.028 100.164 104.859 98.8285L104.752 97.7481L106.771 97.6804C108.329 97.6127 108.856 97.4966 109.152 97.1966C109.762 96.5065 109.238 96.2517 107.174 96.2775H105.321L106.162 95.8389C106.623 95.6099 107.109 95.4035 107.236 95.4035C107.615 95.4035 108.204 94.5521 108.122 94.0941C108.015 93.4491 107.405 93.4717 105.954 94.2328L104.587 94.923L104.504 94.4166C104.145 92.4397 102.44 78.1527 102.271 75.7371C101.744 68.4452 100.504 56.2771 99.7459 51.0106C99.515 49.4238 99.2396 47.2147 99.136 46.1117C98.9258 43.8122 98.6298 43.1898 98.2715 44.2476L98.2626 44.2412Z" fill="#E6CDC1"/>
<path d="M89.9074 89.0948C89.8453 89.3012 89.8453 91.3943 89.9282 93.7421C90.014 96.248 90.014 97.9508 89.9074 97.8122C89.8009 97.6735 89.1702 96.2254 88.5189 94.5903C86.71 90.1043 86.2451 89.2754 85.6352 89.369C85.3421 89.3915 85.0461 89.5076 84.9632 89.5979C84.8773 89.6882 84.901 91.7362 85.0046 94.1292C85.1112 96.5447 85.1941 99.7408 85.2148 101.282C85.2148 104.133 85.3421 104.594 86.1208 104.594C86.4997 104.594 86.5205 104.365 86.4583 99.1893C86.4168 96.2222 86.4376 93.7389 86.5027 93.668C86.5649 93.6002 87.0711 94.8193 87.6396 96.3835C88.1873 97.925 88.9867 99.902 89.3864 100.799C89.7861 101.673 90.1857 102.708 90.2479 103.075C90.3338 103.443 90.544 103.859 90.7542 103.995C91.3848 104.407 91.743 103.604 91.743 101.856C91.743 97.967 91.3019 89.298 91.0887 89.0207C90.7512 88.6078 90.0792 88.653 89.9104 89.0884L89.9074 89.0948Z" fill="#E6CDC1"/>
<path d="M79.9712 89.7175C79.8646 89.9949 79.5715 91.372 79.3169 92.7523C79.0653 94.1552 78.6448 96.2031 78.3695 97.3513C78.0942 98.4768 77.8218 99.7217 77.7389 100.089C77.6767 100.434 77.5701 100.689 77.5287 100.641C77.4665 100.573 76.9602 98.4317 76.3711 95.8806C75.7819 93.3038 75.2135 91.0269 75.1069 90.7721C74.7901 90.1497 74.0973 90.1981 73.97 90.8399C73.9078 91.1398 73.4845 93.278 73.0226 95.6258C72.0545 100.547 71.4002 105.056 71.5897 105.607C71.6725 105.814 71.9064 105.975 72.1374 105.975C72.4542 105.975 72.6229 105.746 72.768 105.101C73.064 103.905 73.7776 99.741 74.0529 97.6931C74.1802 96.7482 74.346 95.6452 74.4111 95.2775L74.5384 94.5874L74.7279 95.2775C74.8345 95.6452 75.3378 97.7834 75.8648 99.9926C76.3711 102.202 76.8537 104.201 76.9188 104.433C77.0017 104.733 77.2119 104.824 77.5909 104.779C78.1178 104.711 78.1593 104.55 79.2962 99.5346L80.4538 94.3584L80.9186 97.5802C81.191 99.3508 81.5078 101.56 81.6351 102.502C81.9726 104.827 82.1414 105.285 82.772 105.285C83.6987 105.285 83.6987 104.85 82.5825 98.3833C82.3072 96.7965 81.9282 94.2649 81.718 92.7491C81.5285 91.2301 81.2769 89.8046 81.1703 89.5756C80.8979 89.0016 80.1814 89.0919 79.9712 89.7143V89.7175Z" fill="#E6CDC1"/>
<path d="M70.2874 89.9465C70.012 90.3142 69.2778 93.7198 68.4547 98.48L67.8448 101.908L67.4659 100.551C67.2557 99.8152 66.7494 97.377 66.329 95.1679C65.6569 91.4655 65.3816 90.5689 65.0234 90.5689C64.5378 90.5915 64.2447 91.4881 63.2114 95.858C62.5808 98.5735 61.9709 100.873 61.8644 100.989C61.6334 101.241 61.4854 100.576 61.2101 98.022C61.0206 96.1805 60.0317 90.8237 59.8422 90.6141C59.8008 90.5689 59.5699 90.6592 59.3152 90.7979C58.7675 91.1204 58.7261 90.5915 59.8215 99.2863C60.6002 105.359 60.7689 106.21 61.2959 106.21C61.9709 106.21 62.4742 104.762 63.7592 99.196C64.2418 97.1706 64.6858 95.4452 64.7687 95.3324C64.8546 95.2421 65.127 96.1838 65.3786 97.4028C65.9056 100.002 67.1876 105.108 67.3978 105.501C67.6524 105.94 68.3659 105.778 68.5554 105.224C68.9136 104.282 71.3562 90.34 71.2289 89.9949C71.0808 89.5595 70.5982 89.5595 70.2814 89.9497L70.2874 89.9465Z" fill="#E6CDC1"/>
<path d="M86.9789 110.374C86.6207 110.49 86.221 110.719 86.0937 110.88C85.7354 111.341 85.4838 126.177 85.8213 126.867C86.1174 127.464 86.5792 127.534 86.7687 127.006C86.8309 126.799 86.896 125.258 86.896 123.555C86.896 121.852 86.9582 120.472 87.0647 120.472C87.275 120.472 89.5695 123.6 90.8337 125.648C91.633 126.912 91.9705 127.257 92.3702 127.257C93.2555 127.257 93.1074 126.477 91.9084 124.725C91.2985 123.829 90.1616 122.381 89.3592 121.481L87.95 119.827L89.004 118.998C90.5406 117.801 91.3192 116.353 91.3192 114.741C91.2985 112.67 90.3718 110.967 88.9388 110.371C88.2431 110.071 87.8849 110.071 86.9819 110.371L86.9789 110.374Z" fill="#E6CDC1"/>
<path d="M89.0015 111.916C89.8009 112.79 90.1799 114.309 89.866 115.434C89.6351 116.241 87.5923 118.63 87.1304 118.63C87.0031 118.63 86.8995 118.24 86.8995 117.756C86.8995 117.273 86.8373 115.595 86.7515 114.076L86.6241 111.271H87.5094C88.2051 111.271 88.5427 111.409 89.0045 111.916H89.0015Z" fill="#E6CDC1"/>
<path d="M82.6001 111.777C82.2211 112.399 81.5905 115.802 81.0842 119.781C80.8948 121.368 80.6638 122.816 80.578 122.977C80.4092 123.345 80.2612 122.91 78.7039 116.676C77.5877 112.283 77.5463 112.19 77.0193 112.351C76.7647 112.419 76.5781 112.512 76.5781 112.557C76.5781 112.625 75.0001 121.159 74.4317 124.103C74.3044 124.771 74.18 125.277 74.1356 125.229C74.0942 125.206 73.4635 122.49 72.7056 119.227C71.3585 113.428 70.9174 112.048 70.4111 112.257C70.0322 112.396 70.2009 113.938 71.021 117.94C71.4414 119.894 72.0306 122.861 72.3681 124.542C73.0224 127.854 73.3984 128.866 74.0527 129.095C74.6419 129.302 74.8521 129.095 75.083 128.105C75.2725 127.393 76.2614 121.71 77.04 116.95C77.1673 116.214 77.2917 115.663 77.3361 115.686C77.3775 115.731 77.6529 117.066 77.946 118.63C79.0414 124.242 80.3678 128.521 81.0191 128.521C81.1434 128.521 81.3566 128.176 81.5017 127.763C82.008 126.454 83.6925 112.306 83.4379 111.593C83.2692 111.132 82.9317 111.203 82.5971 111.777H82.6001Z" fill="#E6CDC1"/>
<path d="M63.2555 112.283C62.6871 112.445 62.1601 112.677 62.0564 112.79C61.9291 112.928 61.7811 116.586 61.7189 120.933C61.5709 129.534 61.636 130.134 62.5598 130.134H63.0867L63.2141 123.142L64.5819 122.775C66.3701 122.291 67.0451 121.878 68.0961 120.636C70.0531 118.337 69.3811 114.425 66.7905 112.883C65.4434 112.077 64.5167 111.919 63.2525 112.283H63.2555Z" fill="#E6CDC1"/>
<path d="M65.698 114.076C66.6662 114.399 67.6136 115.641 67.8445 116.931C68.1613 118.772 66.3701 120.933 64.2444 121.301L63.3591 121.439L63.2111 117.872C63.1282 115.918 63.1282 114.193 63.1904 114.054C63.3799 113.709 64.644 113.731 65.6951 114.076H65.698Z" fill="#E6CDC1"/>
<path d="M101.59 151.916C101.149 152.032 100.918 152.674 101.19 152.974C101.318 153.113 101.821 153.274 102.306 153.364C102.916 153.455 103.192 153.593 103.147 153.825C103.106 153.987 103.023 154.79 102.958 155.573C102.851 156.815 102.896 157.07 103.189 157.183C103.757 157.412 103.926 157.021 104.074 155.18L104.222 153.454L104.918 153.548C105.738 153.664 105.717 153.616 105.38 155.596C105.169 156.905 105.169 157.115 105.504 157.46C105.841 157.828 105.883 157.828 106.158 157.437C106.306 157.208 106.496 156.286 106.579 155.412C106.727 153.893 106.768 153.803 107.188 153.916C107.419 153.983 107.843 154.054 108.094 154.054C108.556 154.054 108.556 154.122 108.515 155.941C108.473 157.712 108.494 157.85 108.894 157.85C109.294 157.85 109.314 157.666 109.379 156.057L109.442 154.264L110.22 154.425C110.641 154.516 111.02 154.609 111.04 154.632C111.082 154.654 111.02 155.528 110.934 156.563C110.809 157.944 110.827 158.566 111.02 158.84C111.168 159.047 111.336 159.163 111.419 159.069C111.671 158.815 111.946 157.205 111.946 155.941V154.745H113.989L113.82 155.709C113.527 157.412 113.589 158.882 113.948 158.882C114.41 158.882 114.685 157.918 114.685 156.212V154.741H116.349C117.634 154.741 118.033 154.674 118.137 154.396C118.199 154.212 118.495 154.051 118.791 154.051C119.38 154.051 119.508 153.706 118.981 153.5C118.791 153.432 117.885 153.361 116.938 153.361C114.347 153.338 110.602 152.993 106.413 152.326C102.665 151.752 102.265 151.703 101.593 151.913L101.59 151.916Z" fill="#E6CDC1"/>
<path d="M16.6667 156.241C16.4565 156.815 16.6874 157.115 17.5519 157.392C18.2447 157.598 18.372 157.737 18.3306 158.221C18.3099 158.518 18.224 159.669 18.1411 160.772C18.0167 162.542 18.0345 162.797 18.3513 162.936C18.5615 163.026 18.8161 162.981 18.9405 162.842C19.1299 162.636 19.4023 160.359 19.5089 158.244C19.5296 158.015 19.7843 157.966 20.5422 158.105C21.0899 158.173 21.6139 158.334 21.6998 158.402C21.7827 158.495 21.7205 159.185 21.531 159.921C21.1106 161.714 21.1106 163.004 21.5518 163.188C22.1202 163.417 22.2031 163.165 22.582 159.669L22.7301 158.495L23.6982 158.611C24.2459 158.656 24.7285 158.75 24.7522 158.795C24.7937 158.818 24.69 159.575 24.5005 160.472C24.3111 161.346 24.163 162.565 24.163 163.142C24.163 164.016 24.2252 164.2 24.5213 164.132C24.7966 164.087 24.9624 163.558 25.2585 161.994C25.8269 158.772 25.7855 158.889 26.4575 158.889C27.6595 158.889 27.701 158.979 27.2984 160.682C26.8572 162.475 26.7921 163.626 27.1296 163.833C27.4671 164.087 27.55 163.878 28.077 161.507C28.3494 160.288 28.604 159.23 28.6662 159.185C28.7106 159.117 29.1724 159.14 29.6994 159.23L30.6261 159.392L30.333 160.337C30.1643 160.865 29.9748 161.991 29.9126 162.842C29.806 164.178 29.8267 164.407 30.1228 164.407C30.5018 164.407 30.7741 163.533 31.1531 161.117C31.2804 160.22 31.5113 159.485 31.6801 159.414C31.8281 159.346 32.3758 159.392 32.8792 159.482L33.8058 159.688L33.2167 161.298C32.4795 163.229 32.3966 164.632 32.965 164.632C33.5335 164.632 33.8266 163.758 34.5638 160.191C34.6911 159.617 34.774 159.572 35.7421 159.572C36.5829 159.572 36.8168 159.482 37.027 159.088C37.4474 158.214 36.8997 157.963 34.1434 157.731C32.7755 157.615 29.6609 157.363 27.2184 157.157C24.7966 156.95 21.5133 156.583 19.956 156.35C16.5453 155.799 16.8206 155.821 16.6726 156.234L16.6667 156.241Z" fill="#E6CDC1"/>
<path d="M25.0666 177.449C25.256 181.567 25.8037 183.199 28.1604 186.744C29.9279 189.343 31.0855 190.63 31.6747 190.63C31.9471 190.63 32.1602 190.562 32.1602 190.491C32.1602 190.42 31.7191 189.801 31.1714 189.159C29.8036 187.524 27.3403 183.454 26.7512 181.867C26.2449 180.487 25.8659 178.12 25.8452 176.323C25.8452 175.014 25.6972 174.53 25.256 174.53C24.9807 174.53 24.9629 174.898 25.0666 177.452V177.449Z" fill="#EF8874"/>
<path d="M23.8675 178.852C23.6987 179.151 24.0777 182.97 24.3945 184.302C24.6669 185.453 25.1317 186.256 25.5314 186.256C25.783 186.256 25.7623 186.118 25.4485 185.498C25.0074 184.718 24.6906 183.128 24.4596 180.738C24.3116 179.129 24.1014 178.439 23.8705 178.852H23.8675Z" fill="#EF8874"/>
<path d="M23.9741 223.777C23.8468 224.19 23.7847 224.557 23.8261 224.606C23.8676 224.651 24.0156 224.377 24.1429 223.961C24.2702 223.548 24.3324 223.18 24.2909 223.132C24.2465 223.087 24.1015 223.361 23.9741 223.777Z" fill="black"/>
<path d="M44.5384 316.501C44.4318 315.949 43.7597 315.927 42.7501 316.456C41.255 317.191 38.8569 318.961 37.7407 320.135C36.8348 321.077 36.3936 321.354 34.5817 321.977C32.7491 322.622 32.2872 322.69 31.1089 322.551C28.6664 322.299 24.7731 320.619 23.0678 319.1C22.2033 318.316 21.0457 318.226 18.9407 318.755C16.6047 319.352 15.4678 319.79 15.3613 320.113C15.2547 320.458 15.678 320.435 18.4551 319.906C20.3085 319.539 21.022 319.494 21.6556 319.677C22.603 319.955 22.6444 320.023 22.8754 321.403C23.127 322.899 22.7273 324.808 21.549 327.682C20.8118 329.475 20.5809 330.304 20.5809 331.178C20.5809 334.284 22.9583 336.216 27.0439 336.422C31.0023 336.606 32.4116 336.122 33.3797 334.235C33.6521 333.684 34.1169 331.842 34.4959 329.865C35.612 323.747 36.8969 321.906 42.7472 318.087C44.0528 317.236 44.5798 316.752 44.5354 316.501H44.5384ZM31.8876 334.281C31.0675 335.177 29.8033 335.432 27.0469 335.271C23.953 335.087 21.6378 333.407 21.6378 331.384C21.6378 330.443 21.9339 329.569 22.2477 329.569C22.3306 329.569 22.5852 329.775 22.8161 330.052C23.9945 331.478 27.7841 332.791 30.7329 332.791C32.8794 332.791 33.0481 333.02 31.8905 334.287L31.8876 334.281ZM33.4241 329.404C33.1932 330.807 33.1281 330.901 32.5389 331.036C31.402 331.288 29.2348 331.175 27.5709 330.807C25.9515 330.439 23.0856 329.149 22.8132 328.669C22.7303 328.53 22.9198 327.701 23.2336 326.827L23.802 325.263L24.9596 326.137C25.611 326.644 26.7479 327.263 27.5058 327.518C29.2733 328.092 31.8846 328.346 32.7905 327.979C33.1695 327.84 33.5277 327.772 33.5899 327.84C33.6314 327.885 33.5692 328.598 33.4212 329.404H33.4241ZM34.5817 324.55C34.182 325.492 33.886 325.863 33.2761 326.16C31.7188 326.94 28.6249 326.527 25.6969 325.147L24.0744 324.389V322.757L24.0537 321.125L24.7909 321.632C25.1906 321.909 26.4133 322.528 27.5058 323.012C29.9483 324.07 32.3257 324.347 33.9689 323.725C34.5166 323.518 34.9992 323.357 35.0229 323.357C35.0643 323.357 34.8541 323.909 34.5817 324.554V324.55Z" fill="white"/>
<path d="M92.7468 324.783C92.5573 323.747 88.1785 324.921 85.8011 326.647L84.4747 327.614H81.3157C78.0946 327.592 76.4751 327.385 73.1059 326.511C71.442 326.098 71.0423 325.889 69.8018 324.808C68.3925 323.567 66.9389 321.703 66.4533 320.529C66.2017 319.906 65.6332 319.655 65.6332 320.184C65.6332 320.345 66.0122 321.219 66.4533 322.115C67.0425 323.241 67.8419 324.302 69.1682 325.682C71.6315 328.237 71.9039 328.949 71.5693 332.055C71.3591 334.032 71.3798 334.377 71.6966 335.093C72.3065 336.451 73.1059 336.773 76.3478 336.957C77.9258 337.051 79.5897 337.257 80.0515 337.396C81.6296 337.925 83.104 337.351 83.5451 336.061C83.6517 335.783 83.8412 334.335 83.9655 332.865C84.0928 331.394 84.3238 329.897 84.4718 329.552C85.1024 328.266 87.5449 326.653 89.8809 326.011C90.5973 325.805 91.5655 325.528 92.0066 325.415C92.5958 325.231 92.7852 325.07 92.7438 324.792L92.7468 324.783ZM82.5799 335.48C82.201 336.47 81.5911 336.606 79.4002 336.125C78.1153 335.848 77.1886 335.78 76.1376 335.896C74.6217 336.057 73.7158 335.851 72.9579 335.138C72.5789 334.793 72.4101 333.481 72.7476 333.481C72.8305 333.481 73.695 333.758 74.6839 334.077C76.7475 334.745 79.6726 334.996 81.4845 334.674C82.1595 334.558 82.728 334.535 82.7694 334.606C82.8316 334.674 82.728 335.09 82.5799 335.48ZM83.1069 332.329C83.1069 333.135 82.8109 333.226 79.9065 333.41C77.612 333.548 73.1266 332.971 72.8749 332.536C72.8128 332.419 72.8335 331.845 72.9164 331.271C73.023 330.42 73.1059 330.259 73.402 330.397C73.5914 330.491 74.4115 330.765 75.2109 331.02C76.2412 331.32 77.6534 331.504 79.9065 331.571L83.1069 331.71V332.332V332.329ZM83.4444 329.501C83.1928 330.33 83.1069 330.375 82.0352 330.559C80.6674 330.788 76.2234 330.375 74.3079 329.823C72.9815 329.456 72.9608 329.433 72.5818 328.327L72.1822 327.224L72.7506 327.363C73.0674 327.43 74.2664 327.708 75.4241 327.959C77.9288 328.511 82.2868 328.972 83.1276 328.765L83.7168 328.627L83.4444 329.501Z" fill="white"/>
<path d="M17.2143 339.595C15.509 340.102 14.5823 340.837 14.1619 342.079C13.025 345.323 15.2366 347.368 20.9624 348.429C23.5945 348.935 26.2028 348.98 31.2773 348.658C34.9396 348.429 36.0972 348.013 36.941 346.61C38.0779 344.746 37.2164 342.882 34.5607 341.411C31.8043 339.892 20.3081 338.696 17.2143 339.595Z" fill="white"/>
<path d="M73.1058 340.837C70.0948 341.365 66.3911 343.252 65.4851 344.723C64.8752 345.713 64.8308 347.345 65.3993 348.267C65.6095 348.635 66.1572 349.186 66.6013 349.531C67.4865 350.176 67.9484 350.244 74.894 350.634C77.6948 350.795 82.8937 350.45 84.1993 350.034C85.9046 349.505 87.083 347.664 87.1037 345.593C87.1037 343.339 86.1356 342.559 82.0943 341.43C79.631 340.762 75.2523 340.462 73.1058 340.83V340.837Z" fill="white"/>
</svg>
