<svg width="201" height="533" viewBox="0 0 201 533" fill="none" xmlns="http://www.w3.org/2000/svg">
<g clip-path="url(#clip0_102_497)">
<path d="M98.1825 0.254603C94.5634 0.728615 87.154 4.03174 83.2835 6.9307C77.5367 11.2218 72.0839 19.4097 66.722 31.6492C57.7837 52.2363 55.95 55.295 45.8623 66.6164C39.9444 73.2526 29.3008 82.3137 22.4046 86.485C16.1018 90.337 16.4867 90.0227 17.3367 90.8958C18.8656 92.4875 28.1514 99.1985 33.0482 102.262C38.624 105.76 40.3293 106.633 46.6749 109.258C52.8922 111.842 56.2975 112.715 61.5739 113.07C76.521 114.103 89.8002 109.971 107.982 98.6447C117.048 93.0014 129.697 79.2102 135.272 68.9565C139.528 61.048 141.19 44.9964 138.891 34.1091C135.737 19.0854 127.863 8.12322 116.583 3.07373C110.665 0.40928 104.576 -0.503818 98.1932 0.249613L98.1825 0.254603Z" fill="#FFFEFC"/>
<path d="M112.782 53.3836C114.696 64.9894 114.781 65.7828 113.889 66.1021C113.461 66.2618 98.7758 67.7337 98.0916 67.6938C96.9422 67.614 96.8994 67.5341 96.6428 64.8348C96.6321 64.7649 96.6321 64.695 96.6214 64.6152C96.4611 62.8688 96.3434 58.2435 96.3007 53.9873L96.2579 45.8792L95.889 45.1108L94.9375 43.1349C93.3604 39.7171 92.4249 35.3462 92.4249 31.2148C92.4249 28.5902 90.9762 27.5175 91.9972 24.6584C93.5315 20.4871 97.0224 16.71 100.599 15.3977C102.427 14.6842 106.132 14.9187 107.965 15.7969C110.307 16.9495 112.306 18.8156 112.563 20.0879C112.691 20.6418 113.327 22.473 113.969 24.0996C114.99 26.7241 115.161 27.6372 115.161 31.8484C115.161 37.1324 114.439 40.4306 112.563 43.6489L111.734 45.0759L111.451 45.5549L111.756 47.3811L112.771 53.3836H112.782Z" fill="#FBC4AF"/>
<path d="M89.8804 448.102C89.8804 448.581 89.4955 449.055 88.9449 449.254C87.8383 449.664 87.0952 450.342 84.3634 454.109C83.6364 455.112 82.765 456.34 81.7065 457.837C80.9955 458.825 80.1455 459.992 79.2207 461.234C76.8792 464.393 74.0886 468.045 72.0412 470.555C68.1226 475.365 66.9733 477.071 67.1443 477.75C67.3154 478.344 67.0588 478.823 66.2088 479.457C65.5726 479.896 64.8456 480.29 64.5462 480.29C64.2896 480.29 52.6677 470.949 51.9887 467.691C51.6038 465.865 49.69 463.16 51.2243 461.175C51.946 460.222 54.4158 457.358 56.6717 454.858C58.4786 452.852 61.05 449.928 63.0066 447.663C63.4984 447.099 63.9421 446.58 64.3324 446.116C65.9415 444.22 67.6094 442.324 68.438 441.401C68.6144 441.201 68.7588 441.047 68.8443 440.947C69.6943 440.074 70.2503 439.954 72.9339 439.874C79.365 439.674 85.4059 441.106 87.6244 443.372C88.731 444.484 89.8804 446.909 89.8804 448.102Z" fill="#FBC4AF"/>
<path d="M143.949 498.372C143.949 499.724 141.393 502.264 138.881 503.377C136.368 504.529 131.092 504.649 126.409 503.616C121.683 502.584 121.384 502.264 120.919 497.973C120.266 492.045 117.519 478.219 115.145 468.644C114.878 467.566 114.616 466.544 114.359 465.591C113.819 463.5 113.482 461.993 113.322 460.835C113.22 460.077 113.199 459.473 113.247 458.954C113.376 457.722 136.491 453.431 135.427 454.104C135.016 454.389 134.813 454.559 134.968 455.791C135.112 456.979 135.588 459.164 136.534 463.405C136.545 463.455 136.555 463.515 136.566 463.57C137.582 468.36 138.924 474.687 139.512 477.71C140.105 480.769 141.34 486.452 142.281 490.309C143.173 494.201 143.943 497.818 143.943 498.377L143.949 498.372Z" fill="#FBC4AF"/>
<path d="M111.772 47.3864C111.125 48.1049 110.446 48.7635 109.89 49.1726C108.228 50.4051 98.7332 60.6986 97.3754 62.7643C97.1027 63.1435 96.798 63.9169 96.6323 64.6105C96.4719 62.8641 96.3543 58.2388 96.3115 53.9826L96.2688 45.8745L95.8999 45.1061C97.8405 47.2816 100.262 48.6487 102.743 48.9731C105.849 49.3722 107.982 48.5739 110.831 45.9144C111.162 45.6051 111.467 45.3207 111.75 45.0762L111.467 45.5552L111.772 47.3814V47.3864Z" fill="#F4A87F"/>
<path d="M84.358 454.11C83.631 455.112 82.7596 456.34 81.7011 457.837C80.9901 458.825 80.1401 459.992 79.2153 461.235C75.9222 458.346 67.1657 451.006 63.0012 447.658C63.493 447.094 63.9368 446.575 64.327 446.111C65.9361 444.215 67.604 442.319 68.4326 441.396C72.271 444.445 76.8096 448.027 79.6109 450.243C81.9043 452.054 83.3958 453.251 84.3527 454.105L84.358 454.11Z" fill="#F4A87F"/>
<path d="M136.577 463.565C133.93 464.223 130.413 465.067 125.73 466.184C120.635 467.402 117.331 468.18 115.145 468.644C114.878 467.566 114.616 466.544 114.359 465.591C113.819 463.5 113.482 461.993 113.322 460.836C118.101 459.773 124.094 458.386 128.622 457.283C130.883 456.734 133.07 456.22 134.973 455.791C135.117 456.979 135.593 459.164 136.539 463.405C136.55 463.455 136.561 463.515 136.571 463.57L136.577 463.565Z" fill="#F4A87F"/>
<path d="M103.416 4.98472C99.6686 6.09741 97.4554 7.52943 92.7724 11.7007C88.0894 15.912 85.7479 18.8908 82.0432 25.3723C76.9326 34.3136 74.9332 43.2151 77.3175 46.5931C78.1247 47.7856 81.53 48.7386 83.2781 48.2995C85.1492 47.7856 88.346 44.6421 91.7086 39.9968C93.3658 37.6916 96.3488 34.1141 98.3482 32.0084C103.502 26.6446 105.202 23.7057 107.164 17.0296C107.292 16.7103 108.906 17.9028 111.333 19.9735C114.953 23.1519 115.466 23.7856 116.658 26.5698C117.85 29.1943 118.406 29.9078 120.619 31.6542C122.832 33.3656 123.431 33.68 124.709 33.5602C131.477 33.0014 127.307 19.3748 117.257 9.20094C113.723 5.66331 113.167 5.30406 110.318 4.98971C109.04 4.83005 107.506 4.63046 106.912 4.47578C106.319 4.35603 104.742 4.59553 103.421 4.98971L103.416 4.98472Z" fill="#FFFEFC"/>
<path d="M110.312 198.192C100.353 198.826 84.5985 201.331 76.3819 203.556C71.4851 204.863 58.0295 209.673 52.582 212.058C47.5997 214.244 43.045 216.669 40.3239 218.575C39.1318 219.453 38.362 219.807 38.239 219.488C38.1107 219.129 37.8969 219.129 37.5173 219.488C37.1324 219.847 37.4318 221.354 38.9661 226.643C40.0299 230.3 41.6497 235.465 42.5852 238.089C44.205 242.779 46.2899 250.329 60.0823 301.866C68.3845 332.742 71.9181 346.294 75.8794 362.071C77.4939 368.627 80.092 378.562 81.5835 384.085C83.1177 389.648 84.3526 394.458 84.3526 394.733C84.3526 395.526 73.5379 409.198 66.0911 417.82C54.3408 431.411 54.8914 430.693 55.1908 431.766C55.4902 432.918 64.5568 442.693 69.2826 446.984C72.6451 450.043 82.225 457.632 82.6526 457.592C82.7809 457.592 84.6146 455.526 86.6995 452.982C92.8312 445.592 97.2148 440.503 97.3431 440.622C97.5997 440.902 101.048 452.388 102.454 457.592C104.287 464.428 104.753 465.141 107.265 465.181C111.734 465.181 137.068 459.263 142.388 456.958C144.173 456.165 145.665 455.406 145.665 455.292C145.665 455.177 145.109 452.348 144.43 449.09C143.703 445.792 142.596 439.629 141.874 435.378C141.147 431.127 139.533 422.705 138.298 416.702C132.594 389.638 133.022 392.223 133.957 390.751C134.385 390.078 137.534 385.627 140.982 380.937C149.54 369.216 156.351 358.962 160.948 350.854C164.183 345.171 165.038 343.265 166.102 339.408C167.679 333.645 167.722 331.3 166.316 318.941C165.252 309.445 163.974 296.168 163.124 285.161C162.868 281.783 162.274 274.788 161.847 269.663C161.376 264.539 160.826 256.391 160.569 251.581C160.013 240.574 159.42 232.665 158.607 226.548C158.27 223.924 158.014 221.658 158.014 221.504C158.014 221.384 158.441 221.184 158.992 221.104C159.671 221.025 159.97 220.665 160.056 219.872C160.227 218.68 160.82 219.353 146.942 206.126C143.066 202.428 139.918 200.403 136.042 199.05C133.273 198.097 132.551 198.018 124.377 197.898C119.566 197.858 113.263 197.978 110.328 198.177L110.312 198.192Z" fill="#FFFEFC"/>
<path d="M53.261 458.635C52.9189 458.954 51.1761 460.182 49.428 461.414C45.0444 464.473 41.0403 467.651 40.6982 468.33C40.5699 468.649 42.2752 471.428 44.8733 475.086C47.3004 478.504 51.4701 484.666 54.111 488.837C59.7723 497.738 68.8817 510.572 71.2285 513.077C72.1641 514.069 73.2707 514.863 73.7411 514.863C75.3556 514.863 75.6122 513.351 75.0615 506.595C74.7622 503.177 74.3399 497.06 74.126 493.003C73.8694 488.952 73.4899 483.588 73.276 481.083C73.0622 478.578 72.7682 474.447 72.5917 471.942C72.4207 469.437 72.0411 466.898 71.7417 466.339C70.9773 464.947 68.4647 463.839 66.7594 464.153C66.0377 464.313 64.8028 464.947 64.0757 465.625L62.7553 466.818L61.1355 464.712C58.4091 461.175 55.3459 458.036 54.6189 458.076C54.1912 458.076 53.5978 458.355 53.2557 458.63L53.261 458.635Z" fill="#050606"/>
<path d="M133.519 489.71C131.648 490.149 126.238 492.335 125.516 492.889C124.923 493.407 124.837 493.921 125.051 495.433L125.308 497.299L123.565 496.86C122.073 496.461 121.688 496.501 121.052 497.1C120.416 497.733 120.331 498.886 120.331 509.419C120.331 523.365 120.373 523.525 123.864 525.116C126.248 526.189 126.42 526.189 134.593 526.189C142.767 526.189 142.896 526.189 145.579 525.037C147.028 524.398 148.813 523.285 149.498 522.532C151.46 520.466 151.412 518.595 149.241 511.365C146.306 501.471 145.536 499.126 144.302 496.027C143.024 492.928 142.981 492.928 141.661 493.128C140.934 493.248 140.041 493.447 139.656 493.602C139.148 493.762 138.806 493.482 138.421 492.609C137.186 489.825 136.037 489.151 133.524 489.71H133.519Z" fill="#050606"/>
<path d="M112.232 55.7288C110.147 56.0431 105.549 56.6419 102.016 57.1209C98.5247 57.5949 94.6917 58.1936 93.5851 58.513C92.4357 58.7924 91.2864 58.987 91.0298 58.9471C90.6449 58.9071 90.4738 60.4988 90.3081 64.4306L90.0942 69.994L81.5782 70.2335C66.6793 70.7076 60.8469 71.6256 57.3079 74.1254C54.7953 75.8768 50.3262 80.9612 45.0872 87.8768C43.0878 90.5013 37.7633 97.4569 33.2514 103.375C28.7395 109.257 23.5861 116.168 21.8433 118.673C20.1005 121.177 16.1392 126.821 13.0279 131.192C4.683 142.992 3.49086 144.783 1.66257 148.281L0 151.459L0.171068 156.624C0.29937 160.795 0.892763 164.532 3.19149 176.293C7.11003 196.121 10.4298 208.121 13.5358 213.685C16.3905 218.849 21.7524 223.699 29.0763 227.751C34.2725 230.649 39.2923 233.114 39.9338 233.114C40.2331 233.114 43.5102 230.849 47.2149 228.03C54.1966 222.786 57.4309 220.56 57.6447 220.84C57.7302 220.92 58.5802 222.312 59.5585 223.859C60.5796 225.45 61.729 226.917 62.1139 227.117C62.5415 227.316 67.7752 227.516 73.7358 227.556C79.6537 227.556 88.6776 227.755 93.7027 227.915C98.8561 228.115 109.927 228.115 119.037 227.915C127.932 227.755 137.09 227.601 139.346 227.556H143.435L144.841 226.164C145.649 225.41 146.499 224.772 146.798 224.772C147.055 224.772 148.883 226.598 150.845 228.823C155.357 234.067 165.15 243.448 166.129 243.448C166.556 243.448 167.578 242.654 168.385 241.736C169.235 240.783 174.174 236.253 179.371 231.682C191.506 221.074 193.719 219.009 194.189 217.816C194.403 217.262 195.082 212.847 195.681 207.962C196.237 203.112 197.13 196.361 197.595 192.983C198.616 185.513 201 156.544 201 151.574C201 146.604 200.278 143.032 198.701 140.407C197.974 139.175 195.168 135.083 192.441 131.306C189.715 127.529 185.716 121.572 183.503 118.074C178.649 110.325 164.685 89.0643 161.751 84.9329C154.598 75.0385 149.107 69.1957 145.868 68.2028C143.612 67.4893 134.925 67.5641 128.836 68.3225C126.281 68.6818 124.067 68.8764 123.896 68.7566C123.725 68.6768 123.469 67.5641 123.303 66.3317C122.961 63.6273 121.555 57.7495 120.876 56.1579C120.448 55.1649 120.24 55.0851 118.235 55.125C117.043 55.1649 114.359 55.4394 112.232 55.7188V55.7288Z" fill="#FAB018"/>
<path d="M143.013 80.1682C142.12 80.6422 141.992 82.5133 142.757 83.2268C143.649 84.0601 145.569 83.7806 146.333 82.7079C146.969 81.7948 146.969 81.6351 146.333 80.722C145.606 79.6892 144.291 79.4497 143.013 80.1682Z" fill="#FFFEFC"/>
<path d="M66.9734 80.6073C65.7385 81.7599 66.7596 84.105 68.5077 84.105C69.9992 84.105 70.7209 83.4664 70.7209 82.1192C70.7209 80.772 69.9992 80.1333 68.5932 80.1333C67.9998 80.1333 67.2728 80.3329 66.9734 80.6073Z" fill="#FFFEFC"/>
<path d="M116.107 81.0414C115.637 81.3607 115.38 81.9545 115.509 82.5532C115.594 83.3067 115.936 83.5462 117 83.626C118.192 83.7458 118.406 83.626 118.663 82.673C118.877 81.8797 118.748 81.4406 118.192 81.0464C117.214 80.4077 117.043 80.4077 116.107 81.0464V81.0414Z" fill="#FFFEFC"/>
<path d="M91.8371 81.9593C91.0245 82.6728 90.9443 84.5439 91.666 85.2175C92.5588 86.0508 94.478 85.7714 95.1997 84.7435C96.6912 82.6379 93.7509 80.173 91.8371 81.9643V81.9593Z" fill="#FFFEFC"/>
<path d="M53.7744 94.6728C52.4967 95.5061 52.5395 97.018 53.9027 97.8512C54.881 98.445 55.052 98.445 56.0303 97.8512C57.3935 97.018 57.4363 95.5061 56.1586 94.6728C55.6508 94.3136 55.0948 94.0342 54.9665 94.0342C54.8382 94.0342 54.2822 94.3136 53.7744 94.6728Z" fill="#FFFEFC"/>
<path d="M160.425 95.5461C159.997 95.9453 159.703 96.6588 159.703 97.0929C159.703 98.006 160.981 99.1985 161.959 99.1985C162.852 99.1985 164.386 97.8064 164.386 97.0131C164.386 96.1798 162.852 94.8276 161.916 94.8276C161.451 94.8276 160.81 95.147 160.425 95.5411V95.5461Z" fill="#FFFEFC"/>
<path d="M136.155 96.1051C134.626 97.4173 134.412 98.4901 135.476 99.7225C137.09 101.668 140.244 100.556 140.244 98.056C140.244 95.7508 137.903 94.6381 136.155 96.1101V96.1051Z" fill="#FFFEFC"/>
<path d="M78.6382 97.6517C76.5961 99.1237 77.5316 101.983 80.2954 102.621C81.5731 102.901 83.2731 101.983 83.7008 100.79C84.1284 99.5977 83.1929 97.8114 81.9526 97.2526C80.4611 96.6139 79.9105 96.6937 78.6328 97.6517H78.6382Z" fill="#FFFEFC"/>
<path d="M104.566 97.8114C103.288 99.0039 103.245 99.957 104.394 101.349C106.1 103.375 109.462 102.342 109.462 99.7574C109.462 98.3653 109.12 97.8913 107.885 97.2576C106.479 96.579 105.715 96.6987 104.566 97.8114Z" fill="#FFFEFC"/>
<path d="M165.022 112.715C164.172 114.262 164.215 114.941 165.279 115.934C165.915 116.527 166.471 116.687 167.278 116.488C169.491 116.014 170.213 113.783 168.641 112.316C167.364 111.124 165.829 111.283 165.022 112.715Z" fill="#FFFEFC"/>
<path d="M43.6812 113.269C42.7885 113.863 42.6174 115.934 43.4674 116.847C44.2746 117.8 46.2793 117.64 47.0438 116.607C47.9847 115.375 47.8938 114.821 46.6589 113.708C45.5095 112.596 44.8252 112.476 43.6812 113.269Z" fill="#FFFEFC"/>
<path d="M144.457 115.614C143.478 116.687 143.436 118.079 144.371 119.192C146.67 121.896 150.503 118.793 148.37 115.973C147.648 114.98 145.221 114.741 144.451 115.614H144.457Z" fill="#FFFEFC"/>
<path d="M91.6232 116.847C91.3239 117.166 91.1528 117.92 91.2383 118.558C91.3239 119.471 91.5805 119.711 92.7298 119.791C93.8792 119.91 94.2213 119.751 94.6437 118.917C95.0286 118.039 94.9858 117.765 94.3443 117.086C93.4515 116.133 92.3022 116.053 91.6179 116.847H91.6232Z" fill="#FFFEFC"/>
<path d="M64.6747 119.511C63.6537 120.065 63.6537 122.33 64.6747 123.169C66.332 124.561 68.5933 123.568 68.5933 121.502C68.5933 119.556 66.5084 118.523 64.6747 119.516V119.511Z" fill="#FFFEFC"/>
<path d="M22.7789 122.011C21.8434 124.276 24.2277 126.342 26.0132 124.835C26.9487 124.042 27.1198 122.65 26.3553 121.936C25.6336 121.263 23.0783 121.343 22.7789 122.016V122.011Z" fill="#FFFEFC"/>
<path d="M55.0521 130.838C53.01 132.145 54.71 135.488 57.0942 134.77C59.0936 134.176 59.2219 131.511 57.3081 130.678C55.9449 130.084 56.2015 130.084 55.0521 130.838Z" fill="#FFFEFC"/>
<path d="M182.097 131.232C181.284 131.945 181.204 133.816 181.926 134.49C182.647 135.164 184.652 135.084 185.417 134.33C186.309 133.497 186.267 132.065 185.331 131.272C184.353 130.438 182.947 130.399 182.097 131.232Z" fill="#FFFEFC"/>
<path d="M79.2795 132.424C78.7663 133.018 78.3867 133.817 78.3867 134.211C78.3867 135.284 79.921 136.556 81.1559 136.556C81.7493 136.556 82.6046 136.197 83.0697 135.763C84.7269 134.216 83.5402 131.392 81.1987 131.392C80.5625 131.392 79.7927 131.831 79.2848 132.424H79.2795Z" fill="#FFFEFC"/>
<path d="M158.211 133.178C156.72 134.53 156.763 136.595 158.254 137.708C158.89 138.187 159.746 138.541 160.211 138.541C161.189 138.541 163.531 136.476 163.531 135.603C163.531 134.49 162.595 133.058 161.531 132.624C159.997 131.985 159.361 132.065 158.211 133.178Z" fill="#FFFEFC"/>
<path d="M134.155 133.776C132.322 135.488 133.562 138.147 136.155 138.147C137.732 138.147 138.838 137.075 138.838 135.483C138.838 133.218 135.903 132.145 134.155 133.771V133.776Z" fill="#FFFEFC"/>
<path d="M34.9569 139.734C33.2516 141.326 34.2727 143.706 36.6623 143.706C37.8972 143.706 39.2176 142.514 39.2176 141.401C39.2176 140.687 37.261 138.936 36.4484 138.936C36.1063 138.936 35.4274 139.295 34.9569 139.729V139.734Z" fill="#FFFEFC"/>
<path d="M12.8997 145.377C11.622 146.57 12.8141 148.236 14.8135 148.002C16.9412 147.762 16.5188 144.903 14.3484 144.903C13.8352 144.903 13.199 145.103 12.8997 145.377Z" fill="#FFFEFC"/>
<path d="M66.0805 149.035C65.7811 149.354 65.6101 150.107 65.6956 150.746C65.7811 151.619 66.0805 151.899 67.016 151.979C69.1437 152.218 70.2075 150.467 68.7588 149.12C67.9516 148.326 66.7167 148.326 66.0805 149.04V149.035Z" fill="#FFFEFC"/>
<path d="M195.724 150.187C194.104 151.3 195.168 154.039 197.172 154.039C198.108 154.039 199.3 152.767 199.3 151.774C199.3 150.861 198.065 149.668 197.13 149.668C196.745 149.668 196.151 149.908 195.729 150.187H195.724Z" fill="#FFFEFC"/>
<path d="M170.09 151.1C169.753 152.333 170.347 152.966 171.624 152.767C173.88 152.487 173.624 150.062 171.368 150.062C170.646 150.062 170.304 150.342 170.09 151.095V151.1Z" fill="#FFFEFC"/>
<path d="M139.052 152.652C138.458 153.171 137.988 154.084 137.988 154.638C137.988 155.192 138.458 156.11 139.052 156.624C141.137 158.61 144.376 157.377 144.376 154.638C144.376 151.899 141.142 150.666 139.052 152.652Z" fill="#FFFEFC"/>
<path d="M51.2191 154.917C50.4118 155.676 50.5829 157.776 51.5184 158.575C52.625 159.488 54.0738 159.253 55.0948 157.981C55.8165 157.028 55.8593 156.788 55.3514 155.795C54.8863 154.882 54.4159 154.603 53.2665 154.523C52.4593 154.443 51.5184 154.643 51.2244 154.922L51.2191 154.917Z" fill="#FFFEFC"/>
<path d="M28.7823 161.748C28.3118 162.068 28.0178 162.781 28.0178 163.575C28.0178 165.087 28.9961 165.96 30.7442 165.96C32.2357 165.96 33.2568 165.007 33.2568 163.615C33.2568 161.549 30.6587 160.476 28.7876 161.743L28.7823 161.748Z" fill="#FFFEFC"/>
<path d="M183.883 166.004C182.776 166.598 182.904 168.589 184.011 169.183C185.46 169.896 186.946 169.063 186.946 167.591C186.946 165.92 185.412 165.126 183.883 165.999V166.004Z" fill="#FFFEFC"/>
<path d="M147.611 167.396C146.798 168.11 146.718 169.981 147.44 170.655C148.161 171.328 150.166 171.248 150.931 170.495C151.315 170.181 151.615 169.462 151.615 168.948C151.615 168.434 151.315 167.716 150.931 167.401C150.594 167.042 149.824 166.763 149.273 166.763C148.723 166.763 147.953 167.042 147.616 167.401L147.611 167.396Z" fill="#FFFEFC"/>
<path d="M121.213 167.791C119.507 169.337 121.213 171.802 123.811 171.568C124.661 171.488 125.644 170.335 125.644 169.382C125.644 167.476 122.667 166.403 121.218 167.791H121.213Z" fill="#FFFEFC"/>
<path d="M159.062 171.608C157.912 172.202 157.57 172.721 157.57 173.953C157.57 176.019 160.505 177.091 161.954 175.58C162.804 174.706 162.889 172.601 162.168 172.002C161.189 171.328 159.954 171.129 159.062 171.603V171.608Z" fill="#FFFEFC"/>
<path d="M4.30351 172.721C3.28244 173.674 3.23968 174.232 4.13244 175.425C4.93967 176.498 6.85884 176.578 7.83714 175.585C8.7299 174.671 8.7299 173.958 7.87991 172.805C7.07268 171.693 5.45287 171.653 4.30351 172.726V172.721Z" fill="#FFFEFC"/>
<path d="M54.9666 172.721C53.7744 173.833 53.86 175.345 55.1804 176.138C57.1423 177.331 59.6923 175.46 58.8423 173.434C58.1581 171.768 56.3298 171.448 54.9666 172.721Z" fill="#FFFEFC"/>
<path d="M106.485 179.357C104.614 179.995 104.143 182.974 105.72 184.007C106.998 184.84 107.848 184.8 109.211 183.807C109.938 183.294 110.318 182.615 110.318 181.862C110.318 181.108 109.933 180.429 109.211 179.916C108.062 179.082 107.634 178.963 106.485 179.357Z" fill="#FFFEFC"/>
<path d="M29.8462 181.462C28.0981 183.094 29.2903 185.833 31.7173 185.833C32.5299 185.833 33.4226 185.514 33.8022 185.12C35.3792 183.493 34.0588 180.669 31.7601 180.669C31.1667 180.669 30.3113 181.028 29.8462 181.462Z" fill="#FFFEFC"/>
<path d="M134.625 181.702C133.476 183.094 133.519 183.648 134.839 184.88C135.647 185.673 136.16 185.833 137.052 185.633C139.266 185.159 139.987 182.929 138.416 181.462C137.224 180.349 135.689 180.469 134.625 181.702Z" fill="#FFFEFC"/>
<path d="M170.432 181.303C169.411 181.976 169.155 183.768 170.005 184.561C171.582 186.033 174.816 184.087 173.752 182.296C173.367 181.617 172.095 180.664 171.539 180.664C171.453 180.664 170.94 180.943 170.432 181.303Z" fill="#FFFEFC"/>
<path d="M79.8731 184.401C79.0658 185.514 79.4882 186.706 80.9797 187.42C82.8935 188.413 84.9784 185.394 83.4067 183.922C82.5139 183.089 80.5948 183.368 79.8731 184.396V184.401Z" fill="#FFFEFC"/>
<path d="M192.954 190.364C192.062 191.396 192.527 193.108 193.89 193.542C194.868 193.861 195.21 193.781 195.975 193.068C196.739 192.354 196.825 192.035 196.483 191.122C196.183 190.289 195.761 189.969 194.777 189.89C194.013 189.81 193.248 190.009 192.949 190.364H192.954Z" fill="#FFFEFC"/>
<path d="M49.7702 193.582C49.3425 194.455 49.3853 194.735 50.1979 195.448C50.9623 196.207 51.2617 196.242 52.1972 195.847C52.9617 195.488 53.2611 195.094 53.2611 194.221C53.2611 192.35 50.6202 191.876 49.7702 193.582Z" fill="#FFFEFC"/>
<path d="M92.5161 196.007C91.495 196.68 91.2384 198.472 92.0884 199.265C93.3661 200.458 95.8359 199.345 95.8359 197.554C95.8359 196.76 94.4727 195.368 93.7082 195.368C93.5799 195.368 93.0239 195.648 92.5161 196.007Z" fill="#FFFEFC"/>
<path d="M148.846 196.162C147.825 197.234 147.91 198.941 149.059 199.819C150.931 201.211 153.315 200.218 153.315 197.993C153.315 195.648 150.503 194.455 148.846 196.167V196.162Z" fill="#FFFEFC"/>
<path d="M118.828 196.561C117.722 197.594 117.765 198.587 118.871 199.899C120.063 201.291 121.977 201.211 123.212 199.699C125.211 197.155 121.25 194.296 118.828 196.561Z" fill="#FFFEFC"/>
<path d="M66.7167 197.115C64.712 198.946 65.7384 201.326 68.4594 201.326C71.7365 201.326 72.1641 197.075 68.9299 196.356C68.0371 196.157 67.5239 196.316 66.7167 197.11V197.115Z" fill="#FFFEFC"/>
<path d="M12.5576 197.674C12.007 198.033 11.1089 199.5 11.1089 200.138C11.1089 200.932 13.1938 202.524 14.2148 202.524C16.5136 202.524 17.5774 199.225 15.7063 197.993C14.6853 197.314 13.3221 197.2 12.5523 197.674H12.5576Z" fill="#FFFEFC"/>
<path d="M178.649 199.899C177.243 201.885 179.499 204.035 181.627 202.763C182.904 201.97 183.032 200.538 181.926 199.625C180.819 198.672 179.413 198.791 178.649 199.904V199.899Z" fill="#FFFEFC"/>
<path d="M157.447 202.843C156.512 203.796 156.554 205.028 157.49 205.822C159.11 207.214 161.831 206.181 161.831 204.23C161.831 202.279 158.805 201.406 157.447 202.838V202.843Z" fill="#FFFEFC"/>
<path d="M33.2515 206.101C32.1449 207.134 32.1877 208.127 33.2943 209.439C33.8449 210.117 34.5719 210.472 35.3792 210.472C36.6141 210.472 38.3568 208.96 38.3568 207.887C38.3568 207.608 37.9719 206.934 37.4641 206.34C36.4002 205.068 34.4864 204.948 33.2515 206.101Z" fill="#FFFEFC"/>
<path d="M108.441 211.505C107.591 212.258 107.591 213.012 108.356 213.65C109.334 214.404 110.954 213.97 111.082 212.937C111.382 211.19 109.719 210.272 108.441 211.51V211.505Z" fill="#FFFEFC"/>
<path d="M80.0867 212.058C79.0656 213.011 79.0229 213.57 79.9156 214.763C81.1505 216.429 84.342 215.436 84.342 213.371C84.342 212.577 82.7222 211.265 81.7867 211.265C81.3163 211.265 80.5518 211.624 80.0814 212.058H80.0867Z" fill="#FFFEFC"/>
<path d="M130.707 212.498C129.985 213.805 130.835 215.237 132.37 215.237C133.776 215.237 134.583 214.598 134.583 213.451C134.583 212.303 133.776 211.665 132.37 211.665C131.605 211.665 131.049 211.944 130.707 212.498Z" fill="#FFFEFC"/>
<path d="M148.589 214.698C146.59 216.245 147.91 219.548 150.594 219.548C151.994 219.548 153.32 218.196 153.32 216.768C153.32 214.383 150.594 213.191 148.594 214.703L148.589 214.698Z" fill="#FFFEFC"/>
<path d="M177.157 217.183C176.473 218.415 176.65 219.528 177.665 220.161C178.943 220.995 179.542 220.955 180.563 220.002C181.584 219.049 181.669 217.896 180.734 217.063C179.798 216.15 177.713 216.27 177.157 217.183Z" fill="#FFFEFC"/>
<path d="M60.2428 217.447C58.5375 218.52 59.3073 220.386 61.4349 220.386C63.5626 220.386 64.3324 218.52 62.6271 217.447C62.1192 217.088 61.5632 216.809 61.4349 216.809C61.3066 216.809 60.7507 217.088 60.2428 217.447Z" fill="#FFFEFC"/>
<path d="M25.4626 221.519C24.5271 222.472 24.5698 223.704 25.5054 224.498C27.0824 225.81 29.4239 224.932 29.4239 223.026C29.4239 221.12 26.783 220.127 25.4626 221.514V221.519Z" fill="#FFFEFC"/>
<path d="M132.621 66.5765C130.915 66.7361 129.643 67.0954 129.087 67.5694C127.767 68.6821 122.827 75.5977 112.44 90.8559C102.053 106.074 65.904 160.002 61.6915 166.558L58.8795 170.929L58.3717 180.03C57.7355 192.07 58.0723 192.389 63.0975 184.681C64.8402 182.016 66.4172 179.871 66.6311 179.871C66.8449 179.871 68.0371 180.31 69.3147 180.903C73.6182 182.769 77.6597 183.523 83.7058 183.568C89.8376 183.608 93.6652 182.894 99.5029 180.624C113.295 175.26 124.923 162.542 130.242 146.889C135.86 130.478 133.476 113.549 123.773 101.07C122.453 99.3582 121.389 97.8114 121.389 97.6518C121.389 97.4921 122.581 95.5861 124.073 93.4006C128.328 87.1636 132.883 80.0085 136.673 73.6118C139.779 68.4077 140.121 67.6093 139.57 67.0954C138.806 66.4218 136.208 66.2222 132.631 66.5765H132.621Z" fill="#F05341"/>
<path d="M53.0045 223.624C50.7058 225.371 47.1294 227.995 45.0873 229.427C42.1096 231.533 41.3826 232.251 41.5537 232.885C43.6385 242.7 45.809 250.054 47.0439 251.641C47.5999 252.315 47.7709 252.315 48.792 251.801C50.7058 250.848 61.5205 238.289 63.6482 234.517C65.4818 231.259 65.3535 230.74 60.3712 223.47C59.2218 221.803 58.0297 220.411 57.7731 220.411C57.4737 220.411 55.3033 221.843 53.0045 223.629V223.624Z" fill="#FBC4AF"/>
<path d="M144.27 226.164C142.949 227.157 141.169 229.502 140.998 229.941C140.656 231.014 142.249 231.807 145.312 235.225C150.759 241.223 154.298 244.246 155.87 244.246C156.554 244.246 161.36 240.205 161.36 239.566C161.36 239.287 158.762 236.852 156.036 234.072C153.358 231.293 150.332 228.075 149.396 226.917C148.461 225.725 147.092 224.562 146.873 224.373C146.467 224.023 145.627 225.206 144.264 226.159L144.27 226.164Z" fill="#FBC4AF"/>
<path d="M37.0417 468.09C35.7641 469.003 34.1496 470.156 33.4653 470.675L32.2732 471.548L35.0851 475.879C37.8115 480.05 43.259 487.485 52.4111 499.565C54.881 502.823 59.179 508.546 61.9054 512.283C64.6318 515.98 67.3101 519.558 67.8661 520.192L68.8444 521.344L72.1214 519.279C73.907 518.166 75.3985 517.133 75.3985 516.973C75.3985 516.854 73.2708 513.675 70.6727 509.938C68.1174 506.201 62.3278 497.778 57.9014 491.222C50.5401 480.415 40.2332 466.384 39.6398 466.384C39.5115 466.384 38.3622 467.177 37.0417 468.095V468.09Z" fill="#FFFEFC"/>
<path d="M62.9265 466.623C61.991 467.536 63.1404 480.215 64.5891 484.905C66.3319 490.668 69.951 496.586 72.763 498.377C74.7196 499.61 74.9762 499.61 74.9762 498.377C74.9762 497.823 74.8051 497.384 74.5913 497.384C73.9925 497.384 70.5872 492.814 69.1438 490.035C66.5457 485.185 65.4391 481.093 64.5463 473.105C63.9102 467.661 63.5253 466.07 62.9265 466.628V466.623Z" fill="#FFFEFC"/>
<path d="M138.966 494.675C139.052 495.388 140.073 499.365 141.222 503.457C143.649 512.198 143.901 511.405 138.197 513.111C134.535 514.224 129.638 514.738 128.66 514.144C128.275 513.905 127.933 512.398 127.719 509.853C127.083 503.337 126.441 498.487 126.013 497.494C125.548 496.341 124.613 496.701 124.95 497.928C125.035 498.367 125.377 501.785 125.634 505.517C126.27 514.179 126.527 515.132 128.403 515.891C129.21 516.205 130.317 516.445 130.873 516.445C132.193 516.445 143.516 513.346 144.243 512.787C144.542 512.548 144.799 511.674 144.799 510.836C144.799 507.738 140.201 493.393 139.18 493.393C138.924 493.393 138.838 493.946 138.966 494.665V494.675Z" fill="#FFFEFC"/>
<path d="M146.504 519.673C141.351 522.173 136.625 523.21 130.114 523.17C127.558 523.17 124.239 522.931 122.833 522.656L120.192 522.138L119.978 523.565C119.85 524.358 119.593 526.269 119.47 527.776C119.213 530.201 119.256 530.635 119.94 531.194C121.983 532.82 126.666 533.379 133.182 532.74C143.27 531.748 155.025 527.616 155.025 525.111C155.025 524.238 151.235 517.602 150.813 517.682C150.685 517.682 148.728 518.595 146.509 519.668L146.504 519.673Z" fill="#FFFEFC"/>
<path d="M114.739 56.4426C114.525 57.0014 116.059 69.201 116.487 70.3137C116.872 71.1469 118.321 71.2268 118.657 70.3935C118.914 69.7998 117.807 63.917 116.444 58.5532C115.765 56.0085 115.209 55.295 114.739 56.4476V56.4426Z" fill="#EBA123"/>
<path d="M109.462 60.1397C109.462 63.1584 110.398 69.7547 110.954 70.5929C111.296 71.1118 112.317 71.1118 112.659 70.5929C112.916 70.2337 112.232 66.4615 110.697 59.1468C110.441 58.0341 110.061 57.0811 109.847 57.0811C109.633 57.0811 109.462 58.4732 109.462 60.1397Z" fill="#EBA123"/>
<path d="M104.143 57.8744C103.801 58.3933 105.121 68.602 105.677 70.074C106.105 71.1068 107.255 71.3064 107.591 70.4332C107.72 70.1139 107.335 67.2947 106.699 64.1563C105.635 58.7126 104.865 56.8066 104.143 57.8793V57.8744Z" fill="#EBA123"/>
<path d="M98.9899 58.8672C98.6531 59.6606 99.5886 68.7217 100.097 70.034C100.524 71.0668 101.716 71.3063 102.058 70.4331C102.443 69.4801 100.353 58.5479 99.8025 58.3533C99.5031 58.2734 99.1182 58.5129 98.9899 58.8722V58.8672Z" fill="#EBA123"/>
<path d="M93.7509 63.5175C93.7936 68.2876 94.4298 71.1067 95.5364 71.3063C96.7285 71.5458 96.8568 70.3533 96.1298 65.4235C95.3226 60.0996 95.1087 59.4609 94.2961 59.4609C93.831 59.4609 93.7027 60.2942 93.7455 63.5125L93.7509 63.5175Z" fill="#EBA123"/>
<path d="M62.7127 103.814C62.4988 104.248 62.0765 107.945 61.8199 112.117C61.5633 116.248 61.1356 122.33 60.9271 125.628C60.6705 128.887 60.2054 135.802 59.8205 140.927C59.0561 151.974 57.7784 166.718 56.8856 174.507C56.2922 179.831 55.3941 193.382 55.3941 197.554C55.3941 199.539 55.3941 199.579 52.7533 201.331C49.4335 203.516 40.5753 211.744 37.726 215.237C35.2989 218.176 31.1292 225.65 31.1292 227.037C31.1292 228.424 31.8134 228.15 32.8773 226.324L33.8556 224.732L36.8813 227.711C38.8807 229.737 40.2011 230.73 40.8426 230.73C42.6282 230.73 41.8637 229.298 38.3301 226.199L34.9247 223.18L36.2452 221.394C36.9669 220.401 37.6511 219.608 37.7367 219.608C37.8222 219.608 39.1426 221.12 40.6716 222.946C43.6118 226.483 45.4401 228.075 46.0816 227.716C47.1882 227.082 45.825 225.131 41.1848 220.486C39.0999 218.42 39.0571 218.34 39.6933 217.307C40.0301 216.714 40.586 216.195 40.9282 216.155C41.3131 216.115 43.0558 217.901 44.975 220.206C46.9369 222.552 48.6797 224.338 49.1501 224.338C50.5989 224.418 49.8718 222.911 45.7876 217.422L43.1093 213.765L44.2586 212.732L45.4508 211.659L47.108 213.765C51.9193 219.882 53.7048 221.474 53.7048 219.683C53.7048 219.283 52.3416 216.863 50.7272 214.319L47.7014 209.628L48.6797 208.875C49.2357 208.436 49.7863 208.122 49.9146 208.082C50.0857 208.082 51.6199 210.227 53.3199 212.852C55.0627 215.476 56.597 217.622 56.8108 217.622C57.5753 217.622 56.9391 215.516 54.9771 211.859C53.8278 209.673 52.6357 207.568 52.3363 207.169C51.8658 206.575 51.9514 206.335 53.058 205.502C53.7797 204.983 54.4639 204.549 54.5923 204.509C54.7206 204.509 56.1212 207.288 57.741 210.666C60.4674 216.509 61.7023 218.016 61.4884 215.396C61.4029 214.763 60.5957 211.819 59.612 208.88C58.6337 205.941 57.8693 203.197 57.9067 202.798C57.9495 202.438 57.9922 201.525 58.035 200.812C58.2488 193.777 58.9278 182.929 59.441 178.084C60.291 169.742 60.8469 163.659 61.1463 159.009C61.2746 156.823 61.574 152.692 61.7825 149.868C63.8674 123.917 64.6372 104.487 63.6161 103.574C63.274 103.215 63.0601 103.255 62.7233 103.814H62.7127Z" fill="#EBA123"/>
<path d="M141.137 105.6C141.736 110.45 145.312 126.142 149.268 140.926C151.438 149.114 153.865 158.61 154.592 161.988L155.956 168.145L155.277 178.478C154.849 184.161 154.298 191.391 153.956 194.57C153.614 197.748 153.235 202.119 153.106 204.304C152.978 206.49 152.636 210.147 152.385 212.413L151.957 216.584L149.829 218.969C147.402 221.673 146.723 222.866 147.06 223.739C147.568 225.011 148.637 224.298 150.765 221.394C152.85 218.495 153.149 218.335 154.726 219.089C154.897 219.208 153.962 220.361 152.684 221.713C150.471 224.018 149.492 225.685 150.043 226.204C150.679 226.798 152.171 225.685 154.384 222.986C155.704 221.354 156.896 220.007 156.982 220.007C157.068 220.007 157.789 220.286 158.596 220.68L160.088 221.319L157.618 223.824C153.999 227.516 152.636 229.467 153.272 230.061C153.999 230.734 154.892 230.101 157.362 227.117C158.554 225.69 160.002 223.979 160.596 223.225L161.702 221.913L163.488 222.786L165.322 223.619L162.809 226.084C159.275 229.582 157.148 232.082 157.148 232.84C157.148 233.993 158.04 233.993 159.361 232.88C160.296 232.007 165.958 225.57 166.77 224.458C166.856 224.338 169.497 225.49 169.876 225.81C169.962 225.89 168.262 227.716 166.043 229.821C163.83 231.967 161.788 234.192 161.446 234.791C160.847 235.904 161.018 237.096 161.831 237.096C162.387 237.096 165.829 233.718 168.941 230.061C171.496 227.117 172.175 226.763 173.581 227.716C174.345 228.275 174.089 228.549 169.149 233.239C165.231 237.016 163.953 238.443 163.953 239.237C163.953 241.702 166.679 239.676 173.233 232.246C175.789 229.347 175.96 229.268 177.109 229.662C178.387 230.096 179.707 229.821 179.707 229.103C179.707 227.157 162.804 218.415 157.057 217.422C154.63 216.983 154.63 216.948 155.271 213.051C155.571 211.065 156.036 206.255 156.292 202.324C156.549 198.392 156.929 193.742 157.142 191.99C157.65 188.413 158.634 171.682 158.634 167.152C158.634 165.52 158.463 163.335 158.292 162.302C157.95 160.551 157.992 160.396 158.928 160.236C165.701 159.044 170.128 157.612 174.468 155.152C176.382 154.079 176.724 153.68 176.639 152.847C176.425 151.18 174.677 151.335 169.572 153.6C165.445 155.386 161.184 156.739 160.804 156.379C160.719 156.299 162.718 154.473 165.316 152.328C170.427 148.037 171.405 146.724 170.213 145.891C169.785 145.612 169.064 145.452 168.636 145.572C168.166 145.692 165.359 147.877 162.376 150.462C159.398 153.046 156.843 155.112 156.672 154.992C156.501 154.912 156.287 154.438 156.164 153.959C156.079 153.44 153.823 145.178 151.224 135.563C145.307 113.748 142.195 103.494 141.431 103.255C140.96 103.095 140.875 103.534 141.131 105.6H141.137Z" fill="#EBA123"/>
<path d="M67.4383 228.429C66.9679 228.948 64.6691 231.767 62.3276 234.706C58.2808 239.831 52.705 246.187 48.6582 250.324C46.4878 252.549 46.3167 253.981 48.2305 253.981C51.1708 253.981 70.4534 229.542 68.7534 227.95C68.454 227.671 68.0745 227.831 67.433 228.424L67.4383 228.429Z" fill="#EFE6D7"/>
<path d="M112.445 227.915C112.445 228.115 112.916 231.533 113.509 235.544C115.043 246.077 114.958 246.985 112.274 252.634C111.381 254.54 111.253 254.659 111.039 253.786C106.784 233.838 105.378 228.634 104.229 228.434C103.208 228.235 103.293 229.826 104.571 236.542C105.164 239.561 106.02 244.012 106.485 246.437C106.955 248.822 108.104 256.331 108.997 263.127C111.98 284.941 112.916 291.183 114.407 299.885C116.364 311.052 119.555 327.662 120.325 330.721C120.667 332.028 121.432 336.324 122.031 340.256C122.624 344.148 123.565 349.597 124.158 352.336C124.752 355.075 125.778 360.444 126.5 364.256C127.221 368.073 128.462 373.991 129.269 377.369C130.076 380.747 131.397 386.665 132.204 390.482C133.016 394.299 134.08 399.223 134.545 401.409C135.016 403.594 136.293 409.477 137.357 414.522C143.275 442.738 147.236 459.742 148.215 461.214C149.236 462.761 149.107 460.621 147.83 455.531C147.065 452.433 145.403 445.163 144.125 439.36C142.847 433.557 141.019 425.409 140.126 421.278C139.191 417.106 138.421 413.608 138.421 413.409C138.421 413.249 138.72 413.129 139.057 413.129C139.565 413.129 139.651 412.81 139.485 411.618C137.737 399.777 136.887 394.848 135.609 389.683C131.862 374.225 131.14 370.848 129.098 359.481C127.906 352.805 126.842 346.962 126.714 346.528C126.542 345.735 126.713 345.655 130.461 345.495C136.929 345.176 139.87 343.35 134.973 342.711C131.311 342.237 126.077 341.119 126.077 340.805C126.077 340.685 126.585 340.131 127.184 339.573C127.777 339.059 129.525 336.793 131.017 334.528C133.695 330.596 134.465 328.566 133.53 328.211C133.273 328.131 131.188 329.838 128.932 332.023C125.398 335.361 124.757 335.801 124.591 335.087C122.079 323.641 117.053 294.671 114.119 275.002L111.863 259.864L112.798 258.791C113.905 257.439 117.011 250.049 117.567 247.504C117.781 246.392 117.781 244.446 117.524 242.654C117.059 239.037 114.375 228.868 113.691 228.11C113.14 227.476 112.456 227.396 112.456 227.91L112.445 227.915Z" fill="#EFE6D7"/>
<path d="M137.731 228.115C137.395 228.908 137.945 229.747 141.907 234.392C148.338 241.981 155.191 248.937 157.49 250.289C158.639 250.962 159.11 251.047 159.96 250.648C160.51 250.408 160.981 249.89 160.981 249.535C160.981 249.136 157.918 245.878 154.127 242.305C150.38 238.728 145.569 233.998 143.398 231.777C139.565 227.806 138.202 226.927 137.737 228.12L137.731 228.115Z" fill="#EFE6D7"/>
<path d="M81.3645 389.449C81.3645 390.088 84.556 402.761 86.9403 411.623C87.833 415.041 90.1318 422.909 92.0082 429.106C93.8792 435.308 95.8412 442.219 96.3116 444.524C98.3965 454.419 100.23 460.022 101.422 460.022C102.614 460.022 99.888 445.517 96.4827 433.238C90.522 411.777 88.0522 403.116 86.9028 399.578C85.1173 394.174 82.6903 388.89 81.9632 388.89C81.6265 388.89 81.3699 389.13 81.3699 389.444L81.3645 389.449Z" fill="#EFE6D7"/>
<path d="M131.049 71.4662C124.661 79.8088 110.697 100.516 96.2633 123.049C88.6454 134.929 78.6379 150.227 71.4424 161.119C59.9915 178.284 59.35 179.401 60.4994 180.075C60.7132 180.195 61.221 179.955 61.6487 179.556C62.0764 179.157 66.5456 172.64 71.5707 165.051C82.6848 148.281 89.9231 137.434 99.6687 123.049C120.02 92.8866 133.727 71.3913 133.727 69.64C133.727 68.4475 132.963 69.0013 131.044 71.4662H131.049Z" fill="#EC4731"/>
<path d="M116.444 121.776C115.723 122.21 104.822 137.633 97.5412 148.481C93.9648 153.845 89.239 160.84 87.0258 164.098C84.5132 167.716 83.0645 170.181 83.2356 170.575C83.9626 172.321 84.9837 171.009 99.8399 149.074C103.416 143.83 107.42 137.828 108.826 135.762C110.19 133.697 111.382 131.91 111.467 131.83C111.553 131.711 112.232 132.07 113.001 132.584C117.214 135.563 118.449 136.161 119.304 135.722C120.961 134.889 120.111 133.736 116.621 131.99C114.787 131.077 113.215 130.244 113.044 130.084C112.916 129.964 113.771 128.218 115.006 126.272C117.006 122.974 117.647 121.023 116.455 121.781L116.444 121.776Z" fill="#FFFEFC"/>
</g>
<defs>
<clipPath id="clip0_102_497">
<rect width="201" height="533" fill="white"/>
</clipPath>
</defs>
</svg>
