<svg width="77" height="48" viewBox="0 0 77 48" fill="none" xmlns="http://www.w3.org/2000/svg">
<g id="Payment Method/ApplePay">
<rect id="BASE" x="0.5" y="0.5" width="76" height="47" rx="5.5" fill="white" stroke="#FFF9F5"/>
<path id="ApplePay" fill-rule="evenodd" clip-rule="evenodd" d="M18.3617 17.8659C19.3958 17.9452 20.4298 17.3901 21.0761 16.6863C21.7117 15.9627 22.1318 14.9913 22.0241 14C21.1085 14.0397 19.9774 14.5551 19.3311 15.2787C18.7387 15.9032 18.2324 16.9143 18.3617 17.8659ZM30.663 30.6333V15.1796H36.9645C40.2176 15.1796 42.4904 17.2414 42.4904 20.2548C42.4904 23.2683 40.1745 25.3499 36.8783 25.3499H33.2698V30.6333H30.663ZM22.0132 18.0542C21.1022 18.006 20.2709 18.3064 19.5995 18.549C19.1674 18.7051 18.8015 18.8373 18.5232 18.8373C18.2108 18.8373 17.8298 18.6981 17.402 18.5417L17.402 18.5417C16.8415 18.3368 16.2006 18.1025 15.5286 18.1137C13.9882 18.1335 12.5556 18.9365 11.7692 20.2152C10.1535 22.7726 11.3492 26.5593 12.9111 28.6409C13.6759 29.6718 14.5915 30.8018 15.7979 30.7622C16.3287 30.7438 16.7104 30.5947 17.1056 30.4404C17.5605 30.2628 18.033 30.0782 18.7709 30.0782C19.4832 30.0782 19.9351 30.2579 20.3689 30.4305C20.7813 30.5945 21.1774 30.752 21.7655 30.7424C23.015 30.7225 23.8013 29.7115 24.5661 28.6806C25.3915 27.5741 25.7541 26.4943 25.8092 26.3304L25.8156 26.3114C25.8143 26.3102 25.8041 26.3059 25.7861 26.2984C25.5102 26.1821 23.4014 25.2937 23.3812 22.9114C23.3609 20.9118 25.0539 19.8987 25.3204 19.7392C25.3366 19.7295 25.3475 19.723 25.3525 19.7196C24.2753 18.2525 22.5949 18.0939 22.0132 18.0542ZM47.2517 30.7523C48.889 30.7523 50.4078 29.989 51.0972 28.7797H51.1511V30.6333H53.5639V22.9412C53.5639 20.7108 51.625 19.2735 48.6412 19.2735C45.8729 19.2735 43.8262 20.7307 43.7508 22.733H46.0991C46.293 21.7814 47.2517 21.1569 48.5658 21.1569C50.1601 21.1569 51.0541 21.8409 51.0541 23.0998V23.9522L47.801 24.1307C44.7742 24.2992 43.1369 25.4391 43.1369 27.4217C43.1369 29.424 44.828 30.7523 47.2517 30.7523ZM47.9517 28.9185C46.5621 28.9185 45.6788 28.3039 45.6788 27.3622C45.6788 26.3908 46.5298 25.8257 48.1563 25.7365L51.0539 25.568V26.4403C51.0539 27.8876 49.7182 28.9185 47.9517 28.9185ZM61.5673 31.238C60.5224 33.9442 59.3267 34.8363 56.7846 34.8363C56.5907 34.8363 55.9444 34.8165 55.7936 34.7768V32.9232C55.9552 32.943 56.3537 32.9628 56.5584 32.9628C57.711 32.9628 58.3573 32.5167 58.7558 31.357L58.9928 30.673L54.5764 19.4222H57.3016L60.3716 28.5517H60.4255L63.4954 19.4222H66.1453L61.5673 31.238ZM33.2696 17.2018H36.2749C38.537 17.2018 39.8296 18.312 39.8296 20.2648C39.8296 22.2175 38.537 23.3377 36.2641 23.3377H33.2696V17.2018Z" fill="black"/>
</g>
</svg>
