<svg width="78" height="48" viewBox="0 0 78 48" fill="none" xmlns="http://www.w3.org/2000/svg">
<rect width="78" height="48" rx="6" fill="white"/>
<path d="M66.7011 42H11.2989C9.89387 41.9979 8.54718 41.5232 7.55392 40.6801C6.56067 39.837 6.00187 38.6941 6 37.502V10.5C6.00125 9.30754 6.55977 8.16417 7.55309 7.3206C8.54641 6.47703 9.89346 6.00212 11.2989 6H66.7011C68.1061 6.00212 69.4528 6.47676 70.4461 7.31989C71.4393 8.16303 71.9981 9.30589 72 10.498V37.5C72.0015 38.091 71.8656 38.6764 71.5999 39.2227C71.3342 39.769 70.944 40.2654 70.4517 40.6835C69.9594 41.1016 69.3747 41.4331 68.7311 41.659C68.0875 41.8849 67.3976 42.0008 66.7011 42Z" fill="#00A6ED"/>
<path d="M56.4092 30H14.5181C14.134 29.9984 13.7662 29.868 13.4951 29.6372C13.2239 29.4063 13.0714 29.0939 13.0708 28.768V23.232C13.0708 22.566 13.7119 22 14.5181 22H56.4092C57.1918 22 57.8565 22.546 57.8565 23.232V28.788C57.8556 28.9483 57.8174 29.1068 57.7441 29.2546C57.6708 29.4023 57.5639 29.5363 57.4294 29.6489C57.2949 29.7615 57.1356 29.8505 56.9605 29.9107C56.7855 29.971 56.5981 30.0013 56.4092 30Z" fill="#F4F4F4"/>
<path d="M61.0478 38H65.2765C65.541 38.0014 65.8031 37.9581 66.0478 37.8729C66.2924 37.7876 66.5147 37.662 66.7017 37.5033C66.8887 37.3446 67.0368 37.156 67.1373 36.9485C67.2378 36.7409 67.2887 36.5184 67.2871 36.294V32.706C67.2887 32.4816 67.2378 32.2592 67.1373 32.0516C67.0368 31.844 66.8887 31.6554 66.7017 31.4967C66.5147 31.3381 66.2924 31.2125 66.0478 31.1272C65.8031 31.0419 65.541 30.9987 65.2765 31H61.0478C60.7833 30.9987 60.5211 31.0419 60.2765 31.1272C60.0319 31.2125 59.8096 31.3381 59.6226 31.4967C59.4355 31.6554 59.2875 31.844 59.187 32.0516C59.0865 32.2592 59.0356 32.4816 59.0371 32.706V36.294C59.0415 36.7454 59.2547 37.1772 59.6308 37.4963C60.007 37.8155 60.5159 37.9964 61.0478 38Z" fill="#FFF478"/>
<path d="M72 12H6V18H72V12Z" fill="#321B41"/>
<path d="M15.4292 26C15.4292 25.7348 15.5534 25.4804 15.7744 25.2929C15.9954 25.1054 16.2952 25 16.6078 25H42.5363C42.8489 25 43.1487 25.1054 43.3697 25.2929C43.5907 25.4804 43.7149 25.7348 43.7149 26C43.7149 26.2652 43.5907 26.5196 43.3697 26.7071C43.1487 26.8946 42.8489 27 42.5363 27H16.6078C16.2952 27 15.9954 26.8946 15.7744 26.7071C15.5534 26.5196 15.4292 26.2652 15.4292 26Z" fill="#9B9B9B"/>
</svg>
