<svg width="78" height="48" viewBox="0 0 78 48" fill="none" xmlns="http://www.w3.org/2000/svg">
<g id="Payment Method/GooglePay">
<rect id="BASE" x="1.1665" y="0.5" width="76" height="47" rx="5.5" fill="white" stroke="#FFF9F5"/>
<g id="GooglePay">
<g id="Pay">
<path id="Union" fill-rule="evenodd" clip-rule="evenodd" d="M37.0327 31.5162V25.4743H40.4629C41.8685 25.4743 43.0549 25.0461 44.022 24.2017L44.2541 23.9876C46.0208 22.2392 45.9048 19.5156 44.022 17.8981C43.0807 17.0418 41.7911 16.5779 40.4629 16.6017H34.9565V31.5162H37.0327ZM37.0329 23.6426V18.4333H40.5153C41.2633 18.4333 41.9727 18.6949 42.5015 19.1707C43.6236 20.1697 43.6494 21.8348 42.566 22.8696C42.0372 23.381 41.2891 23.6664 40.5153 23.6426H37.0329ZM53.9387 22.1084C53.0489 21.3591 51.8367 20.9785 50.3021 20.9785C48.3291 20.9785 46.8462 21.6446 45.8661 22.9647L47.6973 24.0233C48.3678 23.1194 49.2834 22.6674 50.444 22.6674C51.179 22.6674 51.8883 22.9172 52.4428 23.3691C52.9844 23.7973 53.2939 24.4158 53.2939 25.0699V25.51C52.4944 25.1056 51.4885 24.8915 50.2506 24.8915C48.8063 24.8915 47.6457 25.2007 46.7817 25.8311C45.9177 26.4614 45.4793 27.294 45.4793 28.3525C45.4535 29.3159 45.9048 30.2317 46.7043 30.8502C47.5167 31.5162 48.5484 31.8492 49.7605 31.8492C51.1919 31.8492 52.3267 31.2664 53.1907 30.1009H53.281V31.5162H55.2669V25.2245C55.2669 23.9043 54.8284 22.8577 53.9387 22.1084ZM48.3037 29.637C47.8781 29.3516 47.6202 28.8877 47.6202 28.3882C47.6202 27.8292 47.9039 27.3653 48.4585 26.9966C49.026 26.6279 49.7353 26.4376 50.5737 26.4376C51.7344 26.4258 52.6373 26.6636 53.2821 27.1394C53.2821 27.9481 52.9339 28.6498 52.2503 29.2445C51.6313 29.8154 50.7929 30.1365 49.9159 30.1365C49.3355 30.1484 48.768 29.97 48.3037 29.637ZM59.7287 36L66.6665 21.3116H64.4098L61.1988 28.638H61.1601L57.8718 21.3116H55.6151L60.1672 30.862L57.5881 36H59.7287Z" fill="#3C4043"/>
</g>
<g id="G">
<path id="Blue" d="M29.8653 24.1659C29.8653 23.5831 29.8137 23.0003 29.7106 22.4294H20.9546V25.7239H25.9709C25.7646 26.7825 25.094 27.734 24.114 28.3286V30.4695H27.1057C28.8595 28.9828 29.8653 26.7825 29.8653 24.1659Z" fill="#4285F4"/>
<path id="Green" d="M20.9548 32.539C23.4566 32.539 25.5714 31.7778 27.106 30.4695L24.1142 28.3287C23.276 28.852 22.2057 29.1493 20.9548 29.1493C18.5305 29.1493 16.4801 27.6388 15.7451 25.6169H12.6631V27.8291C14.2363 30.7193 17.4473 32.539 20.9548 32.539Z" fill="#34A853"/>
<path id="Yellow" d="M15.7453 25.6169C15.3584 24.5584 15.3584 23.4048 15.7453 22.3343V20.134H12.6628C11.3344 22.5484 11.3344 25.4029 12.6628 27.8172L15.7453 25.6169Z" fill="#FBBC04"/>
<path id="Red" d="M20.9548 18.802C22.2831 18.7782 23.5597 19.2421 24.514 20.0865L27.1704 17.6365C25.4811 16.1855 23.2631 15.3886 20.9548 15.4124C17.4473 15.4124 14.2363 17.244 12.6631 20.1341L15.7451 22.3463C16.4801 20.3125 18.5305 18.802 20.9548 18.802Z" fill="#EA4335"/>
</g>
</g>
</g>
</svg>
