<svg width="78" height="48" viewBox="0 0 78 48" fill="none" xmlns="http://www.w3.org/2000/svg">
<rect x="0.833496" y="0.5" width="76" height="47" rx="5.5" fill="white" stroke="#FFF9F5"/>
<path fill-rule="evenodd" clip-rule="evenodd" d="M22.1135 30.4819H18.6912C18.457 30.4819 18.2578 30.6367 18.2213 30.8468L16.8371 38.8249C16.8096 38.9824 16.9437 39.1243 17.1193 39.1243H18.7532C18.9874 39.1243 19.1866 38.9695 19.2231 38.759L19.5964 36.6072C19.6324 36.3965 19.8321 36.2419 20.0658 36.2419H21.1492C23.4036 36.2419 24.7047 35.2502 25.0446 33.2849C25.1977 32.4251 25.0511 31.7495 24.6081 31.2762C24.1218 30.7569 23.2589 30.4819 22.1135 30.4819ZM22.5084 33.3958C22.3212 34.5123 21.3829 34.5123 20.4757 34.5123H19.9592L20.3215 32.4272C20.343 32.3013 20.4631 32.2085 20.6033 32.2085H20.84C21.458 32.2085 22.041 32.2085 22.3423 32.5287C22.5218 32.7198 22.5769 33.0036 22.5084 33.3958ZM32.3438 33.36H30.7049C30.5652 33.36 30.4446 33.4529 30.423 33.579L30.3506 33.9956L30.2359 33.8447C29.8812 33.3765 29.0901 33.22 28.3004 33.22C26.4892 33.22 24.9425 34.467 24.6412 36.2163C24.4847 37.0887 24.7072 37.923 25.2516 38.5049C25.7512 39.0398 26.4658 39.2628 27.3159 39.2628C28.7751 39.2628 29.5845 38.4097 29.5845 38.4097L29.5113 38.8239C29.4838 38.9822 29.6178 39.1241 29.7925 39.1241H31.2688C31.5036 39.1241 31.7016 38.9693 31.7387 38.7588L32.6244 33.6594C32.6525 33.5026 32.5188 33.36 32.3438 33.36ZM30.0592 36.2598C29.9011 37.111 29.1579 37.6824 28.2103 37.6824C27.7344 37.6824 27.3539 37.5436 27.1098 37.2807C26.8676 37.0196 26.7754 36.6478 26.8526 36.2339C27.0003 35.3899 27.7559 34.8 28.6892 34.8C29.1545 34.8 29.5329 34.9405 29.782 35.2057C30.0317 35.4737 30.1308 35.8476 30.0592 36.2598ZM39.4252 33.3598H41.0722C41.3029 33.3598 41.4374 33.595 41.3064 33.767L35.8288 40.9548C35.7401 41.0712 35.594 41.1405 35.4379 41.1405H33.793C33.5614 41.1405 33.4262 40.9034 33.5603 40.731L35.2658 38.5424L33.4519 33.7028C33.3891 33.5346 33.5257 33.3598 33.7226 33.3598H35.3409C35.5511 33.3598 35.7366 33.4853 35.7973 33.6683L36.76 36.5912L39.0316 33.5495C39.1205 33.4308 39.2682 33.3598 39.4252 33.3598Z" fill="#253B80"/>
<path fill-rule="evenodd" clip-rule="evenodd" d="M57.2814 38.8248L58.6859 30.7008C58.7075 30.5747 58.8277 30.4819 58.9673 30.4814H60.5485C60.7231 30.4814 60.8572 30.6238 60.8297 30.7812L59.4446 38.7589C59.4085 38.9695 59.2093 39.1242 58.9747 39.1242H57.5625C57.3879 39.1242 57.2538 38.9823 57.2814 38.8248ZM46.5248 30.4819H43.1018C42.8681 30.4819 42.669 30.6366 42.6324 30.8467L41.2482 38.8248C41.2207 38.9823 41.3548 39.1242 41.5296 39.1242H43.2859C43.4492 39.1242 43.5888 39.016 43.6143 38.8686L44.007 36.6071C44.0432 36.3964 44.2428 36.2419 44.4764 36.2419H45.5593C47.8142 36.2419 49.115 35.2501 49.4552 33.2848C49.6087 32.425 49.4612 31.7494 49.0184 31.2762C48.5323 30.7568 47.6702 30.4819 46.5248 30.4819ZM46.9196 33.3958C46.733 34.5122 45.7946 34.5122 44.8868 34.5122H44.3708L44.7337 32.4271C44.7553 32.3012 44.8743 32.2084 45.0149 32.2084H45.2515C45.8692 32.2084 46.4527 32.2084 46.7538 32.5286C46.9335 32.7198 46.9882 33.0036 46.9196 33.3958ZM56.7541 33.36H55.1164C54.9756 33.36 54.8561 33.4528 54.835 33.5789L54.7625 33.9956L54.6474 33.8446C54.2926 33.3764 53.502 33.22 52.7123 33.22C50.9012 33.22 49.3549 34.4669 49.0536 36.2162C48.8975 37.0886 49.1192 37.9229 49.6636 38.5048C50.164 39.0398 50.8778 39.2627 51.7279 39.2627C53.1871 39.2627 53.9962 38.4097 53.9962 38.4097L53.9233 38.8238C53.8957 38.9821 54.0298 39.124 54.2056 39.124H55.6812C55.9149 39.124 56.114 38.9693 56.1506 38.7587L57.0369 33.6593C57.064 33.5025 56.9299 33.36 56.7541 33.36ZM54.4698 36.2598C54.3126 37.1109 53.5685 37.6823 52.6206 37.6823C52.1457 37.6823 51.7645 37.5436 51.5202 37.2806C51.2779 37.0196 51.1869 36.6478 51.2631 36.2339C51.4116 35.3899 52.1663 34.8 53.0995 34.8C53.565 34.8 53.9432 34.9404 54.1926 35.2057C54.4432 35.4737 54.5423 35.8476 54.4698 36.2598Z" fill="#179BD7"/>
<path d="M34.7788 27.6279L35.1996 25.1984L34.2624 25.1786H29.7871L32.8972 7.25093C32.9067 7.19681 32.9382 7.14634 32.9841 7.11051C33.0299 7.07468 33.0887 7.05493 33.1499 7.05493H40.6959C43.2011 7.05493 44.9299 7.52885 45.8326 8.46424C46.2557 8.90306 46.5252 9.36161 46.6556 9.86624C46.7922 10.3958 46.7948 11.0284 46.6611 11.8L46.6514 11.8563V12.3506L47.0747 12.5686C47.4312 12.7405 47.7141 12.9372 47.9314 13.1625C48.2936 13.5376 48.5277 14.0145 48.6266 14.5798C48.7287 15.1612 48.6949 15.8531 48.5277 16.6364C48.3345 17.5374 48.0224 18.3222 47.6009 18.9643C47.213 19.556 46.719 20.0466 46.1327 20.427C45.5727 20.7883 44.9074 21.0626 44.1552 21.2382C43.4262 21.4106 42.5953 21.4977 41.6838 21.4977H41.0965C40.6767 21.4977 40.2686 21.6352 39.9486 21.8817C39.6276 22.1333 39.415 22.4769 39.35 22.8529L39.3057 23.0716L38.5624 27.3535L38.5285 27.5108C38.5197 27.5607 38.5045 27.5855 38.482 27.6024C38.4618 27.6175 38.4329 27.6279 38.4046 27.6279H34.7788Z" fill="#253B80"/>
<path d="M47.4755 11.9136C47.4531 12.0445 47.4274 12.1783 47.3984 12.3158C46.4031 16.9606 42.9986 18.5652 38.6503 18.5652H36.4364C35.9047 18.5652 35.4565 18.9163 35.3736 19.3931L34.2401 25.9286L33.9191 27.781C33.8651 28.094 34.1308 28.3763 34.4781 28.3763H38.405C38.87 28.3763 39.2649 28.0692 39.3381 27.6523L39.3767 27.4709L40.1162 23.2056L40.1636 22.9717C40.2359 22.5534 40.6317 22.2462 41.0967 22.2462H41.684C45.4883 22.2462 48.4667 20.842 49.3372 16.7785C49.7008 15.0811 49.5125 13.6637 48.5503 12.6669C48.2592 12.3663 47.8979 12.1169 47.4755 11.9136Z" fill="#179BD7"/>
<path d="M46.434 11.5364C46.2821 11.4962 46.1251 11.4596 45.9641 11.4267C45.8025 11.3945 45.6367 11.366 45.4662 11.3411C44.8692 11.2534 44.2152 11.2117 43.5145 11.2117H37.5999C37.4543 11.2117 37.316 11.2416 37.1921 11.2958C36.9193 11.415 36.7167 11.6498 36.6676 11.9372L35.4092 19.182L35.373 19.3933C35.456 18.9165 35.9041 18.5654 36.4358 18.5654H38.6497C42.998 18.5654 46.4027 16.9601 47.3978 12.316C47.4275 12.1785 47.4525 12.0447 47.4749 11.9138C47.2232 11.7924 46.9504 11.6885 46.6568 11.6C46.5845 11.5781 46.5097 11.5569 46.434 11.5364Z" fill="#222D65"/>
<path d="M36.6678 11.9371C36.7169 11.6497 36.9198 11.4149 37.1924 11.2964C37.3172 11.2423 37.4547 11.2123 37.6002 11.2123H43.515C44.2157 11.2123 44.8697 11.254 45.4665 11.3418C45.6371 11.3666 45.803 11.3951 45.9646 11.4273C46.1255 11.4602 46.2823 11.4968 46.4345 11.537C46.51 11.5575 46.5848 11.5787 46.6579 11.5999C46.9516 11.6884 47.2244 11.793 47.4761 11.9137C47.7723 10.1972 47.4738 9.02849 46.453 7.97021C45.3275 6.80518 43.2961 6.3064 40.6969 6.3064H33.1506C32.6196 6.3064 32.1669 6.65743 32.0847 7.13501L28.9417 25.247C28.8796 25.6053 29.1837 25.9287 29.581 25.9287H34.24L35.4097 19.1819L36.6678 11.9371Z" fill="#253B80"/>
</svg>
