<svg width="40" height="40" viewBox="0 0 40 40" fill="none" xmlns="http://www.w3.org/2000/svg">
<path d="M20 35C17.2433 35 15 32.7567 15 30L15.0883 24.9117L10.03 25C7.24333 25 5 22.7567 5 20C5 17.2433 7.24333 15 10 15L15.0883 14.91L15 10.03C15 7.24333 17.2433 5 20 5C22.7567 5 25 7.24333 25 10L25.0917 14.91L30.03 15C32.7567 15 35 17.2433 35 20C35 22.7567 32.7567 25 30 25L25.0917 24.9117L25 30.03C25 32.7567 22.7567 35 20 35ZM18.3333 21.6667V30.03C18.3333 30.9183 19.0817 31.6667 20 31.6667C20.9183 31.6667 21.6667 30.9183 21.6667 30V21.6667H30.03C30.9183 21.6667 31.6667 20.9183 31.6667 20C31.6667 19.0817 30.9183 18.3333 30 18.3333H21.6667V10C21.6667 9.05167 20.9183 8.33333 20 8.33333C19.0817 8.33333 18.3333 9.08167 18.3333 10V18.3333H10C9.05167 18.3333 8.33333 19.0817 8.33333 20C8.33333 20.9183 9.08167 21.6667 10 21.6667H18.3333Z" fill="#262595"/>
</svg>
